<svg width="79" height="74" viewBox="0 0 79 74" fill="none" xmlns="http://www.w3.org/2000/svg">
<g clip-path="url(#clip0)">
<path d="M50.6 41.8005C49.6 41.3005 48.5 40.9005 47.5 40.5005C53.4 36.5005 57.4 29.8005 57.4 22.1005C57.4 9.90049 47.5 0.000488281 35.3 0.000488281C23.2 0.000488281 13.2 9.90049 13.2 22.1005C13.2 29.8005 17.1 36.5005 23.1 40.5005C9.7 45.5005 0 58.4005 0 73.6005H5.9C5.9 57.4005 19.1 44.2005 35.3 44.2005C39.8 44.2005 44.1 45.2005 48.1 47.1005L50.6 41.8005ZM19.1 22.1005C19.1 13.2005 26.4 5.90049 35.3 5.90049C44.2 5.90049 51.5 13.2005 51.5 22.1005C51.5 31.0005 44.2 38.3005 35.3 38.3005C26.4 38.3005 19.1 31.0005 19.1 22.1005Z" fill="#EDBD41"/>
<path d="M62.5996 43.1006C54.0996 43.1006 47.0996 50.0006 47.0996 58.6006C47.0996 67.1006 53.9996 74.1006 62.5996 74.1006C71.0996 74.1006 78.0996 67.2006 78.0996 58.6006C78.0996 50.0006 71.0996 43.1006 62.5996 43.1006ZM62.5996 69.6006C56.4996 69.6006 51.5996 64.6006 51.5996 58.6006C51.5996 52.6006 56.5996 47.6006 62.5996 47.6006C68.6996 47.6006 73.5996 52.6006 73.5996 58.6006C73.5996 64.6006 68.6996 69.6006 62.5996 69.6006Z" fill="#EDBD41"/>
<path d="M64.4067 52.0005H60.5933V56.5374H56V60.4636H60.5933V65.0005H64.4067V60.4636H69V56.5374H64.4067V52.0005Z" fill="#EDBD41"/>
</g>
<defs>
<clipPath id="clip0">
<rect width="78.1" height="74" fill="white" transform="translate(0 0.000488281)"/>
</clipPath>
</defs>
</svg>
