<svg width="91" height="83" viewBox="0 0 91 83" fill="none" xmlns="http://www.w3.org/2000/svg">
<g clip-path="url(#clip0)">
<path d="M58.828 19.1465C57.2806 15.4144 55.0842 12.0658 52.2639 9.17727C49.4435 6.28875 46.1739 4.03929 42.5299 2.45445C38.7611 0.818474 34.7427 0.000488281 30.6245 0.000488281C26.4814 0.000488281 22.4879 0.818474 18.6942 2.45445C15.0502 4.03929 11.7806 6.28875 8.96023 9.17727C6.13988 12.0658 3.9435 15.4144 2.39605 19.1465C0.798684 23.0319 0 27.1218 0 31.3651C0 35.6084 0.798684 39.6984 2.39605 43.5838C3.9435 47.3158 6.13988 50.6645 8.96023 53.553C11.7806 56.4415 15.0502 58.691 18.6942 60.2758C22.463 61.9118 26.4814 62.7298 30.6245 62.7298C34.7677 62.7298 38.7611 61.9118 42.5549 60.2758C46.1989 58.691 49.4685 56.4415 52.2888 53.553C55.1092 50.6645 57.3056 47.3158 58.853 43.5838C60.4504 39.7239 61.2491 35.6084 61.2491 31.3651C61.2491 27.1218 60.4254 23.0319 58.828 19.1465ZM15.749 30.3938C15.749 27.9398 16.0236 25.537 16.5727 23.2108H29.102V38.1391H16.6476C16.0485 35.5829 15.749 33.0011 15.749 30.3938ZM38.3119 9.76519C40.5332 12.4236 42.2803 15.2866 43.5532 18.3285C43.7778 18.8908 44.0025 19.4532 44.2021 20.0156H32.172V3.96261C33.5946 5.01065 35.9657 6.95337 38.3119 9.76519ZM29.0771 4.26935V20.0411H17.4712C17.6709 19.4788 17.8705 18.942 18.0952 18.4052C19.3431 15.3633 21.0902 12.5003 23.2866 9.84188C25.4331 7.26011 27.6045 5.39408 29.0771 4.26935ZM29.0771 41.2832V58.2053C27.6045 56.9016 25.508 54.8311 23.3865 52.0448C21.1651 49.1052 19.393 45.9866 18.1201 42.7658C17.9205 42.2801 17.7458 41.7689 17.571 41.2832H29.0771ZM32.172 58.5632V41.2832H44.1023C43.9276 41.7689 43.7529 42.229 43.5782 42.7147C42.3302 45.9099 40.5582 49.0285 38.3368 51.9681C35.9907 55.0356 33.6445 57.2851 32.172 58.5632ZM32.172 38.1135V23.2108H45.1007C45.6498 25.537 45.9243 27.9398 45.9243 30.3938C45.9243 33.0011 45.6248 35.5829 45.0008 38.1135H32.172ZM48.2455 23.2108H56.9811C57.7548 25.8182 58.1542 28.5533 58.1542 31.3651C58.1542 33.6657 57.8796 35.9407 57.3555 38.1135H48.1706C48.7197 35.5829 48.9943 33.0011 48.9943 30.3938C48.9943 27.9398 48.7447 25.537 48.2455 23.2108ZM50.0924 11.4267C52.5634 13.9574 54.5102 16.8714 55.8579 20.0667H47.4468C47.1473 19.0698 46.7979 18.0984 46.3985 17.1271C45.0258 13.7784 43.079 10.6343 40.6829 7.74579C39.435 6.23763 38.1871 4.98509 37.039 3.93704C41.9309 5.1129 46.4235 7.6691 50.0924 11.4267ZM11.1566 11.4267C14.9504 7.54129 19.6426 4.93396 24.7842 3.80923C23.6111 4.88284 22.3132 6.18651 21.0154 7.74579C18.5694 10.6087 16.6476 13.7784 15.2748 17.1271C14.8755 18.0984 14.5261 19.0698 14.2266 20.0667H5.39111C6.73889 16.8714 8.68569 13.9574 11.1566 11.4267ZM4.24301 23.2108H13.378C12.8788 25.5625 12.6292 27.9654 12.6292 30.3938C12.6292 33.0011 12.9037 35.5829 13.4528 38.1135H3.86862C3.34449 35.9152 3.06994 33.6657 3.06994 31.3651C3.06994 28.5533 3.46928 25.8182 4.24301 23.2108ZM11.1566 51.3035C8.33626 48.415 6.1898 44.9897 4.84202 41.2832H14.3264C14.6009 42.1779 14.9254 43.0725 15.2748 43.9672C16.6476 47.4437 18.5694 50.8179 20.9654 53.9875C22.5379 56.0581 24.0853 57.7707 25.4331 59.0744C20.042 58.0264 15.1001 55.3423 11.1566 51.3035ZM50.0924 51.3035C46.2737 55.2145 41.5066 57.8474 36.3401 58.9466C37.6629 57.6429 39.1854 55.9814 40.7079 53.962C43.104 50.7923 45.0258 47.4181 46.3985 43.9417C46.748 43.047 47.0475 42.1779 47.347 41.2576H56.407C55.0593 44.9897 52.9128 48.415 50.0924 51.3035Z" fill="#EDBD41"/>
<path d="M83.4621 82.5913C83.1875 82.5913 82.9629 82.489 82.7882 82.3101L75.3504 74.5137L70.733 80.5463C70.5583 80.7764 70.3337 80.8786 70.0591 80.8786C69.6348 80.8786 69.2105 80.5719 69.0857 80.1629L58.1288 49.923C58.004 49.5395 58.0789 49.1817 58.3534 48.9261C58.5282 48.7216 58.7528 48.5938 59.0273 48.5938C59.1521 48.5938 59.2769 48.6193 59.3768 48.6704L88.6036 60.659C88.978 60.8124 89.2276 61.1192 89.2525 61.5026C89.3024 61.8605 89.1277 62.2183 88.8282 62.4739L82.913 66.9729L90.3257 74.7437C90.5005 74.9227 90.6003 75.1783 90.6003 75.4339C90.6003 75.7151 90.5005 75.9707 90.3257 76.1497L84.1609 82.3101C83.9862 82.489 83.7366 82.5913 83.4621 82.5913ZM75.2506 71.983C75.5251 71.983 75.7997 72.0853 75.9744 72.2898L83.487 80.1885L88.2542 75.4339L80.7415 67.5608C80.5419 67.3563 80.442 67.0751 80.467 66.7939C80.4919 66.4872 80.6417 66.206 80.9163 66.0015L86.3074 61.886L60.7495 51.4056L70.3337 77.8367L74.5517 72.2898C74.7015 72.1108 74.976 71.983 75.2506 71.983Z" fill="#EDBD41"/>
<path d="M90.6007 74.4627L87.0066 70.6795L83.4874 66.9986L86.1331 64.9792L89.0283 62.7808C89.4526 62.4485 89.6772 61.9628 89.6023 61.4516C89.5275 60.9404 89.203 60.5058 88.7038 60.3013L83.4625 58.1541L78.7702 56.2369L78.5206 56.1347L63.0711 49.7953L61.274 49.054L59.477 48.3127C59.3023 48.236 59.1525 48.2104 58.9778 48.2104C58.6034 48.2104 58.279 48.3894 58.0294 48.6706C57.655 49.0284 57.5552 49.5652 57.7299 50.0765L59.2274 54.2175L61.4487 60.378L65.0678 70.3472L67.339 76.6099L68.2625 79.1406L68.6868 80.3164C68.8865 80.8788 69.4605 81.2878 70.0346 81.2878C70.4339 81.2878 70.7584 81.1088 71.008 80.8021L72.8799 78.3481L75.3508 75.1273L79.1945 79.1661L81.4657 81.5434L81.9649 82.0802L82.4641 82.617C82.7137 82.8726 83.0631 83.026 83.4125 83.026C83.762 83.026 84.1364 82.8726 84.3859 82.617L88.5291 78.4759L90.5508 76.4565C91.1248 75.8942 91.1498 75.0251 90.6007 74.4627ZM90.0766 75.8686C88.0299 77.9136 85.9583 79.9841 83.9117 82.0291C83.7869 82.1569 83.6372 82.208 83.4874 82.208C83.3377 82.208 83.1879 82.1569 83.0881 82.0291C82.7636 81.6712 82.4142 81.3133 82.0897 80.981C79.8434 78.6293 77.5971 76.2776 75.3508 73.9259C73.7285 76.0475 72.1062 78.1948 70.4589 80.3164C70.3591 80.4442 70.2093 80.5209 70.0845 80.5209C69.8349 80.5209 69.5604 80.3164 69.4605 80.0608C69.0113 78.8338 68.562 77.5813 68.1128 76.3543C66.141 70.9351 64.1942 65.516 62.2225 60.1224C60.9745 56.6971 59.7266 53.2717 58.5036 49.8464C58.4038 49.5908 58.4786 49.3863 58.6284 49.2585C58.7033 49.1307 58.853 49.054 59.0028 49.054C59.0776 49.054 59.1525 49.0796 59.2274 49.1051C60.4254 49.5908 61.6235 50.0765 62.8215 50.5877C68.0628 52.7349 73.3042 54.8821 78.5206 57.0294C81.8401 58.3842 85.1597 59.7389 88.4542 61.0937C88.9534 61.2982 89.0283 61.8862 88.604 62.2185C86.5074 63.8033 84.4359 65.3882 82.3393 66.973C82.514 67.1519 82.6887 67.3309 82.8634 67.5354C85.2595 70.0405 87.6555 72.5711 90.0516 75.0762C90.2762 75.2296 90.3012 75.6385 90.0766 75.8686Z" fill="#EDBD41"/>
<path d="M81.0171 67.2796C80.7176 66.9728 80.8174 66.5638 81.1419 66.3082C83.1386 64.8 85.1103 63.2919 87.1071 61.7837C86.2585 61.4258 85.4098 61.0935 84.5612 60.7357C79.3199 58.5884 74.0785 56.4412 68.8621 54.294C65.9419 53.0926 63.0217 51.8912 60.1016 50.7153C60.4011 51.5333 60.7006 52.3769 61.0001 53.1949C62.9718 58.614 64.9186 64.0332 66.8904 69.4268C68.0135 72.4942 69.1117 75.5617 70.2349 78.6291C71.7823 76.6097 73.3298 74.5647 74.8772 72.5453C74.977 72.4175 75.1268 72.3664 75.2766 72.3664C75.4513 72.3664 75.601 72.4175 75.7258 72.5453C76.0503 72.9032 76.3997 73.2611 76.7242 73.5934C78.9954 75.9706 81.2417 78.3479 83.513 80.7252C85.2851 78.9614 87.0571 77.1976 88.8292 75.4338C88.6295 75.2294 88.4299 75.0249 88.2552 74.8204C85.8092 72.3153 83.4131 69.7846 81.0171 67.2796ZM83.513 79.626L81.3416 77.3254L77.2733 73.0566L76.2749 72.0085C76.0253 71.7529 75.6759 71.5995 75.2766 71.5995C74.8772 71.5995 74.5028 71.7785 74.2782 72.0852L71.957 75.1271L70.4844 77.0698L69.2365 73.6445L67.6142 69.1711L65.5176 63.3941L61.6989 52.9137L61.3994 52.0957L68.5626 55.0353L76.4247 58.2561L84.2867 61.477L85.5596 61.9882L83.6877 63.4197L80.7176 65.6947C80.3682 65.9503 80.1435 66.3593 80.1186 66.7683C80.0936 67.1773 80.2184 67.5352 80.5179 67.8419L84.112 71.6251L87.7061 75.4083L87.756 75.4594L83.513 79.626Z" fill="#EDBD41"/>
</g>
<defs>
<clipPath id="clip0">
<rect width="91" height="83" fill="white" transform="translate(0 0.000488281)"/>
</clipPath>
</defs>
</svg>
