<svg width="54" height="77" viewBox="0 0 54 77" fill="none" xmlns="http://www.w3.org/2000/svg">
<g clip-path="url(#clip0)">
<path d="M15.394 47.4993C13.4544 49.0536 11.5302 49.7997 9.43542 48.3386C8.48886 47.6703 8.11645 46.5823 8.24059 45.4476C8.34921 44.4218 8.69059 43.4271 8.92335 42.4012C6.82852 43.0851 4.60955 43.2561 3.33714 40.9868C2.1268 38.8108 3.25955 36.9612 5.15266 35.3447C4.563 35.2825 4.17507 35.2359 3.78714 35.2048C1.64576 35.0649 -0.185273 33.1687 0.0474852 31.2413C0.233692 29.7181 1.10266 28.6301 2.45266 27.9307C2.80955 27.7442 3.19748 27.5887 3.70955 27.3556C3.38369 27.1846 3.16645 27.0914 2.94921 26.967C2.54576 26.7494 2.09576 26.5629 1.73886 26.2987C0.419899 25.335 -0.26286 23.6719 0.094037 22.3818C0.481968 20.9519 1.94059 19.7395 3.53886 19.5219C4.00438 19.4598 4.45438 19.4287 5.07507 19.3665C3.25955 17.6568 2.06473 15.7916 3.4768 13.4135C4.33024 11.968 5.71128 11.766 9.10955 12.2789C8.95438 11.9369 8.84576 11.6416 8.69059 11.3619C8.17852 10.3826 8.0699 9.32572 8.31817 8.2688C8.90783 5.68866 11.8406 4.74054 14.2147 6.34147C14.5716 6.57461 14.913 6.83885 15.394 7.16525C15.0216 4.78717 15.2544 2.61115 17.582 1.70966C20.0492 0.745991 21.663 2.30029 22.982 4.41414C23.5096 2.02052 24.4406 -7.30576e-05 27.063 0.0154699C29.6233 0.0310129 30.5699 2.02052 31.0664 4.41414C32.4009 2.2692 33.9992 0.823706 36.544 1.69411C38.1889 2.25366 38.732 3.80796 38.7009 7.13416C39.0578 6.86993 39.3682 6.65233 39.6785 6.45027C40.6096 5.79746 41.6337 5.4866 42.7509 5.62649C45.2492 5.95289 46.5371 8.4864 45.482 11.0044C45.3113 11.3929 45.1251 11.7815 44.8768 12.3255C47.2509 11.6572 49.5164 11.4551 50.7423 13.8332C51.8596 16.0092 50.6958 17.8122 48.8492 19.3665C51.332 19.4908 53.5199 20.0815 53.9233 22.6927C54.2958 25.164 52.5578 26.4697 50.3078 27.3245C50.6182 27.4955 50.8044 27.5887 51.0061 27.6975C51.3785 27.8841 51.7664 28.0395 52.1078 28.2726C53.5199 29.2208 54.2958 30.9771 53.9233 32.3449C53.5044 33.8526 51.9061 35.1116 50.2458 35.2359C49.8733 35.267 49.4854 35.2981 48.9113 35.3447C50.7578 37.0544 52.0147 38.9507 50.5716 41.2044C49.2527 43.2716 47.0958 43.1007 44.8613 42.339C45.063 42.7898 45.2027 43.1007 45.3578 43.4115C45.8544 44.3752 45.9475 45.401 45.7147 46.4424C45.1251 49.0225 42.1923 49.9707 39.8182 48.3853C39.4613 48.1521 39.1199 47.8879 38.6544 47.5615C39.0113 50.0173 38.7785 52.2244 36.3113 53.0948C33.9371 53.9186 32.3544 52.4265 31.113 50.3903C31.0044 50.6701 30.9423 50.8411 30.8802 51.0276C30.8027 51.3074 30.7561 51.5871 30.663 51.8514C30.1199 53.53 28.444 54.8512 26.9544 54.8045C25.3871 54.7579 23.7889 53.3901 23.3078 51.6648C23.2147 51.3229 23.1216 50.9654 23.0285 50.6235C23.013 50.5768 22.9509 50.5613 22.8733 50.4836C21.6475 52.4886 19.9871 54.0118 17.5354 53.0326C15.2544 52.0845 14.9906 49.9551 15.394 47.4993ZM27.0165 46.7533C37.6302 46.7688 46.3664 38.0803 46.3975 27.4955C46.4285 16.6776 37.7854 7.97348 26.9854 7.9424C16.3871 7.91131 7.6199 16.6154 7.60438 27.2002C7.58886 38.0336 16.2164 46.7377 27.0165 46.7533Z" fill="#EDBD41"/>
<path d="M40.3457 50.6079C40.8422 50.7478 41.2457 50.7944 41.5715 50.9654C41.7732 51.0742 41.9595 51.354 42.006 51.5871C43.4181 58.1774 44.8301 64.7676 46.2267 71.3734C46.3819 72.1039 46.5681 72.8344 46.6767 73.5805C46.7232 73.8603 46.6922 74.3265 46.5215 74.4198C46.2888 74.5441 45.8698 74.4975 45.606 74.3732C44.1939 73.6737 42.8129 72.9277 41.4008 72.2127C40.0974 71.5443 39.2905 71.7153 38.3595 72.881C37.4284 74.0468 36.5129 75.2436 35.5508 76.3938C35.3181 76.658 34.9457 76.8134 34.6508 77.031C34.4491 76.7202 34.1543 76.4404 34.0767 76.0984C32.6491 69.5548 31.237 63.0268 29.8405 56.4832C29.7939 56.2345 29.825 55.8925 29.9646 55.706C30.4767 55.0377 31.0664 54.4315 31.6405 53.7631C33.1457 55.0688 34.9301 55.5195 36.9474 54.8822C39.0422 54.2294 40.0043 52.6907 40.3457 50.6079Z" fill="#EDBD41"/>
<path d="M22.33 53.732C22.9197 54.4003 23.4783 54.991 23.9748 55.6438C24.1455 55.8614 24.1766 56.2655 24.13 56.5453C23.0128 61.8299 21.8645 67.0989 20.7317 72.3836C20.4524 73.6736 20.1886 74.9637 19.8628 76.2382C19.8007 76.5025 19.5835 76.9221 19.3973 76.9377C19.1335 76.9687 18.7611 76.7511 18.5748 76.5335C17.5352 75.2746 16.5421 73.9845 15.5179 72.7255C14.7266 71.7463 13.8421 71.5442 12.7093 72.1193C11.3283 72.8188 9.96277 73.5648 8.58174 74.2487C8.25587 74.4042 7.86794 74.4042 7.49553 74.4663C7.44898 74.0777 7.27829 73.6736 7.35587 73.3006C8.79898 66.4461 10.2576 59.6072 11.7317 52.7528C11.7473 52.644 11.7938 52.5507 11.7938 52.4574C11.8093 51.3073 12.3214 50.6234 13.6404 50.6855C13.9817 52.6284 14.9438 54.2138 17.0386 54.8511C19.0404 55.4728 20.8248 55.0842 22.33 53.732Z" fill="#EDBD41"/>
<path d="M27.0008 44.142C17.737 44.142 10.2422 36.6503 10.2422 27.3555C10.2422 18.0297 17.7525 10.5069 27.0318 10.5225C36.2956 10.5536 43.7594 18.0764 43.7594 27.3555C43.7594 36.6503 36.2801 44.142 27.0008 44.142ZM34.4025 38.8107C34.4025 38.6087 34.4181 38.5154 34.4025 38.4222C33.9991 35.9974 33.5956 33.5727 33.1456 31.1636C33.0525 30.6973 33.1612 30.402 33.487 30.0756C35.1474 28.4902 36.7922 26.8737 38.437 25.2572C38.6077 25.0863 38.7784 24.9153 38.9956 24.6822C38.7163 24.6044 38.5767 24.5423 38.4215 24.5267C36.156 24.2003 33.8749 23.8584 31.5939 23.5631C30.9577 23.4853 30.6008 23.2211 30.3215 22.646C29.4681 20.8275 28.5525 19.0245 27.6525 17.2215C27.4508 16.8174 27.2491 16.4133 27.0008 15.8848C26.7836 16.2734 26.6439 16.5065 26.5198 16.7552C25.5267 18.7758 24.5181 20.7809 23.556 22.817C23.3387 23.2677 23.0439 23.4698 22.5784 23.532C21.0112 23.734 19.4594 23.9672 17.9077 24.2003C16.9612 24.3402 16.0146 24.4956 15.2853 24.6044C16.6198 26.0344 17.8456 27.6198 19.3198 28.8788C20.7163 30.06 21.0112 31.2568 20.5767 32.951C20.0956 34.8317 19.8784 36.7901 19.537 38.8418C19.9094 38.6553 20.1577 38.5465 20.406 38.4066C22.4387 37.3341 24.4715 36.2461 26.5198 35.2203C26.7836 35.096 27.2181 35.096 27.4818 35.2203C28.5836 35.7332 29.6387 36.3394 30.7094 36.8989C31.9198 37.5207 33.1301 38.1424 34.4025 38.8107Z" fill="#EDBD41"/>
</g>
<defs>
<clipPath id="clip0">
<rect width="54" height="77" fill="white"/>
</clipPath>
</defs>
</svg>
