<svg width="104" height="120" viewBox="0 0 104 120" fill="none" xmlns="http://www.w3.org/2000/svg">
<g clip-path="url(#clip0)">
<path d="M52.7784 63.6283C53.6718 64.3195 54.2669 65.3426 54.7964 66.357C56.8175 70.2224 58.2702 74.3933 59.0881 78.6749C54.9408 78.6692 51.2104 81.8031 47.0802 81.2721C46.1603 81.153 45.2069 80.8176 44.5915 80.0813C44.1733 79.5793 43.9518 78.9373 43.753 78.3122C43.1949 76.5722 42.722 74.808 42.3328 73.0246C42.0092 71.5423 41.7427 70.0394 41.7684 68.5305C41.7935 67.0242 42.1262 65.5051 42.9184 64.2666C43.66 63.1078 45.1224 61.8934 46.5694 61.9394C46.901 61.9492 47.2771 62.1017 47.6069 62.1602C47.9469 62.2213 48.2877 62.269 48.6285 62.3167C49.3177 62.414 50.0096 62.5012 50.6878 62.6721C51.4304 62.8571 52.1571 63.1445 52.7784 63.6283Z" stroke="#333333" stroke-width="0.25" stroke-miterlimit="10"/>
<path d="M45.6038 83.2393C44.0889 82.5039 41.7651 81.4625 41.171 80.77C43.2843 80.4896 45.1618 80.4892 47.2434 80.0175C48.7123 79.6869 50.096 79.924 51.2799 78.9867C52.4638 78.0495 53.7649 77.1209 55.2648 76.9949C54.6105 74.3507 54.096 71.4615 53.3709 68.818L60.1048 66.1076C60.2932 66.4379 60.553 66.9015 60.7326 67.2349C62.2204 69.9649 62.1963 73.2328 62.6277 76.3161C63.2203 80.5554 64.7541 84.6545 67.0825 88.2367C67.9932 89.6342 68.5743 91.3692 69.505 92.7527C65.2467 94.9492 60.9098 96.9887 56.5057 98.8687C55.3026 95.8796 53.9329 92.9564 52.4073 90.121C51.6342 88.6856 50.8124 87.2594 49.7198 86.0495C48.6265 84.8421 47.0654 83.9499 45.6038 83.2393Z" stroke="#333333" stroke-width="0.25" stroke-miterlimit="10"/>
<path d="M79.942 111.192C77.4987 112.438 74.956 113.491 72.339 114.339C69.6771 115.204 66.9353 115.853 64.1435 116.276L52.3428 92.2482L67.0474 84.9346L67.1785 85.2035L79.942 111.192Z" stroke="#161616" stroke-width="0.25" stroke-miterlimit="10"/>
<path d="M51.8937 90.6537C51.276 90.96 50.8551 91.3666 50.9506 91.5635L51.5937 92.8722C51.6892 93.0691 52.2669 92.9791 52.8852 92.6702L66.5508 85.8728C67.1684 85.5665 67.5893 85.1599 67.4938 84.963L66.8508 83.6543C66.7553 83.4574 66.1776 83.5474 65.56 83.8537L51.8937 90.6537Z" stroke="#161616" stroke-width="0.25" stroke-miterlimit="10"/>
<path d="M78.2709 24.2441C78.2709 24.2441 78.0948 43.7422 60.7393 50.2898C59.2783 50.8409 57.6944 51.3 55.9784 51.651L56.5351 47.1399C56.5351 47.1399 59.957 47.0934 63.8504 44.8893C68.15 42.4606 73.02 37.4112 74.5161 26.9075C74.5161 26.9075 74.8883 24.6831 72.1183 24.5006L65.9052 24.5091L65.7859 21.051L75.8128 21.0351C75.8128 21.0351 78.2719 21.6502 78.2709 24.2441Z" fill="#E5AF21"/>
<path d="M42.2572 51.6701C40.0564 51.2314 38.0753 50.6068 36.2864 49.8384C20.1475 42.9149 20.014 24.3357 20.014 24.3357C20.0182 21.7399 22.4784 21.1182 22.4784 21.1182L32.5053 21.1023L32.3796 24.5622L26.1665 24.5708C23.397 24.7624 23.7643 26.9852 23.7643 26.9852C25.1033 36.5225 29.2421 41.5532 33.2067 44.2039C37.5621 47.1173 41.7077 47.1607 41.7077 47.1607L42.2572 51.6701Z" fill="#E5AF21"/>
<path d="M52.4338 56.2592L51.8144 56.7917C51.0379 57.4581 50.0415 57.8105 49.0205 57.7771L48.3929 57.7558C47.509 57.728 46.6595 57.4114 45.9694 56.8578L45.2395 56.2692C29.4669 48.3241 29.9575 15.6064 29.9575 15.6064C29.9605 13.4745 32.4507 12.9153 32.4507 12.9153L65.2982 12.8635C65.2982 12.8635 67.7898 13.4161 67.7868 15.548C67.7868 15.548 68.2207 48.2632 52.4338 56.2592Z" fill="#EDBD41"/>
<path d="M67.3753 18.3816L30.3664 18.4404C29.1135 18.4422 28.0903 17.4141 28.091 16.1582L28.096 13.1311C28.0973 11.8726 29.1233 10.8424 30.3738 10.8399L67.3794 10.7831C68.6324 10.7813 69.6555 11.8093 69.6548 13.0653L69.6531 16.0905C69.6517 17.349 68.6257 18.3792 67.3753 18.3816Z" fill="#E5AF21"/>
<path d="M51.3167 53.9828L46.3613 53.9907L46.3264 93.9024L51.2818 93.8945L51.3167 53.9828Z" fill="#E5AF21"/>
<path d="M64.6708 86.2408L32.9551 86.2915L32.9402 103.24L64.656 103.189L64.6708 86.2408Z" fill="#161616"/>
<path d="M56.7375 84.3056L40.8691 84.3311L40.8674 86.2808L56.7358 86.2554L56.7375 84.3056Z" fill="#E5AF21"/>
<path d="M46.3396 74.2363C46.3396 74.2363 46.9277 84.3209 41.7168 84.3308L48.8027 84.3199L48.813 74.2325L46.3396 74.2363Z" fill="#E5AF21"/>
<path d="M51.2889 74.2271C51.2889 74.2271 50.6859 84.3159 55.8993 84.3067L48.8027 84.3176L48.813 74.2302L51.2889 74.2271Z" fill="#E5AF21"/>
<path d="M47.5624 64.6971L47.5835 64.5114C47.7153 63.3469 46.8762 62.2903 45.7204 62.1589L38.6355 61.3618C37.4764 61.2323 36.4224 62.0778 36.2888 63.2391L36.2677 63.4247C36.1359 64.5892 36.975 65.6459 38.1308 65.7772L45.2157 66.5743C46.3747 66.7038 47.4313 65.859 47.5624 64.6971Z" stroke="#333333" stroke-width="0.25" stroke-miterlimit="10"/>
<path d="M49.2682 69.1169L49.2677 69.1085C49.3 67.8772 48.3216 66.8444 47.0951 66.8175L38.6283 66.6222C37.4025 66.5928 36.3719 67.5781 36.3421 68.8101L36.3427 68.8184C36.3103 70.0498 37.2888 71.0826 38.5152 71.1094L46.982 71.3048C48.2078 71.3342 49.2359 70.3482 49.2682 69.1169Z" stroke="#333333" stroke-width="0.25" stroke-miterlimit="10"/>
<path d="M50.1395 73.6247L50.1165 73.3893C50.0084 72.2279 48.9764 71.3697 47.8199 71.4812L39.4298 72.2861C38.2733 72.3976 37.4163 73.4362 37.5244 74.5976L37.5474 74.833C37.6556 75.9944 38.6875 76.8527 39.844 76.7412L48.2341 75.9362C49.3906 75.8248 50.2477 74.7861 50.1395 73.6247Z" stroke="#333333" stroke-width="0.25" stroke-miterlimit="10"/>
<path d="M49.501 78.3331L49.4759 78.0535C49.3878 77.1076 48.5481 76.4086 47.6061 76.4994L41.1191 77.1222C40.1772 77.213 39.4792 78.0582 39.5673 79.0041L39.5923 79.2837C39.6805 80.2296 40.5202 80.9287 41.4621 80.8378L47.9491 80.2151C48.8911 80.1242 49.5891 79.2791 49.501 78.3331Z" stroke="#333333" stroke-width="0.25" stroke-miterlimit="10"/>
<path d="M44.1908 65.4091L44.1908 65.4091L44.4322 63.1235C44.4322 63.1235 44.4322 63.1235 44.4322 63.1235C44.4322 63.1234 44.4322 63.1234 44.4322 63.1234C44.4456 62.9973 44.5595 62.9071 44.6819 62.9235L44.6819 62.9235L44.6828 62.9236L45.9195 63.0794L45.9231 63.0802C45.9285 63.0814 45.9371 63.0835 45.9485 63.0867C45.9714 63.0931 46.0053 63.1038 46.0465 63.1204C46.1293 63.1536 46.2403 63.21 46.352 63.3021C46.571 63.4828 46.8038 63.8099 46.8159 64.4037L46.8156 64.4103C46.8153 64.4169 46.8147 64.4271 46.8136 64.4406C46.8115 64.4675 46.8073 64.5072 46.7995 64.5564C46.7837 64.655 46.7532 64.7902 46.6945 64.936C46.578 65.2254 46.3532 65.5517 45.9129 65.7242L45.9039 65.7265C45.8938 65.7291 45.8776 65.7328 45.8552 65.737C45.8105 65.7453 45.7414 65.7555 45.6481 65.7615C45.4616 65.7734 45.1779 65.7686 44.7994 65.698L44.7995 65.6976L44.7885 65.6965L44.389 65.658C44.3889 65.658 44.3888 65.658 44.3887 65.658C44.2682 65.6454 44.1774 65.5352 44.1908 65.4091ZM45.9167 63.0788L45.917 63.0788L45.9169 63.0788L45.9167 63.0788Z" stroke="#333333" stroke-width="0.25"/>
<path d="M46.2806 67.505L46.2806 67.505L46.2815 67.5051L47.5251 67.592L47.5286 67.5926C47.5341 67.5935 47.5428 67.5952 47.5544 67.5977C47.5776 67.6029 47.612 67.6117 47.654 67.6261C47.7384 67.6549 47.8523 67.7053 47.9687 67.7914C48.1972 67.9604 48.4473 68.275 48.4914 68.8681L48.4915 68.8746C48.4915 68.8812 48.4915 68.8914 48.4911 68.9049C48.4903 68.9318 48.4882 68.9717 48.483 69.0212C48.4723 69.1204 48.4489 69.2569 48.3981 69.4055C48.2971 69.7007 48.0901 70.0386 47.6611 70.235L47.6523 70.2378C47.6424 70.2409 47.6264 70.2455 47.6044 70.2508C47.5603 70.2615 47.4919 70.2754 47.399 70.2864C47.2135 70.3083 46.9299 70.3186 46.5473 70.2683L46.5474 70.2678L46.5363 70.2673L46.1364 70.2506C46.0098 70.2438 45.9157 70.1386 45.9219 70.0137C45.9219 70.0137 45.9219 70.0137 45.9219 70.0136L46.0409 67.7183C46.0409 67.7183 46.0409 67.7183 46.0409 67.7183C46.0476 67.5908 46.1572 67.4954 46.2806 67.505ZM47.5222 67.5915L47.5225 67.5915L47.5224 67.5915L47.5222 67.5915Z" stroke="#333333" stroke-width="0.25"/>
<path d="M46.9591 75.2125L46.9591 75.2125L46.9589 75.2114L46.6995 72.9292L46.6995 72.9292L46.6994 72.9288C46.6847 72.8031 46.7759 72.6907 46.8995 72.6796L46.8995 72.6796L46.9003 72.6795L48.1412 72.559L48.1448 72.5589C48.1504 72.559 48.1593 72.5591 48.1711 72.5597C48.1948 72.5609 48.2302 72.5639 48.2741 72.571C48.362 72.5852 48.4826 72.6158 48.6116 72.6811C48.8647 72.8092 49.1632 73.0772 49.3044 73.6542L49.3056 73.6606C49.3067 73.6671 49.3083 73.6772 49.3101 73.6906C49.3138 73.7173 49.3183 73.7569 49.3212 73.8066C49.327 73.9063 49.3264 74.0448 49.3006 74.1998C49.2495 74.5076 49.1009 74.8749 48.71 75.1395L48.7019 75.1436C48.6925 75.1483 48.6774 75.1554 48.6564 75.1643C48.6145 75.1822 48.5491 75.2072 48.4592 75.2333C48.2795 75.2856 48.0013 75.3427 47.6165 75.357L47.6165 75.3566L47.6058 75.3579L47.2072 75.4071L47.2072 75.4071L47.2054 75.4073C47.0844 75.4241 46.9721 75.3366 46.9591 75.2125ZM48.1383 72.559L48.1386 72.559L48.1385 72.559L48.1383 72.559ZM48.7132 75.1378L48.713 75.1379L48.7131 75.1379L48.7132 75.1378Z" stroke="#333333" stroke-width="0.25"/>
<path d="M46.3098 77.3923L46.3101 77.3923L47.3944 77.2884L47.3967 77.2884C47.4013 77.2884 47.4088 77.2886 47.419 77.2891C47.4392 77.2902 47.4696 77.2927 47.5074 77.2989C47.5832 77.3112 47.6871 77.3377 47.7983 77.3941C48.0156 77.5044 48.2735 77.7352 48.3955 78.2348L48.3964 78.2399C48.3974 78.2454 48.3987 78.2541 48.4003 78.2656C48.4035 78.2886 48.4074 78.3229 48.4099 78.366C48.415 78.4523 48.4145 78.5724 48.3923 78.7066C48.3482 78.9729 48.2201 79.2896 47.8836 79.5177L47.8776 79.5208C47.8697 79.5247 47.8569 79.5308 47.8389 79.5385C47.803 79.5538 47.7466 79.5754 47.6687 79.598C47.5131 79.6431 47.2709 79.6926 46.9343 79.7044L46.9343 79.7039L46.9233 79.7053L46.5751 79.7485L46.5751 79.7485L46.5739 79.7487C46.4806 79.7612 46.3901 79.6935 46.3768 79.5895L46.1489 77.5955C46.1382 77.4906 46.2124 77.4014 46.3098 77.3923ZM47.3915 77.2884L47.3919 77.2884L47.3917 77.2884L47.3915 77.2884ZM47.8868 79.5161L47.8864 79.5163L47.8865 79.5163L47.8866 79.5162L47.8868 79.5161Z" stroke="#333333" stroke-width="0.25"/>
<path d="M52.9661 67.4702C52.6754 66.5617 52.3827 65.65 51.9362 64.8075C51.4898 63.9649 50.8786 63.1915 50.068 62.6939C49.4519 62.3152 48.7466 62.1126 48.0987 61.7939C45.7989 60.6604 44.388 57.9477 44.7713 55.3986C44.8186 55.0914 44.9232 54.7418 45.2108 54.6282C45.4472 54.534 45.7102 54.6406 45.9368 54.7515C47.4395 55.4919 48.7559 56.5935 50.313 57.2088C51.3872 57.633 52.554 57.8163 53.5831 58.3407C54.7296 58.9257 55.6271 59.8937 56.4754 60.8626C57.8909 62.4815 59.1028 64.3506 60.176 66.2409L53.4045 68.9496C53.2676 68.4525 53.1242 67.9592 52.9661 67.4702Z" stroke="#333333" stroke-width="0.25" stroke-miterlimit="10"/>
<path d="M48.0371 56.4231L47.3368 57.6528C47.277 57.7574 47.0814 57.7365 46.9017 57.6024L45.7586 56.7534C45.7586 56.7534 44.8711 56.0501 45.1091 55.271C45.1091 55.271 45.3487 54.6424 46.3413 55.0044C46.3413 55.0044 46.7433 55.1718 47.4505 55.7326L47.8215 55.9984C47.9994 56.1294 48.0969 56.3186 48.0371 56.4231Z" stroke="#333333" stroke-width="0.25" stroke-miterlimit="10"/>
<path d="M66.7932 100.464L30.8086 100.521L30.8062 103.245L66.7908 103.188L66.7932 100.464Z" fill="#161616"/>
</g>
<defs>
<clipPath id="clip0">
<rect width="80" height="103" fill="white" transform="translate(26.2227 0.000488281) rotate(14.5812)"/>
</clipPath>
</defs>
</svg>
