<svg width="25" height="25" viewBox="0 0 25 25" fill="none" xmlns="http://www.w3.org/2000/svg">
<g clip-path="url(#clip0)">
<path d="M-0.000608503 12.2837C-0.000608503 9.66603 -0.00415914 7.04832 0.000279157 4.43061C0.00471746 1.81823 1.82797 0.00296508 4.44568 0.00207742C9.71039 0.000302096 14.976 -0.000585564 20.2407 0.00207742C22.8495 0.00296508 24.6684 1.82888 24.6701 4.44659C24.6728 9.7113 24.6728 14.9769 24.6701 20.2416C24.6692 22.8504 22.8442 24.671 20.2247 24.6719C14.96 24.6755 9.69442 24.6755 4.4297 24.6719C1.81554 24.6702 0.00294214 22.8469 0.000279157 20.2256C-0.00327148 17.5777 -0.000608503 14.9307 -0.000608503 12.2837ZM12.4808 3.16659C9.7672 3.21274 7.43355 3.93086 5.50288 5.67955C3.61838 7.38652 2.68279 9.50448 3.10443 12.0716C3.50032 14.4851 4.95964 16.1744 7.00569 17.4011C8.24132 18.1414 9.59678 18.5329 11.0161 18.7353C11.7742 18.8435 11.8905 19.0308 11.7121 19.7827C11.6233 20.1555 11.4902 20.5177 11.3987 20.8905C11.2869 21.3459 11.5265 21.5962 11.9784 21.463C12.2846 21.3725 12.5846 21.2216 12.8527 21.0441C13.53 20.594 14.2046 20.1386 14.8482 19.6424C16.4149 18.4343 18.0677 17.3114 19.4969 15.9551C22.3081 13.2886 22.4146 9.28079 19.8564 6.38169C17.8698 4.1297 15.2707 3.24559 12.4808 3.16659Z" fill="#ebb72f"/>
<path d="M11.9833 10.4682C11.9833 11.2467 11.9842 12.0251 11.9824 12.8045C11.9824 12.9519 12.0161 13.1294 11.9478 13.2386C11.8661 13.3691 11.6966 13.5058 11.5537 13.5182C11.4427 13.5279 11.2909 13.3699 11.2048 13.2519C11.1436 13.1676 11.1462 13.0255 11.1453 12.9084C11.1418 11.7837 11.1409 10.6599 11.1453 9.53525C11.1462 9.22723 11.1942 8.93164 11.5554 8.83311C11.9016 8.73902 12.0676 8.97425 12.2265 9.21569C12.7627 10.0315 13.2979 10.8472 13.835 11.6612C13.898 11.7571 13.969 11.8467 14.1412 11.9293C14.1412 11.631 14.1412 11.3336 14.1412 11.0354C14.1412 10.4735 14.1403 9.91073 14.143 9.34884C14.1447 9.07278 14.2246 8.82601 14.5477 8.81802C14.878 8.81092 14.9614 9.07011 14.9632 9.33819C14.9712 10.5365 14.9818 11.7349 14.9525 12.9323C14.9481 13.1267 14.7714 13.4569 14.6365 13.4773C14.4226 13.5093 14.0879 13.4019 13.961 13.235C13.5056 12.6358 13.1168 11.987 12.7023 11.3576C12.5008 11.0505 12.2984 10.7442 12.0969 10.4371C12.0596 10.4478 12.0215 10.4575 11.9833 10.4682Z" fill="#ebb72f"/>
<path d="M16.5199 10.6761C17.0179 10.6761 17.4484 10.6441 17.87 10.6912C18.0431 10.7107 18.3112 10.8794 18.3351 11.0161C18.3866 11.301 18.1221 11.348 17.8824 11.3471C17.5274 11.3454 17.1705 11.3267 16.819 11.3614C16.7125 11.372 16.5465 11.5265 16.535 11.6294C16.4986 11.9623 16.5217 12.3014 16.5217 12.6973C17.0676 12.6973 17.5647 12.6999 18.0626 12.6964C18.3307 12.6946 18.6139 12.7186 18.6139 13.0541C18.6139 13.4012 18.3174 13.3994 18.0582 13.3985C17.4519 13.3976 16.8448 13.3897 16.2385 13.4012C15.8293 13.4092 15.6367 13.2263 15.6375 12.8189C15.6402 11.6951 15.6429 10.5704 15.6358 9.44667C15.6331 9.04544 15.8009 8.83684 16.2136 8.83862C16.835 8.84217 17.4564 8.83418 18.0777 8.84217C18.3067 8.84483 18.581 8.88478 18.518 9.18658C18.4914 9.31707 18.2455 9.47063 18.0839 9.49016C17.7049 9.53543 17.3161 9.51946 16.9318 9.50259C16.6371 9.49016 16.4862 9.57538 16.5154 9.90026C16.5367 10.1319 16.5199 10.3672 16.5199 10.6761Z" fill="#ebb72f"/>
<path d="M6.05174 11.1171C6.05174 10.541 6.04908 9.964 6.05263 9.38791C6.0544 9.07546 6.15293 8.80561 6.51865 8.81892C6.85862 8.83135 6.93319 9.0941 6.9323 9.3888C6.93052 10.3643 6.94117 11.3399 6.92697 12.3154C6.92253 12.6154 7.00331 12.7495 7.32376 12.7273C7.64775 12.7051 7.97441 12.7149 8.29929 12.7273C8.54695 12.7371 8.83011 12.8001 8.76265 13.1108C8.73158 13.2546 8.4715 13.4339 8.30462 13.4463C7.74628 13.488 7.18262 13.4605 6.62073 13.4632C6.23371 13.4649 6.05085 13.2714 6.05174 12.8906C6.05263 12.3003 6.05174 11.7091 6.05174 11.1171Z" fill="#ebb72f"/>
<path d="M10.2774 11.1944C10.2774 11.7714 10.2792 12.3484 10.2765 12.9253C10.2747 13.2298 10.2019 13.5165 9.83976 13.5307C9.46605 13.5449 9.38616 13.2547 9.38439 12.952C9.37906 11.7687 9.37995 10.5846 9.3835 9.40133C9.38439 9.09775 9.46073 8.81015 9.83532 8.81991C10.201 8.82968 10.2747 9.11462 10.2756 9.41908C10.2792 10.0112 10.2774 10.6023 10.2774 11.1944Z" fill="#ebb72f"/>
</g>
<defs>
<clipPath id="clip0">
<rect width="24.6743" height="24.6743" fill="white"/>
</clipPath>
</defs>
</svg>
