<svg width="22" height="18" viewBox="0 0 22 18" fill="none" xmlns="http://www.w3.org/2000/svg">
<path d="M2.55972 3.56542C2.58608 3.2953 2.48565 3.02773 2.2873 2.84594L0.272417 0.369985V0H6.53174L11.37 10.8205L15.6232 0H21.59V0.369985L19.8664 2.05476C19.7182 2.16998 19.6442 2.36073 19.6743 2.54765V14.93C19.6429 15.1182 19.717 15.3076 19.8664 15.4229L21.5498 17.1076V17.4776H13.0836V17.1076L14.8273 15.3819C14.998 15.2078 14.998 15.1553 14.998 14.889V4.8815L10.1497 17.4392H9.49443L3.85025 4.8815V13.2977C3.8038 13.651 3.91804 14.0082 4.16284 14.2643L6.43131 17.0692V17.4392H0V17.0692L2.26847 14.2643C2.51076 14.0082 2.61998 13.6498 2.56097 13.2977V3.56542H2.55972Z" fill="#ebb72f"/>
</svg>
