<svg width="25" height="24" viewBox="0 0 25 24" fill="#ebb72f" xmlns="http://www.w3.org/2000/svg">
<path fill-rule="evenodd" clip-rule="evenodd" d="M9.64429 0.836938C7.53004 -0.385719 4.72242 -0.262672 2.73707 1.16604C1.42359 2.08401 0.473397 3.50686 0.143319 5.07327C-0.189689 6.60647 0.0632405 8.25295 0.843514 9.61623C0.520272 11.5098 0.69117 13.4883 1.37086 15.2881C2.30933 17.8057 4.22828 19.9385 6.63453 21.1446C8.70484 22.1983 11.1179 22.5391 13.406 22.1465C15.4607 23.3321 18.1707 23.2578 20.1433 21.9346C21.5681 21.0069 22.5984 19.4961 22.9255 17.8291C23.2351 16.3184 22.9705 14.7061 22.2068 13.3672C22.5173 11.5723 22.3787 9.69924 21.782 7.97561C20.9138 5.42971 19.0496 3.24514 16.6755 1.97268C14.5486 0.81643 12.0281 0.424828 9.64429 0.836938ZM14.7029 5.70022C13.3093 4.94631 11.6638 4.70803 10.1023 4.94338C9.01148 5.11135 7.89039 5.501 7.13453 6.33987C6.30836 7.2051 6.12867 8.5137 6.37965 9.64748C6.52906 10.3701 6.9939 11.0049 7.60719 11.4112C8.34058 11.918 9.21656 12.1289 10.073 12.336L10.2576 12.3809C10.6931 12.4951 11.1296 12.6045 11.5671 12.7129C11.9646 12.8125 12.363 12.9112 12.7595 13.0147C13.2107 13.1377 13.6824 13.3858 13.866 13.8418C14.0896 14.3272 13.907 14.9033 13.5623 15.2823C13.0554 15.8438 12.2703 16.0694 11.531 16.0498C10.7771 16.0684 9.98902 15.8633 9.42359 15.3457C9.19703 15.1494 9.01832 14.9102 8.83961 14.6709C8.64527 14.4112 8.45094 14.1514 8.19508 13.9463C7.55347 13.4405 6.42164 13.752 6.22535 14.5742C6.04566 15.4014 6.54664 16.21 7.14234 16.7461C8.32984 17.7998 9.98121 18.1153 11.5261 18.1377C12.9734 18.1289 14.5271 17.8565 15.6443 16.8692C17.0408 15.6807 17.2937 13.3789 16.1707 11.9278C15.5193 11.126 14.5232 10.6953 13.5369 10.4707C13.1423 10.378 12.7459 10.291 12.3503 10.2041C11.7957 10.0821 11.24 9.95998 10.6892 9.82229C10.1941 9.68459 9.65406 9.5342 9.30445 9.13186C8.93433 8.67776 9.07496 7.9844 9.45484 7.5801C9.86597 7.16799 10.4695 7.04006 11.033 7.01565C11.8035 7.00198 12.6267 7.13772 13.238 7.63967C13.4363 7.78518 13.6003 7.96975 13.7644 8.1553C14.0037 8.42483 14.2429 8.69338 14.5828 8.83498C15.0779 8.99416 15.6804 8.87795 16.0496 8.501C16.3904 8.14065 16.3699 7.57815 16.1853 7.14846C15.9021 6.49319 15.3123 6.03713 14.7029 5.70022Z" transform="translate(0.972656 0.978516)" />
</svg>
