<svg width="24" height="20" viewBox="0 0 24 20" fill="none" xmlns="http://www.w3.org/2000/svg">
<path d="M0 16.8892C2.18466 18.271 4.73342 19.0387 7.49025 19.0387C16.541 19.0387 21.6385 11.5154 21.3784 4.75969C22.3147 4.09435 23.147 3.2243 23.8232 2.25189C22.9389 2.61015 22.0026 2.91723 21.0143 3.01959C22.0026 2.40543 22.7829 1.4842 23.147 0.358256C22.2107 0.921229 21.1704 1.33066 20.026 1.53538C19.1418 0.614153 17.8934 0 16.489 0C13.316 0 11.0273 2.86605 11.7555 5.88563C7.6463 5.73209 4.05722 3.83846 1.6645 0.921229C0.36411 3.07076 0.988297 5.88563 3.17295 7.31866C2.39272 7.31866 1.61248 7.06276 0.988297 6.7045C0.936282 8.90522 2.54877 11.0036 4.88947 11.4642C4.21327 11.6689 3.43303 11.6689 2.70481 11.5665C3.329 13.4602 5.14955 14.842 7.28219 14.8932C5.14955 16.4798 2.60078 17.1963 0 16.8892Z" fill="#ebb72f"/>
</svg>
