<svg width="167" height="167" viewBox="0 0 167 167" fill="none" xmlns="http://www.w3.org/2000/svg">
<g clip-path="url(#clip0)">
<path d="M22.3661 166.617C23.0966 166.617 23.7227 166.617 24.3488 166.617C39.5844 166.617 54.8548 166.617 70.0903 166.617C76.5602 166.617 80.7344 162.408 80.7344 155.939C80.7344 125.92 80.7344 95.8658 80.7344 65.8469C80.7344 59.5161 76.4907 55.3072 70.1251 55.3072C54.9243 55.3072 39.7583 55.3072 24.5575 55.3072C18.1224 55.3072 13.9483 59.5509 13.9483 66.0208C13.9483 76.4561 13.9831 86.8914 13.9135 97.3268C13.9135 98.1964 13.4961 99.2399 12.9743 99.9356C9.87852 103.762 6.71313 107.553 3.54775 111.31C1.18241 114.128 0.034523 117.363 0.034523 121.05C0.0693054 135.59 0.034523 150.164 0.034523 164.704C0.034523 165.261 0.034523 165.852 0.034523 166.513C1.8781 166.513 3.61732 166.513 5.60003 166.513C5.60003 165.887 5.60003 165.226 5.60003 164.565C5.60003 150.303 5.63481 136.042 5.56525 121.78C5.56525 118.893 6.33051 116.458 8.24365 114.336C10.0872 112.284 11.7917 110.093 13.9135 107.553C13.9135 110.267 13.7048 112.493 13.9483 114.684C14.4005 118.928 13.6352 122.545 9.84373 125.05C9.63503 125.189 9.49589 125.502 9.2524 125.78C10.5394 126.998 11.8264 128.181 13.183 129.468C13.5657 129.12 14.0179 128.702 14.4701 128.25C20.4182 122.302 26.3663 116.354 32.3145 110.44C34.0885 108.666 36.5234 108.284 38.5061 109.362C40.4192 110.406 41.5671 112.597 41.0106 114.789C40.7323 115.902 40.0018 117.015 39.2018 117.85C34.158 122.998 29.0795 128.041 23.9662 133.12C21.8443 135.242 21.8096 135.798 23.201 138.407C27.1664 145.816 27.2707 153.295 23.2705 160.669C22.2618 162.582 22.2618 164.461 22.3661 166.617ZM19.5486 74.9256C38.1582 74.9256 56.6288 74.9256 75.0645 74.9256C75.0645 99.0312 75.0645 122.998 75.0645 147.068C60.5594 147.068 46.1587 147.068 31.7579 147.068C31.3753 145.121 30.9927 143.242 30.61 141.329C31.9318 141.433 33.0797 141.573 34.2276 141.573C43.0281 141.607 51.8633 141.573 60.6638 141.573C66.0901 141.573 69.6034 138.094 69.6034 132.668C69.6034 118.163 69.6034 103.692 69.6034 89.1872C69.6034 83.8652 66.0901 80.352 60.8029 80.352C51.8633 80.352 42.9585 80.352 34.0189 80.352C28.5578 80.352 25.0793 83.8304 25.0793 89.2568C25.0793 95.6223 25.0793 102.023 25.0793 108.388C25.0793 108.91 25.1837 109.571 24.9054 109.884C23.2705 111.658 21.5313 113.362 19.5834 115.31C19.5486 101.57 19.5486 88.3176 19.5486 74.9256ZM41.7758 85.9175C48.1762 85.9175 54.3678 85.9175 60.5594 85.9175C63.0639 85.9175 64.0031 86.8914 64.0031 89.3959C64.0031 103.762 64.0031 118.128 64.0031 132.494C64.0031 134.998 63.0291 135.972 60.5594 136.007C54.7504 136.007 48.9762 136.007 43.1672 136.007C42.715 136.007 42.2976 135.937 41.741 135.903C41.741 132.459 41.8454 129.085 41.7063 125.746C41.6367 123.972 42.1932 122.754 43.4455 121.502C48.3501 116.632 47.9327 109.64 42.5759 105.223C42.1932 104.91 41.7758 104.318 41.7758 103.866C41.741 97.9877 41.7758 92.0743 41.7758 85.9175ZM75.1341 69.1166C56.4896 69.1166 38.0191 69.1166 19.479 69.1166C19.479 67.8991 19.479 66.8208 19.479 65.7077C19.5138 62.6467 21.2878 60.9075 24.3836 60.8727C28.1055 60.8379 31.7927 60.8727 35.5146 60.8727C47.0978 60.8727 58.6811 60.8727 70.2643 60.8727C73.047 60.8727 74.9602 62.5076 75.1341 65.012C75.2037 66.3338 75.1341 67.6904 75.1341 69.1166ZM29.6013 161.052C30.3665 158.2 31.0622 155.521 31.7927 152.808C46.1934 152.808 60.5942 152.808 75.1689 152.808C75.1689 153.747 75.1689 154.617 75.1689 155.486C75.1689 159.487 73.6036 161.087 69.6381 161.087C56.9071 161.087 44.1412 161.087 31.4101 161.087C30.8187 161.052 30.2274 161.052 29.6013 161.052ZM30.6448 104.353C30.6448 99.1008 30.61 93.8135 30.6796 88.5611C30.7144 87.0306 31.6883 86.1262 33.2189 85.9523C34.158 85.8479 35.132 85.9175 36.1407 85.9175C36.1407 91.7265 36.1407 97.3268 36.1407 102.823C34.2972 103.344 32.5927 103.831 30.6448 104.353ZM36.106 136.216C34.6102 135.972 33.1841 135.833 31.8623 135.416C31.5144 135.311 31.097 134.059 31.2709 133.85C32.7319 132.216 34.332 130.685 36.106 128.876C36.106 131.485 36.106 133.676 36.106 136.216Z" fill="white" fill-opacity="0.03"/>
<path d="M100.11 27.479C100.11 34.0533 100.11 40.4188 100.11 46.9583C99.2061 46.9583 98.3365 46.9235 97.5016 46.9583C95.7624 47.0279 94.6841 48.0714 94.6493 49.8106C94.6145 53.463 94.5798 57.1154 94.6493 60.7677C94.6841 62.7505 95.832 63.6548 98.1625 63.6548C114.163 63.6548 130.164 63.6548 146.165 63.6548C151.904 63.6548 157.644 63.6548 163.383 63.6548C166.097 63.6548 167.001 62.7504 167.001 59.9677C167.001 56.9067 167.001 53.8109 167.001 50.7498C167.001 47.7931 166.166 46.9583 163.175 46.9583C162.653 46.9583 162.166 46.9583 161.54 46.9583C161.54 40.4188 161.54 34.0185 161.54 27.479C162.235 27.479 162.862 27.479 163.488 27.479C165.992 27.479 166.966 26.5399 167.001 24.0702C167.001 20.7657 166.966 17.4611 167.001 14.1566C167.036 12.313 166.201 11.3043 164.462 10.713C154.409 7.40843 144.356 4.10392 134.338 0.625473C131.903 -0.209353 129.782 -0.244138 127.312 0.590689C117.468 3.99956 107.554 7.19973 97.6756 10.5042C94.9624 11.4086 94.5798 11.9304 94.5798 14.7479C94.5798 17.7046 94.5798 20.6613 94.5798 23.618C94.5798 26.6094 95.4146 27.4443 98.3712 27.479C98.9278 27.479 99.4496 27.479 100.11 27.479ZM161.401 21.8092C140.878 21.8092 120.564 21.8092 100.18 21.8092C100.18 20.1743 100.25 18.6786 100.145 17.1829C100.041 16.0002 100.458 15.4436 101.606 15.0958C110.963 12.0348 120.285 8.90417 129.642 5.84314C130.303 5.63443 131.173 5.56486 131.799 5.77357C141.295 8.90417 150.791 12.0695 160.288 15.3045C160.774 15.4784 161.331 16.1741 161.366 16.6959C161.505 18.3307 161.401 20.0004 161.401 21.8092ZM161.331 57.985C140.878 57.985 120.564 57.985 100.284 57.985C100.284 56.1414 100.284 54.437 100.284 52.6282C120.668 52.6282 140.982 52.6282 161.331 52.6282C161.331 54.437 161.331 56.1414 161.331 57.985ZM150.444 46.8888C150.444 40.3145 150.444 33.9142 150.444 27.5834C152.287 27.5834 154.026 27.5834 155.766 27.5834C155.766 34.0533 155.766 40.4536 155.766 46.8888C153.922 46.8888 152.218 46.8888 150.444 46.8888ZM139.278 46.8888C139.278 40.3493 139.278 33.9489 139.278 27.6182C141.156 27.6182 142.93 27.6182 144.635 27.6182C144.635 34.1229 144.635 40.4536 144.635 46.8888C142.826 46.8888 141.121 46.8888 139.278 46.8888ZM133.469 27.5834C133.469 34.1229 133.469 40.4884 133.469 46.854C131.59 46.854 129.816 46.854 128.112 46.854C128.112 40.3493 128.112 34.0185 128.112 27.5834C129.921 27.5834 131.625 27.5834 133.469 27.5834ZM122.372 46.854C120.529 46.854 118.79 46.854 117.016 46.854C117.016 40.3493 117.016 33.9837 117.016 27.6182C118.894 27.6182 120.633 27.6182 122.372 27.6182C122.372 34.1229 122.372 40.4536 122.372 46.854ZM111.241 46.854C109.363 46.854 107.624 46.854 105.885 46.854C105.885 40.3493 105.885 33.9489 105.885 27.5834C107.728 27.5834 109.433 27.5834 111.241 27.5834C111.241 34.0185 111.241 40.3493 111.241 46.854Z" fill="white" fill-opacity="0.03"/>
<path d="M89.1881 38.5411C90.9969 38.5411 92.7013 38.5411 94.5449 38.5411C94.5449 36.7323 94.5449 34.9583 94.5449 33.1147C92.7709 33.1147 91.0317 33.1147 89.1881 33.1147C89.1881 34.8888 89.1881 36.628 89.1881 38.5411Z" fill="white" fill-opacity="0.03"/>
<path d="M78.0569 38.5411C79.8657 38.5411 81.5701 38.5411 83.3789 38.5411C83.3789 36.7323 83.3789 34.9583 83.3789 33.1147C81.6049 33.1147 79.9005 33.1147 78.0569 33.1147C78.0569 34.8888 78.0569 36.628 78.0569 38.5411Z" fill="white" fill-opacity="0.03"/>
<path d="M66.9244 38.5411C68.7332 38.5411 70.4377 38.5411 72.2812 38.5411C72.2812 36.7323 72.2812 34.9583 72.2812 33.1147C70.5072 33.1147 68.768 33.1147 66.9244 33.1147C66.9244 34.8888 66.9244 36.628 66.9244 38.5411Z" fill="white" fill-opacity="0.03"/>
<path d="M61.1191 33.1495C59.2756 33.1495 57.5363 33.1495 55.7623 33.1495C55.7623 34.9583 55.7623 36.6628 55.7623 38.5063C57.5016 38.5063 59.2408 38.5063 61.1191 38.5063C61.1191 36.7671 61.1191 35.0279 61.1191 33.1495Z" fill="white" fill-opacity="0.03"/>
<path d="M44.6643 38.5759C46.5079 38.5759 48.1775 38.5759 49.9863 38.5759C49.9863 36.8019 49.9863 35.0279 49.9863 33.1495C48.2819 33.1495 46.5427 33.1495 44.6643 33.1495C44.6643 34.9235 44.6643 36.6975 44.6643 38.5759Z" fill="white" fill-opacity="0.03"/>
<path d="M44.6643 49.6721C46.4731 49.6721 48.1775 49.6721 49.9863 49.6721C49.9863 47.8633 49.9863 46.0893 49.9863 44.2458C48.2123 44.2458 46.5079 44.2458 44.6643 44.2458C44.6643 46.0198 44.6643 47.759 44.6643 49.6721Z" fill="white" fill-opacity="0.03"/>
<path d="M58.3711 122.198C56.5971 122.198 54.8579 122.198 53.0143 122.198C53.0143 124.876 53.0143 127.554 53.0143 130.337C54.7535 130.337 56.4927 130.337 58.3711 130.337C58.3711 127.624 58.3711 124.946 58.3711 122.198Z" fill="white" fill-opacity="0.03"/>
<path d="M133.504 10.8527C131.695 10.8527 129.991 10.8527 128.147 10.8527C128.147 12.6267 128.147 14.3659 128.147 16.2443C129.886 16.2443 131.66 16.2443 133.504 16.2443C133.504 14.5051 133.504 12.7659 133.504 10.8527Z" fill="white" fill-opacity="0.03"/>
</g>
<defs>
<clipPath id="clip0">
<rect width="167" height="166.617" fill="white" transform="matrix(-1 0 0 1 167 0)"/>
</clipPath>
</defs>
</svg>
