<svg width="172" height="172" viewBox="0 0 172 172" fill="none" xmlns="http://www.w3.org/2000/svg">
<g clip-path="url(#clip0)">
<path d="M50.351 28.1715C49.6891 32.0719 49.066 35.7429 48.4486 39.3812C48.0147 41.9378 47.608 44.5327 47.1414 47.0837C46.6364 49.662 44.6699 51.1154 42.2772 50.7094C39.819 50.2922 38.3822 48.2274 38.8383 45.5397C40.1127 37.8316 41.1578 30.0845 42.8583 22.4487C43.9549 17.5767 47.2563 13.8207 51.413 10.9855C56.2543 7.69314 61.5708 6.36983 67.4706 7.3711C92.3099 11.6204 117.199 15.7768 142.032 20.0589C153.63 22.0608 161.588 33.1904 159.717 44.8101C157.851 56.397 155.849 67.9945 153.82 79.5536C151.708 91.6043 140.797 99.4642 128.702 97.6139C122.228 96.6164 115.815 95.4605 109.363 94.3319C106.577 93.8591 105.009 91.7721 105.421 89.3466C105.844 86.8555 108.001 85.4682 110.787 85.941C117.25 87.0041 123.669 88.1271 130.126 89.223C138.391 90.592 143.945 86.6787 145.445 78.4356C146.312 73.5247 147.114 68.6026 147.948 63.6861C148.032 63.1944 148.044 62.7244 148.122 62.0633C147.401 61.9409 146.746 61.8297 146.123 61.724C116.394 56.6787 86.6985 51.6389 56.9755 46.5608C56.1233 46.4162 55.2111 46.2277 54.4361 45.8264C52.7663 44.936 51.9696 42.6764 52.5322 40.9509C53.2104 38.9416 55.0723 37.7065 57.2084 38.0353C61.7427 38.7373 66.2931 39.5433 70.8164 40.311C96.3823 44.6498 121.948 48.9887 147.514 53.3275C148.17 53.4388 148.792 53.5445 149.94 53.7392C150.496 48.6743 151.527 43.7911 151.47 38.9594C151.405 33.3843 146.973 29.4961 140.619 28.3842C124.237 25.5701 107.843 22.8216 91.4542 20.0402C82.9978 18.6051 74.5086 17.1644 66.0521 15.7292C61.955 15.0339 58.106 15.4597 54.8182 18.3413C54.3414 18.7662 53.9135 19.3005 53.2611 19.9654C54.0094 20.1261 54.5227 20.2806 55.0144 20.3641C83.9236 25.2703 112.8 30.171 141.709 35.0773C142.463 35.2052 143.255 35.3059 144.004 35.4666C146.511 35.9933 148.013 38.0692 147.618 40.3964C147.19 42.7179 145.049 44.2092 142.525 43.7808C134.555 42.4619 126.557 41.1046 118.598 39.7201C96.4081 35.9542 74.2509 32.1939 52.061 28.428C51.531 28.3717 51.0721 28.2939 50.351 28.1715Z" fill="white" fill-opacity="0.03"/>
<path d="M101.497 108.104C97.2637 133.047 72.4964 150.627 47.586 146.4C22.5773 142.155 4.96966 117.35 9.24117 92.3794C13.5015 67.4745 38.3016 49.8997 63.2065 54.1601C88.1769 58.4316 105.73 83.1606 101.497 108.104ZM17.6543 93.6723C13.9724 115.168 27.5084 134.36 48.9717 138.036C70.2711 141.685 89.468 128.116 93.1437 106.855C96.8639 85.3315 83.2896 66.1673 61.6625 62.4632C40.5597 58.848 21.275 72.5368 17.6543 93.6723Z" fill="white" fill-opacity="0.03"/>
<path d="M98.2791 151.125C99.6837 152.981 101.072 154.735 102.351 156.537C104.099 158.957 103.834 161.509 101.764 162.979C99.6495 164.508 97.2135 163.96 95.4663 161.539C92.1133 156.856 88.7604 152.173 85.4459 147.463C83.8674 145.239 84.2463 142.808 86.47 141.23C91.2241 137.855 95.9726 134.513 100.721 131.172C103.054 129.544 105.562 129.869 107.032 131.939C108.441 133.965 107.882 136.467 105.609 138.138C103.878 139.396 102.081 140.642 100.351 141.899C100.274 141.954 100.219 142.079 100.137 142.166C115.426 147.054 132.666 138.852 134.281 117.815C132.287 119.23 130.507 120.58 128.618 121.777C127.818 122.316 126.86 122.794 125.931 122.906C124.001 123.151 122.283 121.949 121.638 120.188C120.992 118.426 121.523 116.493 123.139 115.317C125.68 113.455 128.282 111.637 130.85 109.814C133.112 108.208 135.342 106.597 137.609 104.959C139.915 103.293 142.352 103.639 143.985 105.94C147.414 110.77 150.843 115.601 154.228 120.492C155.474 122.288 155.359 124.157 154.087 125.695C152.902 127.112 151.053 127.675 149.295 126.905C148.482 126.531 147.713 125.894 147.163 125.16C145.792 123.309 144.54 121.343 143.169 119.289C138.014 143.705 123.28 154.221 98.2791 151.125Z" fill="white" fill-opacity="0.03"/>
<path d="M132.499 65.9197C135.476 66.4587 137.007 69.7535 135.322 72.3337C133.466 75.1211 131.419 77.8423 129.351 80.4925C127.93 82.3083 125.497 82.5361 123.692 81.2518C121.854 79.962 121.238 77.4296 122.539 75.526C124.428 72.7441 126.469 70.0556 128.51 67.3672C129.47 66.0801 130.898 65.6143 132.499 65.9197Z" fill="white" fill-opacity="0.03"/>
<path d="M109.485 74.1535C111.685 71.1212 113.72 67.0827 117.21 64.2017C118.585 63.0526 120.939 63.6881 122.197 65.0145C123.483 66.3792 123.832 68.4954 122.756 70.0663C120.786 72.9354 118.722 75.7549 116.604 78.4978C115.403 80.0137 113.298 80.2971 111.622 79.4396C109.893 78.5053 109.04 76.7756 109.485 74.1535Z" fill="white" fill-opacity="0.03"/>
<path d="M38.4964 123.275C36.3004 122.903 34.3937 122.613 32.4982 122.257C29.8489 121.774 28.3082 119.725 28.7198 117.3C29.1148 114.973 31.2123 113.542 33.7856 113.877C34.3812 113.944 34.9656 114.077 35.6211 114.189C37.5347 102.913 39.4148 91.8348 41.3284 80.5596C40.5417 80.4261 39.8479 80.342 39.1651 80.1924C36.9202 79.7103 35.4562 77.6072 35.8017 75.3728C36.1688 73.2095 38.0919 71.6138 40.343 71.861C42.5285 72.097 44.6751 72.5625 47.0023 72.9574C47.2637 71.4169 47.4423 70.1658 47.6865 68.9258C48.1859 66.3804 50.1963 64.8669 52.5618 65.2346C54.9928 65.6135 56.4896 67.7222 56.1101 70.3554C55.9315 71.6065 55.6874 72.8465 55.4871 74.0264C55.656 74.2237 55.6993 74.3659 55.7976 74.3826C59.5002 75.4157 59.5002 75.4157 60.2444 71.428C60.6665 69.1392 61.7635 67.8416 63.683 67.4593C65.362 67.1035 67.1802 67.7156 67.9627 69.2646C68.4464 70.1898 68.6506 71.3709 68.6092 72.4093C68.5611 73.8848 68.1414 75.3647 67.9022 76.7741C77.7123 84.3402 78.9164 91.1538 71.9284 99.5446C76.4546 104.865 78.8583 110.77 75.4552 117.509C72.2554 123.845 66.7264 126.819 59.4186 126.961C59.2072 128.207 59.0119 129.556 58.7511 130.894C58.29 133.413 56.2085 134.948 53.8813 134.553C51.5486 134.191 50.0902 132.055 50.4202 129.514C50.6099 128.198 50.8596 126.925 51.1211 125.384C50.3016 125.245 49.6789 125.14 49.0561 125.034C48.4006 124.923 47.7778 124.817 46.9256 124.672C46.6864 126.082 46.5078 127.333 46.2637 128.573C45.7531 131.184 43.6933 132.79 41.3278 132.422C38.9623 132.054 37.4494 129.842 37.8233 127.241C38.0019 125.99 38.2461 124.75 38.4964 123.275ZM44.2365 115.482C50.1363 116.483 55.8061 117.648 61.5865 118.359C65.3893 118.802 67.9387 116.099 68.5252 111.848C69.0839 107.762 67.2184 104.646 63.4985 103.914C58.0143 102.848 52.4855 102.045 46.9462 101.105C46.8807 101.094 46.7601 101.208 46.6506 101.257C45.8496 105.977 45.0542 110.664 44.2365 115.482ZM48.1359 92.5056C52.7246 93.2844 57.2151 94.0464 61.6727 94.803C65.2126 95.4037 67.239 93.9941 67.8615 90.5253C68.4455 87.0838 66.9815 84.9807 63.5127 84.3583C59.5195 83.6468 55.548 83.0065 51.5492 82.3279C51.0248 82.2389 50.4892 82.2154 49.8937 82.1481C49.304 85.6224 48.7366 88.9657 48.1359 92.5056Z" fill="white" fill-opacity="0.03"/>
</g>
<defs>
<clipPath id="clip0">
<rect width="148.94" height="148.973" fill="white" transform="translate(24.9258 0.151031) rotate(9.63203)"/>
</clipPath>
</defs>
</svg>
