<svg width="199" height="154" viewBox="0 0 199 154" fill="none" xmlns="http://www.w3.org/2000/svg">
<g clip-path="url(#clip0)">
<path d="M167.629 144.06C167.629 142.991 167.629 141.965 167.629 140.94C167.629 108.714 167.629 76.4875 167.629 44.2165C167.629 43.5479 167.629 42.8794 167.673 42.2108C167.896 39.3135 169.809 37.4414 172.524 37.486C175.238 37.486 177.196 39.3581 177.285 42.2999C177.374 46.7572 177.33 51.2145 177.33 55.6718C177.33 84.3323 177.33 112.993 177.33 141.698C177.33 142.411 177.374 143.169 177.463 144.239C179.911 144.239 182.225 144.239 184.583 144.239C187.386 144.239 190.234 144.239 193.038 144.239C196.731 144.283 199.001 146.111 199.001 149.097C199.045 152.173 196.776 154 192.904 154C134.922 154 76.9397 154 18.9573 154C14.5074 154 10.0575 154.045 5.60758 154C2.04766 153.955 -0.0438031 152.173 0.000696055 149.142C0.0451952 146.155 2.13665 144.328 5.69658 144.283C11.4815 144.239 17.2663 144.283 23.0512 144.283C23.4962 144.283 23.8967 144.194 24.5642 144.149C24.5642 143.169 24.5642 142.322 24.5642 141.43C24.5642 124.27 24.5642 107.109 24.5642 89.9485C24.5642 89.3691 24.5642 88.7451 24.6087 88.1656C24.7867 85.6695 26.5667 83.7974 28.9696 83.5746C31.4616 83.3517 33.642 84.8672 34.1315 87.4524C34.354 88.6113 34.3095 89.8148 34.3095 91.0183C34.3095 107.822 34.3095 124.582 34.3095 141.386C34.3095 142.277 34.3095 143.124 34.3095 144.149C43.2983 144.149 52.0647 144.149 61.0535 144.149C61.0535 143.169 61.0535 142.277 61.0535 141.386C61.0535 117.004 61.0535 92.6675 61.0535 68.286C61.0535 64.8985 62.6109 62.8035 65.3699 62.5807C68.5738 62.2686 70.7543 64.4527 70.7988 68.1523C70.8433 75.8189 70.7988 83.4409 70.7988 91.1074C70.7988 107.956 70.7988 124.849 70.7988 141.698C70.7988 142.456 70.7988 143.169 70.7988 144.105C79.0756 144.105 87.2635 144.105 95.6738 144.105C95.6738 143.169 95.6738 142.277 95.6738 141.43C95.6738 116.247 95.6738 91.0629 95.6738 65.8791C95.6738 64.8539 95.6738 63.7841 95.7628 62.759C96.0298 60.3074 98.0322 58.6136 100.435 58.5691C102.883 58.5691 104.841 60.1737 105.197 62.6698C105.33 63.5613 105.33 64.4527 105.33 65.3442C105.33 90.7509 105.33 116.158 105.33 141.564C105.33 142.366 105.33 143.169 105.33 144.149C114.23 144.149 122.907 144.149 131.852 144.149C131.852 143.213 131.852 142.322 131.852 141.43C131.852 120.169 131.852 98.9523 131.852 77.6909C131.852 76.9332 131.807 76.22 131.896 75.4623C132.119 73.0999 133.943 71.2724 136.212 71.0941C138.66 70.8713 140.751 72.2976 141.374 74.7045C141.597 75.6406 141.597 76.6212 141.597 77.5572C141.597 98.7294 141.597 119.902 141.597 141.074C141.597 142.01 141.597 142.991 141.597 144.105C150.274 144.06 158.818 144.06 167.629 144.06Z" fill="white" fill-opacity="0.03"/>
<path d="M167.406 13.2828C164.291 14.1743 161.666 14.9766 159.04 15.556C157.705 15.8235 156.192 16.0018 154.946 15.6006C152.944 14.9766 151.965 13.2382 151.92 11.0987C151.876 8.91464 153.3 7.08715 155.658 6.41855C160.909 4.90307 166.204 3.43216 171.5 1.96124C173.502 1.38179 175.505 0.802344 177.507 0.267467C181.601 -0.84686 184.271 1.06978 184.405 5.30422C184.716 12.8816 184.983 20.4591 185.25 28.0365C185.339 30.176 184.494 31.8252 182.58 32.7612C180.845 33.6527 178.887 33.6973 177.596 32.2709C176.528 31.112 175.772 29.4183 175.549 27.8582C175.238 25.3175 175.46 22.7323 175.46 20.1471C175.149 19.9688 174.837 19.835 174.526 19.6568C174.259 20.1471 174.081 20.7265 173.725 21.1277C162.867 34.0093 152.054 46.9355 141.196 59.8171C138.659 62.8481 137.058 63.2047 133.453 61.5555C117.656 54.29 101.814 47.0692 86.017 39.7146C84.5931 39.046 83.6586 39.2243 82.4571 40.0712C59.3621 55.9838 36.267 71.8518 13.172 87.7198C12.9495 87.8981 12.6825 88.0764 12.46 88.2101C9.34508 90.3051 6.63064 90.0822 4.85067 87.5861C3.11521 85.1792 3.91619 82.2819 6.89763 80.2316C15.8865 74.0359 24.8753 67.8848 33.8196 61.6892C49.0828 51.1699 64.3905 40.6952 79.6092 30.1314C82.1456 28.3485 84.4596 28.2148 87.263 29.5074C102.571 36.6391 117.967 43.6371 133.275 50.7242C134.788 51.4374 135.634 51.3928 136.791 50.011C146.536 38.3329 156.37 26.6993 166.16 15.0657C166.471 14.6646 166.738 14.1743 167.406 13.2828Z" fill="white" fill-opacity="0.03"/>
</g>
<defs>
<clipPath id="clip0">
<rect width="199" height="154" fill="white"/>
</clipPath>
</defs>
</svg>
