<svg width="190" height="156" viewBox="0 0 190 156" fill="none" xmlns="http://www.w3.org/2000/svg">
<rect opacity="0.2" y="79" width="190" height="77" rx="12" fill="#EDBD41"/>
<rect x="12" y="90" width="166" height="55" rx="12" fill="#EDBD41"/>
<path d="M79.618 118.15V122.164H83.596C85.036 122.164 85.756 121.486 85.756 120.13C85.756 118.81 85.036 118.15 83.596 118.15H79.618ZM77.368 124V111.148H83.614C84.802 111.148 85.732 111.418 86.404 111.958C87.088 112.498 87.43 113.29 87.43 114.334C87.43 115.63 86.818 116.542 85.594 117.07V117.106C87.202 117.454 88.006 118.558 88.006 120.418C88.006 121.486 87.634 122.332 86.89 122.956C86.062 123.652 84.856 124 83.272 124H77.368ZM79.618 112.984V116.53H83.29C83.842 116.53 84.292 116.374 84.64 116.062C85 115.75 85.18 115.312 85.18 114.748C85.18 113.572 84.55 112.984 83.29 112.984H79.618ZM89.8978 119.374V111.148H92.1478V118.636C92.1478 119.8 92.2858 120.634 92.5618 121.138C93.0058 121.954 93.8758 122.362 95.1718 122.362C96.4678 122.362 97.3378 121.954 97.7818 121.138C98.0578 120.634 98.1958 119.8 98.1958 118.636V111.148H100.446V119.374C100.446 120.982 99.9658 122.218 99.0058 123.082C98.0818 123.898 96.8038 124.306 95.1718 124.306C93.5398 124.306 92.2678 123.898 91.3558 123.082C90.3838 122.218 89.8978 120.982 89.8978 119.374ZM106.38 124V118.96L101.556 111.148H104.166L107.568 116.908L110.916 111.148H113.436L108.63 118.96V124H106.38Z" fill="white"/>
<path d="M116.097 74.293L124.134 33.9171L142.582 42.7753L116.097 74.293Z" fill="#EDBD41"/>
<path d="M98.2579 61.6594L88.8842 21.5729L109.344 22.0122L98.2579 61.6594Z" fill="#EDBD41"/>
<path d="M80.3106 74.2348L53.6789 42.8413L72.0852 33.897L80.3106 74.2348Z" fill="#EDBD41"/>
</svg>
