<svg width="251" height="324" viewBox="0 0 251 324" fill="none" xmlns="http://www.w3.org/2000/svg">
<g clip-path="url(#clip0)">
<path d="M111.526 256.113L69.3701 275.357C66.5019 276.693 66.035 280.568 68.5696 282.506L113.193 316.784C117.596 320.125 123.465 320.793 128.468 318.521L192.569 289.255C196.037 287.651 196.571 280.702 192.969 279.499L114.527 255.913C113.527 255.645 112.46 255.645 111.526 256.113Z" fill="#EAE3E0"/>
<path d="M114.527 255.912C113.527 255.578 112.46 255.645 111.526 256.113L69.3701 275.356C66.5019 276.693 66.035 280.568 68.5696 282.506L113.193 316.784C116.929 319.657 121.664 320.525 126.067 319.323V259.454L114.527 255.912Z" fill="#D8D1CF"/>
<path d="M114.527 255.912C113.527 255.578 112.46 255.645 111.526 256.113L69.3701 275.356C66.5019 276.693 66.035 280.568 68.5696 282.506L113.193 316.784C113.727 317.184 114.261 317.585 114.861 317.919V256.113L114.527 255.912Z" fill="#9D9996"/>
<path d="M111.526 253.24L69.3701 272.483C66.5019 273.819 66.035 277.695 68.5696 279.633L113.193 313.91C117.596 317.251 123.465 317.919 128.468 315.647L192.569 286.381C196.037 284.778 195.771 279.766 192.169 278.63L114.594 253.173C113.527 252.705 112.46 252.772 111.526 253.24Z" fill="#C3BEBB"/>
<path d="M119.131 254.643C118.131 254.309 117.063 254.376 116.129 254.843L74.0405 274.087C71.1723 275.423 69.6381 280.969 72.1061 282.84L99.2538 303.219L157.885 267.338L119.131 254.643Z" fill="#ACA8A5"/>
<path d="M0 118.736V312.441C0 318.321 9.27159 325.203 14.5411 322.798L240.528 214.018C243.396 212.682 245.197 209.876 245.197 206.668L249.799 7.48417C249.799 1.6042 239.127 -1.66988 233.791 0.735565L9.13819 104.504C3.60191 107.043 0 112.589 0 118.736Z" fill="#C3BEBB"/>
<path d="M9.00478 104.57C3.53521 107.176 0 112.655 0 118.735V312.44C0 318.32 9.27159 325.203 14.5411 322.797L37.0197 311.973V108.846L9.00478 104.57Z" fill="#B2ADAA"/>
<path d="M5.73633 122.277V315.982C5.73633 321.862 11.8062 325.737 17.0757 323.332L246.264 217.626C249.132 216.289 250.933 213.483 250.933 210.276V11.6261C250.933 5.74609 244.863 1.87065 239.594 4.2761L14.8745 108.044C9.33824 110.583 5.73633 116.129 5.73633 122.277Z" fill="#232B38"/>
<path d="M5.73633 315.982C5.73633 321.862 11.8062 325.737 17.0757 323.332L246.264 217.626C249.132 216.289 250.933 213.483 250.933 210.276V184.15L5.73633 297.206V315.982Z" fill="#EAE3E0"/>
<g opacity="0.41">
<path opacity="0.41" d="M246.264 214.686L17.0757 320.392C11.7395 322.797 5.73633 318.922 5.73633 313.042V315.915C5.73633 321.795 11.8062 325.67 17.0757 323.265L246.264 217.559C249.132 216.223 250.933 213.416 250.933 210.209V207.336C251 210.476 249.132 213.35 246.264 214.686Z" fill="#ACA8A5"/>
</g>
<path d="M16.4082 121.675V276.96C16.4082 279.432 18.9429 281.036 21.1441 280.034L239.393 180.341C240.594 179.807 241.328 178.604 241.328 177.268V21.916C241.328 19.4437 238.793 17.8401 236.592 18.8424L18.4093 118.602C17.2086 119.136 16.4082 120.339 16.4082 121.675Z" fill="white"/>
<path d="M6.00355 131.163C6.00355 131.163 6.07025 140.651 6.13695 154.883C6.13695 161.966 6.20366 170.318 6.20366 179.205C6.20366 188.092 6.20366 197.58 6.27036 207.068C6.27036 216.556 6.27036 226.045 6.20366 234.931C6.20366 243.818 6.13695 252.104 6.13695 259.253C6.07025 273.352 6.00355 282.84 6.00355 282.84C6.00355 282.973 5.87015 283.107 5.73674 283.107C5.60334 283.107 5.46993 282.973 5.46993 282.84C5.46993 282.84 5.40323 273.352 5.33653 259.119C5.33653 252.037 5.26983 243.684 5.26983 234.798C5.26983 225.911 5.26983 216.423 5.20312 206.935C5.20312 197.446 5.20312 187.958 5.26983 179.072C5.26983 170.185 5.33653 161.899 5.33653 154.75C5.40323 140.518 5.46993 131.029 5.46993 131.029C5.46993 130.896 5.60334 130.762 5.73674 130.762C5.87015 130.896 6.00355 131.029 6.00355 131.163Z" fill="white"/>
<path d="M215.115 15.7019C215.115 15.7019 203.042 21.3146 184.966 29.8004C175.961 33.9432 165.356 38.8877 154.083 44.0995C142.744 49.3113 130.671 54.924 118.598 60.5367C106.524 66.0826 94.4514 71.6953 83.112 76.9071C71.7727 82.1189 61.167 86.9297 52.0956 91.1393C33.9526 99.3579 21.8128 104.904 21.8128 104.904C21.6794 104.971 21.546 104.904 21.4793 104.77C21.4126 104.636 21.4793 104.503 21.6127 104.436C21.6127 104.436 33.6858 98.8233 51.762 90.3375C60.8335 86.1279 71.3725 81.2502 82.7118 75.9716C94.0512 70.7598 106.124 65.1471 118.197 59.5344C130.27 53.9885 142.343 48.3758 153.683 43.164C165.022 37.9522 175.628 33.1413 184.699 28.9318C202.842 20.6464 214.982 15.1673 214.982 15.1673C215.115 15.1005 215.249 15.1673 215.316 15.301C215.316 15.5014 215.249 15.6351 215.115 15.7019Z" fill="white"/>
<path d="M67 210L117.042 114.122L176.331 160.144L197 107" stroke="#333333" stroke-width="2"/>
<path d="M42 214L63.5 172.5L118 184.5L141 146.5L156 152.5L171.5 133.5L187.5 152.5L219.5 90" stroke="#EDBD41" stroke-width="2"/>
</g>
<defs>
<clipPath id="clip0">
<rect width="251" height="324" fill="white"/>
</clipPath>
</defs>
</svg>
