<svg width="209" height="160" viewBox="0 0 209 160" fill="none" xmlns="http://www.w3.org/2000/svg">
<g clip-path="url(#clip0)">
<path d="M65.8711 61.9455L2.3049 85.5679C-1.46716 87.3151 -0.209808 97.5888 3.56225 99.2662L131.952 158.462C136.353 160.489 141.452 160.489 145.853 158.462L205.158 131.275C209.07 129.458 210.746 120.512 206.764 118.695L74.463 61.9455C71.7387 60.6875 68.5953 60.6875 65.8711 61.9455Z" fill="#877D7C"/>
<path d="M65.8714 61.0373L2.30527 84.6597C-1.53665 86.4069 -0.209441 96.6806 3.56262 98.4278L131.952 157.624C136.353 159.651 141.452 159.651 145.853 157.624L205.158 130.437C209.07 128.62 210.746 119.674 206.765 117.857L74.4633 61.0373C71.7391 59.7792 68.5957 59.7792 65.8714 61.0373Z" fill="#DECDCB"/>
<path d="M138.588 156.016C138.239 153.361 141.801 152.941 143.827 151.753L2.30515 84.6597C1.95588 84.7994 1.60662 85.079 1.39706 85.3586C1.1875 85.5682 1.04779 85.7779 0.908088 86.0574C0.698529 86.2671 0.628676 86.5467 0.488971 86.8262C0.419118 86.966 0.419118 87.1058 0.349265 87.2456C0.139706 88.0842 0 88.9229 0 89.8315C0 90.1809 0 90.6002 0 90.9497C0 91.2991 0.0698529 91.7185 0.139706 92.0679C0.349265 93.3958 0.698529 94.6538 1.1875 95.772C1.32721 96.0516 1.46691 96.401 1.67647 96.6107C1.81618 96.8902 2.02574 97.0999 2.23529 97.3795C2.44485 97.5891 2.65441 97.7988 2.86397 98.0085C3.07353 98.1482 3.28309 98.288 3.5625 98.4278L131.952 157.624C135.515 159.231 139.426 159.581 143.129 158.602C140.963 158.602 138.868 158.183 138.588 156.016Z" fill="#C9BAB9"/>
<path d="M65.8722 54.3977L3.56342 82.9823C-0.20864 84.7295 -0.20864 90.1109 3.56342 91.8582L131.953 151.054C136.354 153.081 141.453 153.081 145.854 151.054L205.159 123.867C209.071 122.05 209.071 116.459 205.159 114.712L74.534 54.4676C71.7399 53.2096 68.5965 53.2096 65.8722 54.3977Z" fill="#F7EBE3"/>
<path d="M154.725 144.764C154.725 144.764 157.31 143.436 161.152 141.619C163.108 140.711 165.343 139.592 167.788 138.474C170.233 137.356 172.817 136.168 175.402 134.91C177.986 133.722 180.641 132.534 183.085 131.485C185.53 130.367 187.835 129.389 189.791 128.55C191.747 127.711 193.424 127.012 194.541 126.523C195.729 126.034 196.358 125.754 196.358 125.754C196.497 125.685 196.707 125.754 196.777 125.894C196.846 126.034 196.777 126.244 196.637 126.314C196.637 126.314 196.008 126.663 194.891 127.222C193.773 127.781 192.166 128.55 190.21 129.528C188.255 130.437 186.019 131.555 183.574 132.673C181.13 133.792 178.545 134.98 175.96 136.238C173.376 137.426 170.721 138.614 168.277 139.662C165.832 140.781 163.527 141.759 161.571 142.598C157.589 144.275 154.935 145.393 154.935 145.393C154.795 145.463 154.585 145.393 154.516 145.253C154.516 144.974 154.585 144.834 154.725 144.764Z" fill="white"/>
<path d="M162.338 144.554C162.338 144.554 164.224 143.646 167.018 142.318C168.415 141.619 170.091 140.85 171.838 140.081C173.584 139.243 175.47 138.404 177.356 137.496C179.242 136.657 181.128 135.818 182.944 134.98C184.691 134.211 186.367 133.442 187.834 132.813C189.231 132.184 190.488 131.695 191.257 131.345C192.095 130.996 192.584 130.786 192.584 130.786C192.654 130.716 192.793 130.786 192.863 130.926C192.933 130.996 192.863 131.136 192.793 131.206C192.793 131.206 192.304 131.415 191.536 131.835C190.698 132.254 189.58 132.813 188.183 133.512C186.786 134.211 185.11 134.98 183.363 135.748C181.617 136.587 179.731 137.426 177.845 138.334C175.959 139.173 174.073 140.012 172.327 140.85C170.58 141.619 168.904 142.388 167.437 143.017C164.573 144.275 162.687 145.044 162.687 145.044C162.617 145.113 162.477 145.044 162.407 144.904C162.198 144.694 162.198 144.624 162.338 144.554Z" fill="white"/>
<path d="M79.1432 60.9673L14.0402 90.8099C13.4814 91.0895 13.4814 91.8582 14.0402 92.1378L128.529 144.764C129.088 145.044 129.787 145.044 130.345 144.764L195.029 115.131C195.658 114.852 195.658 113.943 195.029 113.664L80.4704 61.0372C80.1211 60.7577 79.5623 60.7577 79.1432 60.9673Z" fill="white"/>
<path d="M88.4797 109.662L91.8014 107.539C92.2899 107.227 92.579 106.9 92.6688 106.559C92.7491 106.212 92.5628 105.911 92.1098 105.656C91.6003 105.368 91.0951 105.259 90.5944 105.33C90.0937 105.4 89.5666 105.612 89.013 105.966L85.6912 108.089L88.4797 109.662ZM82.2121 108.575L87.8623 104.964C88.9044 104.298 89.9479 103.88 90.9927 103.712C92.0375 103.544 92.9798 103.697 93.8197 104.171C94.3292 104.459 94.6215 104.8 94.6964 105.195C94.7728 105.578 94.6441 105.995 94.3103 106.447L94.3386 106.463C95.1872 106.079 96.0272 105.9 96.8587 105.925C97.6807 105.945 98.4361 106.149 99.125 106.538C99.5213 106.761 99.8127 107.024 99.999 107.325C100.176 107.62 100.218 107.951 100.125 108.317C100.023 108.677 99.7765 109.074 99.3847 109.506C98.9835 109.933 98.4083 110.385 97.6593 110.864L92.3185 114.278L82.2121 108.575ZM92.9101 112.162L96.5086 109.862C97.1274 109.467 97.4682 109.084 97.5311 108.715C97.5953 108.333 97.3727 107.998 96.8631 107.711C96.363 107.429 95.8071 107.324 95.1956 107.397C94.5854 107.457 93.9709 107.686 93.3522 108.081L89.7536 110.381L92.9101 112.162Z" fill="#EDBD41"/>
<path d="M93.5467 101.33L95.5821 100.029L101.47 103.352C101.81 103.544 102.171 103.728 102.553 103.904C102.945 104.073 103.37 104.182 103.827 104.231C104.285 104.267 104.783 104.222 105.32 104.094C105.869 103.959 106.474 103.68 107.136 103.257C107.798 102.834 108.219 102.457 108.398 102.127C108.587 101.79 108.632 101.489 108.532 101.223C108.434 100.946 108.226 100.698 107.91 100.48C107.604 100.255 107.281 100.047 106.942 99.8553L101.053 96.5326L103.089 95.2317L109.557 98.8818C110.208 99.2492 110.661 99.6416 110.914 100.059C111.167 100.476 111.247 100.913 111.154 101.37C111.063 101.815 110.804 102.27 110.378 102.735C109.952 103.2 109.381 103.662 108.665 104.12C107.948 104.578 107.217 104.949 106.47 105.233C105.724 105.517 104.978 105.704 104.234 105.793C103.491 105.871 102.765 105.846 102.056 105.72C101.347 105.595 100.667 105.348 100.015 104.981L93.5467 101.33Z" fill="#EDBD41"/>
<path d="M114.6 95.267L104.093 94.5898L106.454 93.0807L114.061 93.6696L112.56 89.178L114.84 87.721L116.635 93.9661L120.599 96.2025L118.563 97.5034L114.6 95.267Z" fill="#EDBD41"/>
<path d="M79.1432 60.9673L14.0402 90.8099C13.4814 91.0895 13.4814 91.8582 14.0402 92.1378L128.529 144.764C129.088 145.044 129.787 145.044 130.345 144.764L195.029 115.131C195.658 114.852 195.658 113.943 195.029 113.664L80.4704 61.0372C80.1211 60.7577 79.5623 60.7577 79.1432 60.9673Z" stroke="#69605F" stroke-width="1.2252" stroke-miterlimit="10"/>
<path d="M49.1774 69.144L35.7656 75.2943" stroke="#69605F" stroke-width="1.6021" stroke-miterlimit="10" stroke-linecap="round" stroke-linejoin="round"/>
<path d="M174.423 127.921L161.43 133.861C160.802 134.141 160.802 135.05 161.43 135.329L165.063 137.006C165.622 137.286 166.32 137.286 166.949 137.006L179.522 131.276C180.151 130.996 180.151 130.018 179.522 129.738L175.68 127.921C175.261 127.711 174.842 127.711 174.423 127.921Z" fill="#B5A4A2"/>
<path d="M179.521 129.668L175.679 127.851C175.26 127.641 174.841 127.641 174.422 127.851L165.83 131.765L175.609 132.953L179.521 131.206C180.22 130.926 180.22 129.948 179.521 129.668Z" fill="#C2B0AD"/>
<path d="M174.423 127.921L161.43 133.861C160.802 134.141 160.802 135.05 161.43 135.329L165.063 137.006C165.622 137.286 166.32 137.286 166.949 137.006L179.522 131.276C180.151 130.996 180.151 130.018 179.522 129.738L175.68 127.921C175.261 127.711 174.842 127.711 174.423 127.921Z" stroke="white" stroke-width="0.5911" stroke-miterlimit="10"/>
<path d="M65.8722 54.3977L3.56342 82.9823C-0.20864 84.7295 -0.20864 90.1109 3.56342 91.8582L131.953 151.054C136.354 153.081 141.453 153.081 145.854 151.054L205.159 123.867C209.071 122.05 209.071 116.459 205.159 114.712L74.534 54.4676C71.7399 53.2096 68.5965 53.2096 65.8722 54.3977Z" stroke="#A39B95" stroke-width="1.4137" stroke-miterlimit="10"/>
<path d="M32.7605 77.0417C32.6906 76.832 32.481 76.6922 32.2715 76.5524C31.9921 76.4127 31.7127 76.3428 31.3634 76.3428C30.8046 76.3428 30.3156 76.5524 30.106 76.7621C29.9663 76.9019 29.8965 77.0417 29.8965 77.2513C29.8965 77.3212 29.8965 77.3911 29.8965 77.461C30.0362 77.8803 30.595 78.2298 31.3634 78.2298C32.2016 78.2298 32.8303 77.8104 32.8303 77.3212C32.8303 77.2513 32.7605 77.1116 32.7605 77.0417Z" fill="#544D4D"/>
<path d="M40.6551 69.913C40.5852 69.7732 40.5154 69.7033 40.3058 69.6334C40.1661 69.5635 39.9566 69.4937 39.6772 69.4937C39.3279 69.4937 38.9786 69.6334 38.8389 69.7732C38.7691 69.8431 38.6992 69.9829 38.6992 70.0528C38.6992 70.1227 38.6992 70.1227 38.6992 70.1925C38.7691 70.4721 39.1882 70.6818 39.6772 70.6818C40.236 70.6818 40.6551 70.4022 40.6551 70.0528C40.725 69.9829 40.6551 69.913 40.6551 69.913Z" fill="#544D4D"/>
<path d="M170.512 142.807V144.485C170.512 144.764 170.791 144.904 171.001 144.834L179.104 141.06C179.243 140.99 179.313 140.85 179.313 140.711V139.033C179.313 138.754 179.034 138.614 178.824 138.684L170.861 142.248C170.651 142.388 170.512 142.598 170.512 142.807Z" fill="#69605F"/>
<path d="M178.824 138.753V138.823V140.501C178.824 140.64 178.754 140.78 178.614 140.85L170.511 144.624C170.511 144.624 170.511 144.624 170.441 144.624C170.511 144.834 170.721 144.974 170.93 144.904L179.033 141.13C179.173 141.06 179.243 140.92 179.243 140.78V139.103C179.313 138.893 179.103 138.684 178.824 138.753Z" fill="white"/>
<path d="M152.419 151.753C152.419 152.941 151.721 154.199 150.882 154.479C150.044 154.828 149.346 154.059 149.346 152.871C149.346 151.683 150.044 150.425 150.882 150.145C151.721 149.796 152.419 150.495 152.419 151.753Z" fill="#69605F"/>
<path d="M156.821 150.006C156.821 150.705 156.402 151.403 155.983 151.543C155.494 151.753 155.145 151.334 155.145 150.635C155.145 149.936 155.564 149.237 155.983 149.097C156.472 148.887 156.821 149.307 156.821 150.006Z" fill="#69605F"/>
<path d="M193.143 133.442C193.143 134.141 192.724 134.84 192.305 134.979C191.816 135.189 191.467 134.77 191.467 134.071C191.467 133.372 191.886 132.673 192.305 132.533C192.724 132.394 193.143 132.743 193.143 133.442Z" fill="#69605F"/>
<path d="M196.426 131.974C196.426 132.673 196.007 133.372 195.588 133.512C195.099 133.722 194.75 133.302 194.75 132.603C194.75 131.905 195.169 131.206 195.588 131.066C196.077 130.856 196.426 131.276 196.426 131.974Z" fill="#69605F"/>
<path d="M199.71 130.507C199.71 131.206 199.291 131.904 198.871 132.044C198.382 132.254 198.033 131.835 198.033 131.136C198.033 130.437 198.452 129.738 198.871 129.598C199.36 129.388 199.71 129.808 199.71 130.507Z" fill="#69605F"/>
<path d="M202.993 128.969C202.993 129.668 202.574 130.367 202.155 130.507C201.666 130.716 201.316 130.297 201.316 129.598C201.316 128.899 201.736 128.2 202.155 128.061C202.644 127.921 202.993 128.34 202.993 128.969Z" fill="#69605F"/>
<g opacity="0.24">
<path opacity="0.24" d="M205.717 127.921L145.993 155.317C141.522 157.344 136.423 157.344 132.022 155.317L2.72415 95.7019C1.74621 95.2126 0.907973 94.1643 0.279297 92.8364C0.768267 95.3524 1.95577 97.6588 3.56238 98.4275L131.952 157.623C136.353 159.65 141.452 159.65 145.853 157.623L205.158 130.437C207.114 129.528 208.511 126.802 208.93 124.077C208.231 125.824 207.114 127.292 205.717 127.921Z" fill="#544D4D"/>
</g>
<path d="M26.334 105.626V107.164C26.334 107.583 26.6134 108.003 26.9627 108.212L36.8818 112.755C37.4406 113.035 38.0693 112.615 38.0693 111.986V110.309C38.0693 109.96 37.8597 109.68 37.5803 109.54L27.5215 104.858C26.9627 104.648 26.334 105.067 26.334 105.626Z" fill="#C4B4B3"/>
<g opacity="0.4">
<path opacity="0.4" d="M37.5803 109.54L27.5215 104.857C26.9627 104.578 26.334 104.997 26.334 105.626V106.045L38.0693 111.427V110.309C38.0693 109.959 37.8597 109.68 37.5803 109.54Z" fill="#F7EBE3"/>
</g>
<path d="M26.334 105.626V107.164C26.334 107.583 26.6134 108.003 26.9627 108.212L36.8818 112.755C37.4406 113.035 38.0693 112.615 38.0693 111.986V110.309C38.0693 109.96 37.8597 109.68 37.5803 109.54L27.5215 104.858C26.9627 104.648 26.334 105.067 26.334 105.626Z" stroke="#7A706F" stroke-width="0.4712" stroke-miterlimit="10"/>
<path d="M39.6074 111.846V113.384C39.6074 113.803 39.8868 114.223 40.2361 114.432L50.1552 118.975C50.714 119.255 51.3427 118.835 51.3427 118.206V116.459C51.3427 116.11 51.1332 115.83 50.8537 115.69L40.7949 111.008C40.2361 110.868 39.6074 111.217 39.6074 111.846Z" fill="#C4B4B3"/>
<g opacity="0.41">
<path opacity="0.41" d="M50.9221 115.76L40.8633 111.078C40.3045 110.798 39.6758 111.217 39.6758 111.846V112.266L51.4111 117.647V116.459C51.4111 116.179 51.2015 115.9 50.9221 115.76Z" fill="#F7EBE3"/>
</g>
<path d="M39.6074 111.846V113.384C39.6074 113.803 39.8868 114.223 40.2361 114.432L50.1552 118.975C50.714 119.255 51.3427 118.835 51.3427 118.206V116.459C51.3427 116.11 51.1332 115.83 50.8537 115.69L40.7949 111.008C40.2361 110.868 39.6074 111.217 39.6074 111.846Z" stroke="#7A706F" stroke-width="0.4712" stroke-miterlimit="10"/>
<path d="M11.2461 98.5678V100.105C11.2461 100.525 11.5255 100.944 11.8748 101.084L15.4373 102.691C15.7167 102.831 15.9961 102.621 15.9961 102.342V100.385C15.9961 100.245 15.9262 100.105 15.7865 100.035L11.8049 98.2183C11.5255 98.0785 11.2461 98.2882 11.2461 98.5678Z" fill="#C4B4B3"/>
<g opacity="0.4">
<path opacity="0.4" d="M15.9961 100.385C15.9961 100.245 15.9262 100.105 15.7865 100.035L11.8049 98.2183C11.5255 98.0785 11.2461 98.2882 11.2461 98.5678V98.9871L15.9961 101.154V100.385Z" fill="#F7EBE3"/>
</g>
<path d="M11.2461 98.5678V100.105C11.2461 100.525 11.5255 100.944 11.8748 101.084L15.4373 102.691C15.7167 102.831 15.9961 102.621 15.9961 102.342V100.385C15.9961 100.245 15.9262 100.105 15.7865 100.035L11.8049 98.2183C11.5255 98.0785 11.2461 98.2882 11.2461 98.5678Z" stroke="#7A706F" stroke-width="0.4712" stroke-miterlimit="10"/>
</g>
<path d="M124.111 81.4682L129.74 40.6868L148.68 48.4355L124.111 81.4682Z" fill="#EDBD41"/>
<path d="M110.936 62.6716L96.5566 24.0967L116.907 21.9389L110.936 62.6716Z" fill="#EDBD41"/>
<path d="M96.7781 81.058L68.3317 51.299L86.1752 41.279L96.7781 81.058Z" fill="#EDBD41"/>
<defs>
<clipPath id="clip0">
<rect width="209" height="107" fill="white" transform="translate(0 53)"/>
</clipPath>
</defs>
</svg>
