<?xml version="1.0" encoding="UTF-8"?>
<svg width="52px" height="52px" viewBox="0 0 920 156" version="1.1" xmlns="http://www.w3.org/2000/svg" xmlns:xlink="http://www.w3.org/1999/xlink">
    <!-- Generator: Sketch 52.5 (67469) - http://www.bohemiancoding.com/sketch -->
    <title>BTCNEXT_black_logo</title>
    <desc>Created with Sketch.</desc>
    <g id="Page-1" stroke="none" stroke-width="1" fill="none" fill-rule="evenodd">
        <g id="BTCNEXT_black_logo">
            <path d="M110.29438,43.6723379 C110.29438,47.5161964 109.703026,51.0273608 108.5203,54.2059361 C107.337574,57.3845115 105.78527,60.2304026 103.863341,62.7436947 C101.941411,65.2569869 99.7977531,67.4376047 97.4323016,69.2856137 C95.0668502,71.1336226 92.7014342,72.6489672 90.3359828,73.8316929 C97.5801778,75.9014629 103.715475,79.8561427 108.74206,85.695851 C113.768644,91.5355592 116.281899,99.4079592 116.281899,109.313287 C116.281899,115.522597 115.210069,121.288299 113.066379,126.610564 C110.922689,131.93283 107.559363,136.552783 102.976301,140.470562 C98.3932386,144.388341 92.5905775,147.45599 85.5681436,149.673601 C78.5457096,151.891211 70.1558749,153 60.3983877,153 L0.523197465,153 L0.523197465,3.53378441 L61.2854275,3.53378441 C77.9914283,3.53378441 90.3359429,7.19278722 98.3193415,14.5109026 C106.30274,21.829018 110.29438,31.5493992 110.29438,43.6723379 Z M59.9548678,129.271684 C68.8253107,129.271684 75.77372,127.349783 80.8003044,123.505925 C85.8268887,119.662066 88.3401431,114.4138 88.3401431,107.760967 C88.3401431,101.108135 85.789929,96.0816263 80.6894244,92.6812899 C75.5889197,89.2809534 68.4557122,87.5808107 59.2895879,87.5808107 L28.4649529,87.5808107 L28.4649529,129.271684 L59.9548678,129.271684 Z M61.5071875,64.2960145 C67.7164975,64.2960145 72.8169257,62.7806699 76.808625,59.7499352 C80.8003243,56.7192006 82.796144,51.8774898 82.796144,45.2246576 C82.796144,39.6067104 80.8742436,35.2085151 77.030385,32.0299398 C73.1865264,28.8513644 67.9382597,27.2621005 61.2854275,27.2621005 L28.4649529,27.2621005 L28.4649529,64.2960145 L61.5071875,64.2960145 Z M206.337245,153 L177.50845,153 L177.50845,27.9273804 L134.708777,28.3709004 L134.708777,3.53378441 L249.136918,3.53378441 L249.136918,28.3709004 L206.337245,27.9273804 L206.337245,153 Z M334.196426,155.66112 C322.66485,155.66112 312.427034,153.702259 303.482671,149.784481 C294.538307,145.866702 287.035504,140.433637 280.974034,133.485123 C274.912565,126.53661 270.329572,118.331573 267.224917,108.869767 C264.120262,99.4079614 262.567957,89.2071051 262.567957,78.2668922 C262.567957,67.3266793 264.120262,57.125823 267.224917,47.6640172 C270.329572,38.2022114 274.912565,29.9971748 280.974034,23.0486612 C287.035504,16.1001476 294.538307,10.6670828 303.482671,6.74930389 C312.427034,2.83152494 322.66485,0.872664847 334.196426,0.872664847 C342.327665,0.872664847 349.793509,1.68577658 356.594182,3.31202445 C363.394855,4.93827231 369.973668,7.45152677 376.330819,10.8518632 L369.2345,32.8060996 C358.737809,27.1881525 347.79776,24.379221 336.414025,24.379221 C321.482113,24.379221 310.246387,29.1100529 302.706511,38.5718587 C295.166634,48.0336645 291.396753,61.26521 291.396753,78.2668922 C291.396753,95.2685744 295.203594,108.50012 302.817391,117.961926 C310.431188,127.423731 321.629954,132.154563 336.414025,132.154563 C340.849247,132.154563 346.134473,131.415371 352.269863,129.936964 C358.405252,128.458557 364.50359,126.093141 370.56506,122.840645 L377.217859,145.016641 C371.30423,148.416978 364.688457,151.041111 357.370342,152.88912 C350.052227,154.737129 342.327665,155.66112 334.196426,155.66112 Z M500.75896,3.53378441 L529.587755,3.53378441 L529.587755,153 L500.75896,153 L449.754169,68.2876938 C446.649513,63.1132688 443.877542,58.0128406 441.43817,52.9862563 C438.998798,47.959672 436.892099,42.7114054 435.118011,37.2412989 L434.452731,37.2412989 C435.635457,43.4506089 436.559447,49.4750277 437.224731,55.314736 C437.890014,61.1544442 438.22265,66.4396705 438.22265,71.1705734 L438.22265,153 L409.393855,153 L409.393855,3.53378441 L440.44025,3.53378441 L489.227442,88.2460906 C492.332097,93.4205156 495.104069,98.5209438 497.543441,103.547528 C499.982812,108.574112 502.089511,113.822379 503.8636,119.292486 L504.52888,119.292486 C503.346154,113.083175 502.422163,107.058757 501.75688,101.219048 C501.091597,95.3793402 500.75896,90.0941139 500.75896,85.363211 L500.75896,3.53378441 Z M570.63415,3.53378441 L667.765015,3.53378441 L667.765015,27.9273804 L598.575906,27.9273804 L598.575906,64.5177745 L598.575906,88.9113705 L598.575906,128.606404 L669.095574,128.606404 L669.095574,153 L570.63415,153 L570.63415,3.53378441 Z M761.347719,75.6057726 L814.126591,153 L782.414916,153 L745.602762,95.7859293 L745.159242,95.7859293 L708.568848,153 L676.857173,153 L729.414284,75.6057726 L680.405332,3.53378441 L712.560527,3.53378441 L745.159242,55.203856 L745.602762,55.203856 L778.423236,3.53378441 L810.578431,3.53378441 L761.347719,75.6057726 Z M877.085619,153 L848.256823,153 L848.256823,27.9273804 L817.45715,28.3709004 L834.45715,3.53378441 L919.885292,3.53378441 L919.885292,28.3709004 L877.085619,27.9273804 L877.085619,153 Z" id="BTCNEXT" fill="#000000"></path>
            <polygon id="Rectangle" fill="#E1B41F" fill-rule="nonzero" points="616 64 721 64 679.632151 3.53378441 713 3.53378441 761 77 710 153 676.857173 153 719 90 616 90"></polygon>
        </g>
    </g>
</svg>