<svg width="52" height="52" viewBox="0 0 52 52" fill="none" xmlns="http://www.w3.org/2000/svg">
<g clip-path="url(#clip0)">
<rect width="51.5" height="51.5" fill="white"/>
<path d="M21.802 30.4951C21.7105 30.4633 21.6191 30.4435 21.5236 30.4276C21.3923 30.4276 21.3327 30.3521 21.3406 30.2249C21.3605 29.9665 21.3764 29.7082 21.4043 29.4539C21.4162 29.3942 21.448 29.3386 21.4957 29.2989C21.6588 29.1597 21.7344 28.9412 21.6827 28.7345C21.6588 28.5874 21.631 28.4404 21.6031 28.2854C21.3446 28.5715 20.915 28.6272 20.5888 28.4205C20.2388 28.2576 20.02 27.8999 20.0359 27.5144C20.0121 27.1567 20.1473 26.803 20.4019 26.5486C20.6246 26.338 20.9588 26.2982 21.2292 26.4413C21.4281 26.5406 21.5514 26.7513 21.5395 26.9739C21.5355 27.2004 21.4043 27.4071 21.2014 27.5104C21.273 27.3037 21.2173 27.0772 21.0542 26.9301C20.9309 26.799 20.9508 26.6797 21.086 26.5327C20.9786 26.4294 20.8195 26.4095 20.6883 26.4771C20.3263 26.6758 20.1155 27.0692 20.1513 27.4786C20.1592 27.8641 20.4257 28.198 20.7996 28.2933C21.0542 28.4046 21.3486 28.2933 21.4599 28.039C21.4759 28.0032 21.4878 27.9674 21.4957 27.9277C21.5992 27.57 21.8259 27.26 22.1401 27.0573C22.2555 26.9818 22.3191 26.8427 22.3032 26.7036C22.2953 26.4731 22.3907 26.2505 22.5657 26.1035C22.6373 26.2863 22.8362 26.3856 23.0272 26.3419C22.9993 26.2068 22.9198 26.0677 23.0948 25.9763C23.2658 25.8928 23.4687 25.9246 23.6039 26.0558C23.6477 26.1074 23.6914 26.1631 23.7272 26.2187C23.7511 26.0955 23.771 25.9962 23.7948 25.8928L23.8744 25.9167L24.1886 25.7577C24.2682 25.714 24.3517 25.6742 24.4233 25.6265C24.4989 25.5749 24.5347 25.4835 24.5188 25.3921C24.5188 25.1894 24.5546 24.9946 24.8569 24.9946C24.8092 25.1377 24.7654 25.2768 24.7296 25.3722L24.8609 25.2132C24.8728 25.2291 24.8808 25.245 24.8887 25.2609C24.8887 25.3603 24.9245 25.4636 24.9484 25.559C25.02 25.8014 24.9484 25.9008 24.7336 25.9922C24.658 26.028 24.5864 26.0717 24.5228 26.1273C24.3955 26.2346 24.2642 26.334 24.125 26.4254C24.0176 26.4731 23.9022 26.493 23.7869 26.4771C23.5801 26.4413 23.3891 26.3737 23.1783 26.3181C23.3931 26.4691 23.6477 26.5605 23.9102 26.5844C23.9261 26.7433 23.8704 26.9023 23.7551 27.0176C23.5999 27.1964 23.4209 27.3474 23.2181 27.4706C22.868 27.6296 22.6334 27.9754 22.6214 28.3609C22.5737 28.7544 22.3509 29.1041 22.0168 29.3108C21.8418 29.4578 21.7543 29.6804 21.7821 29.9069C21.7821 29.9467 21.8657 29.9824 21.9174 29.9983C22.1282 30.05 22.1918 30.1255 22.1918 30.3719L21.985 30.1732L22.0725 30.4514L22.0288 30.4792L21.7264 30.2169C21.7583 30.3083 21.7901 30.4037 21.8299 30.511" fill="black"/>
<path d="M21.6387 25.0504C21.5352 24.5576 21.8535 24.0767 22.3467 23.9734C22.3626 23.9694 22.3825 23.9654 22.3984 23.9654C22.3984 23.9098 22.3706 23.8542 22.3547 23.8025L22.824 23.9337C23.0189 23.9853 23.0746 24.0449 23.0905 24.2476C23.2576 24.2953 23.4207 24.347 23.5877 24.4026C23.6792 24.4344 23.7628 24.6649 23.6991 24.7404C23.6514 24.7722 23.5957 24.7881 23.54 24.7842C23.3332 24.7842 23.2377 24.9272 23.3212 25.114C23.4286 25.0743 23.544 24.9272 23.6514 25.0703C23.7588 25.2134 23.6514 25.269 23.5997 25.3128L23.0468 25.3644C23.1184 25.4002 23.1939 25.432 23.2695 25.4519C23.536 25.4837 23.7309 25.7261 23.6991 25.9924C23.6991 25.9963 23.6991 26.0003 23.6991 26.0043C23.7031 26.0281 23.7031 26.048 23.6991 26.0719C23.5877 25.9089 23.3849 25.8334 23.1939 25.8771C22.9394 25.9328 22.8718 26.052 22.9752 26.2745C22.7644 26.3063 22.645 26.199 22.6331 25.9407C22.4103 26.0917 22.2671 26.3302 22.2353 26.5965C22.1478 26.3898 22.12 26.1593 22.1558 25.9367L21.8455 26.0798L21.8177 26.056C21.933 25.7738 21.933 25.4598 21.8177 25.1776C21.7938 25.0465 21.7779 24.9153 21.7779 24.7802C21.7262 24.8795 21.6864 24.959 21.6466 25.0306" fill="black"/>
<path d="M24.4179 28.8817C24.3821 28.9254 24.3383 28.9612 24.2906 28.989C24.223 29.0208 24.1474 29.0367 24.0718 29.0367C23.9605 29.0367 23.8531 29.0367 23.7457 29.0367C23.6383 29.0367 23.4632 29.0685 23.324 29.0765C23.1848 29.0844 23.1808 29.0169 23.1689 28.9215C23.157 28.8261 23.1411 28.6154 23.1291 28.4724L22.6836 28.3651C22.6836 28.2578 22.7154 28.1703 22.7353 28.0869C22.8149 27.7292 22.9422 27.6099 23.3877 27.6139C23.6303 27.6139 23.7178 27.7292 23.686 27.9716C23.6542 28.214 23.6025 28.4048 23.5587 28.6274C23.7576 28.7665 24.0241 28.7545 24.211 28.5995C24.3145 28.536 24.4258 28.4922 24.5452 28.4724C24.6088 28.4724 24.6844 28.5121 24.756 28.536V28.5916H24.4099C24.4696 28.6035 24.5293 28.6234 24.585 28.6552C24.6208 28.691 24.6486 28.7347 24.6685 28.7784L24.4457 28.8817" fill="black"/>
<path d="M23.811 27.1408C23.8786 26.9858 23.9383 26.8506 23.994 26.7115L24.3917 26.8745C24.4435 26.7831 24.5031 26.6956 24.5707 26.6161C24.6105 26.5764 24.6901 26.5724 24.7696 26.5486C24.7656 26.6002 24.7656 26.6519 24.7696 26.7036L24.5906 26.8029V26.8268L24.7577 26.791C24.7577 26.9063 24.7259 27.0096 24.7219 27.1169C24.7179 27.2242 24.6384 27.3633 24.4872 27.3395C24.3679 27.3196 24.2485 27.2918 24.1292 27.26C24.0139 27.2282 23.9065 27.1845 23.7871 27.1408" fill="black"/>
<path d="M23.696 24.947L23.3301 25.0146C23.3301 24.9152 23.3739 24.8795 23.4693 24.8914C23.5648 24.9033 23.6125 24.9152 23.6881 24.9311L23.696 24.947Z" fill="black"/>
<path d="M24.4182 28.8817L24.5614 28.8579L24.5852 29.0089H24.5534L24.4023 28.8817" fill="black"/>
<path d="M29.2201 30.4951C29.3076 30.4633 29.4031 30.4435 29.4946 30.4276C29.6298 30.4276 29.6855 30.3521 29.6775 30.2249C29.6775 29.9665 29.6417 29.7082 29.6139 29.4539C29.602 29.3942 29.5701 29.3386 29.5224 29.2989C29.3593 29.1597 29.2877 28.9412 29.3394 28.7345C29.3593 28.5874 29.3872 28.4404 29.415 28.2854C29.6736 28.5715 30.1031 28.6272 30.4293 28.4205C30.7794 28.2576 30.9981 27.8999 30.9822 27.5144C31.0061 27.1567 30.8748 26.803 30.6202 26.5486C30.3935 26.338 30.0594 26.2942 29.7889 26.4413C29.59 26.5406 29.4667 26.7513 29.4786 26.9739C29.4826 27.2004 29.6139 27.4071 29.8167 27.5104C29.7491 27.3037 29.8048 27.0772 29.9639 26.9301C30.0872 26.799 30.0673 26.6797 29.9361 26.5327C30.0435 26.4294 30.2026 26.4095 30.3339 26.4771C30.6879 26.6758 30.8907 27.0613 30.8629 27.4667C30.8589 27.8522 30.5924 28.19 30.2145 28.2814C29.9599 28.3927 29.6656 28.2814 29.5542 28.0271C29.5383 27.9913 29.5264 27.9555 29.5184 27.9158C29.419 27.566 29.2002 27.26 28.9019 27.0573C28.7826 26.9818 28.7189 26.8427 28.7348 26.7036C28.7428 26.4731 28.6473 26.2505 28.4723 26.1035C28.4007 26.2863 28.2018 26.3856 28.0109 26.3419C28.0387 26.2068 28.1183 26.0677 27.9433 25.9763C27.7722 25.8928 27.5694 25.9246 27.4341 26.0558C27.3983 26.0955 27.3665 26.1432 27.3108 26.2187L27.2472 25.8928L27.1636 25.9167L26.8494 25.7577C26.7698 25.714 26.6903 25.6742 26.6187 25.6265C26.5431 25.5749 26.5073 25.4835 26.5192 25.3921C26.5192 25.1894 26.4834 24.9946 26.1811 24.9946L26.3084 25.3722L26.1772 25.2132L26.1493 25.2609C26.1493 25.3603 26.1175 25.4636 26.0896 25.559C26.022 25.8014 26.0896 25.9008 26.3044 25.9922C26.38 26.028 26.4516 26.0717 26.5153 26.1273C26.6426 26.2346 26.7738 26.334 26.913 26.4254C27.0165 26.4731 27.1318 26.493 27.2472 26.4771C27.454 26.4413 27.6449 26.3737 27.8557 26.3181C27.641 26.4691 27.3864 26.5605 27.1239 26.5844C27.1079 26.7433 27.1676 26.9023 27.279 27.0176C27.4341 27.1964 27.6171 27.3514 27.8199 27.4706C28.17 27.6336 28.4007 27.9754 28.4126 28.3609C28.4604 28.7544 28.6831 29.1001 29.0172 29.3108C29.1923 29.4539 29.2837 29.6804 29.2559 29.9069C29.2559 29.9467 29.1684 29.9824 29.1167 29.9983C28.9098 30.05 28.8422 30.1255 28.8422 30.3719L29.0491 30.1732L28.9615 30.4514L29.0053 30.4792L29.3116 30.2169C29.2798 30.3083 29.244 30.4037 29.2082 30.511" fill="black"/>
<path d="M29.3797 25.0504C29.4831 24.5576 29.1649 24.0767 28.6716 23.9734C28.6557 23.9694 28.6358 23.9654 28.6199 23.9654L28.6677 23.8025L28.1943 23.9337C27.9994 23.9853 27.9477 24.0449 27.9278 24.2476L27.4306 24.4026C27.3391 24.4344 27.2556 24.6649 27.3192 24.7404C27.367 24.7722 27.4226 24.7881 27.4783 24.7842C27.6852 24.7842 27.7846 24.9272 27.6971 25.114C27.5897 25.0743 27.4744 24.9272 27.367 25.0703C27.2596 25.2134 27.367 25.269 27.4226 25.3128L27.9716 25.3644C27.9 25.4002 27.8284 25.428 27.7528 25.4519C27.4823 25.4797 27.2834 25.7181 27.3113 25.9884C27.3113 25.9924 27.3113 25.9963 27.3113 26.0043C27.3073 26.0281 27.3073 26.048 27.3113 26.0719C27.4226 25.9089 27.6255 25.8334 27.8164 25.8771C28.071 25.9328 28.1386 26.052 28.0352 26.2745C28.25 26.3063 28.3654 26.199 28.3773 25.9407C28.6 26.0917 28.7432 26.3302 28.7751 26.5965C28.8665 26.3898 28.8944 26.1593 28.8586 25.9367L29.1649 26.0798L29.1927 26.056C29.0813 25.7738 29.0813 25.4598 29.1927 25.1776C29.2166 25.0465 29.2325 24.9153 29.2325 24.7802L29.3638 25.0306" fill="black"/>
<path d="M26.6021 28.8817C26.6379 28.9254 26.6776 28.9612 26.7254 28.989C26.793 29.0169 26.8686 29.0328 26.9441 29.0367C27.0555 29.0367 27.1629 29.0367 27.2743 29.0367C27.3857 29.0367 27.5527 29.0685 27.6721 29.0765C27.7516 29.0804 27.8232 29.0208 27.8272 28.9374C27.8272 28.9334 27.8272 28.9254 27.8272 28.9215C27.8272 28.7704 27.855 28.6154 27.8709 28.4724L28.3164 28.3651C28.3164 28.2577 28.2846 28.1703 28.2647 28.0869C28.1812 27.7292 28.0539 27.6099 27.6124 27.6139C27.3658 27.6139 27.2783 27.7292 27.3141 27.9716C27.3499 28.214 27.3936 28.4048 27.4374 28.6274C27.2385 28.7665 26.972 28.7545 26.785 28.5995C26.6816 28.536 26.5702 28.4922 26.4509 28.4724C26.3873 28.4724 26.3117 28.5121 26.2441 28.536V28.5916H26.5861C26.5265 28.6035 26.4668 28.6234 26.4111 28.6552C26.3753 28.691 26.3475 28.7347 26.3276 28.7784L26.5503 28.8817" fill="black"/>
<path d="M27.2086 27.1408L27.0256 26.7115L26.6278 26.8745C26.5761 26.7831 26.5165 26.6956 26.4488 26.6161C26.4091 26.5764 26.3295 26.5724 26.2539 26.5486C26.2539 26.6161 26.2539 26.6599 26.2539 26.7036L26.4289 26.8029C26.4289 26.8029 26.4289 26.8029 26.4289 26.8268L26.2619 26.791C26.2778 26.8983 26.2897 27.0096 26.2977 27.1169C26.2977 27.2759 26.3812 27.3633 26.5324 27.3395C26.6517 27.3196 26.771 27.2918 26.8904 27.26C27.0057 27.2282 27.1131 27.1845 27.2324 27.1408" fill="black"/>
<path d="M27.3105 24.947L27.6804 25.0146C27.6804 24.9152 27.6366 24.8795 27.5412 24.8914C27.4656 24.8993 27.394 24.9152 27.3224 24.9311L27.3105 24.947Z" fill="black"/>
<path d="M26.6022 28.8817L26.459 28.8579C26.459 28.9096 26.459 28.9612 26.459 29.0089H26.4908L26.642 28.8817" fill="black"/>
<path d="M28.1903 32.1882C28.1903 32.1882 28.1903 32.1485 28.1903 32.1246V31.9736C28.1903 31.9458 28.1903 31.9219 28.1903 31.8941C28.1466 31.3019 27.8204 30.7694 27.3113 30.4633L27.2715 30.4395H27.2436C27.1561 30.3878 27.0766 30.3203 27.0129 30.2368C26.8976 30.0858 26.7663 29.9546 26.6152 29.8394L26.5635 29.7956L26.5157 29.7003C26.4004 29.6168 26.2731 29.5492 26.1418 29.5015C26.0424 29.4618 25.939 29.426 25.8355 29.3982V25.8928C25.8355 25.3046 25.8355 24.7005 25.8674 24.1242C25.8674 23.7864 25.8674 23.4526 25.8873 23.1147L26.3447 23.079C26.3646 22.9955 26.3884 22.9041 26.4163 22.8048H26.9135L26.8697 22.8882L27.3829 23.1982C27.3829 22.8008 27.5937 22.4868 27.1203 22.4033V21.9503C27.4465 21.835 27.4465 21.835 27.3829 21.2667H26.9851L26.9095 21.5568H26.4242C26.3964 21.4733 26.3646 21.374 26.3328 21.2826L25.935 21.2508V20.7619C25.935 20.4758 25.8276 20.3645 25.5372 20.3645H25.4219C25.1315 20.3645 25.0241 20.4837 25.0241 20.7619V21.2508L24.6263 21.2826C24.5985 21.374 24.5667 21.4733 24.5388 21.5568H24.0058C23.978 21.4614 23.9541 21.37 23.9302 21.2667H23.5325C23.4648 21.835 23.4648 21.835 23.795 21.9503V22.4033C23.3177 22.4868 23.5325 22.8008 23.5325 23.1982L24.0456 22.8882L24.0018 22.8048H24.5269C24.5507 22.9041 24.5746 22.9955 24.5985 23.079L25.0559 23.1147C25.0559 23.4526 25.0559 23.7864 25.0559 24.1242C25.0559 24.7124 25.0559 25.3165 25.0838 25.8928V29.3982C24.9803 29.426 24.8809 29.4618 24.7815 29.5015C24.6502 29.5492 24.5229 29.6168 24.4076 29.7003C24.3797 29.7162 24.3558 29.736 24.332 29.7599L24.2803 29.7996C24.1291 29.9149 23.9979 30.046 23.8825 30.1971C23.8189 30.2805 23.7393 30.3481 23.6518 30.3997H23.6239L23.5842 30.4236C23.075 30.7296 22.7489 31.2582 22.7051 31.8504C22.7051 31.8782 22.7051 31.9021 22.7051 31.9299C22.7051 31.9299 22.7051 31.9577 22.7051 31.9696C22.7051 31.9815 22.7051 32.0054 22.7051 32.0253V32.1246C22.7051 32.1485 22.7051 32.1683 22.7051 32.1882C22.7051 32.2041 22.7051 32.22 22.7051 32.2359C22.7767 32.7923 23.0949 33.2891 23.5762 33.5792C23.6876 33.6587 23.791 33.7501 23.8865 33.8455C24.1172 34.1635 24.4235 34.4218 24.7815 34.5887L24.9167 34.704C24.9525 34.7835 24.9803 34.8749 25.0161 34.9663C25.04 35.0855 25.0917 35.1968 25.1713 35.2882C25.1713 35.2882 25.1713 35.2882 25.1951 35.2882C25.2588 35.3319 25.3344 35.3518 25.4099 35.3399C25.4855 35.3518 25.5651 35.3319 25.6287 35.2882H25.6565C25.7361 35.1968 25.7878 35.0855 25.8117 34.9663C25.8475 34.8749 25.8753 34.7835 25.9071 34.704L26.0464 34.5887C26.4004 34.4218 26.7067 34.1635 26.9374 33.8455C27.0368 33.7501 27.1402 33.6627 27.2476 33.5792C27.7289 33.2891 28.0511 32.7923 28.1227 32.2359C28.1227 32.22 28.1227 32.2041 28.1227 32.1882H28.1903ZM27.725 32.5578C27.6653 32.7049 27.5818 32.84 27.4744 32.9553C27.4147 33.0149 27.351 33.0705 27.2794 33.1142C27.1044 32.3989 27.1044 31.6517 27.2794 30.9363C27.5261 31.1112 27.7011 31.3695 27.7767 31.6636C27.8602 31.9418 27.8642 32.2399 27.7886 32.5221V32.5539L27.725 32.5578ZM25.4855 35.3359C25.4099 35.2326 25.3344 35.1531 25.2826 35.0855C25.2429 35.0378 25.223 34.9822 25.223 34.9226C25.223 34.8391 25.3781 34.7278 25.4855 34.704C25.5929 34.6801 25.7401 34.8391 25.752 34.9226C25.752 34.9822 25.7281 35.0418 25.6884 35.0855C25.6367 35.1531 25.5651 35.2326 25.4855 35.3359ZM25.6128 34.3463H25.5054H25.402H25.3821C25.219 34.3264 25.0559 34.2787 24.9087 34.2072C24.7496 34.1237 24.6025 34.0204 24.4672 33.9012C25.1394 33.6508 25.8753 33.6508 26.5476 33.9012C26.4123 34.0244 26.2651 34.1237 26.1021 34.2072C25.9549 34.2827 25.7958 34.3264 25.6327 34.3463H25.6128ZM25.5054 31.3695C25.6566 31.3536 25.8117 31.3894 25.9429 31.4649C26.0424 31.608 26.0861 31.7828 26.0663 31.9537C26.0702 32.0133 26.0702 32.0769 26.0663 32.1365V32.1683C26.0663 32.1803 26.0663 32.1922 26.0663 32.2041C26.0702 32.224 26.0702 32.2399 26.0663 32.2598V32.2796C26.0663 32.2796 26.0663 32.3074 26.0663 32.3233C26.0663 32.3392 26.0663 32.3472 26.0663 32.3591C26.0066 32.5777 25.8554 32.6453 25.5412 32.6492H25.4815C25.1673 32.6492 25.0161 32.5777 24.9565 32.3591C24.9565 32.3472 24.9565 32.3353 24.9565 32.3233C24.9565 32.3074 24.9565 32.2955 24.9565 32.2796V32.2598C24.9565 32.2598 24.9565 32.224 24.9565 32.2041C24.9565 32.1922 24.9565 32.1803 24.9565 32.1683V32.1365C24.9525 32.0769 24.9525 32.0133 24.9565 31.9537C24.9366 31.7828 24.9803 31.608 25.0758 31.4649C25.2071 31.3894 25.3622 31.3536 25.5134 31.3695H25.5054ZM26.5157 30.0937L26.4839 30.1772L26.1259 30.2249L25.8037 30.2646V29.7042L26.5157 30.1017V30.0937ZM26.8141 30.6581C27.0647 30.8926 27.0169 31.29 26.8658 31.6755L25.8634 30.7972L25.7401 30.6859C25.8713 30.6382 26.0026 30.5945 26.1379 30.5627C26.3686 30.4673 26.6351 30.5031 26.8339 30.6581H26.8141ZM25.2429 30.6859L25.1156 30.7972L24.1172 31.6755C23.966 31.2781 23.9183 30.8806 24.1689 30.6581C24.3678 30.5031 24.6343 30.4673 24.865 30.5627C25.0002 30.5945 25.1315 30.6382 25.2628 30.6859H25.2429ZM25.1991 30.2885L24.8769 30.2487L24.5189 30.201L24.4871 30.1176L25.1991 29.7201V30.2885ZM24.145 32.4545C24.2246 32.5101 24.3081 32.5578 24.3877 32.6095L24.9247 33.0983L25.1394 33.3686C25.1394 33.3686 25.1394 33.3686 25.1394 33.3924C25.0321 33.4322 24.9247 33.464 24.8173 33.4918C24.5865 33.5276 24.3519 33.4839 24.149 33.3686C24.0297 33.1897 23.978 32.9751 24.0018 32.7605C24.0177 32.6453 24.0535 32.534 24.1013 32.4306L24.145 32.4545ZM26.818 33.3686C26.6152 33.4839 26.3805 33.5276 26.1498 33.4918C26.0384 33.468 25.931 33.4322 25.8276 33.3924C25.8276 33.3924 25.8276 33.3924 25.8276 33.3686C25.9071 33.2772 25.9748 33.1858 26.0464 33.0983L26.6311 32.5856C26.7106 32.534 26.7942 32.4863 26.8737 32.4306C26.9215 32.534 26.9573 32.6453 26.9732 32.7605C26.997 32.9751 26.9453 33.1897 26.826 33.3686H26.818ZM23.1904 32.5737V32.5419C23.0949 32.2637 23.079 31.9656 23.1466 31.6795C23.2103 31.3814 23.3773 31.1191 23.616 30.9323C23.787 31.6477 23.787 32.3949 23.616 33.1103C23.5444 33.0665 23.4768 33.0109 23.4171 32.9513C23.3097 32.836 23.2262 32.7009 23.1705 32.5539" fill="black"/>
<path d="M25.6848 32.0215C25.6848 32.1288 25.5972 32.2162 25.4898 32.2162C25.3825 32.2162 25.2949 32.1288 25.2949 32.0215C25.2949 31.9142 25.3825 31.8267 25.4898 31.8267C25.5972 31.8267 25.6848 31.9142 25.6848 32.0215Z" fill="black"/>
<path d="M18.7661 35.4711C18.8337 35.177 18.5434 35.1333 18.4041 35.0061C14.1202 31.1073 13.8059 24.478 17.7081 20.1937C17.9388 19.9433 18.1774 19.7009 18.432 19.4743C18.7582 19.212 18.9332 18.8066 18.9053 18.3893C18.8695 17.0062 18.9053 15.6073 18.9053 14.2322C18.9053 13.9619 18.9053 13.7393 18.5871 13.5923C18.2808 13.4691 18.1297 13.1193 18.253 12.8133C18.2729 12.7656 18.2968 12.7219 18.3246 12.6822C18.4718 12.392 18.8218 12.2648 19.1201 12.392C19.4344 12.4715 19.6253 12.7934 19.5457 13.1074C19.5378 13.1352 19.5298 13.1591 19.5179 13.1869C19.3787 13.5247 19.5179 13.6718 19.7287 13.8625C20.206 14.3315 20.6913 14.7965 21.1488 15.2853C21.3715 15.5238 21.5187 15.5039 21.7454 15.2853C22.716 14.3553 23.6985 13.4413 24.677 12.5272C24.8679 12.3523 25.0151 12.2132 24.844 11.9111C24.6969 11.6409 24.7923 11.2991 25.0549 11.1401C25.2856 10.9533 25.6197 10.9533 25.8504 11.1401C26.1288 11.2792 26.2442 11.613 26.1169 11.8952C25.922 12.237 26.1169 12.3722 26.3198 12.555C27.2665 13.4413 28.2211 14.3196 29.1479 15.2297C29.4462 15.5278 29.6213 15.5079 29.8878 15.2019C30.2577 14.8045 30.6833 14.407 31.0811 14.0096C31.3396 13.7473 31.6539 13.5605 31.443 13.0637C31.3118 12.7656 31.5624 12.4636 31.9124 12.3721C32.2266 12.2529 32.5807 12.4079 32.7079 12.7179C32.883 12.9842 32.8074 13.3419 32.5409 13.5168C32.5289 13.5247 32.513 13.5327 32.4971 13.5406C32.0994 13.7195 32.0994 14.0016 32.0994 14.3355C32.0994 15.7464 32.0994 17.1533 32.0994 18.5602C32.0755 18.8464 32.1908 19.1246 32.4056 19.3114C37.1391 23.6832 37.2624 30.3839 32.7079 34.8948C32.6045 34.9942 32.2784 35.0419 32.4852 35.3241C32.0874 35.181 31.992 35.5268 31.805 35.7215C30.6714 36.4409 29.4462 37.0052 28.1614 37.4066C26.4471 37.8041 24.669 37.816 22.9507 37.4464C21.5823 37.0569 20.2896 36.4289 19.136 35.5943C19.0286 35.5268 18.9769 35.3241 18.786 35.4552L18.7661 35.4711ZM25.4685 18.3814C20.564 18.3893 16.5983 22.3677 16.6062 27.268C16.6142 32.1684 20.5959 36.1309 25.5004 36.1229C30.4049 36.115 34.3706 32.1366 34.3627 27.2362C34.3627 27.2323 34.3627 27.2283 34.3627 27.2243C34.3627 22.3398 30.4009 18.3814 25.5123 18.3814C25.4964 18.3814 25.4844 18.3814 25.4685 18.3814Z" fill="black"/>
<path d="M0 37.1124C1.69848 36.9892 3.389 36.862 5.08747 36.7508C5.48524 36.7229 5.66424 36.6792 5.48524 36.1745C5.15112 35.1372 5.68015 34.6483 6.75811 34.9027C7.32692 35.0617 7.85197 35.3518 8.28952 35.7492C8.47647 35.5545 8.36907 35.324 8.38101 35.1213C8.46851 33.9846 8.84242 32.9831 9.97208 32.534C10.9983 32.1047 12.1797 32.3472 12.9554 33.142C13.8822 34.0482 14.7294 35.0378 15.4772 36.099C15.525 36.2103 15.5568 36.3255 15.5767 36.4447C15.0158 36.0036 14.4908 35.5187 14.0095 34.9941C13.5958 34.5251 13.1383 34.0959 12.6411 33.7144C11.6467 32.9751 10.5369 32.9433 9.74138 33.6309C8.91004 34.3979 8.68729 35.622 9.19643 36.6315C9.43108 37.1283 9.86068 37.4542 10.1591 37.8914C10.0994 37.8914 10.0119 37.947 9.98008 37.9232C9.25208 37.3628 8.38896 37.3867 7.52978 37.2635C6.90926 37.18 6.42 36.6912 6.33647 36.0712L6.40807 36.0036C7.01268 36.6435 7.86788 36.9813 8.74298 36.9256C8.48443 35.7333 7.47409 35.471 6.50751 35.2286C6.00234 35.1014 5.7597 35.4233 5.85915 35.944C5.94268 36.2699 6.09781 36.5719 6.31658 36.8303C7.52978 38.3485 9.56638 38.9327 11.4001 38.2888C11.4478 38.2888 11.4757 38.2014 11.5154 38.1577C11.6547 38.2411 11.8376 38.1935 11.9172 38.0544C11.9252 38.0424 11.9291 38.0305 11.9371 38.0186C12.0325 38.0186 12.1678 38.0504 12.0843 37.8715C12.3547 38.0385 12.5218 37.796 12.7048 37.6927C13.8981 37.0051 13.8981 36.9932 14.992 37.8676C15.6403 38.424 16.4756 38.726 17.3308 38.7141C18.2457 38.7141 18.7429 38.3167 18.9219 37.4026C18.9577 37.2078 18.9776 37.0568 19.2163 37.0687L19.0731 38.3087C18.0786 39.4335 16.3682 39.5646 15.2107 38.6068C14.5465 38.0265 13.5839 37.9391 12.8241 38.3882C11.5473 39.0122 10.1034 39.2149 8.7032 38.9724C8.11848 38.9208 7.56558 38.6942 7.11212 38.3246C6.57115 37.7881 5.95461 37.7603 5.2784 37.7483C3.5322 37.7165 1.78996 37.6529 0.043755 37.6013C0.218778 37.3986 0.461408 37.486 0.668248 37.4741C1.97692 37.4105 3.28558 37.3628 4.59424 37.3072C4.12885 37.2396 3.66346 37.2078 3.19409 37.2118C2.14796 37.172 1.09785 37.3429 0.059665 37.1124" fill="black"/>
<path d="M11.5113 38.1578C9.68549 37.7604 8.88203 35.9043 9.92019 34.4577C10.318 33.7582 11.201 33.5078 11.9091 33.8893C12.5534 34.2033 13.1382 34.6246 13.6394 35.1373C14.24 35.7056 14.8327 36.2978 15.4333 36.8542C15.9584 37.3431 16.6505 37.6133 17.3665 37.6173C17.9194 37.6173 18.162 37.3073 18.0745 36.8224C18.0546 36.6197 17.9233 36.4449 17.7324 36.3654C17.6011 36.3137 17.454 36.3574 17.3784 36.4767C17.2074 36.7032 17.5574 36.7827 17.5375 36.9854C17.1397 36.9854 16.9886 36.7588 17.0244 36.417C17.0761 35.9441 17.4579 35.9282 17.8199 35.9004C18.52 36.6674 18.6672 37.1722 18.333 37.6888C17.9989 38.2055 17.1397 38.4122 16.3163 38.1618C15.7634 37.975 15.2623 37.669 14.8446 37.2596C13.9974 36.4011 13.0626 35.6301 12.0602 34.9624C11.6624 34.716 11.1971 34.3941 10.6919 34.6763C10.1867 34.9584 10.1469 35.5546 10.135 36.0911C10.1032 36.4488 10.1987 36.8105 10.4055 37.1046C10.6959 37.5299 11.2488 37.6888 11.7181 37.4782C11.9807 37.4186 12.1437 37.1602 12.0881 36.9019C12.0721 36.8383 12.0483 36.7787 12.0085 36.7231C11.929 36.4806 11.6664 36.3495 11.4238 36.429C11.3403 36.4568 11.2647 36.5084 11.213 36.576C11.1493 36.6317 11.1095 36.7787 10.9624 36.6555C10.9425 36.3534 11.1732 36.0951 11.4755 36.0752C11.5431 36.0713 11.6107 36.0792 11.6744 36.0991C12.104 36.1229 12.4461 36.4647 12.4699 36.894C12.5296 37.3192 12.2233 37.5855 12.0483 37.9034C11.9528 37.9034 11.8335 37.9034 11.9011 38.0505C11.7579 37.967 11.5749 38.0187 11.4954 38.1618C11.4914 38.1697 11.4834 38.1817 11.4795 38.1896L11.5113 38.1578Z" fill="black"/>
<path d="M19.105 35.6063C18.8345 35.809 19.105 35.9481 19.1726 36.0991C19.3357 36.3932 19.4113 36.727 19.3914 37.0649C19.3476 37.351 19.2243 36.9536 19.1368 37.0649C19.0175 36.3972 18.4606 35.8924 17.7804 35.8487C17.2394 35.5784 16.8775 35.7414 16.8178 36.2819C16.8019 36.4369 16.8019 36.5959 16.8178 36.7509C16.8456 36.882 16.8576 37.0132 16.8576 37.1483C16.3683 36.4011 15.708 35.801 15.179 35.0936C14.7494 34.5213 14.3158 33.9529 13.8425 33.4164C13.1345 32.5937 12.14 32.0691 11.0581 31.9459C9.64998 31.8028 8.61577 32.5222 8.218 33.949C8.17823 34.0881 8.14243 34.2311 8.09072 34.4179C7.68499 33.3369 8.23392 32.1366 9.31588 31.7313C9.34768 31.7193 9.37948 31.7074 9.41128 31.6995C10.5569 31.2464 11.8457 31.3656 12.8878 32.0214C13.8624 32.6136 14.6818 33.4323 15.2745 34.406C15.6086 34.9068 15.9228 35.4195 16.2729 35.9759C16.9212 34.8869 17.8639 35.2645 18.751 35.4711C18.8106 35.6659 18.8544 35.8884 19.101 35.6102" fill="black"/>
<path d="M13.8786 29.2432C14.1212 28.7822 14.3678 28.4483 14.3559 28.0509C14.3559 27.5461 14.1332 27.1447 13.6001 27.1129C13.0671 27.0811 12.8921 27.5104 12.8762 27.9714C12.8842 28.7782 13.0791 29.5691 13.449 30.2845C13.974 31.294 14.5866 32.2558 15.2827 33.1579C15.581 33.5395 15.7879 33.9846 15.8833 34.4576C14.7179 33.0586 13.5445 31.9299 12.733 30.507C12.2159 29.7161 11.9812 28.7702 12.0687 27.8283C12.1801 26.9858 12.7569 26.4572 13.4729 26.4929C14.2644 26.5764 14.8571 27.252 14.8372 28.0469C14.8611 28.6272 14.4514 29.1399 13.8786 29.2432Z" fill="black"/>
<path d="M20.3739 39.4931C19.3119 39.5169 19.0931 39.3262 19.0215 38.3008C19.817 37.645 20.6563 37.7007 21.5633 37.9669C22.6691 38.273 23.7351 38.7022 24.7454 39.2467C24.4033 39.4692 24.2005 39.2467 23.9936 39.1791C22.9873 38.7499 21.9252 38.4518 20.8433 38.2889C20.533 38.2332 20.2148 38.2571 19.9125 38.3485C19.654 38.4399 19.3596 38.5631 19.5147 38.9128C19.6182 39.1632 19.9046 39.2785 20.1551 39.1751C20.1909 39.1592 20.2228 39.1433 20.2546 39.1195C20.4057 39.0241 20.5529 38.9208 20.6882 38.8055C20.9069 39.0082 20.4694 39.1632 20.6524 39.358C20.4773 39.2387 20.4217 39.358 20.3739 39.4931Z" fill="black"/>
<path d="M20.6319 39.3738C21.1848 39.3738 21.8252 39.1751 22.04 40.1091C21.8172 39.9461 21.678 39.8349 21.5229 39.7395C21.316 39.5885 21.0376 39.5964 20.8387 39.7594C20.6995 39.8388 20.6319 40.0018 20.6716 40.1568C20.7472 40.3754 20.9461 40.5304 21.1768 40.5542C21.9286 40.6854 22.7042 40.6099 23.4163 40.3396L24.9636 39.819C24.1919 40.7291 21.9206 41.3888 20.9859 41.059C20.3256 40.8285 20.2142 40.5383 20.3773 39.4931C20.5563 39.6163 20.6239 39.5209 20.6597 39.354L20.6319 39.3738Z" fill="black"/>
<path d="M22.9345 37.7324C23.3124 37.7245 23.6942 37.7483 24.0681 37.796C24.7722 37.9391 25.3012 38.5193 25.3808 39.2308H25.2296C24.7682 38.5154 23.9965 38.0543 23.1453 37.9947C22.843 37.951 22.847 37.9311 22.9345 37.7364" fill="black"/>
<path d="M6.34053 36.0674C6.34053 36.0157 6.29677 35.9243 6.3087 35.9163C6.39224 35.8687 6.39224 35.9521 6.41213 35.9998L6.34053 36.0674Z" fill="black"/>
<path d="M10.16 37.8956L10.2515 37.9592C10.2515 37.9592 10.2077 37.983 10.1918 37.9592C10.1759 37.9353 10.1202 37.9075 10.1719 37.8638L10.16 37.8956Z" fill="black"/>
<path d="M11.4961 38.1618C11.5637 38.0107 11.7388 37.9432 11.8899 38.0068C11.8979 38.0107 11.9098 38.0147 11.9178 38.0227C11.8541 38.1737 11.6831 38.2413 11.5319 38.1816C11.52 38.1737 11.508 38.1697 11.4961 38.1618Z" fill="black"/>
<path d="M11.9027 38.0306C11.835 37.8676 11.9544 37.8915 12.0498 37.8835C12.1334 38.0624 11.9981 38.0266 11.9027 38.0306Z" fill="black"/>
<path d="M20.6476 39.366C20.6118 39.5329 20.5442 39.6283 20.3652 39.5051C20.4169 39.366 20.4726 39.2468 20.6476 39.366Z" fill="black"/>
<path d="M51.0186 37.1124C49.3241 36.9892 47.6296 36.862 45.9351 36.7508C45.5373 36.7229 45.3543 36.6792 45.5373 36.1745C45.8754 35.1372 45.3424 34.6483 44.2645 34.9027C43.6956 35.0617 43.1706 35.3518 42.733 35.7492C42.5461 35.5545 42.6575 35.324 42.6415 35.1213C42.554 33.9846 42.1801 32.9831 41.0505 32.534C40.0282 32.1047 38.8428 32.3472 38.0712 33.142C37.1404 34.0482 36.2971 35.0378 35.5453 36.099C35.4976 36.2103 35.4618 36.3255 35.4419 36.4447C36.0107 36.0036 36.5437 35.5187 37.033 34.9941C37.4467 34.5251 37.9041 34.0959 38.3973 33.7144C39.3918 32.9751 40.5015 32.9433 41.2971 33.6309C42.1284 34.3979 42.3512 35.622 41.842 36.6315C41.6074 37.1283 41.1778 37.4542 40.8834 37.8914C40.9431 37.8914 41.0306 37.947 41.0624 37.9232C41.7903 37.3628 42.6535 37.3867 43.5127 37.2635C44.1332 37.18 44.6224 36.6912 44.706 36.0712C44.6821 36.0513 44.6582 36.0274 44.6384 36.0036C44.0337 36.6435 43.1785 36.9773 42.2995 36.9256C42.562 35.7333 43.5684 35.471 44.5349 35.2286C45.0401 35.1014 45.2867 35.4233 45.1833 35.944C45.0998 36.2699 44.9446 36.5719 44.7259 36.8303C43.5127 38.3485 41.4761 38.9327 39.6424 38.2888C39.5946 38.2888 39.5668 38.2014 39.531 38.1577C39.3918 38.2411 39.2088 38.1935 39.1292 38.0544C39.1213 38.0424 39.1173 38.0305 39.1094 38.0186C39.0179 38.0186 38.8786 38.0504 38.9662 37.8715C38.6917 38.0385 38.5246 37.796 38.3417 37.6927C37.1484 37.0051 37.1484 36.9932 36.0545 37.8676C35.4061 38.424 34.5708 38.726 33.7156 38.7141C32.8007 38.7141 32.3035 38.3167 32.1245 37.4026C32.0847 37.2078 32.0649 37.0568 31.8262 37.0687L31.9694 38.3087C32.9638 39.4335 34.6742 39.5646 35.8317 38.6068C36.496 38.0265 37.4586 37.9391 38.2184 38.3882C39.4952 39.0082 40.9351 39.2149 42.3353 38.9724C42.92 38.9208 43.4729 38.6942 43.9263 38.3246C44.4673 37.7881 45.0839 37.7603 45.764 37.7483C47.5063 37.7165 49.2525 37.6529 50.9947 37.6013C50.8197 37.3986 50.5969 37.486 50.3702 37.4741C49.0616 37.4105 47.7529 37.3628 46.4482 37.3072C46.9136 37.2396 47.379 37.2078 47.8484 37.2118C48.8905 37.172 49.9406 37.3429 50.9788 37.1124" fill="black"/>
<path d="M39.5109 38.1579C41.3327 37.7605 42.1402 35.9044 41.102 34.4578C40.7042 33.7583 39.8212 33.5039 39.1132 33.8894C38.4648 34.1994 37.8801 34.6247 37.3789 35.1374C36.7783 35.7057 36.1856 36.2979 35.5849 36.8543C35.0559 37.3471 34.3558 37.6214 33.6319 37.6174C33.079 37.6174 32.8364 37.3074 32.9199 36.8225C32.9398 36.6198 33.071 36.445 33.262 36.3655C33.3932 36.3098 33.5404 36.3575 33.616 36.4767C33.787 36.7033 33.437 36.7828 33.4609 36.9855C33.8586 36.9855 34.0058 36.7589 33.97 36.4171C33.9183 35.9442 33.5404 35.9283 33.1745 35.9005C32.4744 36.6675 32.3272 37.1723 32.6613 37.6889C32.9955 38.2056 33.8546 38.4123 34.678 38.1619C35.2309 37.9751 35.7321 37.6691 36.1498 37.2597C36.997 36.4012 37.9318 35.6302 38.9342 34.9625C39.3319 34.7161 39.7973 34.3942 40.3065 34.6764C40.8156 34.9585 40.8474 35.5547 40.8633 36.0912C40.8952 36.4489 40.7957 36.8106 40.5889 37.1047C40.3025 37.53 39.7496 37.6889 39.2802 37.4783C39.0177 37.4226 38.8506 37.1643 38.9063 36.902C38.9183 36.8384 38.9461 36.7748 38.9859 36.7232C39.0654 36.4807 39.328 36.3496 39.5706 36.4291C39.6541 36.4569 39.7297 36.5085 39.7814 36.5761C39.8451 36.6317 39.8848 36.7788 40.032 36.6556C40.032 36.3535 39.7854 36.1071 39.4831 36.1071C39.4314 36.1071 39.3836 36.1151 39.3359 36.127C38.9063 36.1508 38.5642 36.4926 38.5404 36.9219C38.4847 37.3471 38.787 37.6134 38.966 37.9314C39.0575 37.9314 39.1768 37.9314 39.1092 38.0784C39.2524 37.995 39.4354 38.0466 39.5149 38.1897C39.5189 38.1976 39.5268 38.2096 39.5308 38.2175L39.5109 38.1579Z" fill="black"/>
<path d="M31.9126 35.6062C32.1831 35.8089 31.9126 35.948 31.845 36.0991C31.6819 36.3932 31.6063 36.727 31.6262 37.0648C31.6699 37.351 31.7972 36.9536 31.8808 37.0648C32.0001 36.3971 32.557 35.8924 33.2371 35.8487C33.7781 35.5784 34.1401 35.7414 34.1998 36.2819C34.2157 36.4369 34.2157 36.5959 34.1998 36.7509C34.1719 36.882 34.16 37.0132 34.164 37.1483C34.6492 36.4011 35.3095 35.801 35.8386 35.0936C36.2682 34.5212 36.7057 33.9529 37.1751 33.4164C37.8831 32.5937 38.8775 32.0691 39.9595 31.9459C41.4431 31.7591 42.4734 32.4745 42.8791 33.9052C42.9189 34.0443 42.9547 34.1874 43.0064 34.3742C43.4081 33.2932 42.8592 32.0929 41.7812 31.6915C41.7494 31.6796 41.7176 31.6677 41.6818 31.6557C40.5362 31.2027 39.2435 31.3219 38.2013 31.9777C37.2268 32.5698 36.4074 33.3886 35.8147 34.3623C35.4806 34.863 35.1663 35.3757 34.8163 35.9321C34.1679 34.8432 33.2252 35.2207 32.3422 35.4274C32.2825 35.6221 32.2387 35.8447 31.9921 35.5665" fill="black"/>
<path d="M37.1395 29.2432C36.8969 28.7822 36.6503 28.4483 36.6622 28.0509C36.6622 27.5461 36.889 27.1447 37.422 27.1129C37.955 27.0811 38.13 27.5104 38.1459 27.9714C38.1379 28.7782 37.9391 29.5691 37.5691 30.2845C37.0481 31.2979 36.4315 32.2597 35.7354 33.1579C35.4371 33.5395 35.2303 33.9846 35.1348 34.4576C36.3003 33.0586 37.4737 31.9299 38.2851 30.507C38.8022 29.7161 39.0409 28.7702 38.9534 27.8283C38.838 26.9858 38.2652 26.4572 37.5453 26.4929C36.7577 26.5804 36.165 27.252 36.1809 28.0469C36.1571 28.6272 36.5668 29.1359 37.1395 29.2432Z" fill="black"/>
<path d="M30.6448 39.4931C31.7108 39.5169 31.9256 39.3262 31.9972 38.3008C31.2017 37.645 30.3624 37.7007 29.4594 37.9669C28.3536 38.273 27.2876 38.7022 26.2773 39.2467C26.6233 39.4692 26.8262 39.2467 27.033 39.1791C28.0394 38.7499 29.0975 38.4478 30.1834 38.2889C30.4936 38.2332 30.8118 38.2571 31.1141 38.3485C31.3687 38.4399 31.6631 38.5631 31.5119 38.9128C31.4085 39.1592 31.1261 39.2785 30.8795 39.1751C30.8437 39.1592 30.8079 39.1394 30.776 39.1195C30.6209 39.0241 30.4777 38.9208 30.3385 38.8055C30.1197 39.0082 30.5573 39.1632 30.3743 39.358C30.5493 39.2387 30.609 39.358 30.6567 39.4931H30.6448Z" fill="black"/>
<path d="M30.3864 39.3738C29.8375 39.3738 29.1931 39.1751 28.9783 40.1091C29.2011 39.9461 29.3443 39.8349 29.4954 39.7395C29.7023 39.5924 29.9847 39.6004 30.1836 39.7594C30.3188 39.8428 30.3824 40.0018 30.3466 40.1568C30.2711 40.3754 30.0722 40.5304 29.8415 40.5542C29.0897 40.6854 28.314 40.6099 27.602 40.3396L26.0547 39.819C26.8502 40.7291 29.0976 41.3888 30.0324 41.059C30.6887 40.8285 30.8001 40.5383 30.637 39.4931C30.458 39.6163 30.3904 39.5209 30.3546 39.354L30.3864 39.3738Z" fill="black"/>
<path d="M28.1065 37.7324C27.7286 37.7245 27.3467 37.7483 26.9728 37.796C26.2688 37.9391 25.7397 38.5193 25.6602 39.2308H25.8113C26.2727 38.5154 27.0444 38.0543 27.8956 37.9947C28.1979 37.951 28.1979 37.9311 28.1065 37.7364" fill="black"/>
<path d="M44.677 36.0674C44.677 36.0157 44.7208 35.9243 44.7088 35.9163C44.6293 35.8687 44.6253 35.9521 44.6094 35.9998C44.6293 36.0237 44.6532 36.0475 44.677 36.0674Z" fill="black"/>
<path d="M40.8631 37.8956L40.7676 37.9592C40.7676 37.9592 40.8114 37.983 40.8312 37.9592C40.8511 37.9353 40.8989 37.9075 40.8312 37.8638L40.8631 37.8956Z" fill="black"/>
<path d="M39.5232 38.1618C39.4556 38.0107 39.2806 37.9432 39.1294 38.0068C39.1215 38.0107 39.1095 38.0147 39.1016 38.0227C39.1692 38.1737 39.3442 38.2413 39.4954 38.1777C39.5033 38.1737 39.5153 38.1657 39.5232 38.1618Z" fill="black"/>
<path d="M39.1163 38.0306C39.1839 37.8676 39.0646 37.8915 38.9731 37.8835C38.8856 38.0624 39.0248 38.0266 39.1163 38.0306Z" fill="black"/>
<path d="M30.3691 39.366C30.4049 39.5329 30.4725 39.6283 30.6515 39.5051C30.6037 39.366 30.5441 39.2468 30.3691 39.366Z" fill="black"/>
<path d="M25.7635 40.0733C25.7635 40.2204 25.6442 40.3396 25.497 40.3396C25.3498 40.3396 25.2305 40.2204 25.2305 40.0733C25.2305 39.9263 25.3498 39.8071 25.497 39.8071C25.6442 39.8071 25.7635 39.9263 25.7635 40.0733Z" fill="black"/>
</g>
<defs>
<clipPath id="clip0">
<rect width="51.5" height="51.5" fill="white"/>
</clipPath>
</defs>
</svg>
