<svg width="191" height="57" viewBox="0 0 191 57" fill="none" xmlns="http://www.w3.org/2000/svg">
<g filter="url(#filter0_d)">
<path d="M4 51L8 40.5C8.16667 42.6667 9.8 46.9 15 46.5C21.5 46 34 43 35 40.5C35.8 38.5 43.3333 31.6667 47 28.5L51.5 38L75 40.5L83 28.5C89.3333 28.6667 102.2 29.3 103 30.5C104 32 107 36 112 35.5C116 35.1 129.667 28.3333 136 25L143 13C145.667 11 151.5 6.89999 153.5 6.49999C156 5.99999 160 6.49999 163 6.49999C165.4 6.49999 172.333 3.5 175.5 2H188" stroke="url(#paint0_linear)"/>
</g>
<defs>
<filter id="filter0_d" x="0.533203" y="0.5" width="190.467" height="55.678" filterUnits="userSpaceOnUse" color-interpolation-filters="sRGB">
<feFlood flood-opacity="0" result="BackgroundImageFix"/>
<feColorMatrix in="SourceAlpha" type="matrix" values="0 0 0 0 0 0 0 0 0 0 0 0 0 0 0 0 0 0 127 0"/>
<feOffset dy="2"/>
<feGaussianBlur stdDeviation="1.5"/>
<feColorMatrix type="matrix" values="0 0 0 0 0 0 0 0 0 0 0 0 0 0 0 0 0 0 0.25 0"/>
<feBlend mode="normal" in2="BackgroundImageFix" result="effect1_dropShadow"/>
<feBlend mode="normal" in="SourceGraphic" in2="effect1_dropShadow" result="shape"/>
</filter>
<linearGradient id="paint0_linear" x1="-3" y1="58.5005" x2="188.5" y2="-1.49952" gradientUnits="userSpaceOnUse">
<stop stop-color="#A49038"/>
<stop offset="1" stop-color="#EDBD41"/>
</linearGradient>
</defs>
</svg>
