<svg viewBox="0 0 174 36" fill="none" xmlns="http://www.w3.org/2000/svg">
<path d="M29.8568 11.5932L23.393 18L29.8568 24.4068L18.1603 36L0 18L18.1603 0L29.8568 11.5932Z" transform="translate(13.5433)" fill="#FD6700"/>
<path d="M17.5447 5.49153L11.0809 11.8983L17.5447 18.3051L12.0043 23.7966L0 11.8983L12.0043 0L17.5447 5.49153Z" transform="translate(0 6.10181)" fill="#FD6700"/>
<path d="M12.0043 0L24.0086 11.8983L12.0043 23.7966L0 11.8983L12.0043 0Z" transform="translate(39.3987 6.10181)" fill="#FD6700"/>
<path fill-rule="evenodd" clip-rule="evenodd" d="M8.55481 1.12549C7.64136 0.375244 6.38831 0 4.79553 0H0V12.1218H1.75659V8.45068H4.79553C6.38831 8.45068 7.64136 8.07544 8.55481 7.3252C9.46826 6.57471 9.92493 5.5415 9.92493 4.22534C9.92493 2.90918 9.46826 1.87598 8.55481 1.12549ZM7.28992 6.24268C6.70447 6.71045 5.85535 6.94409 4.7428 6.94409H1.75659V1.50659H4.7428C5.85535 1.50659 6.70447 1.74048 7.28992 2.20801C7.87549 2.67554 8.16833 3.3479 8.16833 4.22534C8.16833 5.10278 7.87549 5.77515 7.28992 6.24268ZM14.4297 1.34692H15.9911V10.7827H21.9091V12.1218H14.4297V1.34692ZM32.6674 9.42822L33.8698 12.1218H35.5093L30.5438 1.34692H28.998L24.0482 12.1218H25.6565L26.8588 9.42822H32.6674ZM32.1208 8.19678L29.7631 2.91699L27.4053 8.19678H32.1208ZM36.9613 2.68604H40.7087V12.1218H42.2546V2.68604H46.0021V1.34692H36.9613V2.68604ZM49.6559 1.34692H51.2173V12.1218H49.6559V1.34692ZM65.848 12.1218V1.34692H64.2866V9.38208L57.7285 1.34692H56.4481V12.1218H58.0095V4.08691L64.5676 12.1218H65.848ZM75.6071 12.2451C74.1498 12.2451 73.0151 11.8347 72.2031 11.0137C71.3912 10.1926 70.9852 9.0127 70.9852 7.47339V1.34692H72.5466V7.41162C72.5466 9.7207 73.572 10.875 75.6227 10.875C76.6221 10.875 77.3872 10.5903 77.9181 10.0208C78.449 9.45117 78.7144 8.58154 78.7144 7.41162V1.34692H80.229V7.47339C80.229 9.02295 79.823 10.2056 79.0111 11.0212C78.1991 11.8372 77.0645 12.2451 75.6071 12.2451ZM91.5494 10.8135L95.4999 4.27148L95.5155 12.1218H97.0145L96.9989 1.34692H95.7185L91.2216 8.92017L86.6621 1.34692H85.3817V12.1218H86.8807V4.31763L90.8312 10.8135H91.5494Z" transform="translate(75.9484 11.1309)" fill="#262626" stroke="#262626" stroke-width="0.5"/>
</svg>
