<svg width="551" height="357" viewBox="0 0 551 357" fill="none" xmlns="http://www.w3.org/2000/svg">
<g opacity="0.25">
<path opacity="0.5" d="M132.631 142.646L382.017 144.619L426.053 206.168L163.791 208.038L132.631 142.646Z" stroke="#333333" stroke-width="2"/>
<path opacity="0.7" d="M174.798 151.82L350.701 153.212L381.472 196.22L196.583 197.538L174.798 151.82Z" stroke="#333333" stroke-width="2"/>
<path opacity="0.2" d="M97.0207 134.63L403.107 137.424L456.453 219.605L134.391 221.901L97.0207 134.63Z" stroke="#333333" stroke-width="2"/>
<path opacity="0.05" d="M48.3228 124.408L434.395 127.931L501.909 231.938L95.6097 234.835L48.3228 124.408Z" stroke="#333333" stroke-width="2"/>
</g>
<g clip-path="url(#clip0)">
<path d="M339.795 131.124H289.53V130.932H286.336V131.124H236.071C232.367 131.124 229.301 128.116 229.301 124.34V45.1667C229.301 41.3905 232.367 38.3823 236.071 38.3823H339.859C343.564 38.3823 346.629 41.3905 346.629 45.1667V124.34C346.565 128.052 343.564 131.124 339.795 131.124ZM293.362 127.284H339.795C341.392 127.284 342.733 126.004 342.733 124.34V45.1667C342.733 43.5666 341.456 42.2226 339.795 42.2226H236.071C234.474 42.2226 233.133 43.5026 233.133 45.1667V124.34C233.133 125.94 234.41 127.284 236.071 127.284H282.504V127.092H293.362V127.284ZM336.921 121.459H238.945V48.0469H336.857V121.459H336.921ZM242.777 117.619H333.025V51.8872H242.777V117.619Z" fill="#EDBD41"/>
<path d="M207.33 296.446H103.606C99.9017 296.446 96.8359 293.438 96.8359 289.662V210.489C96.8359 206.777 99.8378 203.705 103.606 203.705H207.33C211.035 203.705 214.101 206.713 214.101 210.489V289.662C214.101 293.438 211.035 296.446 207.33 296.446ZM103.606 207.609C102.009 207.609 100.668 208.953 100.668 210.553V289.726C100.668 291.326 101.946 292.67 103.606 292.67H207.33C208.927 292.67 210.268 291.326 210.268 289.726V210.489C210.268 208.889 208.991 207.545 207.33 207.545H103.606V207.609ZM204.456 286.782H106.48V213.433H204.392V286.782H204.456ZM110.312 282.942H200.56V217.273H110.312V282.942Z" fill="#EDBD41"/>
<path d="M339.859 296.446H236.071C232.367 296.446 229.301 293.438 229.301 289.662V210.489C229.301 206.777 232.303 203.705 236.071 203.705H339.859C343.564 203.705 346.629 206.713 346.629 210.489V289.662C346.565 293.438 343.564 296.446 339.859 296.446ZM236.071 207.609C234.474 207.609 233.133 208.953 233.133 210.553V289.726C233.133 291.326 234.41 292.67 236.071 292.67H339.859C341.456 292.67 342.797 291.326 342.797 289.726V210.489C342.797 208.889 341.52 207.545 339.859 207.545H236.071V207.609ZM336.921 286.782H239.009V213.433H336.921V286.782ZM242.841 282.942H333.089V217.273H242.841V282.942Z" fill="#EDBD41"/>
<path d="M472.326 296.446H368.538C364.833 296.446 361.768 293.438 361.768 289.662V210.489C361.768 206.777 364.769 203.705 368.538 203.705H472.326C476.03 203.705 479.096 206.713 479.096 210.489V289.662C479.032 293.438 476.03 296.446 472.326 296.446ZM368.538 207.609C366.941 207.609 365.6 208.953 365.6 210.553V289.726C365.6 291.326 366.877 292.67 368.538 292.67H472.326C473.923 292.67 475.264 291.326 475.264 289.726V210.489C475.264 208.889 473.987 207.545 472.326 207.545H368.538V207.609ZM469.388 286.782H371.476V213.433H469.388V286.782ZM375.308 282.942H465.556V217.273H375.308V282.942Z" fill="#EDBD41"/>
<path d="M419.506 200.824H408.648V174.455H293.364V200.824H282.506V174.455H167.221V200.824H156.363V163.574H282.506V127.092H293.364V163.574H419.506V200.824ZM412.481 196.984H415.674V167.414H289.532V130.932H286.338V167.414H160.195V196.984H163.389V170.615H286.338V196.984H289.532V170.615H412.481V196.984Z" fill="#EDBD41"/>
<path d="M269.348 84.4652C263.472 84.4652 258.682 79.6649 258.682 73.7766C258.682 67.8882 263.472 63.0879 269.348 63.0879C275.224 63.0879 280.014 67.8882 280.014 73.7766C280.014 79.6649 275.224 84.4652 269.348 84.4652ZM269.348 66.2881C265.196 66.2881 261.875 69.6803 261.875 73.7766C261.875 77.8728 265.196 81.265 269.348 81.265C273.499 81.265 276.821 77.8728 276.821 73.7766C276.821 69.6803 273.499 66.2881 269.348 66.2881Z" fill="#EDBD41"/>
<path d="M269.348 105.139C260.278 105.139 253.125 100.466 253.125 94.4499C253.125 88.4335 260.215 83.7612 269.348 83.7612C278.481 83.7612 285.571 88.4335 285.571 94.4499C285.571 100.466 278.417 105.139 269.348 105.139ZM269.348 86.9614C262.322 86.9614 256.318 90.4176 256.318 94.4499C256.318 98.4821 262.258 101.938 269.348 101.938C276.437 101.938 282.377 98.4821 282.377 94.4499C282.377 90.4176 276.374 86.9614 269.348 86.9614Z" fill="#EDBD41"/>
<path d="M325.105 73.0725V67.9522C325.105 65.8401 323.061 64.24 320.443 64.24H295.534C292.915 64.24 290.871 65.9041 290.871 67.9522V73.0725C290.871 75.1847 292.915 76.7848 295.534 76.7848H320.443C323.061 76.7848 325.105 75.1847 325.105 73.0725ZM295.534 74.6086C294.192 74.6086 293.043 73.9046 293.043 73.0725V67.9522C293.043 67.1202 294.192 66.4161 295.534 66.4161H320.443C321.784 66.4161 322.934 67.1202 322.934 67.9522V73.0725C322.934 73.9046 321.784 74.6086 320.443 74.6086H295.534Z" fill="#EDBD41"/>
<path d="M325.105 86.6414V81.5211C325.105 79.4089 323.061 77.8088 320.443 77.8088H295.534C292.915 77.8088 290.871 79.4729 290.871 81.5211V86.6414C290.871 88.7535 292.915 90.3536 295.534 90.3536H320.443C323.061 90.4176 325.105 88.7535 325.105 86.6414ZM295.534 88.2415C294.192 88.2415 293.043 87.5374 293.043 86.7054V81.5851C293.043 80.753 294.192 80.049 295.534 80.049H320.443C321.784 80.049 322.934 80.753 322.934 81.5851V86.7054C322.934 87.5374 321.784 88.2415 320.443 88.2415H295.534Z" fill="#EDBD41"/>
<path d="M325.105 100.274V95.1539C325.105 93.0417 323.061 91.4417 320.443 91.4417H295.534C292.915 91.4417 290.871 93.1058 290.871 95.1539V100.274C290.871 102.386 292.915 103.986 295.534 103.986H320.443C323.061 103.986 325.105 102.386 325.105 100.274ZM295.534 101.81C294.192 101.81 293.043 101.106 293.043 100.274V95.1539C293.043 94.3218 294.192 93.6178 295.534 93.6178H320.443C321.784 93.6178 322.934 94.3218 322.934 95.1539V100.274C322.934 101.106 321.784 101.81 320.443 101.81H295.534Z" fill="#EDBD41"/>
<g opacity="0.5">
<g opacity="0.5">
<path opacity="0.5" d="M269.348 250.492C263.472 250.492 258.682 245.691 258.682 239.803C258.682 233.915 263.472 229.114 269.348 229.114C275.224 229.114 280.014 233.915 280.014 239.803C280.014 245.691 275.224 250.492 269.348 250.492ZM269.348 232.314C265.196 232.314 261.875 235.707 261.875 239.803C261.875 243.899 265.26 247.291 269.348 247.291C273.436 247.291 276.821 243.899 276.821 239.803C276.821 235.707 273.499 232.314 269.348 232.314Z" fill="#333333"/>
</g>
<g opacity="0.5">
<path opacity="0.5" d="M269.348 271.165C260.278 271.165 253.125 266.493 253.125 260.476C253.125 254.46 260.215 249.788 269.348 249.788C278.481 249.788 285.571 254.46 285.571 260.476C285.571 266.493 278.417 271.165 269.348 271.165ZM269.348 252.924C262.322 252.924 256.318 256.38 256.318 260.412C256.318 264.445 262.258 267.901 269.348 267.901C276.437 267.901 282.377 264.445 282.377 260.412C282.377 256.38 276.374 252.924 269.348 252.924Z" fill="#333333"/>
</g>
<g opacity="0.5">
<path opacity="0.5" d="M325.105 239.035V233.915C325.105 231.802 323.061 230.202 320.443 230.202H295.534C292.915 230.202 290.871 231.866 290.871 233.915V239.035C290.871 241.147 292.915 242.747 295.534 242.747H320.443C323.061 242.811 325.105 241.147 325.105 239.035ZM295.534 240.635C294.192 240.635 293.043 239.931 293.043 239.099V233.979C293.043 233.147 294.192 232.443 295.534 232.443H320.443C321.784 232.443 322.934 233.147 322.934 233.979V239.099C322.934 239.931 321.784 240.635 320.443 240.635H295.534Z" fill="#333333"/>
</g>
<g opacity="0.5">
<path opacity="0.5" d="M325.105 252.668V247.547C325.105 245.435 323.061 243.835 320.443 243.835H295.534C292.915 243.835 290.871 245.499 290.871 247.547V252.668C290.871 254.78 292.915 256.38 295.534 256.38H320.443C323.061 256.38 325.105 254.78 325.105 252.668ZM295.534 254.204C294.192 254.204 293.043 253.5 293.043 252.668V247.547C293.043 246.715 294.192 246.011 295.534 246.011H320.443C321.784 246.011 322.934 246.715 322.934 247.547V252.668C322.934 253.5 321.784 254.204 320.443 254.204H295.534Z" fill="#333333"/>
</g>
<g opacity="0.5">
<path opacity="0.5" d="M325.105 266.237V261.116C325.105 259.004 323.061 257.404 320.443 257.404H295.534C292.915 257.404 290.871 259.068 290.871 261.116V266.237C290.871 268.349 292.915 269.949 295.534 269.949H320.443C323.061 270.013 325.105 268.349 325.105 266.237ZM295.534 267.837C294.192 267.837 293.043 267.133 293.043 266.301V261.18C293.043 260.348 294.192 259.644 295.534 259.644H320.443C321.784 259.644 322.934 260.348 322.934 261.18V266.301C322.934 267.133 321.784 267.837 320.443 267.837H295.534Z" fill="#333333"/>
</g>
</g>
<g opacity="0.5">
<g opacity="0.5">
<path opacity="0.5" d="M399.834 250.492C393.958 250.492 389.168 245.691 389.168 239.803C389.168 233.915 393.958 229.114 399.834 229.114C405.71 229.114 410.5 233.915 410.5 239.803C410.5 245.691 405.774 250.492 399.834 250.492ZM399.834 232.314C395.683 232.314 392.361 235.707 392.361 239.803C392.361 243.899 395.747 247.291 399.834 247.291C403.922 247.291 407.307 243.899 407.307 239.803C407.307 235.707 403.986 232.314 399.834 232.314Z" fill="#333333"/>
</g>
<g opacity="0.5">
<path opacity="0.5" d="M399.834 271.165C390.765 271.165 383.611 266.493 383.611 260.476C383.611 254.46 390.701 249.788 399.834 249.788C408.968 249.788 416.057 254.46 416.057 260.476C416.057 266.493 408.968 271.165 399.834 271.165ZM399.834 252.924C392.809 252.924 386.805 256.38 386.805 260.412C386.805 264.445 392.745 267.901 399.834 267.901C406.924 267.901 412.864 264.445 412.864 260.412C412.864 256.38 406.924 252.924 399.834 252.924Z" fill="#333333"/>
</g>
<g opacity="0.5">
<path opacity="0.5" d="M455.592 239.035V233.915C455.592 231.802 453.548 230.202 450.929 230.202H426.02C423.401 230.202 421.357 231.866 421.357 233.915V239.035C421.357 241.147 423.401 242.747 426.02 242.747H450.929C453.548 242.811 455.592 241.147 455.592 239.035ZM426.02 240.635C424.679 240.635 423.529 239.931 423.529 239.099V233.979C423.529 233.147 424.679 232.443 426.02 232.443H450.929C452.27 232.443 453.42 233.147 453.42 233.979V239.099C453.42 239.931 452.27 240.635 450.929 240.635H426.02Z" fill="#333333"/>
</g>
<g opacity="0.5">
<path opacity="0.5" d="M455.592 252.668V247.547C455.592 245.435 453.548 243.835 450.929 243.835H426.02C423.401 243.835 421.357 245.499 421.357 247.547V252.668C421.357 254.78 423.401 256.38 426.02 256.38H450.929C453.548 256.38 455.592 254.78 455.592 252.668ZM426.02 254.204C424.679 254.204 423.529 253.5 423.529 252.668V247.547C423.529 246.715 424.679 246.011 426.02 246.011H450.929C452.27 246.011 453.42 246.715 453.42 247.547V252.668C453.42 253.5 452.27 254.204 450.929 254.204H426.02Z" fill="#333333"/>
</g>
<g opacity="0.5">
<path opacity="0.5" d="M455.592 266.237V261.116C455.592 259.004 453.548 257.404 450.929 257.404H426.02C423.401 257.404 421.357 259.068 421.357 261.116V266.237C421.357 268.349 423.401 269.949 426.02 269.949H450.929C453.548 270.013 455.592 268.349 455.592 266.237ZM426.02 267.837C424.679 267.837 423.529 267.133 423.529 266.301V261.18C423.529 260.348 424.679 259.644 426.02 259.644H450.929C452.27 259.644 453.42 260.348 453.42 261.18V266.301C453.42 267.133 452.27 267.837 450.929 267.837H426.02Z" fill="#333333"/>
</g>
</g>
<g opacity="0.5">
<g opacity="0.5">
<path opacity="0.5" d="M135.797 250.492C129.921 250.492 125.131 245.691 125.131 239.803C125.131 233.915 129.921 229.114 135.797 229.114C141.673 229.114 146.463 233.915 146.463 239.803C146.463 245.691 141.673 250.492 135.797 250.492ZM135.797 232.314C131.646 232.314 128.324 235.707 128.324 239.803C128.324 243.899 131.709 247.291 135.797 247.291C139.885 247.291 143.27 243.899 143.27 239.803C143.27 235.707 139.949 232.314 135.797 232.314Z" fill="#333333"/>
</g>
<g opacity="0.5">
<path opacity="0.5" d="M135.797 271.165C126.728 271.165 119.574 266.493 119.574 260.476C119.574 254.46 126.664 249.788 135.797 249.788C144.93 249.788 152.02 254.46 152.02 260.476C152.02 266.493 144.867 271.165 135.797 271.165ZM135.797 252.924C128.771 252.924 122.768 256.38 122.768 260.412C122.768 264.445 128.771 267.965 135.797 267.965C142.823 267.965 148.827 264.509 148.827 260.476C148.827 256.444 142.823 252.924 135.797 252.924Z" fill="#333333"/>
</g>
<g opacity="0.5">
<path opacity="0.5" d="M191.554 239.035V233.915C191.554 231.802 189.511 230.202 186.892 230.202H161.983C159.364 230.202 157.32 231.866 157.32 233.915V239.035C157.32 241.147 159.364 242.747 161.983 242.747H186.892C189.511 242.811 191.554 241.147 191.554 239.035ZM161.983 240.635C160.642 240.635 159.492 239.931 159.492 239.099V233.979C159.492 233.147 160.642 232.443 161.983 232.443H186.892C188.233 232.443 189.383 233.147 189.383 233.979V239.099C189.383 239.931 188.233 240.635 186.892 240.635H161.983Z" fill="#333333"/>
</g>
<g opacity="0.5">
<path opacity="0.5" d="M191.554 252.668V247.547C191.554 245.435 189.511 243.835 186.892 243.835H161.983C159.364 243.835 157.32 245.499 157.32 247.547V252.668C157.32 254.78 159.364 256.38 161.983 256.38H186.892C189.511 256.38 191.554 254.78 191.554 252.668ZM161.983 254.204C160.642 254.204 159.492 253.5 159.492 252.668V247.547C159.492 246.715 160.642 246.011 161.983 246.011H186.892C188.233 246.011 189.383 246.715 189.383 247.547V252.668C189.383 253.5 188.233 254.204 186.892 254.204H161.983Z" fill="#333333"/>
</g>
<g opacity="0.5">
<path opacity="0.5" d="M191.554 266.237V261.116C191.554 259.004 189.511 257.404 186.892 257.404H161.983C159.364 257.404 157.32 259.068 157.32 261.116V266.237C157.32 268.349 159.364 269.949 161.983 269.949H186.892C189.511 270.013 191.554 268.349 191.554 266.237ZM161.983 267.837C160.642 267.837 159.492 267.133 159.492 266.301V261.18C159.492 260.348 160.642 259.644 161.983 259.644H186.892C188.233 259.644 189.383 260.348 189.383 261.18V266.301C189.383 267.133 188.233 267.837 186.892 267.837H161.983Z" fill="#333333"/>
</g>
</g>
</g>
<defs>
<clipPath id="clip0">
<rect width="382.196" height="258.064" fill="white" transform="translate(96.8359 38.3823)"/>
</clipPath>
</defs>
</svg>
