<svg width="468" height="316" viewBox="0 0 468 316" fill="none" xmlns="http://www.w3.org/2000/svg">
<g clip-path="url(#clip0)">
<path d="M297.506 113.562H235.956V113.327H232.045V113.562H170.495C165.959 113.562 162.205 109.879 162.205 105.255V8.30754C162.205 3.68353 165.959 0 170.495 0H297.584C302.12 0 305.874 3.68353 305.874 8.30754V105.255C305.796 109.801 302.12 113.562 297.506 113.562ZM240.648 108.86H297.506C299.461 108.86 301.103 107.293 301.103 105.255V8.30754C301.103 6.34821 299.539 4.70238 297.506 4.70238H170.495C168.54 4.70238 166.898 6.26984 166.898 8.30754V105.255C166.898 107.214 168.462 108.86 170.495 108.86H227.353V108.625H240.648V108.86ZM293.987 101.728H174.015V11.8343H293.908V101.728H293.987ZM178.707 97.0258H289.216V16.5367H178.707V97.0258Z" fill="#EDBD41"/>
<path d="M135.301 316H8.29011C3.75401 316 0 312.316 0 307.692V210.745C0 206.199 3.6758 202.438 8.29011 202.438H135.301C139.837 202.438 143.591 206.121 143.591 210.745V307.692C143.591 312.316 139.837 316 135.301 316ZM8.29011 207.218C6.33489 207.218 4.69251 208.864 4.69251 210.823V307.771C4.69251 309.73 6.25668 311.376 8.29011 311.376H135.301C137.256 311.376 138.898 309.73 138.898 307.771V210.745C138.898 208.786 137.334 207.14 135.301 207.14H8.29011V207.218ZM131.781 304.166H11.8095V214.35H131.703V304.166H131.781ZM16.502 299.463H127.011V219.053H16.502V299.463Z" fill="#EDBD41"/>
<path d="M297.584 316H170.495C165.959 316 162.205 312.316 162.205 307.692V210.745C162.205 206.199 165.881 202.438 170.495 202.438H297.584C302.12 202.438 305.874 206.121 305.874 210.745V307.692C305.796 312.316 302.12 316 297.584 316ZM170.495 207.218C168.54 207.218 166.898 208.864 166.898 210.823V307.771C166.898 309.73 168.462 311.376 170.495 311.376H297.584C299.539 311.376 301.182 309.73 301.182 307.771V210.745C301.182 208.786 299.618 207.14 297.584 207.14H170.495V207.218ZM293.987 304.166H174.093V214.35H293.987V304.166ZM178.785 299.463H289.294V219.053H178.785V299.463Z" fill="#EDBD41"/>
<path d="M459.787 316H332.698C328.162 316 324.408 312.316 324.408 307.692V210.745C324.408 206.199 328.084 202.438 332.698 202.438H459.787C464.323 202.438 468.077 206.121 468.077 210.745V307.692C467.999 312.316 464.323 316 459.787 316ZM332.698 207.218C330.743 207.218 329.101 208.864 329.101 210.823V307.771C329.101 309.73 330.665 311.376 332.698 311.376H459.787C461.742 311.376 463.385 309.73 463.385 307.771V210.745C463.385 208.786 461.821 207.14 459.787 207.14H332.698V207.218ZM456.19 304.166H336.296V214.35H456.19V304.166ZM340.988 299.463H451.497V219.053H340.988V299.463Z" fill="#EDBD41"/>
<path d="M395.11 198.911H381.814V166.621H240.648V198.911H227.353V166.621H86.1861V198.911H72.8906V153.298H227.353V108.625H240.648V153.298H395.11V198.911ZM386.507 194.208H390.417V158H235.955V113.327H232.045V158H77.5831V194.208H81.4936V161.919H232.045V194.208H235.955V161.919H386.507V194.208Z" fill="#EDBD41"/>
<path d="M211.242 56.4285C204.047 56.4285 198.182 50.5506 198.182 43.3402C198.182 36.1299 204.047 30.252 211.242 30.252C218.438 30.252 224.303 36.1299 224.303 43.3402C224.303 50.5506 218.438 56.4285 211.242 56.4285ZM211.242 34.1706C206.159 34.1706 202.092 38.3244 202.092 43.3402C202.092 48.3561 206.159 52.5099 211.242 52.5099C216.326 52.5099 220.393 48.3561 220.393 43.3402C220.393 38.3244 216.326 34.1706 211.242 34.1706Z" fill="#EDBD41"/>
<path d="M211.242 81.743C200.136 81.743 191.377 76.0218 191.377 68.6547C191.377 61.2876 200.058 55.5664 211.242 55.5664C222.426 55.5664 231.107 61.2876 231.107 68.6547C231.107 76.0218 222.348 81.743 211.242 81.743ZM211.242 59.4851C202.639 59.4851 195.287 63.7172 195.287 68.6547C195.287 73.5922 202.561 77.8243 211.242 77.8243C219.923 77.8243 227.196 73.5922 227.196 68.6547C227.196 63.7172 219.845 59.4851 211.242 59.4851Z" fill="#EDBD41"/>
<path d="M279.517 42.4781V36.2082C279.517 33.6219 277.015 31.6626 273.808 31.6626H243.307C240.1 31.6626 237.598 33.7003 237.598 36.2082V42.4781C237.598 45.0644 240.1 47.0237 243.307 47.0237H273.808C277.015 47.0237 279.517 45.0644 279.517 42.4781ZM243.307 44.359C241.665 44.359 240.257 43.4969 240.257 42.4781V36.2082C240.257 35.1894 241.665 34.3273 243.307 34.3273H273.808C275.451 34.3273 276.858 35.1894 276.858 36.2082V42.4781C276.858 43.4969 275.451 44.359 273.808 44.359H243.307Z" fill="#EDBD41"/>
<path d="M279.517 59.0933V52.8235C279.517 50.2372 277.015 48.2778 273.808 48.2778H243.307C240.1 48.2778 237.598 50.3155 237.598 52.8235V59.0933C237.598 61.6796 240.1 63.6389 243.307 63.6389H273.808C277.015 63.7173 279.517 61.6796 279.517 59.0933ZM243.307 61.0526C241.665 61.0526 240.257 60.1905 240.257 59.1717V52.9018C240.257 51.883 241.665 51.0209 243.307 51.0209H273.808C275.451 51.0209 276.858 51.883 276.858 52.9018V59.1717C276.858 60.1905 275.451 61.0526 273.808 61.0526H243.307Z" fill="#EDBD41"/>
<path d="M279.517 75.7867V69.5168C279.517 66.9305 277.015 64.9712 273.808 64.9712H243.307C240.1 64.9712 237.598 67.0089 237.598 69.5168V75.7867C237.598 78.373 240.1 80.3323 243.307 80.3323H273.808C277.015 80.3323 279.517 78.373 279.517 75.7867ZM243.307 77.6676C241.665 77.6676 240.257 76.8055 240.257 75.7867V69.5168C240.257 68.498 241.665 67.6359 243.307 67.6359H273.808C275.451 67.6359 276.858 68.498 276.858 69.5168V75.7867C276.858 76.8055 275.451 77.6676 273.808 77.6676H243.307Z" fill="#EDBD41"/>
<g opacity="0.5">
<g opacity="0.5">
<path opacity="0.5" d="M211.242 259.728C204.047 259.728 198.182 253.85 198.182 246.64C198.182 239.43 204.047 233.552 211.242 233.552C218.438 233.552 224.303 239.43 224.303 246.64C224.303 253.85 218.438 259.728 211.242 259.728ZM211.242 237.47C206.159 237.47 202.092 241.624 202.092 246.64C202.092 251.656 206.237 255.81 211.242 255.81C216.248 255.81 220.393 251.656 220.393 246.64C220.393 241.624 216.326 237.47 211.242 237.47Z" fill="#333333"/>
</g>
<g opacity="0.5">
<path opacity="0.5" d="M211.242 285.043C200.136 285.043 191.377 279.322 191.377 271.955C191.377 264.587 200.058 258.866 211.242 258.866C222.426 258.866 231.107 264.587 231.107 271.955C231.107 279.322 222.348 285.043 211.242 285.043ZM211.242 262.707C202.639 262.707 195.287 266.939 195.287 271.876C195.287 276.814 202.561 281.046 211.242 281.046C219.923 281.046 227.196 276.814 227.196 271.876C227.196 266.939 219.845 262.707 211.242 262.707Z" fill="#333333"/>
</g>
<g opacity="0.5">
<path opacity="0.5" d="M279.517 245.7V239.43C279.517 236.844 277.015 234.884 273.808 234.884H243.307C240.1 234.884 237.598 236.922 237.598 239.43V245.7C237.598 248.286 240.1 250.245 243.307 250.245H273.808C277.015 250.324 279.517 248.286 279.517 245.7ZM243.307 247.659C241.665 247.659 240.257 246.797 240.257 245.778V239.508C240.257 238.489 241.665 237.627 243.307 237.627H273.808C275.451 237.627 276.858 238.489 276.858 239.508V245.778C276.858 246.797 275.451 247.659 273.808 247.659H243.307Z" fill="#333333"/>
</g>
<g opacity="0.5">
<path opacity="0.5" d="M279.517 262.393V256.123C279.517 253.537 277.015 251.578 273.808 251.578H243.307C240.1 251.578 237.598 253.615 237.598 256.123V262.393C237.598 264.979 240.1 266.939 243.307 266.939H273.808C277.015 266.939 279.517 264.979 279.517 262.393ZM243.307 264.274C241.665 264.274 240.257 263.412 240.257 262.393V256.123C240.257 255.104 241.665 254.242 243.307 254.242H273.808C275.451 254.242 276.858 255.104 276.858 256.123V262.393C276.858 263.412 275.451 264.274 273.808 264.274H243.307Z" fill="#333333"/>
</g>
<g opacity="0.5">
<path opacity="0.5" d="M279.517 279.008V272.738C279.517 270.152 277.015 268.193 273.808 268.193H243.307C240.1 268.193 237.598 270.231 237.598 272.738V279.008C237.598 281.595 240.1 283.554 243.307 283.554H273.808C277.015 283.632 279.517 281.595 279.517 279.008ZM243.307 280.968C241.665 280.968 240.257 280.106 240.257 279.087V272.817C240.257 271.798 241.665 270.936 243.307 270.936H273.808C275.451 270.936 276.858 271.798 276.858 272.817V279.087C276.858 280.106 275.451 280.968 273.808 280.968H243.307Z" fill="#333333"/>
</g>
</g>
<g opacity="0.5">
<g opacity="0.5">
<path opacity="0.5" d="M371.022 259.728C363.827 259.728 357.961 253.85 357.961 246.64C357.961 239.43 363.827 233.552 371.022 233.552C378.217 233.552 384.083 239.43 384.083 246.64C384.083 253.85 378.295 259.728 371.022 259.728ZM371.022 237.47C365.938 237.47 361.871 241.624 361.871 246.64C361.871 251.656 366.016 255.81 371.022 255.81C376.027 255.81 380.172 251.656 380.172 246.64C380.172 241.624 376.105 237.47 371.022 237.47Z" fill="#333333"/>
</g>
<g opacity="0.5">
<path opacity="0.5" d="M371.021 285.043C359.916 285.043 351.156 279.322 351.156 271.955C351.156 264.587 359.837 258.866 371.021 258.866C382.205 258.866 390.886 264.587 390.886 271.955C390.886 279.322 382.205 285.043 371.021 285.043ZM371.021 262.707C362.418 262.707 355.067 266.939 355.067 271.876C355.067 276.814 362.34 281.046 371.021 281.046C379.702 281.046 386.976 276.814 386.976 271.876C386.976 266.939 379.702 262.707 371.021 262.707Z" fill="#333333"/>
</g>
<g opacity="0.5">
<path opacity="0.5" d="M439.297 245.7V239.43C439.297 236.844 436.794 234.884 433.588 234.884H403.086C399.88 234.884 397.377 236.922 397.377 239.43V245.7C397.377 248.286 399.88 250.245 403.086 250.245H433.588C436.794 250.324 439.297 248.286 439.297 245.7ZM403.086 247.659C401.444 247.659 400.036 246.797 400.036 245.778V239.508C400.036 238.489 401.444 237.627 403.086 237.627H433.588C435.23 237.627 436.638 238.489 436.638 239.508V245.778C436.638 246.797 435.23 247.659 433.588 247.659H403.086Z" fill="#333333"/>
</g>
<g opacity="0.5">
<path opacity="0.5" d="M439.297 262.393V256.123C439.297 253.537 436.794 251.578 433.588 251.578H403.086C399.88 251.578 397.377 253.615 397.377 256.123V262.393C397.377 264.979 399.88 266.939 403.086 266.939H433.588C436.794 266.939 439.297 264.979 439.297 262.393ZM403.086 264.274C401.444 264.274 400.036 263.412 400.036 262.393V256.123C400.036 255.104 401.444 254.242 403.086 254.242H433.588C435.23 254.242 436.638 255.104 436.638 256.123V262.393C436.638 263.412 435.23 264.274 433.588 264.274H403.086Z" fill="#333333"/>
</g>
<g opacity="0.5">
<path opacity="0.5" d="M439.297 279.008V272.738C439.297 270.152 436.794 268.193 433.588 268.193H403.086C399.88 268.193 397.377 270.231 397.377 272.738V279.008C397.377 281.595 399.88 283.554 403.086 283.554H433.588C436.794 283.632 439.297 281.595 439.297 279.008ZM403.086 280.968C401.444 280.968 400.036 280.106 400.036 279.087V272.817C400.036 271.798 401.444 270.936 403.086 270.936H433.588C435.23 270.936 436.638 271.798 436.638 272.817V279.087C436.638 280.106 435.23 280.968 433.588 280.968H403.086Z" fill="#333333"/>
</g>
</g>
<g opacity="0.5">
<g opacity="0.5">
<path opacity="0.5" d="M47.7073 259.728C40.5121 259.728 34.6465 253.85 34.6465 246.64C34.6465 239.43 40.5121 233.552 47.7073 233.552C54.9025 233.552 60.7681 239.43 60.7681 246.64C60.7681 253.85 54.9025 259.728 47.7073 259.728ZM47.7073 237.47C42.6238 237.47 38.5569 241.624 38.5569 246.64C38.5569 251.656 42.702 255.81 47.7073 255.81C52.7127 255.81 56.8577 251.656 56.8577 246.64C56.8577 241.624 52.7909 237.47 47.7073 237.47Z" fill="#333333"/>
</g>
<g opacity="0.5">
<path opacity="0.5" d="M47.7068 285.043C36.6012 285.043 27.8418 279.322 27.8418 271.955C27.8418 264.587 36.5229 258.866 47.7068 258.866C58.8906 258.866 67.5717 264.587 67.5717 271.955C67.5717 279.322 58.8124 285.043 47.7068 285.043ZM47.7068 262.707C39.1038 262.707 31.7522 266.939 31.7522 271.876C31.7522 276.814 39.1038 281.124 47.7068 281.124C56.3097 281.124 63.6613 276.892 63.6613 271.955C63.6613 267.017 56.3097 262.707 47.7068 262.707Z" fill="#333333"/>
</g>
<g opacity="0.5">
<path opacity="0.5" d="M115.982 245.7V239.43C115.982 236.844 113.48 234.884 110.273 234.884H79.7717C76.5652 234.884 74.0625 236.922 74.0625 239.43V245.7C74.0625 248.286 76.5652 250.245 79.7717 250.245H110.273C113.48 250.324 115.982 248.286 115.982 245.7ZM79.7717 247.659C78.1293 247.659 76.7216 246.797 76.7216 245.778V239.508C76.7216 238.489 78.1293 237.627 79.7717 237.627H110.273C111.915 237.627 113.323 238.489 113.323 239.508V245.778C113.323 246.797 111.915 247.659 110.273 247.659H79.7717Z" fill="#333333"/>
</g>
<g opacity="0.5">
<path opacity="0.5" d="M115.982 262.393V256.123C115.982 253.537 113.48 251.578 110.273 251.578H79.7717C76.5652 251.578 74.0625 253.615 74.0625 256.123V262.393C74.0625 264.979 76.5652 266.939 79.7717 266.939H110.273C113.48 266.939 115.982 264.979 115.982 262.393ZM79.7717 264.274C78.1293 264.274 76.7216 263.412 76.7216 262.393V256.123C76.7216 255.104 78.1293 254.242 79.7717 254.242H110.273C111.915 254.242 113.323 255.104 113.323 256.123V262.393C113.323 263.412 111.915 264.274 110.273 264.274H79.7717Z" fill="#333333"/>
</g>
<g opacity="0.5">
<path opacity="0.5" d="M115.982 279.008V272.738C115.982 270.152 113.48 268.193 110.273 268.193H79.7717C76.5652 268.193 74.0625 270.231 74.0625 272.738V279.008C74.0625 281.595 76.5652 283.554 79.7717 283.554H110.273C113.48 283.632 115.982 281.595 115.982 279.008ZM79.7717 280.968C78.1293 280.968 76.7216 280.106 76.7216 279.087V272.817C76.7216 271.798 78.1293 270.936 79.7717 270.936H110.273C111.915 270.936 113.323 271.798 113.323 272.817V279.087C113.323 280.106 111.915 280.968 110.273 280.968H79.7717Z" fill="#333333"/>
</g>
</g>
</g>
<defs>
<clipPath id="clip0">
<rect width="468" height="316" fill="white"/>
</clipPath>
</defs>
</svg>
