<svg width="70" height="70" viewBox="0 0 70 70" fill="none" xmlns="http://www.w3.org/2000/svg">
<g clip-path="url(#clip0)">
<path d="M35.0138 69.9999C15.7224 70.0137 0.0137886 54.3188 9.0665e-06 35.0137C-0.0137705 15.7223 15.6811 0.0136665 34.9862 -0.000113004C54.2775 -0.0138925 69.9862 15.681 70 34.9861C70.0275 54.2774 54.3189 69.9999 35.0138 69.9999ZM35 1.61209C16.5768 1.62587 1.62599 16.5629 1.61221 34.9861C1.58465 53.3956 16.5354 68.3601 34.9724 68.4015C53.3957 68.4428 68.4291 53.3956 68.3878 34.9861C68.3602 16.5353 53.4094 1.59831 35 1.61209Z" fill="#EDBD41"/>
<path d="M59.5415 35C59.5552 48.5315 48.5592 59.5275 35.0277 59.5413C21.4962 59.5413 10.4863 48.5452 10.4863 35.0138C10.4726 21.496 21.4824 10.4724 35.0001 10.4724C48.5454 10.4724 59.5277 21.4547 59.5415 35ZM57.943 35.0689C58.1222 22.5846 47.8978 12.2775 35.1793 12.0846C22.6399 11.8917 12.2915 22.1023 12.0985 34.8346C11.9194 47.4015 22.1163 57.7638 34.821 57.9291C47.4706 58.0807 57.7639 47.9114 57.943 35.0689Z" fill="#EDBD41"/>
<path d="M17.6795 15.5157C17.5141 15.4193 17.2523 15.3366 17.087 15.185C15.9846 14.1102 14.896 13.0216 13.8212 11.9193C13.3252 11.4094 13.3527 10.9685 13.9039 10.5275C14.8685 9.75588 15.8606 8.998 16.8527 8.26769C17.4039 7.8543 17.8173 7.95076 18.1755 8.54328C18.9748 9.87989 19.7602 11.2303 20.4905 12.6082C20.6283 12.8563 20.587 13.4212 20.4078 13.5866C19.7051 14.2342 18.9059 14.7992 18.1342 15.3779C18.0378 15.4468 17.8862 15.4606 17.6795 15.5157ZM17.1696 10.0039C16.5771 10.4586 16.0535 10.872 15.585 11.2165C16.3842 12.0157 17.1283 12.746 17.9 13.5177C18.1618 13.3248 18.4787 13.0767 18.7956 12.8149C18.2444 11.8504 17.7208 10.9409 17.1696 10.0039Z" fill="#EDBD41"/>
<path d="M56.6345 11.2304C56.4416 11.5197 56.3314 11.7678 56.1522 11.9607C55.105 13.0217 54.044 14.0689 52.9967 15.13C52.5696 15.5571 52.1424 15.5985 51.6601 15.2126C51.0538 14.7304 50.4337 14.2481 49.7999 13.7934C49.3038 13.4213 49.2349 13.0079 49.5519 12.4843C50.3097 11.2028 51.04 9.90753 51.7979 8.61225C52.1975 7.93706 52.5833 7.8406 53.2034 8.29532C54.1818 9.01186 55.1463 9.75596 56.0971 10.5138C56.3038 10.693 56.4278 10.9686 56.6345 11.2304ZM51.2054 12.815C51.5774 13.0906 51.8944 13.3249 52.1286 13.504C52.9141 12.7186 53.6581 11.9882 54.4298 11.2166C53.9337 10.8445 53.4101 10.4449 52.8452 10.004C52.2802 10.9686 51.7704 11.8504 51.2054 12.815Z" fill="#EDBD41"/>
<path d="M13.3652 58.7835C13.5581 58.4941 13.6684 58.2323 13.8475 58.0532C14.8948 56.9922 15.9558 55.9449 17.003 54.8839C17.4578 54.4292 17.8987 54.4154 18.3948 54.815C18.9873 55.2973 19.5936 55.752 20.1999 56.1929C20.6959 56.5512 20.7786 56.9646 20.4755 57.502C19.7038 58.811 18.9597 60.1201 18.1881 61.4292C17.816 62.063 17.4164 62.1457 16.8239 61.7185C15.8456 61.002 14.881 60.2579 13.9302 59.5C13.7097 59.3209 13.5719 59.0591 13.3652 58.7835ZM17.9125 56.4961C17.0857 57.2953 16.3416 58.0256 15.57 58.7973C16.0798 59.1831 16.6172 59.5827 17.1822 60.0099C17.7609 59.0177 18.2707 58.1221 18.8219 57.1851C18.4499 56.9095 18.1467 56.6752 17.9125 56.4961Z" fill="#EDBD41"/>
<path d="M15.5556 52.3483C15.404 52.5688 15.28 52.8168 15.1008 53.0097C14.0674 54.057 13.0339 55.0905 11.9867 56.1239C11.4079 56.6889 10.9945 56.6889 10.4985 56.055C9.74059 55.1042 8.9965 54.1397 8.27996 53.1613C7.8528 52.5688 7.94925 52.1692 8.58311 51.7971C9.89217 51.0255 11.2012 50.2952 12.5103 49.5235C12.9788 49.2479 13.3784 49.2617 13.7229 49.7027C14.2465 50.3779 14.7701 51.0393 15.2662 51.7282C15.404 51.8936 15.4453 52.1003 15.5556 52.3483ZM13.5575 52.1692C13.3095 51.8523 13.0752 51.5491 12.8134 51.2046C11.8626 51.7558 10.9394 52.2794 9.97484 52.8444C10.4433 53.4507 10.843 53.9743 11.2288 54.4704C12.0556 53.6712 12.7859 52.9546 13.5575 52.1692Z" fill="#EDBD41"/>
<path d="M58.7565 56.6064C58.4947 56.441 58.2466 56.3308 58.0537 56.1516C56.9927 55.1044 55.9455 54.0434 54.8844 52.9961C54.4297 52.5414 54.4021 52.1142 54.8155 51.6044C55.2978 51.0256 55.7525 50.4193 56.1935 49.7993C56.5518 49.317 56.9651 49.2067 57.5025 49.5099C58.8116 50.2815 60.1207 51.0119 61.4297 51.7835C62.036 52.1418 62.1462 52.5414 61.7604 53.0926C61.0025 54.126 60.2171 55.1457 59.4179 56.1379C59.2663 56.3446 59.0183 56.441 58.7565 56.6064ZM58.7703 54.4705C59.1699 53.9469 59.5695 53.4233 60.0104 52.8445C59.0458 52.2796 58.1364 51.7697 57.1856 51.2186C56.9238 51.5768 56.6758 51.8938 56.4691 52.1694C57.2545 52.941 57.9848 53.6851 58.7703 54.4705Z" fill="#EDBD41"/>
<path d="M11.2311 13.3799C11.5205 13.5728 11.7823 13.683 11.9614 13.8622C13.0225 14.9094 14.0697 15.9704 15.1307 17.0177C15.5579 17.4448 15.613 17.872 15.2272 18.3543C14.7449 18.9606 14.2626 19.5807 13.7941 20.2007C13.4221 20.6968 13.0087 20.7657 12.4851 20.4488C11.2036 19.6909 9.90829 18.9606 8.61302 18.2165C7.93782 17.8169 7.82759 17.4311 8.28231 16.811C8.99885 15.8326 9.74294 14.8681 10.5008 13.9173C10.6937 13.7106 10.9693 13.5728 11.2311 13.3799ZM10.0048 17.1555C10.9831 17.7204 11.8925 18.2441 12.8433 18.7952C13.1327 18.4232 13.367 18.1063 13.5048 17.9271C12.6918 17.1004 11.9614 16.37 11.2036 15.5984C10.8315 16.0669 10.4319 16.5905 10.0048 17.1555Z" fill="#EDBD41"/>
<path d="M56.6069 58.7974C56.4415 59.0316 56.3313 59.2934 56.1384 59.445C55.1463 60.2304 54.1542 61.0021 53.1345 61.7462C52.5833 62.1458 52.1837 62.0355 51.8254 61.443C51.04 60.1202 50.2821 58.7836 49.5242 57.4607C49.2486 56.9922 49.3313 56.5926 49.7723 56.2619C50.4199 55.7659 51.0813 55.256 51.729 54.7462C52.1286 54.443 52.5419 54.443 52.9002 54.8013C54.0301 55.9174 55.1463 57.0336 56.2486 58.1635C56.3864 58.3013 56.4553 58.5355 56.6069 58.7974ZM51.2191 57.1852C51.7703 58.1359 52.2939 59.0454 52.8451 59.9962C53.4376 59.5552 53.9612 59.1418 54.3884 58.8111C53.5892 58.0119 52.8589 57.2678 52.0872 56.4962C51.8667 56.6891 51.5774 56.9096 51.2191 57.1852Z" fill="#EDBD41"/>
<path d="M54.4707 17.6516C54.5947 17.4587 54.705 17.1969 54.8841 17.0178C55.9313 15.9567 56.9786 14.8957 58.0396 13.8485C58.577 13.3248 59.0042 13.3386 59.4865 13.9311C60.2443 14.8819 60.9884 15.8465 61.705 16.8248C62.1321 17.4174 62.0495 17.817 61.4156 18.189C60.0928 18.9744 58.7561 19.7323 57.4333 20.504C57.0199 20.7382 56.6341 20.7382 56.3172 20.3524C55.7384 19.6359 55.1872 18.9055 54.6498 18.1752C54.5809 18.0512 54.5534 17.8721 54.4707 17.6516ZM57.1853 18.7953C58.1498 18.2441 59.0593 17.7067 60.0101 17.1555C59.5554 16.563 59.1558 16.0532 58.8113 15.6122C58.0258 16.4115 57.2817 17.1555 56.5239 17.941C56.703 18.1477 56.9235 18.4508 57.1853 18.7953Z" fill="#EDBD41"/>
<path d="M26.8827 10.0176C26.7312 10.1829 26.5382 10.4861 26.2627 10.6239C25.5048 10.9959 24.7056 11.2853 23.9201 11.616C23.4654 11.8089 23.0934 11.6849 22.8591 11.2715C22.0461 9.89356 21.2331 8.50183 20.4477 7.1101C20.1859 6.64159 20.3099 6.18687 20.8197 5.95262C22.0186 5.42899 23.2174 4.91915 24.43 4.43687C24.9536 4.23017 25.3945 4.42309 25.5599 5.00183C25.9871 6.54514 26.4005 8.10222 26.8138 9.64553C26.8414 9.71443 26.8414 9.79711 26.8827 10.0176ZM22.2666 7.0412C22.8316 8.00577 23.3552 8.91522 23.8926 9.866C24.306 9.70065 24.678 9.5353 25.0776 9.36994C24.7882 8.29514 24.5127 7.27545 24.2233 6.21443C23.5343 6.49002 22.928 6.75183 22.2666 7.0412Z" fill="#EDBD41"/>
<path d="M49.7568 6.61412C49.6052 6.94483 49.5225 7.1653 49.4123 7.35822C48.7095 8.59837 47.993 9.82475 47.2765 11.0511C46.8768 11.7401 46.5875 11.8366 45.8709 11.5334C45.2095 11.2578 44.5619 10.9822 43.9005 10.7204C43.2115 10.4448 43.0599 10.1555 43.239 9.4527C43.6111 8.00585 43.9969 6.57278 44.3827 5.12593C44.5757 4.43695 44.9615 4.2027 45.6229 4.46451C46.7942 4.91924 47.9654 5.4153 49.1091 5.93892C49.3847 6.06294 49.5501 6.39365 49.7568 6.61412ZM44.9201 9.37003C45.3473 9.53538 45.7194 9.68696 46.119 9.85231C46.6702 8.90152 47.1938 7.99207 47.745 7.02751C47.0422 6.73814 46.4221 6.4901 45.7745 6.21451C45.4851 7.28932 45.2095 8.28144 44.9201 9.37003Z" fill="#EDBD41"/>
<path d="M6.64197 20.2422C6.97268 20.3938 7.13804 20.4627 7.28961 20.5453C8.55733 21.2757 9.83882 22.006 11.1065 22.7501C11.7542 23.1221 11.8369 23.4253 11.5475 24.1142C11.2581 24.7894 10.9825 25.4646 10.7069 26.1536C10.4727 26.7461 10.1006 26.9528 9.46678 26.7737C8.03371 26.3603 6.58686 26.0158 5.15378 25.6162C4.43725 25.4233 4.23056 25.0237 4.50615 24.3209C4.94709 23.191 5.40182 22.0611 5.91166 20.9587C6.04945 20.6556 6.40772 20.4627 6.64197 20.2422ZM9.3841 25.0788C9.54945 24.6654 9.70103 24.2934 9.8526 23.88C8.90182 23.3288 8.00615 22.8052 7.04158 22.254C6.75221 22.943 6.50418 23.5631 6.22859 24.2245C7.30339 24.5138 8.29552 24.7894 9.3841 25.0788Z" fill="#EDBD41"/>
<path d="M65.6731 45.0176C65.6042 45.3483 65.5904 45.4861 65.5353 45.6101C65.053 46.7676 64.5845 47.9388 64.0747 49.0963C63.8266 49.675 63.3857 49.8128 62.8345 49.5097C61.4703 48.7518 60.1337 47.9526 58.7833 47.1809C58.3148 46.9054 58.177 46.5333 58.3975 46.0235C58.7282 45.2656 59.0451 44.5077 59.3621 43.7498C59.5688 43.2538 59.927 43.0746 60.4644 43.2262C61.9388 43.6258 63.4408 43.9979 64.9014 44.4388C65.2321 44.5077 65.4664 44.8384 65.6731 45.0176ZM62.9723 47.7321C63.2479 47.0569 63.5097 46.4369 63.7853 45.7617C62.6967 45.4723 61.6908 45.1967 60.6436 44.9073C60.4782 45.3207 60.3266 45.679 60.1475 46.0924C61.0983 46.6573 62.0077 47.1809 62.9723 47.7321Z" fill="#EDBD41"/>
<path d="M11.7394 46.6025C11.5878 46.7678 11.4363 47.0296 11.202 47.1674C9.87918 47.9529 8.55634 48.7245 7.21973 49.4824C6.59965 49.8269 6.18626 49.7029 5.89689 49.0277C5.40083 47.9115 4.94611 46.7954 4.50516 45.6655C4.22957 44.9627 4.45004 44.5769 5.18036 44.384C6.64099 43.9844 8.10162 43.6123 9.56225 43.2127C10.0583 43.0749 10.4304 43.2127 10.637 43.6812C10.9953 44.4942 11.326 45.3348 11.6705 46.1615C11.6981 46.2442 11.6981 46.3682 11.7394 46.6025ZM7.04059 47.7324C8.03272 47.1537 8.94217 46.63 9.87918 46.0926C9.68626 45.6655 9.53469 45.3072 9.36933 44.9214C8.29453 45.2107 7.28863 45.4863 6.2276 45.7757C6.48941 46.4371 6.75122 47.0434 7.04059 47.7324Z" fill="#EDBD41"/>
<path d="M65.6598 24.9548C65.4944 25.1064 65.2877 25.4509 64.9984 25.5473C63.4688 26.002 61.9117 26.4292 60.3546 26.7875C60.0791 26.8426 59.5554 26.5946 59.4176 26.3465C58.9905 25.5611 58.6873 24.7205 58.3566 23.8938C58.1775 23.4391 58.3566 23.0946 58.7562 22.8465C60.1066 22.0611 61.457 21.2757 62.8074 20.504C63.3035 20.2146 63.7858 20.2698 64.0338 20.8072C64.585 22.0198 65.0673 23.2599 65.5771 24.4863C65.6184 24.569 65.6184 24.6654 65.6598 24.9548ZM62.9728 22.254C61.9806 22.819 61.085 23.3426 60.148 23.8938C60.3271 24.3209 60.4924 24.693 60.6578 25.0788C61.7188 24.7894 62.7385 24.5139 63.7995 24.2245C63.5102 23.5631 63.2621 22.9568 62.9728 22.254Z" fill="#EDBD41"/>
<path d="M26.9112 59.9824C26.8286 60.3131 26.7872 60.4647 26.7459 60.6162C26.3738 62.008 26.0018 63.3997 25.6297 64.8052C25.4093 65.6044 25.0372 65.8111 24.2518 65.4942C23.1494 65.0532 22.0471 64.5985 20.9585 64.1162C20.3108 63.8269 20.173 63.4135 20.5313 62.7934C21.2892 61.4568 22.0608 60.134 22.8325 58.7973C23.1081 58.3288 23.4801 58.191 24.0038 58.4253C24.7341 58.7422 25.4919 59.0178 26.2223 59.3623C26.4978 59.5001 26.7183 59.8032 26.9112 59.9824ZM22.2675 62.9725C22.9565 63.2619 23.5628 63.5099 24.238 63.7855C24.5274 62.7107 24.803 61.691 25.0923 60.63C24.6652 60.4647 24.2931 60.3131 23.8935 60.1615C23.3423 61.0985 22.8325 61.9942 22.2675 62.9725Z" fill="#EDBD41"/>
<path d="M46.6149 58.2874C46.7389 58.3976 47.0145 58.5216 47.1385 58.7421C47.9515 60.1063 48.7507 61.4704 49.5224 62.8484C49.8255 63.3996 49.6877 63.8267 49.109 64.0885C47.9515 64.5984 46.794 65.0944 45.6228 65.5492C45.0027 65.7972 44.5893 65.563 44.4102 64.9291C43.9968 63.4271 43.5696 61.9252 43.2251 60.4094C43.1562 60.1338 43.3491 59.6102 43.5696 59.4862C44.4377 59.0315 45.3747 58.7007 46.2842 58.3287C46.3393 58.2874 46.422 58.3011 46.6149 58.2874ZM45.7743 63.7992C46.4771 63.496 47.0834 63.248 47.7448 62.9724C47.1799 61.9941 46.6562 61.0984 46.1188 60.1476C45.6917 60.3267 45.3334 60.4783 44.92 60.6437C45.2094 61.7047 45.485 62.7106 45.7743 63.7992Z" fill="#EDBD41"/>
<path d="M33.6502 64.0334C33.6502 64.7637 33.6502 65.5078 33.6502 66.2382C33.6364 67.0236 33.3746 67.3267 32.6167 67.2441C31.3903 67.12 30.1639 66.9547 28.9376 66.7618C28.221 66.6515 28.0281 66.2657 28.2072 65.5767C28.5931 64.1161 28.9789 62.6555 29.3647 61.1949C29.5163 60.6437 29.847 60.3956 30.4395 60.4783C31.2387 60.5886 32.0242 60.685 32.8234 60.7815C33.347 60.8504 33.6502 61.126 33.6502 61.6909C33.6364 62.4764 33.6502 63.248 33.6502 64.0334ZM30.784 62.1732C30.5084 63.2204 30.2328 64.2401 29.9435 65.3149C30.6876 65.4114 31.3352 65.5078 32.0242 65.6043C32.0242 64.4744 32.0242 63.4134 32.0242 62.3386C31.5832 62.2697 31.2112 62.2283 30.784 62.1732Z" fill="#EDBD41"/>
<path d="M33.6502 6.03543C33.6502 6.7933 33.6502 7.55118 33.6502 8.30905C33.6502 8.86023 33.3746 9.16338 32.8372 9.23228C32.0655 9.32873 31.2939 9.41141 30.5222 9.53543C29.8883 9.63188 29.5163 9.39763 29.3509 8.77755C28.9789 7.3307 28.5793 5.89763 28.2072 4.46456C28.0281 3.76181 28.221 3.38976 28.9376 3.26574C30.1777 3.05905 31.4317 2.89369 32.6856 2.76968C33.3608 2.70078 33.6364 3.00393 33.6502 3.70669C33.6639 4.47834 33.6502 5.24999 33.6502 6.03543ZM30.784 7.84055C31.2387 7.77165 31.6108 7.71653 32.0104 7.66141C32.0104 6.57283 32.0104 5.51181 32.0104 4.39566C31.2939 4.49212 30.6462 4.58858 29.9435 4.68503C30.2191 5.75984 30.4946 6.76574 30.784 7.84055Z" fill="#EDBD41"/>
<path d="M36.3639 5.96658C36.3639 5.18115 36.3639 4.40949 36.3639 3.62406C36.3639 3.03154 36.6808 2.70083 37.2596 2.75595C38.5548 2.89375 39.8501 3.0591 41.1316 3.26579C41.7655 3.36225 41.9722 3.76186 41.8068 4.36816C41.421 5.85635 41.0214 7.33075 40.6218 8.80516C40.4702 9.37012 40.1257 9.5906 39.547 9.50792C38.734 9.39768 37.9072 9.31501 37.0942 9.19099C36.5982 9.12209 36.3363 8.80516 36.3501 8.28154C36.3639 7.52367 36.3639 6.73823 36.3639 5.96658ZM37.9348 4.39572C37.9348 5.15359 37.9348 5.84257 37.9348 6.51776C37.9348 7.66146 37.9348 7.66146 39.0647 7.81304C39.106 7.81304 39.1474 7.78548 39.2438 7.75792C39.5056 6.77957 39.7812 5.75989 40.0706 4.68509C39.3678 4.60241 38.6926 4.50595 37.9348 4.39572Z" fill="#EDBD41"/>
<path d="M64.0192 36.3504C64.8047 36.3504 65.5763 36.3366 66.3617 36.3504C67.0094 36.3641 67.3125 36.6535 67.2436 37.3012C67.1196 38.5827 66.9543 39.8504 66.7476 41.1181C66.6373 41.7795 66.2653 41.9724 65.5901 41.7933C64.1295 41.4075 62.6688 41.0216 61.2082 40.6358C60.657 40.4842 60.3952 40.1535 60.4779 39.5748C60.5881 38.7618 60.6846 37.935 60.7948 37.122C60.8637 36.626 61.1531 36.3504 61.6767 36.3504C62.4621 36.3504 63.2338 36.3504 64.0192 36.3504ZM65.6039 37.9764C64.4739 37.9764 63.4129 37.9764 62.3243 37.9764C62.2692 38.4035 62.2141 38.7893 62.159 39.2165C63.22 39.4921 64.2397 39.7677 65.3145 40.0571C65.411 39.3405 65.5074 38.7067 65.6039 37.9764Z" fill="#EDBD41"/>
<path d="M36.3648 64.0059C36.3648 63.2481 36.3786 62.4902 36.3648 61.7323C36.351 61.1811 36.6266 60.8642 37.164 60.7953C37.9632 60.6851 38.7486 60.6024 39.5478 60.4784C40.1541 60.3957 40.4986 60.6299 40.664 61.2225C41.036 62.6555 41.4356 64.1024 41.8077 65.5355C42.0006 66.2795 41.7939 66.6378 41.0498 66.7618C39.851 66.9547 38.6522 67.1201 37.4396 67.2303C36.6404 67.313 36.3786 67.0236 36.3786 66.1969C36.351 65.4666 36.3648 64.7362 36.3648 64.0059ZM40.0715 65.315C39.7683 64.2264 39.4927 63.2067 39.2171 62.1732C38.8589 62.2146 38.5833 62.2146 38.3215 62.2973C38.1699 62.3524 37.9632 62.5315 37.9494 62.6555C37.9219 63.6063 37.9356 64.5709 37.9356 65.6044C38.6935 65.4941 39.3549 65.4114 40.0715 65.315Z" fill="#EDBD41"/>
<path d="M5.95307 33.6358C5.19519 33.6358 4.43732 33.6358 3.67944 33.6358C3.05936 33.6358 2.68732 33.3464 2.75622 32.7264C2.89401 31.4311 3.05936 30.1358 3.26606 28.8543C3.36251 28.248 3.78968 28.0413 4.39598 28.2067C5.85661 28.6063 7.31724 28.9921 8.77787 29.3779C9.35661 29.5295 9.61842 29.874 9.53574 30.4803C9.42551 31.2795 9.32905 32.0649 9.23259 32.8642C9.1637 33.4016 8.84677 33.6634 8.29559 33.6496C7.51015 33.6358 6.7385 33.6358 5.95307 33.6358ZM4.40976 31.996C5.56724 31.996 6.62826 31.996 7.68929 31.996C7.7444 31.5689 7.78574 31.1831 7.84086 30.7834C6.77984 30.4941 5.77393 30.2323 4.69913 29.9429C4.60267 30.6457 4.50622 31.2933 4.40976 31.996Z" fill="#EDBD41"/>
<path d="M64.005 33.6358C63.2196 33.6358 62.4479 33.6358 61.6625 33.6358C61.1389 33.6358 60.8495 33.374 60.7806 32.8641C60.6704 32.0511 60.5739 31.2244 60.4637 30.4114C60.381 29.8189 60.6566 29.5019 61.194 29.3641C62.6546 28.9783 64.1153 28.5787 65.5759 28.2067C66.2649 28.0275 66.6369 28.248 66.7609 28.9508C66.9538 30.1771 67.1192 31.4035 67.2294 32.6299C67.2983 33.3602 66.9952 33.622 66.2649 33.6358C65.5208 33.6496 64.7629 33.6358 64.005 33.6358ZM65.6035 32.0236C65.507 31.3071 65.4105 30.6594 65.3141 29.9429C64.2255 30.2323 63.2058 30.5078 62.1586 30.7972C62.2275 31.2382 62.2826 31.624 62.3377 32.0236C63.4125 32.0236 64.446 32.0236 65.6035 32.0236Z" fill="#EDBD41"/>
<path d="M5.97962 36.3505C6.76505 36.3505 7.53671 36.3505 8.32214 36.3505C8.84576 36.3505 9.13513 36.6123 9.21781 37.1221C9.34182 37.9351 9.4245 38.7619 9.53474 39.5749C9.61741 40.1536 9.3556 40.4843 8.80442 40.6359C7.31623 41.0355 5.84183 41.4351 4.35364 41.821C3.74734 41.9725 3.36151 41.7658 3.26506 41.132C3.05836 39.8643 2.89301 38.5966 2.76899 37.3151C2.7001 36.6399 3.01702 36.3781 3.71978 36.3643C4.47765 36.3367 5.22175 36.3505 5.97962 36.3505ZM4.69813 40.071C5.81427 39.7678 6.82017 39.4922 7.85364 39.2166C7.78474 38.7757 7.72962 38.3899 7.6745 37.9765C6.58592 37.9765 5.5249 37.9765 4.40876 37.9765C4.50521 38.693 4.58789 39.3406 4.69813 40.071Z" fill="#EDBD41"/>
<path d="M18.905 34.931C18.905 32.1751 18.9188 29.4192 18.8912 26.6633C18.8774 25.9881 19.0979 25.5747 19.7042 25.2302C24.5408 22.4605 29.3637 19.6771 34.1727 16.8798C34.7928 16.5216 35.2613 16.5353 35.8676 16.8936C40.6629 19.6909 45.4719 22.4605 50.2948 25.2164C50.9149 25.5747 51.1353 25.9881 51.1353 26.7046C51.1078 32.2302 51.1078 37.7696 51.1353 43.2952C51.1353 44.0393 50.8735 44.4527 50.2397 44.8109C45.4168 47.5668 40.6216 50.3365 35.8263 53.1338C35.2338 53.4783 34.779 53.4783 34.1865 53.12C29.3775 50.309 24.5546 47.5255 19.718 44.7558C19.1255 44.4113 18.8912 44.0117 18.905 43.3227C18.9188 40.5393 18.905 37.7283 18.905 34.931ZM20.531 34.9586C20.531 37.5767 20.531 40.1948 20.5172 42.8129C20.5172 43.1987 20.5999 43.433 20.9582 43.6397C25.4916 46.244 30.0251 48.8621 34.5448 51.494C34.903 51.7007 35.1511 51.6731 35.4818 51.4802C39.9877 48.8621 44.4936 46.2578 49.0133 43.681C49.3853 43.4743 49.4956 43.2263 49.4956 42.8129C49.4818 37.618 49.4818 32.4369 49.4956 27.242C49.4956 26.7873 49.344 26.5531 48.9582 26.3326C44.466 23.7558 39.9739 21.1653 35.4818 18.5609C35.1511 18.368 34.903 18.3267 34.5448 18.5334C30.0251 21.1653 25.4916 23.7834 20.9582 26.3877C20.6137 26.5944 20.5034 26.8149 20.5034 27.2007C20.531 29.7637 20.531 32.368 20.531 34.9586Z" fill="#333333"/>
<path d="M28 44C28.1844 42.2213 28.3074 40.777 28.3842 39.6976C28.4918 38.1013 28.5994 35.897 28.6916 33.0997C28.7838 30.3024 28.8453 28.4172 28.8453 27.4443V26C31.5195 26.0152 34.0092 26.0304 36.3145 26.0304C38.6352 26.0304 40.8637 26.0152 43 26C42.8617 28.022 42.7848 29.3446 42.7848 29.9679L41.6322 29.9223L40.6947 29.9071L39.7572 29.8919H37.1291C36.8217 29.8919 35.9457 29.9071 34.4703 29.9223L34.3473 32.9932L36.2838 33.0389H38.4354C39.0502 33.0389 40.0031 33.0236 41.2941 32.9932C41.2018 34.6503 41.1404 35.9578 41.1404 36.9003C39.7111 36.8547 38.6506 36.8395 37.959 36.8395C36.791 36.8395 35.5154 36.8547 34.1322 36.9003L33.9939 41.6436L33.9785 43.4071V43.9848L31.1045 43.9544C30.8893 43.9696 29.8596 43.9848 28 44Z" fill="#333333"/>
</g>
<defs>
<clipPath id="clip0">
<rect width="70" height="70" fill="white"/>
</clipPath>
</defs>
</svg>
