<svg width="91" height="91" viewBox="0 0 91 91" fill="none" xmlns="http://www.w3.org/2000/svg">
<g clip-path="url(#clip0)">
<path d="M36.6327 7.96192C55.8489 2.04593 73.8735 13.2066 76.8939 32.8392C79.9144 52.4717 66.8211 73.1221 47.6049 79.0381C28.3886 84.9541 10.3641 73.7934 7.34361 54.1609C4.32315 34.5283 17.5044 13.868 36.6327 7.96192ZM46.9215 74.5677C63.6441 69.4685 75.157 51.4041 72.5031 34.2269C69.8492 17.0496 54.1267 7.3231 37.316 12.4323C20.6033 17.6196 9.17852 35.674 11.8225 52.7632C14.3883 69.9504 30.1108 79.6769 46.9215 74.5677Z" stroke="#EDBD41" stroke-miterlimit="10"/>
<path d="M73.7312 37.2091C74.2459 45.7111 71.385 54.327 65.7917 61.6466C60.3448 68.6821 52.8683 73.5393 44.7895 75.4328C36.2706 77.3761 28.068 75.806 21.5523 71.0137C15.1445 66.3874 11.2857 59.0657 10.5949 50.5836C10.5054 49.7912 10.494 48.9008 10.4925 48.0984C9.34643 47.4254 8.26852 46.5663 7.28861 45.7853C7.14531 47.674 7.18805 49.6309 7.30888 51.4898C8.09909 60.8524 12.2917 68.7606 19.2974 73.9435C26.4011 79.2044 35.5039 80.8511 44.8054 78.7303C53.8427 76.6393 62.1499 71.2424 68.1336 63.4329C74.5078 55.1334 77.6597 45.1471 76.8297 35.4323C75.8329 36.08 74.8261 36.6396 73.7312 37.2091Z" stroke="#EDBD41" stroke-miterlimit="10"/>
<path d="M44.4245 9.84597C64.4162 5.26907 81.8956 17.918 83.459 38.0719C85.0225 58.2257 70.0888 78.3707 50.1851 82.9376C30.1934 87.5145 12.7141 74.8656 11.1506 54.7117C9.58711 34.5579 24.4328 14.4229 44.4245 9.84597ZM49.844 78.3394C67.3123 74.3151 80.3134 56.796 78.9404 39.1173C77.5773 21.5268 62.3319 10.498 44.8537 14.4342C27.3954 18.5466 14.3062 36.0757 15.7573 53.6563C17.1303 71.3349 32.3757 82.3637 49.844 78.3394Z" stroke="#EDBD41" stroke-miterlimit="10"/>
<path d="M52.5442 30.4181C53.1591 29.5461 53.2357 28.6457 52.9502 27.6971C52.7045 27.1007 52.3906 26.6903 51.7644 26.6719C50.2179 26.4008 47.3054 28.2457 45.5916 32.8085C48.3325 33.3906 51.3345 32.3381 52.5442 30.4181Z" stroke="#EDBD41" stroke-width="2" stroke-miterlimit="10"/>
<path d="M39.2363 24.6989C38.6882 24.5825 38.1798 24.8183 37.7893 25.3082C37.1745 26.1802 37.0098 27.0905 37.2953 28.0391C37.8961 30.2004 40.434 32.1429 43.233 32.4509C43.0381 27.5686 40.7729 24.882 39.2363 24.6989Z" stroke="#EDBD41" stroke-width="2" stroke-miterlimit="10"/>
<path d="M29.8412 33.711L28.7578 40.6262L39.262 42.2719L40.3454 35.3567L29.8412 33.711Z" stroke="#EDBD41" stroke-width="2" stroke-miterlimit="10"/>
<path d="M47.2377 36.4517L46.1543 43.3669L56.6584 45.0126L57.7418 38.0974L47.2377 36.4517Z" stroke="#EDBD41" stroke-width="2" stroke-miterlimit="10"/>
<path d="M30.1549 42.3975L27.4258 59.8169L36.2668 61.202L38.9958 43.7826L30.1549 42.3975Z" stroke="#EDBD41" stroke-width="2" stroke-miterlimit="10"/>
<path d="M45.9107 44.878L43.1816 62.2974L52.0226 63.6825L54.7517 46.2631L45.9107 44.878Z" stroke="#EDBD41" stroke-width="2" stroke-miterlimit="10"/>
<path d="M41.1963 47.5722L43.1617 46.8152C41.8108 41.1718 43.33 37.2551 44.2856 35.453C44.4418 35.257 44.5099 35.0709 44.6661 34.8749C45.0283 34.9232 45.3123 35.0695 45.6744 35.1177C49.0315 35.6301 52.532 34.2538 54.2103 31.7458C55.2838 30.1979 55.5251 28.3872 54.886 26.6761C54.4627 25.2972 53.4728 24.4282 52.2103 24.3033C49.4894 23.8973 46.8227 26.3386 44.9597 29.5808C44.1898 25.9227 42.4031 22.7362 39.6822 22.3302C38.4098 22.1173 37.3149 22.6868 36.4658 23.8528C35.3823 25.3127 35.053 27.1333 35.526 28.9524C36.3825 31.7982 39.2342 34.1511 42.5033 34.6734C42.4352 34.8595 42.367 35.0455 42.2108 35.2415C41.0508 37.6018 39.8355 41.8408 41.1963 47.5722ZM51.8526 26.6621C52.4008 26.7785 52.7928 27.0909 53.0385 27.6873C53.324 28.6359 53.2573 29.6243 52.6325 30.4082C51.3347 32.3382 48.3228 33.3027 45.6799 32.7987C47.3937 28.2358 50.3061 26.3909 51.8526 26.6621ZM37.3834 28.0292C37.0979 27.0806 37.2527 26.0823 37.8774 25.2983C38.2679 24.8084 38.6883 24.5825 39.3245 24.689C40.871 24.9601 43.0382 27.5687 43.3211 32.441C40.5221 32.133 37.9942 30.2786 37.3834 28.0292Z" stroke="#EDBD41" stroke-width="2" stroke-miterlimit="10"/>
</g>
<defs>
<clipPath id="clip0">
<rect width="81.1002" height="81.5304" fill="white" transform="translate(0.412109 9.10425) rotate(-6.44552)"/>
</clipPath>
</defs>
</svg>
