<svg width="70" height="70" viewBox="0 0 70 70" fill="none" xmlns="http://www.w3.org/2000/svg">
<g clip-path="url(#clip0)">
<path d="M13.9849 10.9819C13.9849 12.8409 13.9849 14.5905 13.9849 16.3245C13.9849 17.543 14.0006 18.7771 13.9849 19.9955C13.9537 21.2296 13.1568 22.0576 12.0162 22.0576C10.8443 22.0576 10.0162 21.214 10.0162 19.9331C10.0006 16.262 9.87557 12.5909 10.0631 8.91989C10.1881 6.57666 11.4224 4.5771 13.1256 2.93685C15.1099 1.03102 17.4693 0 20.2818 0C32.1256 0.0156215 43.9849 -0.0156215 55.8287 0.0156215C61.3599 0.031243 65.9224 4.56148 65.9693 10.0915C66.0162 15.6059 66.0006 21.1359 65.9693 26.6503C65.9381 32.399 61.5006 36.898 55.7506 36.9918C52.6724 37.0386 49.6099 37.0074 46.5318 36.9918C45.2037 36.9918 44.3131 36.1482 44.3131 34.9922C44.3131 33.805 45.2037 32.9926 46.5318 32.9926C49.6099 32.977 52.6724 32.9926 55.7506 32.9926C59.6881 32.977 61.9537 30.7275 62.0006 26.7909C62.0162 24.4477 62.0006 22.1044 62.0006 19.7612C62.0006 19.5269 61.9693 19.3082 61.9537 18.9958C61.6099 18.9958 61.2974 18.9958 61.0006 18.9958C46.8287 18.9958 32.6724 18.9958 18.5006 18.9801C18.0943 18.9801 17.6568 18.9645 17.2662 18.8396C16.4224 18.5584 15.8756 17.5742 16.0006 16.7306C16.1568 15.7465 16.9224 15.0279 17.9381 15.0123C20.0943 14.981 22.2662 14.9967 24.4224 14.9967C36.6099 14.9967 48.7974 14.9967 60.9849 14.9967C61.2974 14.9967 61.5943 14.9967 62.1412 14.9967C62.0006 12.6066 62.0943 10.2633 61.6881 8.02946C61.2193 5.45191 58.8599 3.99911 55.8287 3.98349C48.0162 3.96787 40.2037 3.98349 32.3912 3.98349C28.3599 3.98349 24.3131 3.98349 20.2818 3.98349C18.3287 3.98349 16.5787 4.48338 15.2818 6.07677C15.0943 6.31109 14.9381 6.59228 14.6881 6.95158C15.0474 6.9672 15.2974 6.99844 15.5318 6.99844C29.3131 6.99844 43.0787 6.99844 56.8599 6.99844C57.2193 6.99844 57.5943 6.98282 57.9537 6.99844C59.1568 7.0453 60.0162 7.88887 60.0162 8.99799C60.0006 10.1071 59.1256 10.9663 57.9224 10.9663C54.1256 10.9819 50.3131 10.9819 46.5162 10.9663C35.9381 10.9663 25.3756 10.9663 14.7974 10.9663C14.5474 10.9819 14.3287 10.9819 13.9849 10.9819Z" fill="#333333"/>
<path d="M43.9688 43.9902C43.9688 55.8781 33.875 65.9696 22 65.9696C10.0781 65.9696 -0.0312319 55.8625 -0.0156069 43.9589C1.80919e-05 32.0866 10.1094 21.9951 21.9844 22.0107C33.8906 22.0263 43.9688 32.1022 43.9688 43.9902ZM3.98439 43.8964C3.96877 54.1441 11.75 61.9705 21.9844 61.9861C32.1406 62.0018 39.9688 54.2066 40 44.0683C40.0313 33.8049 32.2344 25.9942 21.9219 25.9786C11.8594 25.9629 4.00002 33.8206 3.98439 43.8964Z" fill="#EDBD41"/>
<path d="M45.8594 64.1732C46.6563 64.923 47.4375 65.626 48.1719 66.3602C49.1719 67.3444 49.25 68.5472 48.4063 69.3908C47.5469 70.2656 46.375 70.2031 45.375 69.2189C43.4532 67.3131 41.5313 65.4073 39.6251 63.4859C38.7188 62.5798 38.7032 61.4238 39.6094 60.5178C41.5469 58.5807 43.4844 56.6593 45.4219 54.7378C46.3751 53.8005 47.5625 53.7537 48.4063 54.5972C49.2188 55.4252 49.1563 56.628 48.2344 57.5809C47.5313 58.2995 46.7969 59.0181 46.0938 59.7367C46.0625 59.7679 46.0469 59.8304 46.0157 59.8773C53.4844 60.9395 60.8282 55.7844 59.9219 45.9117C59.1094 46.724 58.3907 47.4894 57.6094 48.1924C57.2813 48.5048 56.875 48.8016 56.4532 48.9266C55.5782 49.1922 54.6876 48.7704 54.2501 48.0049C53.8126 47.2395 53.9063 46.3022 54.5626 45.6305C55.5938 44.5682 56.6563 43.5216 57.7032 42.4749C58.625 41.5533 59.5313 40.6316 60.4532 39.6943C61.3907 38.7414 62.5469 38.7101 63.4844 39.6474C65.4532 41.6157 67.4219 43.584 69.375 45.5836C70.0938 46.3178 70.1875 47.1926 69.7188 48.0049C69.2813 48.7548 68.4688 49.1609 67.5938 48.9422C67.1875 48.8329 66.7813 48.5986 66.4688 48.3017C65.6875 47.5519 64.9532 46.7396 64.1563 45.896C63.6875 57.6122 57.6875 63.6421 45.8594 64.1732Z" fill="#EDBD41"/>
<path d="M55.0153 22.0107C56.4372 22.0263 57.4059 23.4323 56.8278 24.7601C56.1872 26.1973 55.4528 27.6189 54.7028 29.0092C54.1872 29.9621 53.0778 30.2589 52.1403 29.8059C51.1872 29.3528 50.7028 28.2281 51.1559 27.2439C51.8122 25.8068 52.5466 24.4008 53.2809 22.9949C53.6247 22.3232 54.2497 21.9951 55.0153 22.0107Z" fill="#333333"/>
<path d="M45 27.6345C45.7812 26.0567 46.4062 24.0259 47.7969 22.4169C48.3437 21.7765 49.4844 21.8858 50.1719 22.4013C50.875 22.9324 51.2031 23.8854 50.8281 24.6977C50.1406 26.1817 49.4062 27.6501 48.6406 29.0873C48.2031 29.884 47.25 30.1808 46.4062 29.9153C45.5312 29.6184 45 28.8842 45 27.6345Z" fill="#333333"/>
<path d="M15.9687 55.9719C14.9219 55.9719 14.0156 55.9875 13.1094 55.9719C11.8438 55.9562 10.9687 55.1283 10.9687 53.9723C10.9687 52.8632 11.8281 52.0352 13.0469 51.9884C13.3281 51.9728 13.6094 51.9884 13.9219 51.9884C13.9219 46.6146 13.9219 41.3345 13.9219 35.9607C13.5469 35.9607 13.2187 35.9763 12.8906 35.9607C11.8125 35.9138 10.9687 35.0547 10.9531 33.9924C10.9531 32.9614 11.7188 32.0709 12.7813 32.0085C13.8125 31.946 14.8437 31.9928 15.9531 31.9928C15.9531 31.2586 15.9375 30.665 15.9531 30.0714C15.9844 28.8529 16.7969 27.9937 17.9219 27.9781C19.0781 27.9625 19.9375 28.8217 19.9687 30.0714C19.9844 30.665 19.9687 31.2586 19.9687 31.821C20.0625 31.8991 20.0937 31.9616 20.1406 31.9616C21.9375 32.1491 21.9375 32.1491 21.9687 30.2432C21.9844 29.1497 22.3906 28.4624 23.25 28.1343C24 27.8375 24.8906 27.9781 25.375 28.6342C25.6719 29.0248 25.8594 29.5559 25.9219 30.0402C26.0156 30.7275 25.9375 31.4461 25.9375 32.1178C31.0781 34.8516 32.1719 37.9134 29.5937 42.3499C32.1094 44.4588 33.6875 47.0051 32.6406 50.395C31.6562 53.5818 29.3281 55.3939 25.9531 56.0344C25.9531 56.628 25.9687 57.2684 25.9531 57.9089C25.9375 59.1118 25.0937 59.9866 23.9844 59.9866C22.875 60.0022 22.0312 59.1274 21.9844 57.9245C21.9687 57.2997 21.9844 56.6905 21.9844 55.9562C21.5937 55.9562 21.2969 55.9562 21 55.9562C20.6875 55.9562 20.3906 55.9562 19.9844 55.9562C19.9844 56.628 20 57.2216 19.9844 57.8152C19.9531 59.0649 19.125 59.971 18 59.9866C16.875 60.0022 16 59.0962 15.9687 57.8621C15.9531 57.2684 15.9687 56.6748 15.9687 55.9719ZM18.0156 51.9103C20.8281 51.9103 23.5469 52.004 26.2812 51.879C28.0781 51.7853 29.0469 50.3325 28.9844 48.3173C28.9219 46.3803 27.8125 45.0837 26.0312 45.0368C23.4062 44.9743 20.7812 45.0368 18.1406 45.0368C18.1094 45.0368 18.0625 45.0993 18.0156 45.1305C18.0156 47.38 18.0156 49.6139 18.0156 51.9103ZM18.0156 40.9596C20.2031 40.9596 22.3437 40.9596 24.4687 40.9596C26.1562 40.9596 26.9844 40.1473 27 38.4914C27 36.8511 26.1562 35.992 24.5 35.9763C22.5937 35.9607 20.7031 35.9763 18.7969 35.9763C18.5469 35.9763 18.2969 36.0076 18.0156 36.0232C18.0156 37.6791 18.0156 39.2725 18.0156 40.9596Z" fill="#EDBD41"/>
</g>
<defs>
<clipPath id="clip0">
<rect width="70" height="70" fill="white"/>
</clipPath>
</defs>
</svg>
