<svg width="126" height="111" viewBox="0 0 126 111" fill="none" xmlns="http://www.w3.org/2000/svg">
<path d="M19.4641 39.4344L19.5484 47.3877L29.5268 47.308C31.3057 47.2938 32.7426 45.7047 32.7043 43.7633L32.7012 43.1869C32.6908 41.2453 31.2091 39.6795 29.4581 39.6935L20.8416 39.7623L19.4796 39.7732M37.1863 50.1896C39.1983 52.1759 40.4644 55.0176 40.4814 58.1727L40.4847 58.7795C40.545 64.8164 36.0964 69.7669 30.5652 69.8111L30.315 69.8131L30.3602 73.0286L23.9395 73.0799L23.8944 69.8644L21.2539 69.8855L21.299 73.101L14.8505 73.1525L14.8332 69.9368L13.3323 69.9488L10.1359 69.9743L10.0702 62.9362L13.2666 62.9107L13.1934 54.4771L13.1278 47.439L13.0592 39.8549L9.83494 39.8806L9.76927 32.8426L12.9657 32.817L14.4666 32.805L14.4176 28.8614L20.8661 28.8098L20.9151 32.7535L23.5278 32.7326L23.5066 28.7887L29.955 28.7372L30.0042 32.7112C35.0647 33.0045 39.1196 37.5532 39.1775 43.1351L39.1806 43.7115C39.1658 46.1388 38.4274 48.3897 37.1863 50.1896ZM34.064 58.8308L34.0608 58.224C34.0492 56.0701 32.3998 54.3236 30.4264 54.3394L29.5925 54.346L19.6141 54.4258L19.6873 62.8594L21.0492 62.8485L30.4995 62.773C32.5008 62.757 34.0756 60.9848 34.064 58.8308Z" stroke="#EDBD41" stroke-width="2" stroke-miterlimit="10"/>
<g clip-path="url(#clip0)">
<path d="M93.451 68.7423C96.0846 70.7913 99.0643 72.1469 102.344 72.7782L102.367 75.5241C102.382 77.25 103.77 78.6505 105.453 78.6363L109.232 78.6043C110.915 78.5901 112.28 77.1663 112.265 75.4403L112.242 72.6945C115.068 72.1371 117.568 71.1274 119.683 69.6816C123.47 67.0605 125.413 63.435 125.452 58.8998C125.488 56.0279 124.672 53.5556 123.018 51.561C120.591 48.6316 116.888 46.7485 112.001 45.9425L111.961 41.2668C112.284 41.4994 112.608 41.7477 112.916 42.0276C113.609 42.6023 114.423 42.9092 115.325 42.9016C116.075 42.911 116.913 42.4802 117.035 42.4007C117.081 42.3846 117.126 42.3529 117.157 42.3369L121.371 39.5709C122.467 38.8556 122.689 37.9279 122.698 37.2845C122.707 36.5469 122.411 35.8746 121.84 35.3303C119.214 32.324 115.847 30.391 111.847 29.5462L111.819 26.2512C111.804 24.5252 110.415 23.1247 108.732 23.139L104.954 23.1709C103.271 23.1852 101.906 24.6089 101.92 26.3349L101.947 29.473C100.236 29.8013 98.6492 30.3011 97.2321 30.9878C91.8225 33.5756 89.1324 37.5056 89.2679 42.6669C89.3351 45.1927 90.1041 47.4772 91.5587 49.4106C93.8183 52.467 97.3846 54.4454 102.181 55.3149L102.238 62.0461C100.732 61.2743 99.2686 60.1255 97.8788 58.6152C97.2756 57.8357 96.4307 57.4349 95.4363 57.4433C94.9008 57.4478 94.1843 57.752 93.91 57.8798C93.8948 57.8957 93.8642 57.8959 93.849 57.9117C93.8337 57.9119 93.8186 57.9277 93.8034 57.9435L89.9675 60.2669C88.7498 61.0147 88.4982 62.0211 88.5195 62.727C88.5403 63.3702 88.7594 63.949 89.2074 64.463C90.2759 65.976 91.7109 67.4075 93.451 68.7423ZM90.9768 62.0158L94.7668 59.6928C95.0106 59.5809 95.3463 59.4682 95.4532 59.4516C95.851 59.4483 96.1122 59.5716 96.3443 59.8835C96.3599 59.9147 96.3753 59.9303 96.406 59.9457C98.429 62.1568 100.63 63.6916 102.932 64.5038C103.239 64.6111 103.575 64.5612 103.833 64.3707C104.092 64.1802 104.242 63.8651 104.239 63.5356L104.162 54.4038C104.158 53.9017 103.802 53.481 103.312 53.4067C98.6246 52.7245 95.2132 50.9646 93.1394 48.1733C91.917 46.5517 91.3049 44.7367 91.2564 42.6187C91.1433 38.2888 93.3807 35.1002 98.1046 32.8478C99.5826 32.1291 101.261 31.6285 103.126 31.346C103.615 31.2791 103.978 30.8366 103.974 30.3346L103.94 26.3178C103.935 25.7059 104.405 25.2155 105.001 25.2104L108.78 25.1785C109.377 25.1734 109.855 25.6715 109.86 26.2677L109.895 30.3786C109.899 30.8807 110.255 31.3014 110.73 31.3758C114.668 32.0486 117.926 33.8413 120.429 36.7074C120.46 36.7385 120.476 36.7697 120.506 36.7852C120.722 36.9716 120.739 37.1284 120.74 37.2383C120.741 37.3481 120.742 37.5678 120.316 37.8381L116.147 40.5723C115.919 40.6841 115.522 40.8444 115.339 40.8459C114.895 40.8497 114.527 40.7116 114.203 40.4475C113.324 39.6704 112.371 39.0508 111.387 38.5727C111.08 38.434 110.713 38.4528 110.439 38.6435C110.15 38.8342 109.985 39.1651 109.988 39.5103L110.05 46.822C110.054 47.3241 110.425 47.7604 110.915 47.819C115.724 48.4687 119.288 50.1647 121.53 52.8603C122.875 54.4966 123.519 56.4683 123.493 58.8693C123.449 62.7455 121.853 65.7247 118.598 67.9804C116.514 69.4102 113.997 70.3573 111.109 70.8368C110.621 70.9194 110.272 71.346 110.277 71.8481L110.307 75.4569C110.312 76.0688 109.842 76.5592 109.245 76.5643L105.467 76.5963C104.87 76.6013 104.392 76.1189 104.386 75.507L104.356 71.8982C104.352 71.3961 103.996 70.9754 103.506 70.9011C100.243 70.3952 97.2639 69.118 94.6766 67.1157C93.0596 65.874 91.7635 64.5826 90.8034 63.2256C90.7878 63.1943 90.757 63.1632 90.7416 63.1476C90.5715 62.9451 90.5398 62.8041 90.5387 62.6786C90.507 62.5533 90.4897 62.3181 90.9768 62.0158Z" fill="#EDBD41"/>
<path d="M104.037 39.3723C104.034 39.0428 103.863 38.7304 103.601 38.5287C103.324 38.3427 102.987 38.2985 102.682 38.4266L102.393 38.5546C102.362 38.5705 102.347 38.5707 102.332 38.5865C100.047 39.7356 99.571 41.3872 99.5964 42.5796C99.6234 43.9602 100.19 45.8227 102.769 46.8051C102.891 46.8512 102.999 46.866 103.121 46.8649C103.32 46.8632 103.518 46.7988 103.686 46.6875C103.959 46.4969 104.11 46.1818 104.107 45.8523L104.052 39.3722L104.037 39.3723ZM102.103 44.0491C101.67 43.5663 101.589 43.0335 101.57 42.5629C101.567 42.202 101.624 41.7151 102.079 41.2248L102.103 44.0491Z" fill="#EDBD41"/>
<path d="M110.642 64.2189C110.811 64.3274 110.995 64.3729 111.179 64.3713C111.316 64.3702 111.454 64.3376 111.591 64.2737C111.881 64.13 112.216 63.9703 112.52 63.7637C114.27 62.6505 115.189 60.9951 115.188 58.9866C115.19 57.4174 114.53 55.3517 111.385 54.3584C111.078 54.2668 110.757 54.3166 110.499 54.5228C110.24 54.7133 110.09 55.0284 110.093 55.3422L110.16 63.3443C110.179 63.705 110.365 64.033 110.642 64.2189ZM112.11 56.91C113.049 57.5454 113.208 58.3286 113.214 59.0033C113.208 60.039 112.878 60.8577 112.149 61.523L112.11 56.91Z" fill="#EDBD41"/>
</g>
<g clip-path="url(#clip1)">
<path d="M43.0249 26.8428C42.534 26.2644 42.6012 25.4828 43.0547 24.9599C43.0925 24.9164 43.1303 24.8728 43.1681 24.8292C49.6707 19.0932 55.6086 15.7687 61.4205 14.7019C64.2451 14.1743 67.0666 14.1784 70.0476 14.7028C72.4476 15.1048 74.8329 15.8759 77.4911 17.0364L79.0002 14.6805C79.2968 14.2506 79.849 13.9661 80.343 14.0128C80.9183 14.0537 81.354 14.4316 81.5514 14.9083L85.7604 24.6675C85.952 25.0628 85.9053 25.5568 85.6901 25.9809C85.4749 26.405 85.0854 26.678 84.5973 26.7127L74.0342 28.2394C73.5083 28.3176 72.9592 28.0704 72.5991 27.6053C72.2826 27.1781 72.2799 26.565 72.5329 26.0972L73.7281 23.9272C70.6604 22.1824 67.4006 21.1872 64.0301 20.9359C58.6081 20.5848 53.6996 22.2826 50.5753 23.7718C48.7937 24.5934 47.3434 25.4732 46.4452 26.0685C45.9366 26.3908 45.5471 26.6638 45.3524 26.8003C45.3146 26.8438 45.1954 26.8932 45.1576 26.9367L45.1198 26.9803C44.4222 27.5205 43.5592 27.4591 43.0249 26.8428ZM47.4808 23.3782C48.19 23.0008 48.9748 22.5362 49.8467 22.1472C53.1715 20.6028 58.3561 18.7628 64.1093 19.1721C68.0551 19.4644 71.8205 20.669 75.2861 22.8353C75.6724 23.0941 75.7884 23.5765 75.5732 24.0006L74.1948 26.4699L83.9878 25.0387L80.0748 15.9944L78.4145 18.5245C78.3767 18.5681 78.3767 18.5681 78.3389 18.6117C78.1122 18.8731 77.7111 18.9833 77.3305 18.8059C74.5852 17.5698 72.075 16.7667 69.6314 16.3269C66.8567 15.8288 64.2415 15.8509 61.6174 16.3234C57.2207 17.1671 52.5211 19.5042 47.4808 23.3782Z" fill="#EEBE42"/>
</g>
<g clip-path="url(#clip2)">
<path d="M85.0435 83.8705C85.5343 84.449 85.4672 85.2306 85.0136 85.7534C84.9758 85.797 84.938 85.8406 84.9002 85.8842C78.3976 91.6202 72.4598 94.9447 66.6478 96.0114C63.8232 96.5391 61.0018 96.5349 58.0207 96.0106C55.6208 95.6086 53.2355 94.8375 50.5772 93.677L49.0681 96.0329C48.7716 96.4628 48.2194 96.7473 47.7254 96.7006C47.1501 96.6597 46.7144 96.2817 46.517 95.8051L42.3079 86.0458C42.1163 85.6506 42.163 85.1566 42.3782 84.7325C42.5934 84.3083 42.9829 84.0354 43.4711 84.0007L54.0341 82.474C54.5601 82.3957 55.1092 82.643 55.4693 83.108C55.7858 83.5353 55.7884 84.1484 55.5354 84.6161L54.3402 86.7862C57.4079 88.531 60.6677 89.5262 64.0383 89.7775C69.4602 90.1285 74.3688 88.4308 77.4931 86.9415C79.2746 86.12 80.725 85.2402 81.6231 84.6449C82.1318 84.3226 82.5212 84.0496 82.716 83.9131C82.7538 83.8696 82.8729 83.8202 82.9107 83.7766L82.9485 83.7331C83.6461 83.1929 84.5091 83.2543 85.0435 83.8705ZM80.5875 87.3352C79.8783 87.7126 79.0936 88.1772 78.2217 88.5662C74.8969 90.1106 69.7122 91.9506 63.9591 91.5413C60.0132 91.249 56.2479 90.0444 52.7823 87.8781C52.3959 87.6193 52.2799 87.1369 52.4951 86.7128L53.8735 84.2435L44.0806 85.6747L47.9936 94.719L49.6539 92.1888C49.6917 92.1453 49.6917 92.1453 49.7294 92.1017C49.9562 91.8403 50.3572 91.73 50.7378 91.9075C53.4832 93.1436 55.9934 93.9467 58.4369 94.3865C61.2117 94.8846 63.8269 94.8625 66.451 94.39C70.8477 93.5463 75.5473 91.2092 80.5875 87.3352Z" fill="#EEBE42"/>
</g>
<defs>
<clipPath id="clip0">
<rect width="36.9784" height="55.4676" fill="white" transform="translate(88.1875 23.3127) rotate(-0.484572)"/>
</clipPath>
<clipPath id="clip1">
<rect width="34.4333" height="32.9337" fill="white" transform="matrix(0.655258 -0.755405 -0.755405 -0.655258 66.9453 47.5911)"/>
</clipPath>
<clipPath id="clip2">
<rect width="34.4333" height="32.9337" fill="white" transform="matrix(-0.655258 0.755405 0.755405 0.655258 61.123 63.1223)"/>
</clipPath>
</defs>
</svg>
