<svg width="94" height="96" viewBox="0 0 94 96" fill="none" xmlns="http://www.w3.org/2000/svg">
<path d="M67.6277 37.0972L67.5516 36.9834L66.9427 37.5902L66.9046 37.6281L66.1054 38.4624C65.877 38.7279 65.6106 38.9555 65.3823 39.2209C64.7734 39.8277 64.2025 40.3586 63.6316 40.9275L62.7943 41.7238L62.7563 41.7618L61.9951 42.4823C61.7287 42.7478 61.4623 42.9753 61.1959 43.2029L61.1198 43.2408C61.3862 43.2787 61.6526 43.3545 61.8809 43.4683C63.8219 44.3026 64.7353 46.5401 63.898 48.5121C63.0607 50.4462 60.8153 51.3563 58.8743 50.522C57.2759 49.8394 56.4005 48.2466 56.5908 46.6159C55.2207 47.4123 54.0409 47.7916 53.0133 47.7916C52.5566 47.7916 52.138 47.7157 51.7194 47.6019C51.8335 48.095 51.9477 48.55 51.9858 49.043C52.0999 50.9013 51.491 52.6078 50.2351 53.8593C45.592 58.448 38.8937 61.1405 34.7073 61.406H34.5551C33.9842 61.406 33.4133 61.1785 32.9947 60.7613C32.538 60.3062 32.3096 59.6995 32.3477 59.0548C32.6141 55.1487 34.7834 48.7776 39.9594 43.5821C41.1011 42.4444 42.6615 41.8376 44.3361 41.8376C44.983 41.8376 45.63 41.9514 46.239 42.1031C46.0867 41.7238 46.0487 41.2688 46.0487 40.8137C45.2114 40.8137 44.3741 40.662 43.5749 40.3207C40.3399 38.9555 38.8557 35.239 40.2258 32.0155C41.5959 28.792 45.3256 27.313 48.5605 28.6783C49.9687 29.285 51.0343 30.309 51.6813 31.5604L52.0999 31.1053L52.138 31.0674L52.9372 30.2331C53.47 29.6643 54.0409 29.0954 54.6498 28.4886C54.8782 28.2611 55.1446 27.9956 55.411 27.7681L56.2483 26.9717L56.3244 26.8959L56.3625 26.8579C50.5396 23.5965 43.6891 22.0038 36.4961 22.7243C17.8856 24.5825 4.29875 41.1171 6.12555 59.6615C7.9904 78.206 24.5458 91.7446 43.1562 89.8864C48.4844 89.3554 53.3939 87.611 57.6565 84.9563L57.6945 84.9184C60.0541 83.4394 62.2235 81.7329 64.1264 79.7609C64.3167 79.5712 64.5069 79.3816 64.6972 79.192C65.1539 78.5852 65.7248 78.0164 65.877 77.22L65.9151 77.1062C67.5516 67.8909 56.4005 69.2182 56.1722 62.392C55.9819 56.8173 63.0988 55.7554 66.9427 53.5559C67.8561 52.7974 68.8836 51.9631 69.2262 51.015C69.3403 50.6358 69.5306 50.3324 69.6829 49.9911C70.406 47.8295 70.2918 46.3126 70.0635 44.1889C69.8732 41.5722 68.9598 39.183 67.6277 37.0972ZM20.9683 36.1491C22.1481 33.4187 25.345 32.1293 28.0852 33.3049C30.8254 34.4805 32.1193 37.6661 30.9395 40.3965C29.7597 43.127 26.5628 44.4164 23.8226 43.2408C21.0825 42.0652 19.7885 38.8796 20.9683 36.1491ZM14.4223 60.1545C11.1873 58.7893 9.70303 55.0728 11.0731 51.8494C12.4432 48.6259 16.1729 47.1469 19.4079 48.5121C22.6428 49.8773 24.1271 53.5938 22.757 56.8173C21.3489 60.0408 17.6191 61.5198 14.4223 60.1545ZM38.7795 75.1342C36.9908 79.3437 32.1194 81.2778 27.8949 79.4954C23.6704 77.713 21.7294 72.8588 23.5182 68.6493C25.3069 64.4399 30.1784 62.5058 34.4028 64.2882C38.5893 66.0706 40.5683 70.9247 38.7795 75.1342ZM58.6079 76.6132C57.5042 79.1541 54.5737 80.3297 52.0238 79.2679C49.4739 78.1681 48.2941 75.248 49.3597 72.7071C50.4634 70.1663 53.3939 68.9907 55.9438 70.0525C58.5318 71.1144 59.7116 74.0724 58.6079 76.6132Z" stroke="#EDBD41" stroke-width="2" stroke-miterlimit="10"/>
<path d="M23.8227 43.2406C26.5629 44.4162 29.7598 43.1268 30.9396 40.3963C32.1194 37.6659 30.8254 34.4803 28.0852 33.3047C25.345 32.1291 22.1481 33.4185 20.9683 36.1489C19.7885 38.8794 21.0825 42.065 23.8227 43.2406Z" stroke="#EDBD41" stroke-width="2" stroke-miterlimit="10"/>
<path d="M19.3698 48.512C16.1349 47.1468 12.4052 48.6258 11.0351 51.8492C9.66496 55.0727 11.1492 58.7892 14.3842 60.1544C17.6191 61.5197 21.3488 60.0407 22.7189 56.8172C24.1271 53.5937 22.6048 49.8772 19.3698 48.512Z" stroke="#EDBD41" stroke-width="2" stroke-miterlimit="10"/>
<path d="M48.5983 28.7161C45.3634 27.3509 41.6337 28.8299 40.2636 32.0534C38.8935 35.2768 40.3777 38.9933 43.6127 40.3585C44.4119 40.6998 45.2492 40.8515 46.0865 40.8515C46.0865 39.2967 46.9618 37.3247 49.2453 34.4425L49.9304 33.6461L50.6915 32.736C50.9199 32.4705 51.1482 32.205 51.4146 31.9396L51.7191 31.6362C51.0341 30.3468 49.9684 29.3229 48.5983 28.7161Z" stroke="#EDBD41" stroke-width="2" stroke-miterlimit="10"/>
<path d="M49.3982 72.6691C48.2945 75.21 49.5124 78.1301 52.0623 79.2298C54.6122 80.3296 57.5426 79.1161 58.6463 76.5752C59.7119 74.0344 58.5321 71.1143 55.9822 70.0145C53.4323 68.9527 50.4638 70.1283 49.3982 72.6691Z" stroke="#EDBD41" stroke-width="2" stroke-miterlimit="10"/>
<path d="M58.8737 50.522C60.8147 51.3563 63.0981 50.4461 63.8974 48.512C64.7346 46.578 63.8212 44.3026 61.8803 43.4683C61.6139 43.3545 61.3855 43.2786 61.1191 43.2407L60.2438 43.9613L59.4446 44.606C58.3789 45.4403 57.4275 46.085 56.5902 46.6159C56.3999 48.2466 57.2752 49.8394 58.8737 50.522Z" stroke="#EDBD41" stroke-width="2" stroke-miterlimit="10"/>
<path d="M34.4031 64.2502C30.1786 62.4678 25.3071 64.4019 23.5184 68.6113C21.7297 72.8208 23.6706 77.675 27.8951 79.4574C32.1196 81.2398 36.991 79.3057 38.7798 75.0962C40.5685 70.9247 38.5895 66.0705 34.4031 64.2502Z" stroke="#EDBD41" stroke-width="2" stroke-miterlimit="10"/>
<path d="M66.4863 36.4524C66.6004 36.3387 66.7146 36.187 66.8669 36.0732V36.0353C77.7515 24.6962 90.0443 8.57886 87.7228 6.26554C87.5325 6.07593 87.228 5.96216 86.8475 5.96216C82.6991 5.96216 68.237 17.0737 57.847 27.0095C57.6948 27.1233 57.5806 27.275 57.4284 27.3888L57.3523 27.4646C57.2381 27.5784 57.1239 27.6922 57.0098 27.768L66.1057 36.8696C66.2579 36.7179 66.3721 36.5662 66.4863 36.4524Z" stroke="#EDBD41" stroke-width="2" stroke-miterlimit="10"/>
<path d="M50.7672 34.3667C50.6531 34.5184 50.5389 34.6701 50.4247 34.8218C50.3105 34.9735 50.1964 35.1252 50.0822 35.2769C48.027 37.8556 47.2659 39.5622 47.2278 40.8136C47.1898 41.648 47.4942 42.2927 47.9129 42.8615C48.3315 43.3924 48.9024 43.8854 49.4352 44.4543C49.968 44.9852 50.4628 45.5161 50.9956 45.9333C51.5665 46.3884 52.1754 46.6917 52.9746 46.6917C54.0022 46.6917 55.2962 46.1987 57.161 44.9094C57.6177 44.606 58.0744 44.2647 58.6072 43.8475C58.7595 43.7337 58.9117 43.62 59.0639 43.5062L59.1781 43.4303C59.2923 43.3545 59.4065 43.2787 59.5206 43.1649L52.2896 35.9595L50.7672 34.3667Z" stroke="#EDBD41" stroke-width="2" stroke-miterlimit="10"/>
<path d="M55.4875 29.3229C54.8785 29.9297 54.3077 30.4985 53.7748 31.0674C53.6607 31.2191 53.5084 31.3329 53.3943 31.4845C53.2801 31.6362 53.1278 31.75 53.0137 31.9017L62.0335 40.8895C62.1477 40.7757 62.2999 40.624 62.4521 40.5103C62.6044 40.3965 62.7185 40.2448 62.8708 40.131C63.4416 39.6001 64.0125 39.0313 64.6215 38.4245C64.8498 38.197 65.1162 37.9315 65.3446 37.666C65.4587 37.5143 65.611 37.4006 65.7251 37.2489C65.8393 37.0972 65.9916 36.9834 66.1057 36.8317L57.0098 27.7681C56.8576 27.8818 56.7434 28.0335 56.5912 28.1473C56.4389 28.2611 56.3247 28.4128 56.1725 28.5265C55.9822 28.8299 55.7158 29.0954 55.4875 29.3229Z" stroke="#EDBD41" stroke-width="2" stroke-miterlimit="10"/>
<path d="M52.5953 32.2809C52.4812 32.4326 52.3289 32.5464 52.2147 32.6981L52.1767 32.736C51.9483 33.0015 51.72 33.2669 51.4916 33.4945C51.3775 33.6462 51.2633 33.7979 51.1111 33.9116C50.9969 34.0633 50.8446 34.215 50.7305 34.3288L52.2528 35.8457L59.4839 43.0511C59.6361 42.9373 59.7883 42.7857 59.9025 42.6719C60.0547 42.5581 60.1689 42.4443 60.3212 42.2927C60.5876 42.0651 60.854 41.8376 61.1204 41.5721C61.2726 41.4583 61.3868 41.3066 61.539 41.1929C61.6913 41.0791 61.8054 40.9653 61.9577 40.8136L52.9759 31.8638C52.8617 32.0155 52.7476 32.1672 52.5953 32.2809Z" stroke="#EDBD41" stroke-width="2" stroke-miterlimit="10"/>
<path d="M48.9022 44.9473C48.4075 44.4543 47.8366 44.075 47.2657 43.7716C46.3523 43.2786 45.3628 43.0132 44.3733 43.0132C43.0412 43.0132 41.7473 43.4683 40.7958 44.4163C40.263 44.9093 39.8063 45.4403 39.3496 45.9712L39.1593 46.1608C38.7407 46.6538 38.3601 47.1847 37.9795 47.6777L37.7892 47.9432C37.4467 48.4362 37.1041 48.9671 36.7997 49.4601L36.6474 49.7635C36.343 50.2944 36.0766 50.7874 35.8102 51.3184L35.7721 51.3942C35.696 51.508 35.6579 51.6218 35.6199 51.7355C35.5057 51.9251 35.4296 52.1527 35.3535 52.3423C35.2774 52.494 35.2393 52.6457 35.1632 52.7974C35.0871 52.987 35.0109 53.1766 34.9348 53.3662C34.8587 53.5179 34.8207 53.6696 34.7826 53.8213C34.7065 54.0109 34.6304 54.2005 34.5923 54.3901C34.5542 54.5418 34.4781 54.6935 34.4401 54.8073C34.364 54.9969 34.3259 55.1865 34.2878 55.3382C34.2498 55.4899 34.2117 55.6037 34.1737 55.7554C34.1356 55.945 34.0975 56.0967 34.0214 56.2863C33.9834 56.4001 33.9453 56.5139 33.9453 56.6276V56.5897C34.5542 54.1247 35.696 51.2046 36.4952 50.522C37.028 49.1947 38.7407 50.7495 37.7511 52.8732C36.7616 55.0348 36.9519 55.0728 37.2564 55.4899C37.5989 55.9071 39.5399 52.3802 40.5294 53.6696C41.5189 54.9211 37.1041 56.2863 37.7511 57.6136C38.3981 58.9409 41.8614 55.9071 42.889 56.7793C43.2696 57.0827 43.4218 57.2723 43.4599 57.3861C45.5911 56.2484 47.7224 54.7694 49.5111 52.987C51.1477 51.3563 51.3379 48.7775 50.1962 46.578C49.7776 46.047 49.397 45.4782 48.9022 44.9473Z" stroke="#EDBD41" stroke-width="2" stroke-miterlimit="10"/>
<path d="M42.8126 56.8172C41.785 55.9829 38.3217 58.9789 37.6747 57.6515C37.0278 56.3242 41.4806 54.9969 40.453 53.7075C39.4635 52.4561 37.5225 55.945 37.18 55.5278C36.8375 55.1107 36.6472 55.0728 37.6747 52.9111C38.6643 50.7495 36.9516 49.2326 36.4188 50.5599C35.6196 51.2046 34.4779 54.1247 33.8689 56.6276V56.6655C33.4883 58.2583 33.298 59.6615 33.5264 60.1545C35.7718 61.7473 43.1551 57.4999 43.1551 57.4999C43.1551 57.4999 43.4216 57.5378 43.3835 57.3861C43.3454 57.3482 43.1932 57.1585 42.8126 56.8172Z" stroke="#EDBD41" stroke-width="2" stroke-miterlimit="10"/>
</svg>
