<svg width="76" height="70" viewBox="0 0 76 70" fill="none" xmlns="http://www.w3.org/2000/svg">
<g clip-path="url(#clip0)">
<path d="M75.3249 45.7545C75.266 45.8281 75.1924 45.8869 75.163 45.9752C74.2803 48.3733 72.7502 49.4325 70.2198 49.4325C48.5048 49.4325 26.8045 49.4325 5.08946 49.4325C2.55899 49.4325 1.02893 48.3586 0.146208 45.9752C0.116784 45.8869 0.0432233 45.8281 -0.015625 45.7545C-0.015625 31.7339 -0.015625 17.6986 -0.015625 3.67802C0.102072 3.64859 0.116784 3.56032 0.146208 3.45733C1.08778 1.02984 2.5737 0 5.19245 0C26.981 0 48.7696 0 70.5729 0C72.6178 0 74.3833 1.26524 75.0747 3.17781C75.1483 3.39849 75.0747 3.67802 75.3249 3.82514C75.3249 17.8016 75.3249 31.7781 75.3249 45.7545ZM37.7355 2.35393C26.8192 2.35393 15.9175 2.35393 5.00119 2.35393C3.3093 2.35393 2.35302 3.31021 2.35302 4.98739C2.35302 18.0958 2.35302 31.219 2.35302 44.3274C2.35302 46.1812 3.25045 47.0786 5.08946 47.0786C11.6363 47.0786 18.1832 47.0786 24.7448 47.0786C39.8688 47.0786 54.9928 47.0786 70.1168 47.0786C72.1323 47.0786 72.9562 46.24 72.9562 44.2098C72.9562 35.971 72.9562 27.7322 72.9562 19.4935C72.9562 17.831 73.0151 16.1538 72.9415 14.4914C72.8679 12.8583 72.9121 11.2253 72.8827 9.59227C72.8679 8.12106 72.9121 6.62043 72.9415 5.14922C73.0004 3.23665 72.0882 2.35393 70.1756 2.35393C59.3623 2.35393 48.5489 2.35393 37.7355 2.35393Z" fill="#333333"/>
<path d="M37.6476 69.9999C31.6892 69.9999 25.7309 69.9999 19.7872 69.9999C17.5362 69.9999 15.8591 68.3375 15.9032 66.1895C15.9473 64.2328 17.5068 62.6439 19.5224 62.5409C20.1403 62.5115 20.7435 62.5409 21.3614 62.5409C22.3765 62.5409 22.3765 62.5409 22.3765 61.5552C22.3765 59.3484 22.3912 57.1416 22.3618 54.9348C22.3471 54.3905 22.4942 54.2581 23.0385 54.2581C32.6897 54.2728 42.3555 54.2728 52.0066 54.2728C52.9776 54.2728 52.9776 54.2728 52.9776 55.2438C52.9776 57.4506 53.007 59.6574 52.9629 61.8642C52.9482 62.4821 53.1541 62.5998 53.6985 62.5704C54.287 62.5262 54.8755 62.5557 55.4639 62.5557C57.7296 62.5557 59.4362 64.174 59.4362 66.2925C59.4362 68.3816 57.7443 70.0147 55.5228 70.0147C50.9179 70.0294 46.313 70.0147 41.6934 70.0147C40.3399 69.9999 38.9864 69.9999 37.6476 69.9999ZM37.7359 56.6267C33.6165 56.6267 29.4971 56.6414 25.3778 56.612C24.8187 56.612 24.6863 56.7591 24.701 57.3035C24.7451 58.8776 24.7304 60.4371 24.701 62.0113C24.701 62.4232 24.804 62.5557 25.2306 62.5557C33.5135 62.5409 41.7964 62.5409 50.094 62.5557C50.5207 62.5557 50.6237 62.4232 50.6237 62.0113C50.5942 60.4371 50.5942 58.8776 50.6237 57.3035C50.6384 56.7591 50.506 56.612 49.9469 56.612C45.8717 56.6414 41.8111 56.6267 37.7359 56.6267ZM37.7359 64.8949C31.8952 64.8949 26.0692 64.8949 20.2285 64.8949C18.9339 64.8949 18.2718 65.3362 18.2424 66.2337C18.213 67.1458 18.9192 67.646 20.2285 67.646C25.5249 67.646 30.8212 67.646 36.1176 67.646C42.5467 67.646 48.9612 67.646 55.3904 67.646C56.4349 67.646 57.1117 67.0722 57.0823 66.2337C57.0676 65.4098 56.4349 64.9096 55.3904 64.8949C55.2138 64.8949 55.052 64.8949 54.8755 64.8949C49.1525 64.8949 43.4442 64.8949 37.7359 64.8949Z" fill="#333333"/>
<path d="M14.4911 23.3774C14.6529 23.5098 14.8 23.6422 14.9324 23.7746C16.2124 25.0252 17.5217 26.2463 18.7723 27.5262C19.1695 27.9234 19.3902 27.9823 19.7727 27.4968C23.2742 23.2009 26.8198 18.9491 30.3065 14.6532C30.7332 14.1235 30.998 14.0794 31.4835 14.5502C32.2191 15.2711 33.0136 15.9331 33.8227 16.5657C34.3082 16.9482 34.3524 17.2131 33.9257 17.7133C30.3654 21.9945 26.8345 26.2904 23.3036 30.5863C22.2296 31.8957 21.1409 33.1904 20.0964 34.5145C19.7874 34.897 19.5962 34.9117 19.2431 34.5586C16.7126 32.0722 14.1527 29.6006 11.6075 27.1143C11.431 26.9377 11.225 26.8053 11.4898 26.5258C12.4167 25.5548 13.3288 24.5544 14.2557 23.5687C14.3145 23.5098 14.4028 23.4657 14.4911 23.3774Z" fill="#EDBD41"/>
<path d="M51.6376 26.1581C55.5363 26.1581 59.435 26.1729 63.3337 26.1434C63.8633 26.1434 64.1281 26.2464 64.0399 26.8202C64.0104 27.0409 64.0399 27.2615 64.0399 27.4822C64.0399 28.5415 63.8192 28.6151 62.7011 28.5562C60.9209 28.4679 59.126 28.4974 57.3459 28.5562C56.9634 28.5709 56.5956 28.4532 56.213 28.4974C54.5506 28.6592 52.8734 28.5709 51.2257 28.5709C49.5191 28.5709 47.7977 28.5709 46.0764 28.5268C44.002 28.4679 41.9276 28.4974 39.8532 28.5268C39.4119 28.5268 39.2647 28.4091 39.2647 27.953C39.2353 26.1581 39.2206 26.1581 40.9713 26.1581C44.5317 26.1581 48.0773 26.1581 51.6376 26.1581Z" fill="#EDBD41"/>
<path d="M51.7105 14.9769C55.5357 14.9769 59.3608 14.9916 63.1859 14.9622C63.8333 14.9622 64.0834 15.0946 64.054 15.8007C63.9951 17.4485 63.7891 17.6398 62.112 17.3602C62.0384 17.3455 61.9649 17.3308 61.8913 17.3308C60.1258 17.4191 58.3604 17.3749 56.595 17.3749C55.2562 17.3749 53.9026 17.3602 52.5638 17.3455C48.4003 17.2867 44.2515 17.3161 40.088 17.3308C39.4701 17.3308 39.2347 17.2278 39.2642 16.5363C39.3377 14.9769 39.2936 14.9622 40.8383 14.9622C44.4575 14.9622 48.0767 14.9622 51.7105 14.9769Z" fill="#EDBD41"/>
<path d="M51.6385 20.5528C55.493 20.5528 59.3329 20.5822 63.1874 20.5381C63.923 20.5234 64.1584 20.7735 64.0555 21.4502C64.0407 21.5238 64.0555 21.5974 64.0555 21.6709C64.0555 22.9362 63.8495 23.1421 62.6137 23.0391C60.6864 22.8773 58.7591 23.0391 56.8318 22.995C55.1399 22.9656 53.4481 22.9656 51.7562 22.9362C47.8133 22.8773 43.8852 22.9067 39.9424 22.9214C39.4569 22.9214 39.2656 22.8332 39.2656 22.2888C39.2803 20.5675 39.2656 20.5675 40.9722 20.5528C44.5325 20.5528 48.0782 20.5528 51.6385 20.5528Z" fill="#EDBD41"/>
<path d="M51.6381 34.1025C47.71 34.1025 43.7965 34.1025 39.8684 34.1025C39.4418 34.1025 39.2652 34.0289 39.2652 33.5434C39.2358 31.7338 39.2064 31.7338 41.0307 31.7338C48.4308 31.7338 55.831 31.7485 63.2312 31.7191C63.8785 31.7191 64.0551 31.8809 64.0403 32.5283C63.9962 34.0878 64.0403 34.0878 62.4367 34.0878C58.847 34.0878 55.2425 34.0878 51.6381 34.1025C51.6381 34.0878 51.6381 34.1025 51.6381 34.1025Z" fill="#EDBD41"/>
</g>
<defs>
<clipPath id="clip0">
<rect width="75.3258" height="70" fill="white"/>
</clipPath>
</defs>
</svg>
