<svg width="56" height="70" viewBox="0 0 56 70" fill="none" xmlns="http://www.w3.org/2000/svg">
<g clip-path="url(#clip0)">
<path d="M5.00112 27.5062C5.00112 26.2559 5.00112 25.115 5.00112 23.9741C5.00112 21.0516 5.00112 18.1447 5.00112 15.2222C5.00112 13.6281 6.04823 12.5028 7.48605 12.5028C8.9395 12.5028 9.97098 13.6281 9.98661 15.2222C9.98661 19.0043 9.98661 22.7707 9.98661 26.5528C9.98661 26.8341 9.98661 27.1154 9.98661 27.5062C10.7837 27.5062 11.5182 27.5062 12.2684 27.5062C13.9719 27.5218 14.9877 28.522 14.9877 30.2255C14.9877 40.8998 14.9877 51.574 14.9877 62.2639C14.9877 63.983 13.9719 64.9833 12.2684 64.9989C11.5495 64.9989 10.8149 64.9989 9.98661 64.9989C9.98661 65.796 9.98661 66.5305 9.98661 67.2807C9.97098 68.8748 8.95513 70 7.50168 70C6.04823 70 5.01675 68.8748 5.00112 67.2807C5.00112 66.5617 5.00112 65.8272 5.00112 64.9989C4.20407 64.9989 3.46953 64.9989 2.71936 64.9989C1.01585 64.9833 0 63.983 0 62.2639C0 51.5897 0 40.9154 0 30.2255C0 28.5064 1.01585 27.5062 2.71936 27.4905C3.43827 27.5062 4.17281 27.5062 5.00112 27.5062ZM5.03238 32.5229C5.03238 41.7281 5.03238 50.8395 5.03238 59.9509C6.70462 59.9509 8.32999 59.9509 9.93972 59.9509C9.93972 50.777 9.93972 41.6499 9.93972 32.5229C8.29873 32.5229 6.689 32.5229 5.03238 32.5229Z" fill="#333333"/>
<path d="M25.005 32.4916C24.1298 32.4916 23.3484 32.5073 22.5826 32.4916C21.0666 32.4604 20.0195 31.4445 20.0195 29.9286C20.0039 24.146 20.0039 18.3635 20.0195 12.5809C20.0195 11.065 21.0666 10.0335 22.567 10.0022C23.3484 9.9866 24.1298 10.0022 25.0207 10.0022C25.0207 9.68966 25.0207 9.40835 25.0207 9.12704C25.0207 6.98593 25.0207 4.86046 25.0207 2.71936C25.005 1.12525 26.0365 0 27.4899 0C28.9434 0 29.9905 1.12525 29.9905 2.70373C29.9905 5.09489 29.9905 7.48605 29.9905 9.9866C30.7719 9.9866 31.5221 9.9866 32.2723 9.9866C33.9914 10.0022 34.9916 11.0025 34.9916 12.706C34.9916 18.3791 34.9916 24.0679 34.9916 29.741C34.9916 31.4601 33.9758 32.4604 32.2879 32.476C31.569 32.476 30.8344 32.476 30.0061 32.476C30.0061 32.8198 30.0061 33.1168 30.0061 33.4293C30.0061 42.2125 30.0061 50.9801 30.0061 59.7633C30.0061 61.7325 28.3339 62.9828 26.6148 62.3264C25.5989 61.9357 25.0363 61.0292 25.0363 59.7946C25.0363 54.7935 25.0363 49.7924 25.0363 44.7912C25.0363 41.0092 25.0363 37.2427 25.0363 33.4606C25.005 33.1793 25.005 32.8823 25.005 32.4916ZM25.0363 15.019C25.0363 19.223 25.0363 23.3333 25.0363 27.4593C26.7085 27.4593 28.3339 27.4593 29.9436 27.4593C29.9436 23.2864 29.9436 19.1762 29.9436 15.019C28.3026 15.019 26.6929 15.019 25.0363 15.019Z" fill="#EDBD41"/>
<path d="M49.9955 25.0056C50.8707 25.0056 51.6521 24.99 52.4179 25.0056C53.9339 25.0368 54.981 26.0527 54.9966 27.5687C55.0123 30.0223 55.0123 32.4604 54.9966 34.914C54.981 36.4613 53.9339 37.4771 52.371 37.4927C51.6209 37.5084 50.8707 37.4927 49.9955 37.4927C49.9955 38.5867 49.9955 39.6495 49.9955 40.6966C49.9955 41.2748 50.0111 41.8375 49.9955 42.4157C49.9643 43.8848 48.9171 44.9788 47.5106 44.9944C46.1196 44.9944 45.0256 43.916 45.01 42.447C44.9944 40.8372 45.01 39.2275 45.01 37.4927C44.2286 37.4927 43.4784 37.4927 42.7283 37.4927C41.0091 37.4771 40.0089 36.4769 40.0089 34.7734C40.0089 32.3979 39.9933 30.038 40.0089 27.6624C40.0089 26.0527 41.0404 25.0212 42.6345 25.0056C43.3847 24.99 44.1348 25.0056 45.01 25.0056C45.01 24.6618 45.01 24.3648 45.01 24.0522C45.01 18.5823 45.01 13.1123 45.01 7.64233C45.01 5.65751 46.8386 4.42286 48.5421 5.23554C49.5735 5.72003 49.9955 6.57959 49.9955 7.70484C49.9799 13.0498 49.9955 18.3791 49.9955 23.724C49.9955 24.1148 49.9955 24.5055 49.9955 25.0056ZM45.0256 32.4604C46.7292 32.4604 48.3389 32.4604 49.9643 32.4604C49.9643 31.6164 49.9643 30.835 49.9643 30.0536C48.292 30.0536 46.6666 30.0536 45.0256 30.0536C45.0256 30.8663 45.0256 31.6321 45.0256 32.4604Z" fill="#333333"/>
</g>
<defs>
<clipPath id="clip0">
<rect width="55.0123" height="70" fill="white"/>
</clipPath>
</defs>
</svg>
