<svg width="96" height="88" viewBox="0 0 96 88" fill="none" xmlns="http://www.w3.org/2000/svg">
<path d="M91.4526 52.9022C91.4526 45.2585 85.4199 39.2418 77.8095 39.2111C70.1062 39.2111 63.8879 45.2585 63.8879 52.8101C63.8879 60.5152 69.9206 66.532 77.6548 66.532C85.4818 66.532 91.4526 60.638 91.4526 52.9022ZM73.6021 30.9534C76.6648 32.8873 79.5419 34.6985 82.3881 36.5097C82.9141 36.8473 83.4709 37.0622 83.8112 36.3255C85.1415 33.1329 86.4409 29.9404 87.8949 26.4101C86.5646 26.8399 85.5746 27.0548 84.6775 27.4539C83.4709 27.9757 82.8522 27.6994 82.2334 26.4715C69.0543 0.347804 33.2913 -3.15173 15.1623 19.8715C14.1414 21.1608 13.2133 22.5115 12.347 23.985C11.7902 24.9366 12.7183 26.0725 13.7392 25.7655C14.2033 25.612 14.6673 25.5199 15.1314 25.4585C16.0904 25.3357 16.6473 24.9059 17.2041 24.1385C26.6089 10.5394 43.748 5.13664 59.2473 10.9692C67.7859 14.1925 74.128 19.9329 78.3973 27.945C78.9541 28.9887 78.7995 29.4185 77.6548 29.6948C76.3554 29.9711 75.118 30.4622 73.6021 30.9534ZM76.2936 70.2771C75.1798 69.9394 74.1899 69.6939 73.2308 69.3255C72.3955 68.9878 71.8077 69.0799 71.0962 69.7552C57.0508 82.8325 35.5806 82.5869 21.659 69.2641C21.2878 68.9264 21.0403 68.4045 20.4525 68.4045C19.6172 68.4045 18.8129 68.4045 17.9776 68.4045C17.0185 68.4045 16.4616 69.5404 17.0804 70.2771C30.7545 86.4855 59.5258 89.1562 76.2936 70.2771ZM25.1858 38.8427C25.1549 38.505 25.0621 37.7376 24.9384 36.9701C24.2577 33.2864 22.1231 31.4752 18.3179 31.4139C14.3889 31.3525 12.0686 33.1022 11.3571 36.7552C11.0477 38.3208 10.9858 39.8864 11.2952 41.4827C12.1305 45.9645 16.3379 48.758 20.2359 47.3766C23.2059 46.3329 25.2477 43.0176 25.1858 38.8427ZM49.3785 37.1236C49.3785 34.5143 49.4094 31.905 49.3785 29.2957C49.3475 27.8836 48.4504 26.9013 47.2438 26.9627C45.9136 27.0548 45.202 27.8529 45.0783 29.1422C45.0473 29.5413 45.0473 29.9711 45.0473 30.3701C45.0473 34.2994 44.9854 38.2287 45.0783 42.158C45.1092 43.3859 44.7998 44.2455 43.748 44.9822C41.9536 46.2715 40.4068 47.8985 38.5506 49.065C36.5706 50.2929 36.2922 51.7357 36.9728 53.7618C37.4987 55.2659 37.5606 55.4194 38.829 54.4064C42.1083 51.7971 45.3567 49.0957 48.636 46.4864C49.2238 45.9952 49.3785 45.4734 49.3475 44.7673C49.3475 42.2194 49.3785 39.6715 49.3785 37.1236Z" stroke="#EDBD41" stroke-width="2" stroke-miterlimit="10"/>
<path d="M91.4518 52.9022C91.4518 60.638 85.481 66.532 77.6849 66.532C69.9507 66.532 63.918 60.5152 63.918 52.8101C63.918 45.2585 70.1363 39.1804 77.8396 39.2111C85.4191 39.2111 91.4518 45.2585 91.4518 52.9022ZM73.6322 56.7087C72.6731 59.3794 72.7969 59.5943 75.4574 60.0241C75.5193 60.0241 75.5502 60.0548 75.6121 60.0241C76.633 59.9627 77.0043 60.4538 76.8496 61.4055C76.7258 62.2343 77.128 62.4185 77.9014 62.4492C78.7367 62.4492 79.1699 62.265 79.077 61.3441C79.0152 60.638 78.9842 59.9934 79.9742 59.7171C81.9851 59.1952 83.1916 57.8138 83.2535 55.7571C83.3154 53.639 81.9851 52.4111 80.098 51.6743C79.2008 51.3059 78.3036 50.9376 77.4064 50.5385C76.8186 50.2622 76.3855 49.7711 76.5712 49.065C76.7568 48.359 77.3446 48.1134 77.9633 48.052C78.8914 47.9599 79.8505 47.9292 80.6858 48.3283C81.6139 48.758 81.9232 48.5431 82.2635 47.5301C82.8513 45.719 81.5211 45.7804 80.562 45.6269C79.603 45.5041 79.0152 45.2892 79.1699 44.1841C79.2936 43.2938 78.6439 43.3859 78.0561 43.3859C77.4683 43.3859 76.8496 43.3552 76.9733 44.2148C77.159 45.2892 76.6021 45.6883 75.643 46.0566C74.0962 46.6399 73.1062 47.7757 73.0134 49.4948C72.9206 51.2445 73.8487 52.3804 75.3337 53.1478C76.1999 53.5776 77.159 53.8538 78.0252 54.2529C78.8605 54.6213 79.8505 55.0204 79.603 56.2176C79.3555 57.4762 78.2727 57.4762 77.2827 57.5069C76.0452 57.6297 74.8387 57.1078 73.6322 56.7087Z" stroke="#EDBD41" stroke-width="2" stroke-miterlimit="10"/>
<path d="M73.6033 30.9535C75.0883 30.493 76.3567 30.0019 77.6251 29.6949C78.8007 29.4186 78.9245 28.9888 78.3676 27.9451C74.0983 19.933 67.7562 14.1925 59.2177 10.9693C43.7492 5.13674 26.6102 10.5395 17.2054 24.1386C16.6795 24.906 16.1226 25.3358 15.1326 25.4586C14.6376 25.52 14.1736 25.6428 13.6786 25.7963C12.6577 26.1339 11.7296 25.0288 12.2864 24.1079C13.1526 22.573 14.1117 21.2223 15.1635 19.9023C33.2926 -3.12094 69.0556 0.409294 82.2347 26.5023C82.8535 27.7302 83.4722 28.0065 84.6787 27.4846C85.6068 27.0856 86.5968 26.8707 87.8962 26.4409C86.4421 29.9712 85.1428 33.1637 83.8125 36.3563C83.5031 37.093 82.9153 36.8781 82.3894 36.5405C79.5432 34.6986 76.697 32.8874 73.6033 30.9535Z" stroke="#EDBD41" stroke-width="2" stroke-miterlimit="10"/>
<path d="M76.2928 70.277C59.4941 89.1868 30.63 86.4854 16.9868 70.1235C16.399 69.4175 16.9249 68.3738 17.8221 68.3738C18.7193 68.3738 19.5855 68.3738 20.4517 68.3738C21.0395 68.3738 21.318 68.8956 21.6583 69.2333C35.5799 82.5868 57.05 82.8017 71.0954 69.7245C71.8379 69.0491 72.3947 68.957 73.23 69.2947C74.1581 69.6938 75.179 69.9394 76.2928 70.277Z" stroke="#EDBD41" stroke-width="2" stroke-miterlimit="10"/>
<path d="M49.3773 37.1237C49.3773 39.6716 49.3773 42.2195 49.3773 44.7981C49.3773 45.5041 49.2535 46.026 48.6657 46.5172C45.3864 49.1265 42.138 51.8279 38.8587 54.4372C37.5903 55.4502 37.5284 55.2967 37.0025 53.7925C36.291 51.7665 36.6003 50.3237 38.5803 49.0958C40.4365 47.9293 41.9215 46.4865 43.7777 45.013C44.7986 44.2148 45.108 43.4167 45.108 42.1888C45.0461 38.2595 45.077 34.3302 45.077 30.4009C45.077 30.0018 45.077 29.5721 45.108 29.173C45.2317 27.8837 45.9433 27.0855 47.2736 26.9934C48.4801 26.9321 49.3773 27.9144 49.4082 29.3265C49.4082 31.9051 49.3773 34.5144 49.3773 37.1237Z" stroke="#EDBD41" stroke-width="2" stroke-miterlimit="10"/>
<path d="M73.6335 56.7087C74.8401 57.1078 76.0466 57.6296 77.346 57.5682C78.305 57.5068 79.4187 57.5375 79.6662 56.2789C79.8828 55.1124 78.9237 54.7133 78.0885 54.3143C77.1913 53.9152 76.2632 53.6389 75.3969 53.2092C73.912 52.4724 72.9839 51.3059 73.0767 49.5561C73.1695 47.8371 74.1595 46.6705 75.7063 46.118C76.6654 45.7496 77.1913 45.3505 77.0366 44.2761C76.8819 43.4166 77.5316 43.4473 78.1194 43.4473C78.6763 43.4473 79.3569 43.3552 79.2331 44.2454C79.0784 45.3505 79.6662 45.5654 80.6253 45.6882C81.5843 45.811 82.9146 45.7803 82.3268 47.5915C81.9865 48.5738 81.6771 48.8194 80.749 48.3896C79.8828 47.9905 78.9547 48.0212 78.0266 48.1133C77.3769 48.1747 76.7891 48.4203 76.6344 49.1264C76.4488 49.8324 76.8819 50.3236 77.4697 50.5998C78.3359 51.0296 79.2641 51.398 80.1612 51.7357C82.0484 52.4724 83.3787 53.7003 83.3168 55.8185C83.2549 57.8752 82.0484 59.2566 80.0375 59.7785C79.0166 60.024 79.0475 60.6687 79.1403 61.4054C79.2331 62.3264 78.8 62.5106 77.9647 62.5106C77.1913 62.5106 76.7891 62.2957 76.9129 61.4668C77.0675 60.4845 76.6654 60.024 75.6754 60.0854C75.6135 60.0854 75.5826 60.0854 75.5207 60.0854C72.7983 59.5943 72.6745 59.3794 73.6335 56.7087Z" stroke="#EDBD41" stroke-width="2" stroke-miterlimit="10"/>
<path d="M18.1321 64.1682C25.6328 64.1682 31.7134 60.7597 31.7134 56.5552C31.7134 52.3506 25.6328 48.9421 18.1321 48.9421C10.6313 48.9421 4.55078 52.3506 4.55078 56.5552C4.55078 60.7597 10.6313 64.1682 18.1321 64.1682Z" stroke="#EDBD41" stroke-width="2" stroke-miterlimit="10"/>
</svg>
