<svg width="109" height="86" viewBox="0 0 109 86" fill="none" xmlns="http://www.w3.org/2000/svg">
<g clip-path="url(#clip0)">
<path d="M11.4367 37.1362C10.8018 37.2709 10.2406 36.9029 10.0311 36.3491C10.0136 36.303 9.99615 36.2568 9.97869 36.2107C8.30043 28.9851 8.20857 23.1642 9.76553 18.3548C10.5153 16.0138 11.6642 13.891 13.2696 11.8594C14.5469 10.2156 16.0961 8.73268 18.0495 7.20244L16.8884 5.10944C16.6851 4.71155 16.6952 4.18022 16.9309 3.82726C17.1954 3.41069 17.6569 3.23611 18.0959 3.28105L27.1535 4.075C27.5289 4.09124 27.8818 4.327 28.1138 4.66129C28.3458 4.99557 28.3931 5.39969 28.221 5.78134L25.081 14.3548C24.9263 14.7826 24.5172 15.0956 24.0207 15.1779C23.5705 15.2427 23.1078 14.9957 22.8583 14.6153L21.7097 12.8341C19.1502 14.4354 17.0771 16.4857 15.5191 18.9215C13.053 22.8614 12.338 27.2468 12.1905 30.204C12.0856 31.8791 12.1591 33.3284 12.2426 34.2464C12.2788 34.7603 12.3261 35.1644 12.3498 35.3665C12.3673 35.4126 12.356 35.5224 12.3735 35.5685L12.3909 35.6147C12.5144 36.3593 12.1177 36.9841 11.4367 37.1362ZM10.6375 32.3741C10.6413 31.6869 10.6102 30.9074 10.6714 30.0929C10.8587 26.9623 11.5787 22.3113 14.2233 18.1456C16.0457 15.2933 18.4818 12.9474 21.5203 11.2176C21.872 11.0318 22.2824 11.1404 22.5143 11.4747L23.8138 13.5153L26.7131 5.56045L18.3141 4.83391L19.5449 7.1115C19.5624 7.15765 19.5624 7.15765 19.5798 7.2038C19.6846 7.4807 19.6047 7.82744 19.3166 8.04194C17.271 9.6071 15.6469 11.171 14.3234 12.8323C12.8216 14.7193 11.7762 16.6974 11.0664 18.8651C9.91613 22.5182 9.76736 27.0059 10.6375 32.3741Z" fill="#EEBE42"/>
</g>
<g clip-path="url(#clip1)">
<path d="M49.8343 77L52.8696 77C69.8226 76.2588 83 62.4729 83 45.5C83 28.5271 69.7485 14.7412 52.8696 14L49.9083 14C33.1034 14.8894 20 28.7494 20 45.5C20 62.2506 33.1034 76.1106 49.8343 77ZM30.8085 65.8824C32.8073 64.4 34.9542 63.2141 37.2491 62.1765C39.396 66.6976 42.4313 70.7 46.2068 74.1094C40.3584 73.0718 34.9542 70.1812 30.8085 65.8824ZM50.2785 74.3318C45.6886 70.8482 41.9871 66.4012 39.47 61.2871C42.9495 60.0271 46.577 59.2859 50.2785 59.1376L50.2785 74.3318ZM50.2785 56.6918C46.2068 56.84 42.2832 57.6553 38.5076 59.0635C37.1011 55.5059 36.2127 51.7259 35.9906 47.7976L50.2785 47.7976L50.2785 56.6918ZM50.2785 45.3518L35.9166 45.3518C35.9166 41.3494 36.5828 37.4212 37.9154 33.7153C41.839 35.2718 46.0588 36.1612 50.2785 36.3094L50.2785 45.3518ZM56.423 74.1835C60.4207 70.6259 63.53 66.4753 65.6769 61.7318C68.1199 62.6953 70.4888 64.0294 72.6357 65.5118C68.2679 70.1071 62.5676 73.1459 56.423 74.1835ZM74.1904 63.6588C71.8214 61.9541 69.3044 60.62 66.5652 59.5082C67.9718 55.8024 68.8602 51.8 69.0823 47.7235L80.483 47.7235C80.0388 53.5788 77.8919 59.0635 74.1904 63.6588ZM75.0787 28.5271C78.6322 33.4188 80.483 39.2 80.557 45.2776L69.1563 45.2776C69.1563 41.1271 68.49 37.0506 67.1575 33.1224C69.9706 31.9365 72.6357 30.38 75.0787 28.5271ZM73.5981 26.6C71.3772 28.3047 68.9342 29.7129 66.3431 30.8247C64.1962 25.4882 60.7168 20.6706 56.349 16.7424C63.0858 18.0024 69.1563 21.4118 73.5981 26.6ZM52.7215 16.9647C57.8296 20.8929 61.6792 26.0071 64.0482 31.7882C60.4207 33.1224 56.5711 33.7894 52.7215 33.8635L52.7215 16.9647ZM52.7215 36.3094C56.8672 36.2353 61.0129 35.4941 64.9365 34.0859C66.121 37.7176 66.7133 41.4976 66.7873 45.3518L52.7955 45.3518L52.7955 36.3094L52.7215 36.3094ZM52.7215 47.7976L66.6392 47.7976C66.4172 51.5776 65.6028 55.2094 64.2703 58.6929C60.5687 57.4329 56.6451 56.7659 52.6475 56.6918L52.6475 47.7976L52.7215 47.7976ZM52.7215 59.1376C56.349 59.2118 59.9025 59.8047 63.3819 60.9165C61.0129 66.0306 57.3114 70.5518 52.7215 74.0353L52.7215 59.1376ZM50.2785 16.7424L50.2785 33.8635C46.2808 33.7153 42.4313 32.8259 38.7297 31.4176C41.1727 25.6365 45.1704 20.5224 50.2785 16.7424ZM46.2068 16.8906C41.9871 20.6706 38.7297 25.2659 36.5088 30.38C34.1398 29.2682 31.8449 27.86 29.772 26.1553C34.0658 21.3376 39.8402 18.0765 46.2068 16.8906ZM28.2174 28.0824C30.5123 29.8612 33.0294 31.4176 35.6204 32.6776C34.2139 36.7541 33.4736 40.9788 33.4736 45.3518L22.443 45.3518C22.443 39.0518 24.4418 33.1224 28.2174 28.0824ZM22.517 47.7976L33.5476 47.7976C33.7697 52.0224 34.658 56.0988 36.2127 60.0271C33.6957 61.1388 31.3267 62.5471 29.1058 64.1776C25.2562 59.4341 22.9612 53.8012 22.517 47.7976Z" fill="#EEBE42"/>
<circle cx="37" cy="33" r="4" fill="#EDBD41"/>
<circle cx="35" cy="46" r="4" fill="#EDBD41"/>
<circle cx="52" cy="35" r="4" fill="#EDBD41"/>
<circle cx="66" cy="33" r="4" fill="#EDBD41"/>
<circle cx="52" cy="46" r="4" fill="#EDBD41"/>
<circle cx="51" cy="57" r="4" fill="#EDBD41"/>
<circle cx="65" cy="61" r="4" fill="#EDBD41"/>
<circle cx="39" cy="61" r="4" fill="#EDBD41"/>
</g>
<circle cx="52" cy="15" r="4" fill="#EEBE42"/>
<circle cx="52" cy="76" r="4" fill="#EEBE42"/>
<circle cx="82" cy="46" r="4" fill="#EEBE42"/>
<circle cx="76" cy="26" r="4" fill="#EEBE42"/>
<circle cx="75" cy="65" r="4" fill="#EEBE42"/>
<circle cx="28" cy="26" r="4" fill="#EEBE42"/>
<circle cx="28" cy="67" r="4" fill="#EEBE42"/>
<circle cx="21" cy="46" r="4" fill="#EEBE42"/>
<g clip-path="url(#clip2)">
<path d="M96.0965 48.4086C96.7279 48.2585 97.2979 48.6128 97.5208 49.1613C97.5394 49.2071 97.5579 49.2528 97.5765 49.2985C99.4298 56.4811 99.663 62.2981 98.2233 67.1439C97.5306 69.5024 96.4336 71.6525 94.878 73.7225C93.641 75.3969 92.1283 76.9169 90.2127 78.4942L91.4242 80.5584C91.6371 80.9512 91.64 81.4826 91.4129 81.8412C91.1586 82.2641 90.7015 82.4498 90.2615 82.4155L81.1873 81.8418C80.8116 81.8347 80.453 81.6076 80.213 81.279C79.973 80.9505 79.9158 80.5476 80.0787 80.1619L83.0095 71.5147C83.1538 71.0833 83.5552 70.7604 84.0494 70.6661C84.498 70.5904 84.9666 70.826 85.2252 71.2003L86.4167 72.9531C88.9366 71.2901 90.9592 69.19 92.4576 66.7171C94.8274 62.7184 95.4357 58.317 95.5112 55.3571C95.5754 53.68 95.4667 52.2328 95.361 51.3172C95.3124 50.8043 95.2552 50.4015 95.2266 50.2C95.208 50.1543 95.2166 50.0443 95.198 49.9986L95.1795 49.9529C95.038 49.2115 95.4194 48.5772 96.0965 48.4086ZM97.011 53.1499C97.0239 53.837 97.074 54.6156 97.0326 55.4313C96.9214 58.5655 96.3145 63.2326 93.772 67.4613C92.0193 70.3571 89.6409 72.7614 86.6454 74.5645C86.2982 74.7588 85.8854 74.6602 85.6454 74.3317L84.2967 72.3232L81.5915 80.3461L90.0057 80.8684L88.7199 78.6214C88.7013 78.5757 88.7013 78.5757 88.6827 78.53C88.5713 78.2557 88.6427 77.9071 88.9255 77.6857C90.9325 76.0713 92.5181 74.4684 93.8008 72.7755C95.2564 70.8526 96.2534 68.8497 96.9104 66.6654C97.9716 62.9854 98.0114 58.4955 97.011 53.1499Z" fill="#EEBE42"/>
</g>
<defs>
<clipPath id="clip0">
<rect width="29.4571" height="28.1742" fill="white" transform="matrix(-0.353821 -0.935313 -0.935313 0.353821 36.7734 27.5516)"/>
</clipPath>
<clipPath id="clip1">
<rect width="63" height="63" fill="white" transform="translate(20 14)"/>
</clipPath>
<clipPath id="clip2">
<rect width="29.4571" height="28.1742" fill="white" transform="matrix(0.376433 0.926444 0.926444 -0.376433 71 58.6057)"/>
</clipPath>
</defs>
</svg>
