<svg width="74" height="70" viewBox="0 0 74 70" fill="none" xmlns="http://www.w3.org/2000/svg">
<g clip-path="url(#clip0)">
<path d="M58.0806 25.6484C55.5163 25.6484 52.9841 25.6484 50.548 25.6484C50.0832 28.263 49.6345 30.8295 49.1697 33.428C50.7564 34.2621 52.4392 35.1603 53.9778 35.9784C53.7694 37.3418 53.6252 38.5288 53.4168 39.6998C53.2726 40.5018 53.0322 41.2878 52.8238 42.0898C52.7918 42.186 52.7277 42.2822 52.6475 42.3464C50.4358 44.2713 47.9517 45.747 45.0508 46.6292C45.8522 45.2978 46.6375 43.9665 47.4869 42.6672C47.6632 42.3945 48.0318 42.2662 48.3043 42.0577C49.7307 40.9509 51.157 39.8281 52.7918 38.5609C50.9807 37.6306 49.4422 36.8446 47.7273 35.9624C47.6311 35.2245 47.6952 34.1338 47.3587 33.1874C46.5413 30.9578 47.2625 28.8244 47.4388 26.659C47.4709 26.3702 47.4869 26.0815 47.519 25.7126C47.2946 25.6805 47.1023 25.6324 46.8939 25.6324C46.0445 25.6324 45.179 25.6163 44.3296 25.6324C42.3743 25.6805 40.4671 25.5041 38.5279 25.1833C37.2137 24.9747 35.8354 25.2153 34.4731 25.2795C32.9345 25.3597 31.412 25.5361 29.8734 25.6003C28.7355 25.6484 27.5976 25.6163 26.3154 25.6163C26.5238 27.1081 26.7482 28.4715 26.8924 29.835C26.9565 30.4445 26.9084 31.0861 26.8283 31.6956C26.62 33.1874 26.3475 34.6791 26.1231 35.9944C24.5044 36.8125 22.9658 37.5985 21.4112 38.3844C21.3792 38.4807 21.3471 38.593 21.3151 38.6892C22.6453 39.7639 23.9435 40.8867 25.3378 41.8652C26.3956 42.6031 27.213 43.4692 27.7739 44.6402C28.1105 45.362 28.5111 46.0517 28.9439 46.8698C27.0367 46.2442 25.3859 45.378 23.7992 44.3354C23.3024 44.0146 22.8537 43.6457 22.3568 43.3249C21.5395 42.7795 21.0106 42.1539 20.8824 41.0471C20.69 39.4271 20.1932 37.8391 19.7925 36.0746C21.3952 35.2085 23.062 34.3262 24.7128 33.444C24.264 30.9097 23.8153 28.3272 23.3345 25.6805C20.9304 25.6805 18.4142 25.6805 15.8018 25.6805C15.9942 28.6159 16.8115 31.3427 18.0937 33.8771C16.8917 33.3959 15.6576 32.9307 14.4716 32.3854C14.2472 32.2891 14.119 31.8721 14.0389 31.5833C11.2823 21.8789 13.3818 13.3455 20.7702 6.49627C27.4534 0.256585 35.4828 -1.47577 44.1533 1.25109C52.92 4.01002 58.3371 10.1695 60.4526 19.12C61.4463 23.3707 61.1418 27.6053 59.7474 31.7598C59.6032 32.1929 59.3788 32.3693 58.9621 32.5297C57.9043 32.9147 56.8786 33.3959 55.7888 33.8771C57.087 31.2786 57.8883 28.5838 58.0806 25.6484ZM24.7929 14.9174C23.0941 14.0192 21.3311 13.0888 19.5201 12.1264C17.3244 15.2864 16.1064 18.7992 15.8179 22.697C18.4142 22.697 20.9465 22.697 23.3665 22.697C23.8473 20.0824 24.3121 17.516 24.7929 14.9174ZM58.0967 22.697C57.7761 18.7832 56.5581 15.2864 54.3784 12.1264C52.5514 13.0888 50.7884 14.0192 49.1216 14.9014C49.6024 17.516 50.0672 20.0664 50.548 22.681C52.9681 22.697 55.5003 22.697 58.0967 22.697ZM38.4157 22.697C41.4608 22.697 44.4418 22.697 47.6311 22.697C47.1984 20.3712 46.7817 18.1255 46.381 16.0082C43.5763 16.4894 41.0281 16.9385 38.4157 17.3877C38.4157 19.0719 38.4157 20.8524 38.4157 22.697ZM35.4828 22.697C35.4828 20.8684 35.4828 19.0879 35.4828 17.3877C32.8704 16.9385 30.2901 16.4894 27.5014 16.0082C27.1008 18.1416 26.7001 20.3872 26.2674 22.697C29.4407 22.697 32.4217 22.697 35.4828 22.697ZM35.4668 3.76942C32.4858 6.49627 30.242 9.54393 28.6393 13.3295C30.9953 13.7305 33.207 14.0994 35.4668 14.4844C35.4668 10.8111 35.4668 7.36245 35.4668 3.76942ZM38.4478 3.8015C38.4478 7.39453 38.4478 10.8753 38.4478 14.5004C40.7396 14.0994 42.9513 13.7144 45.2592 13.3134C43.6084 9.54393 41.3967 6.48023 38.4478 3.8015ZM31.2838 3.8015C27.3892 4.81204 24.1358 6.83312 21.3151 9.86474C22.9017 10.6988 24.3922 11.4848 25.9308 12.2868C27.3251 9.09481 29.1041 6.33587 31.2838 3.8015ZM42.5987 3.8015C44.7784 6.35191 46.5894 9.11085 47.9677 12.2868C49.5383 11.4688 51.0128 10.6988 52.5674 9.88078C49.7467 6.84916 46.4932 4.81204 42.5987 3.8015Z" fill="#333333"/>
<path d="M43.257 50.912C45.645 52.8208 48.4496 53.5266 51.3185 54.088C54.4597 54.6975 55.6457 56.2213 55.9983 59.8625C56.1265 61.1618 56.1265 62.4771 56.2227 63.7763C56.3028 64.9152 55.822 65.7333 54.9565 66.3749C53.2256 67.6741 51.2063 68.2837 49.1388 68.7328C42.9044 70.1123 36.6058 70.2887 30.2592 69.6311C27.3583 69.3263 24.4735 68.8932 21.749 67.8345C20.6912 67.4175 19.6975 66.824 18.7519 66.1984C17.9826 65.6851 17.582 64.8831 17.6781 63.9207C17.8865 61.8355 18.0147 59.7181 18.3833 57.6489C18.7039 55.8524 19.9379 54.7296 21.749 54.2805C23.592 53.8313 25.4351 53.4303 27.2301 52.8208C28.4161 52.4198 29.5059 51.6819 30.6919 51.0563C31.2208 52.0829 32.2946 52.4679 33.4165 52.7406C35.9808 53.3822 38.5451 53.3662 41.0773 52.5802C41.9748 52.3075 42.8242 51.9225 43.257 50.912Z" fill="#EDBD41"/>
<path d="M37.0226 50.6553C35.3397 50.6392 33.9294 49.9174 32.6793 48.8588C30.9003 47.367 29.7143 45.4422 28.8008 43.3409C28.6566 43.0201 28.4322 42.7153 28.1597 42.4747C26.9096 41.384 26.525 38.208 27.4706 36.9087C27.6148 36.7162 27.6469 36.4275 27.6789 36.1869C27.8071 35.0481 27.8712 33.8931 28.0636 32.7703C28.6405 29.2094 31.285 27.6695 34.3301 26.8033C37.2309 25.9692 40.0035 26.5146 42.664 28.1507C45.0039 29.5943 45.7572 31.6796 46.0937 34.1338C46.1899 34.8556 46.222 35.5774 46.2861 36.2832C46.3021 36.4596 46.3181 36.6681 46.3982 36.8285C47.4079 38.8496 47.1034 41.0471 45.6129 42.603C45.4206 42.7955 45.3084 43.1003 45.1962 43.3569C44.1064 45.8753 42.664 48.153 40.26 49.5966C39.3144 50.1741 38.1765 50.4468 37.1187 50.8638C37.0706 50.7997 37.0386 50.7195 37.0226 50.6553Z" fill="#EDBD41"/>
<path d="M8.68735 50.1421C10.2259 52.0348 15.5468 52.0509 17.1495 50.0458C18.8804 51.5055 21.044 51.8584 23.1916 52.4358C22.823 52.5321 22.4544 52.6444 22.0858 52.7085C19.0888 53.2218 17.3579 55.0504 16.7809 57.9537C16.5084 59.2851 16.4283 60.6485 16.2841 61.9959C16.252 62.3488 16.236 62.6215 15.7872 62.6375C11.3638 62.7979 6.97248 62.7337 2.72537 61.2901C2.51702 61.226 2.3247 61.1297 2.13238 61.0495C0.705992 60.44 -0.239591 59.5417 0.0649185 57.8094C0.273267 56.6545 0.321348 55.4835 0.577777 54.3446C0.834206 53.2058 1.63555 52.5321 2.77345 52.2594C3.89533 51.9867 5.01721 51.7942 6.10703 51.4093C6.98851 51.1045 7.82191 50.5752 8.68735 50.1421Z" fill="#EDBD41"/>
<path d="M50.7422 52.3074C51.8 52.0508 52.8898 51.8744 53.9155 51.5215C54.9092 51.1686 55.8387 50.6232 56.8163 50.158C58.4671 52.0348 63.756 52.0348 65.2625 50.0137C66.8812 51.3931 68.9006 51.7941 70.9039 52.1952C72.3303 52.4678 73.2118 53.3501 73.4522 54.7295C73.6926 56.109 73.7567 57.5366 73.8368 58.9481C73.8689 59.7341 73.3079 60.2795 72.6669 60.5361C71.3206 61.0975 69.9583 61.675 68.548 61.9958C65.2144 62.7497 61.8327 62.7657 58.4351 62.6695C57.826 62.6534 57.6658 62.4449 57.6017 61.8354C57.4734 60.3757 57.3132 58.916 56.9926 57.4885C56.3997 54.8578 54.6848 53.2859 52.0404 52.7566C51.6076 52.6603 51.1749 52.5641 50.7422 52.4839C50.7422 52.4197 50.7422 52.3716 50.7422 52.3074Z" fill="#EDBD41"/>
<path d="M13.224 33.6847C15.2274 33.8932 17.3109 34.5348 18.4488 36.7965C18.7533 37.406 18.8174 38.1279 18.9777 38.8016C19.154 39.5875 19.3303 40.3896 19.4905 41.1755C19.7309 42.2502 19.5226 43.2447 18.9617 44.1751C18.7052 44.6082 18.4648 45.0412 18.1763 45.4423C17.407 46.517 16.7339 47.7039 15.7883 48.6182C14.0254 50.3025 11.8778 50.2704 10.0347 48.6503C9.36157 48.0568 8.81666 47.319 8.28778 46.5811C7.71081 45.7631 7.14987 44.929 6.71715 44.0307C6.20429 42.972 5.78759 41.8492 6.57291 40.7104C6.66907 40.566 6.66907 40.3575 6.70112 40.181C6.73317 39.8923 6.76523 39.6036 6.76523 39.2988C6.78125 35.4812 9.84238 33.797 13.224 33.6847Z" fill="#EDBD41"/>
<path d="M61.032 33.6686C62.8591 33.6205 64.3656 34.3904 65.6959 35.4972C66.6575 36.2832 66.8658 37.4862 67.0742 38.6571C67.2184 39.5073 67.4428 40.3414 67.6191 41.1915C67.8595 42.2983 67.6511 43.3088 67.0261 44.2392C66.8177 44.56 66.5613 44.8808 66.401 45.2337C65.6638 46.7415 64.7823 48.1209 63.3559 49.0673C61.8013 50.1099 60.2147 50.1741 58.7402 49.0513C57.8748 48.3936 57.1375 47.4954 56.4644 46.6292C55.8393 45.8272 55.2944 44.9289 54.8457 44.0146C54.3168 42.9239 53.9322 41.785 54.7495 40.614C54.8777 40.4376 54.8457 40.1489 54.8777 39.9243C54.9258 39.4431 54.9579 38.9619 55.006 38.4967C55.2303 35.7378 57.2978 34.4546 59.6858 33.8611C60.1185 33.7167 60.5833 33.7167 61.032 33.6686Z" fill="#EDBD41"/>
</g>
<defs>
<clipPath id="clip0">
<rect width="73.8356" height="70" fill="white"/>
</clipPath>
</defs>
</svg>
