<svg width="109" height="90" viewBox="0 0 109 90" fill="none" xmlns="http://www.w3.org/2000/svg">
<g clip-path="url(#clip0)">
<path d="M105.616 64.9563C105.616 64.9563 79.5214 63.6457 75.6371 63.193C71.7527 62.7402 58.0026 56.807 47.0883 68.5544L36.7936 69.9603C36.7936 69.9603 25.6887 66.8626 22.7099 71.7712C22.7099 71.7712 6.19544 63.9793 0.619141 69.436C0.619141 69.436 30.2164 82.1604 33.5288 85.1628C33.5288 85.1628 39.0575 90.3812 41.7503 89.5472C44.4431 88.737 68.7501 80.7545 78.7588 80.5639L108.547 82.7085L105.616 64.9563Z" stroke="#EDBD41" stroke-width="2" stroke-miterlimit="10"/>
<path d="M22.7342 71.7473C22.7342 71.7473 19.1835 79.2056 47.7322 77.7283L55.3579 75.3692L48.2565 78.9435C48.2565 78.9435 19.4456 81.2787 22.7342 71.7473Z" stroke="#EDBD41" stroke-width="2" stroke-miterlimit="10"/>
<path d="M30.3366 71.7474C30.3366 71.7474 31.0039 74.2494 29.2404 75.7982C29.2404 75.7982 23.7594 75.4169 23.8547 73.2962C24.0216 69.9126 30.3366 71.7474 30.3366 71.7474Z" stroke="#EDBD41" stroke-width="2" stroke-miterlimit="10"/>
<path d="M59.932 35.3376C55.3804 52.1843 46.6585 64.4798 40.4388 62.8118C34.2429 61.1438 32.9084 46.1081 37.46 29.2614C42.0354 12.4147 50.7573 0.0953841 56.9771 1.7872C63.1968 3.47902 64.5075 18.4909 59.932 35.3376Z" stroke="#EDBD41" stroke-width="2" stroke-miterlimit="10"/>
<path d="M53.1534 34.2089C57.0109 19.2752 55.6857 6.01907 50.1935 4.60058C44.7012 3.18209 37.1216 14.1384 33.264 29.0721C29.4065 44.0059 30.7317 57.262 36.224 58.6805C41.7162 60.0989 49.2958 49.1427 53.1534 34.2089Z" stroke="#EDBD41" stroke-width="2" stroke-miterlimit="10"/>
<g clip-path="url(#clip1)">
<path d="M45.6841 23.4903L44.4799 27.7512L46.9455 29.0794C47.385 29.3162 47.983 28.6646 48.2726 27.6221L48.3607 27.3137C48.6571 26.2749 48.534 25.2347 48.1013 25.0017L45.9723 23.8547L45.6357 23.6734M48.3848 31.6713C48.5736 33.009 48.4472 34.7012 47.9654 36.3893L47.8728 36.7139C46.9578 39.9477 45.1016 41.9815 43.7349 41.2452L43.6731 41.2119L43.1889 42.9362L41.6025 42.0815L42.0866 40.3573L41.4342 40.0058L40.95 41.73L39.3566 40.8717L39.8477 39.1512L39.4768 38.9514L38.687 38.5259L39.7548 34.7565L40.5446 35.182L41.8256 30.666L42.8934 26.8966L44.0446 22.835L43.2479 22.4058L44.3158 18.6365L45.1056 19.0619L45.4764 19.2617L46.0718 17.1479L47.6651 18.0063L47.0698 20.1201L47.7154 20.4678L48.3176 18.3578L49.911 19.2161L49.311 21.3461C50.51 22.198 50.8064 25.1855 49.9609 28.1757L49.8729 28.4841C49.4954 29.7789 48.9672 30.8802 48.3848 31.6713ZM46.2863 35.8593L46.3789 35.5346C46.7078 34.3822 46.5713 33.2225 46.0837 32.9598L45.8776 32.8488L43.4121 31.5206L42.1311 36.0366L42.4677 36.2179L44.8028 37.4759C45.2972 37.7422 45.9574 37.0117 46.2863 35.8593Z" stroke="#EDBD41" stroke-miterlimit="10"/>
</g>
</g>
<defs>
<clipPath id="clip0">
<rect width="109" height="90" fill="white"/>
</clipPath>
<clipPath id="clip1">
<rect width="12.4614" height="30.9204" fill="white" transform="translate(42.8379 14.0896) rotate(11.8913)"/>
</clipPath>
</defs>
</svg>
