<svg width="71" height="70" viewBox="0 0 71 70" fill="none" xmlns="http://www.w3.org/2000/svg">
<g clip-path="url(#clip0)">
<path d="M50.7832 5.66033C53.6847 3.90042 56.491 2.23565 59.2498 0.459881C60.1377 -0.1109 60.756 -0.0950453 61.6281 0.459881C64.2441 2.14052 66.9395 3.72602 69.5873 5.34323C69.7141 5.42251 69.841 5.51764 70.0471 5.67619C69.2543 6.16769 68.525 6.61164 67.7798 7.05558C65.5284 8.43497 63.277 9.81435 61.0097 11.162C60.756 11.3047 60.3121 11.4157 60.1218 11.3047C57.0301 9.4814 53.9859 7.6105 50.7832 5.66033Z" fill="#333333"/>
<path d="M25.9238 30.1246C29.0473 28.222 32.1073 26.3511 35.1673 24.496C35.3259 24.4009 35.643 24.4009 35.8015 24.496C38.8615 26.3511 41.9216 28.222 44.9816 30.1087C44.9974 30.1246 44.9974 30.1563 45.0133 30.2514C44.5693 30.5209 44.1096 30.8222 43.6339 31.1076C41.113 32.6455 38.592 34.1993 36.0552 35.7055C35.8015 35.8641 35.31 35.9275 35.088 35.8007C32.0756 34.009 29.0948 32.1699 26.0982 30.3307C26.0507 30.299 26.019 30.2355 25.9238 30.1246Z" fill="#EDBD41"/>
<path d="M20.1202 52.7181C16.9809 54.6207 13.9208 56.4916 10.845 58.3466C10.7023 58.4417 10.4169 58.4576 10.2742 58.3783C7.18244 56.5074 4.10656 54.6365 0.935547 52.7022C1.17337 52.5278 1.33192 52.401 1.50633 52.29C4.34438 50.5618 7.18243 48.8177 10.0363 47.1212C10.2742 46.9785 10.7181 46.931 10.9401 47.0578C13.9367 48.8494 16.9016 50.6728 19.8665 52.4802C19.9299 52.5119 19.9775 52.5754 20.1202 52.7181Z" fill="#333333"/>
<path d="M70.08 52.6704C68.9068 53.3839 67.8445 54.034 66.798 54.684C64.8637 55.8573 62.9294 57.0623 60.9793 58.2038C60.7256 58.3465 60.2499 58.4099 60.0121 58.2831C57.0155 56.5073 54.0506 54.684 51.0857 52.8765C51.0223 52.829 50.9589 52.7973 50.832 52.7021C51.1016 52.5119 51.3077 52.3692 51.5297 52.2265C54.3043 50.5459 57.0631 48.8494 59.8377 47.1846C60.0914 47.0419 60.5353 46.9151 60.7414 47.0419C63.8332 48.8494 66.8773 50.7203 70.08 52.6704Z" fill="#333333"/>
<path d="M0.984375 5.61276C2.56988 4.6456 4.13953 3.67844 5.72503 2.72714C7.15198 1.85511 8.56308 0.983087 10.0059 0.158625C10.2754 0.0159295 10.7511 -0.0474906 10.9889 0.0952047C13.9855 1.87097 16.9504 3.6943 19.9311 5.51763C19.9787 5.54934 19.9946 5.5969 20.0738 5.69203C19.9153 5.80302 19.7567 5.92986 19.5982 6.04084C16.7443 7.73733 13.9379 9.46553 11.0999 11.162C10.8462 11.3206 10.3547 11.384 10.1327 11.2572C7.13613 9.46553 4.17124 7.6422 1.19049 5.83473C1.12707 5.78716 1.07951 5.72374 0.984375 5.61276Z" fill="#333333"/>
<path d="M9.41825 22.9583C9.06944 22.768 8.78404 22.6095 8.49865 22.4351C5.85086 20.8337 3.21893 19.2323 0.602845 17.5993C0.349164 17.4407 0.0479188 17.0602 0.0479188 16.7907C0.000353642 13.8099 0.0162087 10.8292 0.0162087 7.84841C0.0162087 7.78499 0.0479188 7.70571 0.0796288 7.59473C0.238179 7.674 0.39673 7.72157 0.52357 7.80084C3.36162 9.52904 6.19967 11.2414 9.02187 13.0013C9.24384 13.144 9.48167 13.4769 9.48167 13.7148C9.51338 16.6638 9.49752 19.6287 9.49752 22.5777C9.49752 22.6729 9.44996 22.768 9.41825 22.9583Z" fill="#333333"/>
<path d="M21.0239 7.61047C21.0239 10.7339 21.0239 13.7939 21.008 16.8698C21.008 17.0759 20.8336 17.3772 20.6592 17.4882C17.7419 19.2956 14.8087 21.0714 11.8755 22.8472C11.8121 22.8789 11.7328 22.8789 11.5743 22.9264C11.5743 21.7532 11.5743 20.6275 11.5743 19.5018C11.5743 17.6309 11.5584 15.7441 11.5901 13.8732C11.5901 13.5878 11.7645 13.1914 11.9865 13.0488C14.8721 11.2413 17.7895 9.48137 20.6909 7.7056C20.7543 7.67389 20.8336 7.67389 21.0239 7.61047Z" fill="#333333"/>
<path d="M70.9677 7.56299C70.9677 10.734 70.9677 13.7623 70.9518 16.8065C70.9518 17.0284 70.8091 17.3297 70.6347 17.4407C67.6857 19.2482 64.7367 21.0398 61.7718 22.8314C61.7242 22.8631 61.6766 22.8472 61.5498 22.8631C61.5181 22.6728 61.4864 22.4826 61.4864 22.2765C61.4864 19.4701 61.4705 16.6796 61.5022 13.8733C61.5022 13.572 61.7084 13.144 61.962 13.0013C64.8001 11.2255 67.6698 9.4973 70.5396 7.75325C70.6347 7.70568 70.7457 7.65812 70.9677 7.56299Z" fill="#333333"/>
<path d="M34.4857 47.5653C32.9953 46.6615 31.6477 45.8371 30.3 45.0285C28.6986 44.0455 27.0973 43.0942 25.5118 42.0794C25.2898 41.9367 25.0203 41.6196 25.0203 41.3818C24.9886 38.3694 25.0044 35.3569 25.0203 32.3445C25.0203 32.2969 25.0678 32.2652 25.1312 32.17C25.3374 32.281 25.5435 32.3603 25.7337 32.4871C28.4925 34.1519 31.2354 35.8326 33.9784 37.529C34.2003 37.6717 34.4699 37.9888 34.4699 38.2108C34.5016 41.2867 34.4857 44.3467 34.4857 47.5653Z" fill="#EDBD41"/>
<path d="M0.015625 54.5414C0.538841 54.8426 0.935217 55.0805 1.33159 55.3183C3.83669 56.8404 6.34178 58.3466 8.83102 59.9004C9.13227 60.0906 9.46523 60.5187 9.48108 60.8358C9.52865 63.658 9.51279 66.4961 9.51279 69.3183C9.51279 69.4927 9.46523 69.6671 9.43352 69.9208C9.19569 69.8098 9.00543 69.7305 8.83102 69.6195C6.10396 67.9547 3.37689 66.29 0.649826 64.641C0.19003 64.3715 0.015625 64.0544 0.015625 63.5153C0.0473351 60.7883 0.03148 58.0771 0.03148 55.35C0.015625 55.128 0.015625 54.906 0.015625 54.5414Z" fill="#333333"/>
<path d="M11.5586 69.9682C11.5586 66.8131 11.5586 63.7848 11.5744 60.7406C11.5744 60.5186 11.7171 60.2174 11.8915 60.1064C14.8723 58.2672 17.8689 56.4439 20.9606 54.5571C20.9924 54.8742 21.0241 55.0962 21.0241 55.3023C21.0241 58.0769 21.0399 60.8516 21.0082 63.6104C21.0082 63.9116 20.8179 64.3397 20.5801 64.4982C17.7104 66.2899 14.8247 68.0339 11.9391 69.7938C11.8598 69.8731 11.7647 69.8889 11.5586 69.9682Z" fill="#333333"/>
<path d="M49.9434 7.53113C51.6716 8.57756 53.273 9.54472 54.8743 10.5119C56.222 11.3363 57.5856 12.1449 58.9174 12.9853C59.1393 13.128 59.393 13.4451 59.393 13.6829C59.4247 16.6953 59.4089 19.6919 59.4089 22.7044C59.4089 22.752 59.3772 22.7995 59.3138 22.9105C59.0918 22.7837 58.854 22.6885 58.632 22.5458C55.9366 20.8969 53.2254 19.2639 50.5301 17.5991C50.2764 17.4405 49.9751 17.1234 49.9593 16.8697C49.9276 13.8256 49.9434 10.7656 49.9434 7.53113Z" fill="#333333"/>
<path d="M36.4824 47.5019C36.4824 44.3309 36.4824 41.2867 36.4983 38.2584C36.4983 38.0523 36.6568 37.751 36.8312 37.6401C39.7803 35.8326 42.7293 34.041 45.6784 32.2335C45.7259 32.2018 45.7735 32.2176 45.9003 32.2018C45.932 32.392 45.9637 32.5823 45.9637 32.7726C45.9637 35.5472 45.9796 38.3218 45.9479 41.0965C45.9479 41.4294 45.7418 41.8892 45.4881 42.0478C42.6659 43.8077 39.8278 45.5359 36.9739 47.2641C36.8629 47.3433 36.7202 47.3909 36.4824 47.5019Z" fill="#EDBD41"/>
<path d="M49.9451 54.5571C51.8477 55.6987 53.5918 56.761 55.3517 57.8233C56.5408 58.5526 57.7458 59.2661 58.9191 60.0113C59.1252 60.154 59.3789 60.4235 59.3947 60.6455C59.4264 63.7213 59.4106 66.8131 59.4106 69.9999C59.1252 69.8414 58.9191 69.7463 58.7288 69.6353C56.0017 67.9864 53.2747 66.3374 50.5635 64.6568C50.2939 64.4982 49.9927 64.1336 49.9927 63.8482C49.9293 60.804 49.9451 57.7757 49.9451 54.5571Z" fill="#333333"/>
<path d="M70.9677 54.6206C70.9677 57.744 70.9677 60.7882 70.9518 63.8165C70.9518 64.0385 70.8091 64.3397 70.6347 64.4507C67.6857 66.2582 64.7367 68.0498 61.7718 69.8414C61.7401 69.8573 61.6766 69.8414 61.5657 69.8414C61.534 69.6829 61.4864 69.5085 61.4864 69.3499C61.4864 66.5436 61.4705 63.7531 61.5022 60.9468C61.5022 60.6297 61.6925 60.2016 61.9303 60.043C64.8159 58.2514 67.7333 56.4915 70.6506 54.7316C70.6982 54.684 70.7774 54.684 70.9677 54.6206Z" fill="#333333"/>
<path d="M36.7213 13.9367C36.7213 15.6807 36.7372 17.3138 36.7213 18.9468C36.7055 19.9299 36.0871 20.5006 35.2309 20.3104C34.5175 20.1518 34.2796 19.6128 34.2796 18.9468C34.2796 17.5992 34.2796 16.2515 34.2796 14.9038C34.2796 14.6184 34.2796 14.333 34.2796 13.9367C33.8991 13.9367 33.582 13.9367 33.2808 13.9367C30.1415 13.9367 26.9863 13.9208 23.847 13.9525C23.2445 13.9525 23.086 13.7622 23.086 13.1915C23.086 11.495 23.0543 11.495 24.7349 11.495C32.1551 11.495 39.5752 11.5108 47.0112 11.4791C47.7406 11.4791 47.9625 11.6852 47.9467 12.3987C47.915 13.9367 47.9467 13.9367 46.377 13.9367C43.4914 13.9367 40.6216 13.9367 37.736 13.9367C37.4189 13.9367 37.1335 13.9367 36.7213 13.9367Z" fill="#333333"/>
<path d="M34.2625 58.537C34.2625 58.1247 34.2625 57.8393 34.2625 57.554C34.2625 56.238 34.2466 54.9062 34.2625 53.5902C34.2625 52.6548 34.7698 52.0681 35.515 52.0681C36.2285 52.084 36.7042 52.6548 36.72 53.5585C36.7359 54.9379 36.7676 56.3014 36.7042 57.6808C36.6724 58.4101 36.9261 58.5687 37.6079 58.5528C40.7472 58.5211 43.8865 58.5528 47.0416 58.5211C47.7393 58.5211 47.9612 58.7272 47.9295 59.4249C47.8661 61.1689 48.0722 60.9152 46.455 60.9152C38.9556 60.9311 31.4561 60.9152 23.9567 60.9311C23.3225 60.9311 23.0688 60.7567 23.0847 60.0908C23.1322 58.2199 22.9261 58.5528 24.6543 58.537C27.5399 58.5211 30.4097 58.537 33.2953 58.537C33.549 58.537 33.8344 58.537 34.2625 58.537Z" fill="#333333"/>
<path d="M11.7013 37.1802C13.1124 37.1802 14.365 37.1802 15.6334 37.1802C16.5847 37.1802 17.536 37.1643 18.4873 37.1802C19.3752 37.1961 19.9301 37.6876 19.9142 38.4169C19.8984 39.1621 19.3593 39.606 18.4556 39.606C16.5213 39.606 14.6028 39.6536 12.6685 39.5902C11.8757 39.5743 11.6855 39.8439 11.7172 40.589C11.7647 42.0319 11.733 43.4747 11.733 45.1553C10.8927 44.3784 10.1634 44.3625 9.40234 45.1712C9.40234 38.4803 9.40234 31.9797 9.40234 25.3999C9.81458 25.606 10.1475 25.9231 10.4963 25.9231C10.8452 25.9231 11.2098 25.6377 11.7013 25.3999C11.7013 29.3478 11.7013 33.2164 11.7013 37.1802Z" fill="#333333"/>
<path d="M59.2342 37.1961C59.2342 33.2482 59.2342 29.3795 59.2342 25.2889C60.0587 25.9707 60.7722 26.0975 61.5491 25.2731C61.5491 31.948 61.5491 38.4486 61.5491 45.076C60.8673 44.5845 60.138 44.2516 59.3135 45.2029C59.2818 44.7114 59.2342 44.4418 59.2342 44.1723C59.2342 42.9039 59.2184 41.6355 59.2501 40.3671C59.266 39.7804 59.044 39.606 58.4732 39.606C56.523 39.6377 54.5729 39.6219 52.6068 39.6219C51.6238 39.6219 51.0689 39.1938 51.053 38.4328C51.0372 37.6559 51.6238 37.1802 52.6386 37.1802C54.5094 37.1802 56.3803 37.1802 58.2671 37.1802C58.5525 37.1961 58.8379 37.1961 59.2342 37.1961Z" fill="#333333"/>
</g>
<defs>
<clipPath id="clip0">
<rect width="70.9672" height="70" fill="white"/>
</clipPath>
</defs>
</svg>
