<svg width="100" height="75" viewBox="0 0 100 75" fill="none" xmlns="http://www.w3.org/2000/svg">
<g clip-path="url(#clip0)">
<path d="M50.2343 1.22328C47.7038 1.22328 45.5483 2.82303 44.7048 5.0815L13.4021 9.03382C10.6842 9.41023 8.80975 11.8569 9.18463 14.4918C9.46579 16.9385 11.6214 18.8205 14.0581 18.8205C14.2455 18.8205 14.433 18.8205 14.7142 18.8205L16.0262 18.6323L6.56045 46.4868C6.56045 46.5809 6.56045 46.5809 6.46673 46.675H0L0.0937207 48.4629C0.562324 54.2973 5.4358 58.8142 11.2465 58.8142H28.2099C34.0206 58.8142 38.8941 54.2973 39.3627 48.4629L39.4564 46.675H33.3646C33.3646 46.5809 33.3646 46.5809 33.2709 46.4868L23.7113 17.6913L44.3299 15.1505V63.2371H33.6457C30.3655 63.2371 27.7413 65.872 27.7413 69.1656C27.7413 72.4592 30.3655 75.094 33.6457 75.094H66.9166C70.1968 75.094 72.821 72.4592 72.821 69.1656C72.821 65.872 70.1968 63.2371 66.9166 63.2371H56.1387V13.6449L76.1012 11.1041L66.9166 38.2998C66.9166 38.3939 66.9166 38.3939 66.8229 38.488H60.3561L60.4499 40.276C60.9185 46.1104 65.7919 50.6273 71.6026 50.6273H88.5661C94.3768 50.6273 99.2502 46.1104 99.7188 40.276L99.8126 38.488H93.7207C93.7207 38.3939 93.7207 38.3939 93.627 38.2998L84.3486 10.0689L86.5042 9.78664C89.2221 9.41023 91.0965 6.96355 90.7217 4.32867C90.3468 1.59969 87.91 -0.282367 85.2859 0.0940446L55.1078 3.85816C54.0769 2.25841 52.2962 1.22328 50.2343 1.22328ZM35.7076 50.0627C34.6767 53.2622 31.5839 55.6147 28.2099 55.6147H11.2465C7.87254 55.6147 4.77976 53.3563 3.74883 50.0627H35.7076ZM30.3655 46.675H9.55951L19.119 18.1618L20.7123 17.9736L30.3655 46.675ZM66.9166 66.1543C68.5098 66.1543 69.8219 67.4717 69.8219 69.0715C69.8219 70.6712 68.5098 71.9886 66.9166 71.9886H33.6457C32.0525 71.9886 30.7404 70.6712 30.7404 69.0715C30.7404 67.4717 32.0525 66.1543 33.6457 66.1543H44.6111H46.2043H47.7976H52.8585H54.358H55.9513H66.9166ZM96.1575 41.8757C95.1265 45.0752 92.0337 47.4278 88.6598 47.4278H71.6964C68.3224 47.4278 65.2296 45.1693 64.1987 41.8757H96.1575ZM90.8154 38.488H70.0094L79.3814 10.6336L81.4433 10.3513L90.8154 38.488ZM85.6607 3.01123C85.7545 3.01123 85.8482 3.01123 85.9419 3.01123C86.8791 3.01123 87.7226 3.76406 87.91 4.70509C88.0038 5.2697 87.8163 5.74022 87.5351 6.11663C87.1603 6.58714 86.6917 6.86945 86.1293 6.86945L56.1387 10.6336L54.6392 10.8218L53.1396 11.01V12.5156V14.0213V63.2371H47.2352V14.68V13.1743V11.6687L45.7357 11.8569L44.2362 12.0451L14.1518 15.8092C13.5895 15.9033 13.1209 15.7151 12.746 15.4328C12.3711 15.1505 12.09 14.68 11.9963 14.1154C11.9025 13.5508 12.09 13.0802 12.3711 12.7038C12.6523 12.3274 13.1209 12.0451 13.6832 11.951L44.2362 8.09279L45.7357 7.90458L47.2352 7.71638V7.15176C47.2352 6.86945 47.329 6.58714 47.4227 6.30483C47.6101 5.64611 48.0787 4.98739 48.7348 4.61098C49.2034 4.32867 49.672 4.14047 50.2343 4.14047C50.5155 4.14047 50.7966 4.23457 51.0778 4.32867C51.7338 4.51688 52.3899 4.98739 52.7648 5.64611C53.0459 6.02253 53.1396 6.58714 53.2334 7.05766L54.6392 6.86945L56.1387 6.68125L85.6607 3.01123Z" fill="#EDBD41"/>
</g>
<defs>
<clipPath id="clip0">
<rect width="100" height="75" fill="white"/>
</clipPath>
</defs>
</svg>
