<svg width="91" height="70" viewBox="0 0 91 70" fill="none" xmlns="http://www.w3.org/2000/svg">
<g clip-path="url(#clip0)">
<path d="M76.5219 65.4819C76.5219 64.9957 76.5219 64.5297 76.5219 64.0637C76.5219 49.4154 76.5219 34.767 76.5219 20.0984C76.5219 19.7945 76.5219 19.4906 76.5422 19.1867C76.6438 17.8698 77.5172 17.0189 78.7564 17.0391C79.9955 17.0391 80.8893 17.8901 80.9299 19.2272C80.9706 21.2533 80.9502 23.2793 80.9502 25.3054C80.9502 38.3329 80.9502 51.3604 80.9502 64.4081C80.9502 64.7323 80.9706 65.0767 81.0112 65.563C82.1284 65.563 83.1847 65.563 84.2614 65.563C85.5411 65.563 86.8412 65.563 88.121 65.563C89.807 65.5832 90.843 66.4139 90.843 67.7714C90.8633 69.1693 89.8273 70 88.06 70C61.5913 70 35.1226 70 8.65394 70C6.62257 70 4.5912 70.0203 2.55984 70C0.934746 69.9798 -0.0199959 69.1693 0.000317746 67.7916C0.0206314 66.4342 0.975373 65.6035 2.60047 65.5832C5.24124 65.563 7.88202 65.5832 10.5228 65.5832C10.7259 65.5832 10.9088 65.5427 11.2135 65.5225C11.2135 65.0767 11.2135 64.6918 11.2135 64.2866C11.2135 56.4863 11.2135 48.686 11.2135 40.8857C11.2135 40.6223 11.2135 40.3387 11.2338 40.0753C11.315 38.9407 12.1276 38.0898 13.2245 37.9885C14.3621 37.8872 15.3574 38.576 15.5809 39.7511C15.6825 40.2779 15.6621 40.8249 15.6621 41.372C15.6621 49.0102 15.6621 56.6281 15.6621 64.2663C15.6621 64.6715 15.6621 65.0565 15.6621 65.5225C19.7655 65.5225 23.7673 65.5225 27.8707 65.5225C27.8707 65.0767 27.8707 64.6715 27.8707 64.2663C27.8707 53.1838 27.8707 42.1216 27.8707 31.0391C27.8707 29.4993 28.5816 28.5471 29.8411 28.4458C31.3037 28.3039 32.299 29.2967 32.3194 30.9783C32.3397 34.4631 32.3194 37.9277 32.3194 41.4125C32.3194 49.0709 32.3194 56.7497 32.3194 64.4081C32.3194 64.7526 32.3194 65.0767 32.3194 65.5022C36.0977 65.5022 39.8354 65.5022 43.6747 65.5022C43.6747 65.0767 43.6747 64.6715 43.6747 64.2866C43.6747 52.8394 43.6747 41.3922 43.6747 29.945C43.6747 29.4791 43.6747 28.9928 43.7153 28.5268C43.8372 27.4125 44.7513 26.6426 45.8482 26.6223C46.9655 26.6223 47.8593 27.3517 48.0218 28.4863C48.0827 28.8915 48.0827 29.2967 48.0827 29.7019C48.0827 41.2504 48.0827 52.7989 48.0827 64.3474C48.0827 64.712 48.0827 65.0767 48.0827 65.5225C52.1455 65.5225 56.1066 65.5225 60.1897 65.5225C60.1897 65.097 60.1897 64.6918 60.1897 64.2866C60.1897 54.6223 60.1897 44.9783 60.1897 35.3141C60.1897 34.9696 60.1694 34.6455 60.21 34.301C60.3116 33.2272 61.1444 32.3966 62.1804 32.3155C63.2977 32.2142 64.2524 32.8626 64.5368 33.9566C64.6384 34.3821 64.6384 34.8278 64.6384 35.2533C64.6384 44.877 64.6384 54.5008 64.6384 64.1245C64.6384 64.55 64.6384 64.9957 64.6384 65.5022C68.5995 65.4819 72.4998 65.4819 76.5219 65.4819Z" fill="#333333"/>
<path d="M76.4199 6.0376C74.9979 6.44281 73.7994 6.8075 72.6009 7.07089C71.9915 7.19245 71.3008 7.2735 70.7321 7.09115C69.8179 6.8075 69.371 6.01734 69.3507 5.04484C69.3304 4.05208 69.9805 3.2214 71.0571 2.91749C73.4541 2.22863 75.8714 1.56004 78.2887 0.891441C79.2029 0.628055 80.117 0.364668 81.0311 0.121543C82.8999 -0.38497 84.1188 0.486231 84.1797 2.41098C84.3219 5.85526 84.4438 9.29954 84.5657 12.7438C84.6063 13.7163 84.2203 14.466 83.3468 14.8914C82.5546 15.2966 81.6608 15.3169 81.0717 14.6686C80.5842 14.1418 80.2389 13.3719 80.1373 12.6628C79.9951 11.5079 80.0967 10.3328 80.0967 9.15772C79.9545 9.07668 79.8123 9.0159 79.6701 8.93485C79.5482 9.15772 79.4669 9.42111 79.3044 9.60345C74.3479 15.4587 69.4117 21.3343 64.4551 27.1896C63.2973 28.5673 62.566 28.7294 60.9206 27.9797C53.7092 24.6773 46.4775 21.3951 39.2662 18.0521C38.6162 17.7482 38.1896 17.8292 37.6411 18.2142C27.0983 25.4472 16.5555 32.6599 6.01273 39.8726C5.91116 39.9537 5.78928 40.0347 5.68771 40.0955C4.26575 41.0477 3.02662 40.9464 2.21407 39.8118C1.42184 38.7178 1.78749 37.4008 3.1485 36.4689C7.25186 33.6527 11.3552 30.8567 15.4383 28.0405C22.4059 23.259 29.3938 18.4978 36.341 13.6961C37.4989 12.8857 38.5552 12.8249 39.835 13.4124C46.8229 16.6541 53.8514 19.835 60.8393 23.0564C61.53 23.3806 61.9159 23.3603 62.4441 22.7322C66.8928 17.424 71.3821 12.136 75.8511 6.84802C75.9933 6.66568 76.1152 6.44281 76.4199 6.0376Z" fill="#EDBD41"/>
</g>
<defs>
<clipPath id="clip0">
<rect width="90.8427" height="70" fill="white"/>
</clipPath>
</defs>
</svg>
