<svg width="129" height="86" viewBox="0 0 129 86" fill="none" xmlns="http://www.w3.org/2000/svg">
<g clip-path="url(#clip0)">
<g opacity="0.35">
<path d="M6.08743 54.2289C7.1178 54.2289 7.89058 53.4593 7.89058 52.5615V40.12C7.89058 39.158 7.0534 38.4526 6.08743 38.4526H2.80314C1.83717 38.3885 1 39.158 1 40.12V52.5615C1 53.4593 1.83717 54.2289 2.80314 54.2289H6.08743ZM1.90157 52.4973V40.12C1.90157 39.6711 2.28796 39.3504 2.80314 39.3504H6.08743C6.60262 39.3504 6.98901 39.7352 6.98901 40.12V52.5615C6.98901 53.0104 6.60262 53.331 6.08743 53.331H2.80314C2.28796 53.331 1.90157 52.9463 1.90157 52.4973Z" fill="#EDBD41"/>
<path d="M18.1293 32.1036C17.0989 32.1036 16.3262 33.0656 16.3262 34.3482V51.9843C16.3262 53.2028 17.1633 54.2289 18.1293 54.2289H21.4136C22.444 54.2289 23.2167 53.2669 23.2167 51.9843V34.3482C23.2167 33.1297 22.3796 32.1036 21.4136 32.1036H18.1293ZM22.3796 34.3482V51.9843C22.3796 52.6898 21.9932 53.2669 21.478 53.2669H18.1937C17.6785 53.2669 17.2921 52.6898 17.2921 51.9843V34.3482C17.2921 33.6428 17.6785 33.0656 18.1937 33.0656H21.478C21.9288 33.0015 22.3796 33.6428 22.3796 34.3482Z" fill="#EDBD41"/>
<path d="M10.4023 59.616H13.6866C14.717 59.616 15.4898 59.0388 15.4898 58.3333V50.1245C15.4898 49.4191 14.717 48.8419 13.6866 48.8419H10.4023C9.37196 48.8419 8.59919 49.4191 8.59919 50.1245V58.3333C8.53479 59.0388 9.37196 59.616 10.4023 59.616ZM9.43636 50.1245C9.43636 49.9963 9.75835 49.7398 10.3379 49.7398H13.6222C14.2018 49.7398 14.5238 49.9963 14.5238 50.1245V58.3333C14.5238 58.4616 14.2018 58.7181 13.6222 58.7181H10.3379C9.75835 58.7181 9.43636 58.4616 9.43636 58.3333V50.1245Z" fill="#EDBD41"/>
<path d="M31.3316 60.5137C32.3619 60.5137 33.1347 59.7441 33.1347 58.8463V46.4048C33.1347 45.4429 32.2975 44.7374 31.3316 44.7374H28.0473C27.0169 44.7374 26.2441 45.507 26.2441 46.4048V58.8463C26.2441 59.8083 27.0813 60.5137 28.0473 60.5137H31.3316ZM27.0813 58.7822V46.4048C27.0813 45.9559 27.4677 45.6353 27.9829 45.6353H31.2672C31.7824 45.6353 32.1687 46.0201 32.1687 46.4048V58.8463C32.1687 59.2952 31.7824 59.6159 31.2672 59.6159H27.9829C27.4677 59.6159 27.0813 59.2311 27.0813 58.7822Z" fill="#EDBD41"/>
<path d="M43.309 38.3884C42.2786 38.3884 41.5059 39.3504 41.5059 40.633V58.2691C41.5059 59.4876 42.343 60.5137 43.309 60.5137H46.5933C47.6237 60.5137 48.3964 59.5517 48.3964 58.2691V40.633C48.3964 39.4145 47.5593 38.3884 46.5933 38.3884H43.309ZM47.5593 40.633V58.2691C47.5593 58.9746 47.1729 59.5517 46.6577 59.5517H43.3734C42.8582 59.5517 42.4718 58.9746 42.4718 58.2691V40.633C42.4718 39.9276 42.8582 39.3504 43.3734 39.3504H46.6577C47.1085 39.2863 47.5593 39.9276 47.5593 40.633Z" fill="#EDBD41"/>
<path d="M35.582 65.8366H38.8663C39.8967 65.8366 40.6694 65.2594 40.6694 64.554V56.4093C40.6694 55.7039 39.8967 55.1267 38.8663 55.1267H35.582C34.5516 55.1267 33.7789 55.7039 33.7789 56.4093V64.6181C33.7145 65.3236 34.5516 65.8366 35.582 65.8366ZM34.616 56.4093C34.616 56.2811 34.938 56.0245 35.5176 56.0245H38.8019C39.3815 56.0245 39.7035 56.2811 39.7035 56.4093V64.6181C39.7035 64.7464 39.3815 65.0029 38.8019 65.0029H35.5176C34.938 65.0029 34.616 64.7464 34.616 64.6181V56.4093Z" fill="#EDBD41"/>
<path d="M56.5112 44.7375C57.5416 44.7375 58.3144 43.9679 58.3144 43.0701V30.5645C58.3144 29.6025 57.4772 28.8971 56.5112 28.8971H53.1625C52.1322 28.8971 51.3594 29.6667 51.3594 30.5645V43.006C51.3594 43.9679 52.1966 44.6734 53.1625 44.6734H56.5112V44.7375ZM52.2609 43.006V30.5645C52.2609 30.1156 52.6473 29.7949 53.1625 29.7949H56.4468C56.962 29.7949 57.3484 30.1797 57.3484 30.5645V43.006C57.3484 43.4549 56.962 43.7755 56.4468 43.7755H53.1625C52.7117 43.7755 52.2609 43.4549 52.2609 43.006Z" fill="#EDBD41"/>
<path d="M68.4887 22.6122C67.4583 22.6122 66.6855 23.5742 66.6855 24.8568V42.4929C66.6855 43.7114 67.5227 44.7375 68.4887 44.7375H71.773C72.8033 44.7375 73.5761 43.7755 73.5761 42.4929V24.8568C73.5761 23.6383 72.7389 22.6122 71.773 22.6122H68.4887ZM72.7389 24.8568V42.4929C72.7389 43.1983 72.3526 43.7755 71.8374 43.7755H68.5531C68.0379 43.7755 67.6515 43.1983 67.6515 42.4929V24.8568C67.6515 24.1513 68.0379 23.5742 68.5531 23.5742H71.8374C72.2882 23.51 72.7389 24.1513 72.7389 24.8568Z" fill="#EDBD41"/>
<path d="M60.7617 50.0604H64.046C65.0764 50.0604 65.8491 49.4832 65.8491 48.7778V40.6331C65.8491 39.9276 65.0764 39.3505 64.046 39.3505H60.7617C59.7313 39.3505 58.9586 39.9276 58.9586 40.6331V48.8419C58.8942 49.5473 59.7313 50.0604 60.7617 50.0604ZM59.8601 40.6331C59.8601 40.5048 60.1821 40.2483 60.7617 40.2483H64.046C64.6256 40.2483 64.9476 40.5048 64.9476 40.6331V48.8419C64.9476 48.9702 64.6256 49.2267 64.046 49.2267H60.7617C60.1821 49.2267 59.8601 48.9702 59.8601 48.8419V40.6331Z" fill="#EDBD41"/>
<path d="M80.4663 58.9104C81.4967 58.9104 82.2695 58.1409 82.2695 57.243V44.8016C82.2695 43.8396 81.4323 43.1342 80.4663 43.1342H77.1821C76.1517 43.1342 75.3789 43.9037 75.3789 44.8016V57.243C75.3789 58.205 76.2161 58.9104 77.1821 58.9104H80.4663ZM76.2805 57.1789V44.8016C76.2805 44.3527 76.6669 44.032 77.1821 44.032H80.4663C80.9815 44.032 81.3679 44.4168 81.3679 44.8016V57.243C81.3679 57.6919 80.9815 58.0126 80.4663 58.0126H77.1821C76.6669 58.0126 76.2805 57.6278 76.2805 57.1789Z" fill="#EDBD41"/>
<path d="M92.5082 36.7852C91.4779 36.7852 90.7051 37.7471 90.7051 39.0297V56.6658C90.7051 57.8843 91.5423 58.9104 92.5082 58.9104H95.7925C96.8229 58.9104 97.5956 57.9485 97.5956 56.6658V39.0297C97.5956 37.8113 96.7585 36.7852 95.7925 36.7852H92.5082ZM96.6941 39.0297V56.6658C96.6941 57.3713 96.3077 57.9485 95.7925 57.9485H92.5082C91.993 57.9485 91.6066 57.3713 91.6066 56.6658V39.0297C91.6066 38.3243 91.993 37.7471 92.5082 37.7471H95.7925C96.3077 37.683 96.6941 38.3243 96.6941 39.0297Z" fill="#EDBD41"/>
<path d="M84.7172 64.2334H88.0015C89.0319 64.2334 89.8046 63.6562 89.8046 62.9507V54.8061C89.8046 54.1006 89.0319 53.5234 88.0015 53.5234H84.7172C83.6868 53.5234 82.9141 54.1006 82.9141 54.8061V63.0149C82.9141 63.7203 83.6868 64.2334 84.7172 64.2334ZM83.8156 54.8061C83.8156 54.6778 84.1376 54.4213 84.7172 54.4213H88.0015C88.5811 54.4213 88.9031 54.6778 88.9031 54.8061V63.0149C88.9031 63.1431 88.5811 63.3996 88.0015 63.3996H84.7172C84.1376 63.3996 83.8156 63.1431 83.8156 63.0149V54.8061Z" fill="#EDBD41"/>
<path d="M106.871 42.8777C107.901 42.8777 108.674 42.1081 108.674 41.2103V28.7689C108.674 27.8069 107.837 27.1014 106.871 27.1014H103.586C102.556 27.1014 101.783 27.871 101.783 28.7689V41.2103C101.783 42.1723 102.62 42.8777 103.586 42.8777H106.871ZM102.62 41.2103V28.7689C102.62 28.3199 103.007 27.9993 103.522 27.9993H106.806C107.321 27.9993 107.708 28.3841 107.708 28.7689V41.2103C107.708 41.6592 107.321 41.9799 106.806 41.9799H103.522C103.071 41.9799 102.62 41.6592 102.62 41.2103Z" fill="#EDBD41"/>
<path d="M118.913 20.8165C117.882 20.8165 117.109 21.7785 117.109 23.0611V40.6972C117.109 41.9157 117.947 42.9418 118.913 42.9418H122.197C123.227 42.9418 124 41.9798 124 40.6972V23.0611C124 21.8426 123.163 20.8165 122.197 20.8165H118.913ZM123.098 23.0611V40.6972C123.098 41.4027 122.712 41.9798 122.197 41.9798H118.913C118.397 41.9798 118.011 41.4027 118.011 40.6972V23.0611C118.011 22.3557 118.397 21.7785 118.913 21.7785H122.197C122.648 21.7144 123.098 22.3557 123.098 23.0611Z" fill="#EDBD41"/>
<path d="M111.122 48.2646H114.406C115.436 48.2646 116.209 47.6875 116.209 46.982V38.7732C116.209 38.0678 115.436 37.4906 114.406 37.4906H111.122C110.091 37.4906 109.318 38.0678 109.318 38.7732V46.982C109.318 47.7516 110.091 48.2646 111.122 48.2646ZM110.22 38.7732C110.22 38.645 110.542 38.3884 111.122 38.3884H114.406C114.985 38.3884 115.307 38.645 115.307 38.7732V46.982C115.307 47.1103 114.985 47.3668 114.406 47.3668H111.122C110.542 47.3668 110.22 47.1103 110.22 46.982V38.7732Z" fill="#EDBD41"/>
</g>
<path d="M88.9427 1.96616L94.6993 31.457L84.4375 26.0756L83.5546 25.6126L83.0889 26.4941L64.0404 62.5552L58.5367 59.6935L77.5166 23.6433L77.5173 23.6421L83.5044 12.2303L83.5063 12.2267L88.9427 1.96616Z" fill="#F7F7F7" stroke="#EDBD41" stroke-width="2"/>
<path d="M46.5727 71.7109L41.1934 82.013L35.3829 52.4749L45.7087 57.8613L46.592 58.322L47.0561 57.4405L66.0392 21.3841L71.6079 24.3029L52.5639 60.3554L52.5637 60.3559L46.5747 71.7071L46.5727 71.7109Z" fill="#F7F7F7" stroke="#EDBD41" stroke-width="2"/>
</g>
<defs>
<clipPath id="clip0">
<rect width="129" height="86" fill="white"/>
</clipPath>
</defs>
</svg>
