<svg width="47" height="85" viewBox="0 0 47 85" fill="none" xmlns="http://www.w3.org/2000/svg">
<g clip-path="url(#clip0)">
<path d="M37.9689 84.3131C37.9689 84.3131 46.2512 84.3131 46.2512 76.7107V8.28938C46.2512 0.687012 37.9689 0.687012 37.9689 0.687012H9.03043C9.03043 0.687012 0.748047 0.687012 0.748047 8.28938V76.7107C0.748047 84.3131 9.03043 84.3131 9.03043 84.3131H37.9689ZM23.4996 81.1531C21.2045 81.1531 19.4083 79.4586 19.4083 77.3519C19.4083 75.2452 21.2544 73.5507 23.4996 73.5507C25.7948 73.5507 27.6408 75.2452 27.6408 77.3519C27.6408 79.4586 25.7449 81.1531 23.4996 81.1531ZM4.88923 8.28938H23.4996H42.11L42.11 70.8944H4.88924L4.88923 8.28938Z" stroke="#EDBD41" stroke-width="2" stroke-miterlimit="10"/>
<g clip-path="url(#clip1)">
<path d="M10.657 49.0001C10.5256 49.0001 10.4271 48.9678 10.2957 48.9032C10.0001 48.7093 9.90155 48.3215 10.0986 47.9983L19.0986 34.2964C19.23 34.1025 19.4271 34.0055 19.6242 34.0055C19.8213 34.0055 20.0512 34.1025 20.1826 34.264L27.2118 43.9588L34.8322 31.3233C35.0293 31.0324 35.4234 30.9032 35.7191 31.0971C36.0475 31.2587 36.1461 31.6788 35.949 31.9696L27.803 45.4777C27.7045 45.6716 27.4745 45.7685 27.2775 45.8008C27.0475 45.8332 26.8505 45.7039 26.7191 45.5423L19.657 35.8152L11.1826 48.7416C11.084 48.9032 10.8541 49.0001 10.657 49.0001Z" fill="#EDBD41"/>
<path d="M36.3431 37.2371C36.0475 37.2371 35.7518 37.0109 35.6861 36.7201L34.865 32.519L30.4307 34.0702C30.1022 34.1994 29.7081 34.0055 29.6095 33.6824C29.4781 33.3592 29.6752 32.9714 30.0037 32.8745L35.1606 31.0648C35.3248 31.0001 35.5219 31.0325 35.719 31.0971C35.8832 31.194 36.0146 31.3556 36.0475 31.5172L37.0329 36.4292C37.0986 36.7847 36.8686 37.1079 36.5073 37.1725C36.4088 37.2371 36.3759 37.2371 36.3431 37.2371Z" fill="#EDBD41"/>
</g>
</g>
<defs>
<clipPath id="clip0">
<rect width="47" height="85" fill="white"/>
</clipPath>
<clipPath id="clip1">
<rect width="27" height="18" fill="white" transform="translate(10 31)"/>
</clipPath>
</defs>
</svg>
