<svg width="42" height="70" viewBox="0 0 42 70" fill="none" xmlns="http://www.w3.org/2000/svg">
<g clip-path="url(#clip0)">
<path d="M3.71741 0C15.1061 0 26.5084 0 37.8971 0C37.9518 0.0273438 38.0065 0.0820312 38.0748 0.0957031C40.4264 0.765625 41.5885 2.31055 41.5885 4.73047C41.5885 13.1113 41.5885 21.4922 41.5885 29.873C41.5885 41.7402 41.5885 53.6074 41.5885 65.4746C41.5885 67.1016 40.9323 68.4004 39.5651 69.2754C39.0592 69.6035 38.4576 69.7676 37.8971 70C26.5084 70 15.1061 70 3.71741 70C0.846321 69.1934 -0.0286792 67.2246 -0.00133543 64.5859C0.0806958 56.2461 0.0260083 47.9199 0.0260083 39.5801C0.0260083 27.8906 0.0260083 16.2148 0.0260083 4.52539C0.0260083 2.74805 0.791633 1.42188 2.33656 0.546875C2.76038 0.314453 3.25257 0.177734 3.71741 0ZM13.151 59.0352C13.151 55.877 13.151 52.7734 13.151 49.6836C13.151 47.0449 13.151 44.3926 13.151 41.7539C13.151 40.9336 13.6295 40.4277 14.3131 40.4688C14.9694 40.5234 15.3248 41.002 15.3248 41.8359C15.3248 47.3047 15.3248 52.7734 15.3248 58.2422C15.3248 58.502 15.3248 58.7617 15.3248 59.0215C16.1041 59.0215 16.7741 59.0215 17.5123 59.0215C17.5123 58.7207 17.5123 58.4473 17.5123 58.1875C17.5123 51.1465 17.5123 44.1055 17.5123 37.0645C17.5123 35.6699 17.4987 34.2891 17.5123 32.8945C17.526 32.1973 17.9635 31.7324 18.5787 31.7188C19.2213 31.7051 19.6725 32.1699 19.6998 32.9219C19.6998 33.0859 19.6998 33.2363 19.6998 33.4004C19.6998 41.6445 19.6998 49.8887 19.6998 58.1465C19.6998 58.4336 19.6998 58.7207 19.6998 59.0215C20.4655 59.0215 21.1627 59.0215 21.8873 59.0215C21.8873 58.7754 21.8873 58.5703 21.8873 58.3652C21.8873 53.416 21.8873 48.4805 21.8873 43.5312C21.8873 41.4531 21.8873 39.3887 21.8873 37.3105C21.8873 36.5586 22.3385 36.0938 22.9811 36.0938C23.6237 36.0938 24.0475 36.5723 24.0612 37.3242C24.0612 37.4336 24.0612 37.5566 24.0612 37.666C24.0612 44.5293 24.0612 51.3789 24.0612 58.2422C24.0612 58.502 24.0612 58.7617 24.0612 59.0215C24.8405 59.0215 25.5104 59.0215 26.2487 59.0215C26.2487 58.8164 26.2487 58.6387 26.2487 58.4609C26.2487 51.1465 26.2487 43.832 26.2487 36.5176C26.2487 34.7676 26.2487 33.0039 26.2487 31.2539C26.2487 30.5703 26.6451 30.1328 27.233 30.0781C27.7662 30.0234 28.2858 30.3926 28.3951 30.9258C28.4362 31.1445 28.4225 31.377 28.4225 31.6094C28.4225 40.5234 28.4225 49.4238 28.4225 58.3379C28.4225 58.5566 28.4225 58.7754 28.4225 59.0215C32.1002 59.0215 35.7096 59.0215 39.3053 59.0215C39.3053 42.9707 39.3053 26.9746 39.3053 10.9785C26.9186 10.9785 14.5729 10.9785 2.21351 10.9785C2.21351 27.0156 2.21351 43.0117 2.21351 59.0488C5.89124 59.0352 9.47327 59.0352 13.151 59.0352ZM20.8073 63.4375C19.0573 63.4375 17.3073 63.4375 15.5573 63.4375C14.7369 63.4375 14.2721 63.8477 14.2584 64.5176C14.2448 65.1875 14.7369 65.6113 15.5299 65.6113C19.0299 65.6113 22.5299 65.6113 26.0299 65.6113C26.8639 65.6113 27.3834 65.1738 27.3698 64.4902C27.3561 63.834 26.8776 63.4238 26.0573 63.4238C24.3073 63.4375 22.5573 63.4375 20.8073 63.4375ZM17.526 6.5625C17.6901 6.5625 17.8405 6.5625 18.0045 6.5625C19.276 6.5625 20.5612 6.57617 21.8326 6.5625C22.5983 6.54883 23.3092 5.74219 22.9264 5.31836C22.5299 4.86719 22.1061 4.36133 21.3541 4.375C18.7155 4.40234 16.0768 4.38867 13.4244 4.38867C12.5631 4.38867 12.0573 4.78516 12.0573 5.46875C12.0573 6.13867 12.5768 6.5625 13.4108 6.57617C14.7916 6.5625 16.1588 6.5625 17.526 6.5625ZM27.3424 6.5625C27.7252 6.5625 28.108 6.58984 28.5045 6.5625C29.1471 6.52148 29.5709 6.05664 29.5709 5.45508C29.5573 4.86719 29.1198 4.40234 28.4772 4.38867C27.7526 4.36133 27.028 4.36133 26.3034 4.38867C25.6608 4.41602 25.2233 4.86719 25.2096 5.45508C25.1959 6.04297 25.6334 6.50781 26.276 6.5625C26.6041 6.57617 26.9733 6.5625 27.3424 6.5625Z" fill="#333333"/>
<path d="M29.709 19.6738C29.4902 18.457 30.3105 17.4726 31.377 17.3632C32.5117 17.2539 33.5371 18.0468 33.6602 19.1269C33.7969 20.248 33.0312 21.2324 31.9102 21.4511C31.541 21.5195 31.1309 21.6835 30.8438 21.9296C29.5039 23.0507 28.1777 24.2128 26.8789 25.3886C26.6602 25.58 26.4961 25.8808 26.4414 26.1679C26.2363 27.1113 25.498 27.8085 24.5684 27.8769C23.625 27.9453 22.8184 27.371 22.4492 26.4687C22.3398 26.1816 22.1074 25.8808 21.8613 25.7168C20.6855 24.9375 19.4824 24.1992 18.2793 23.4609C17.6094 23.0371 17.2539 23.1054 16.7754 23.707C15.2852 25.58 13.7812 27.4394 12.3184 29.3261C12.1406 29.5585 12.0449 29.9277 12.0586 30.2285C12.127 31.3769 11.3203 32.4023 10.1855 32.5117C9.09179 32.621 8.05273 31.7597 7.95703 30.666C7.86133 29.4902 8.6543 28.5468 9.83008 28.3964C10.0625 28.3691 10.3496 28.2324 10.4863 28.0546C12.0039 26.1816 13.5078 24.2949 14.998 22.3945C15.1348 22.2168 15.2168 21.9023 15.1895 21.6699C15.0391 20.371 15.7363 19.332 16.9121 19.1543C18.0742 18.9765 19.0723 19.8105 19.2773 21.082C19.3184 21.3281 19.4961 21.6152 19.7012 21.7519C20.7402 22.4492 21.8203 23.0918 22.873 23.7617C23.1465 23.9394 23.3789 24.0488 23.7344 23.8574C23.9668 23.7207 24.3359 23.666 24.5957 23.7617C25.1426 23.9531 25.4707 23.7207 25.8398 23.3789C26.9336 22.3945 28.082 21.4375 29.1758 20.4531C29.4082 20.248 29.5312 19.9335 29.709 19.6738Z" fill="#EDBD41"/>
</g>
<defs>
<clipPath id="clip0">
<rect width="41.5898" height="70" fill="white"/>
</clipPath>
</defs>
</svg>
