<svg width="106" height="70" viewBox="0 0 106 70" fill="none" xmlns="http://www.w3.org/2000/svg">
<path d="M106 18.0652C106 16.4474 105.524 14.8089 104.468 13.4607L96.0832 2.6963C94.6754 0.912592 92.543 0 90.3898 0C89.127 0 87.8227 0.331852 86.684 1.03704L78.4855 6.13926C77.616 6.69926 76.1461 7.07259 74.7176 7.05185C73.5996 7.05185 72.5437 6.84444 71.8398 6.49185L63.8277 2.59259C62.5234 1.99111 61.0742 1.72148 59.625 1.72148C57.534 1.72148 55.443 2.24 53.7453 3.42222L52.8137 4.08593C52.0684 3.71259 50.9297 3.15259 49.6254 2.48889C48.0727 1.72148 46.2508 1.41037 44.4082 1.41037C42.752 1.41037 41.075 1.68 39.6051 2.28148L34.1395 4.62519C33.2492 5.01926 31.8414 5.26815 30.4336 5.24741C29.0258 5.24741 27.618 4.99852 26.7277 4.62519L21.2621 2.28148C20.2684 1.84593 19.1918 1.68 18.1359 1.68C16.9145 1.68 15.7137 1.92889 14.5957 2.38519C13.4777 2.84148 12.4219 3.52593 11.5938 4.45926L1.65625 15.6178C0.558984 16.8622 0 18.397 0 19.9319C0 21.757 0.786719 23.5822 2.27734 24.8681L11.573 32.8119L7.16328 37.4163C5.9418 38.6815 5.34141 40.3407 5.34141 41.9585C5.34141 43.68 6.02461 45.443 7.39102 46.7289L8.28125 47.5793C9.13008 48.3881 10.1445 48.8859 11.2004 49.1556C10.6621 50.1304 10.3723 51.2089 10.3723 52.2874C10.3723 54.0296 11.0555 55.7719 12.4219 57.0578L13.3121 57.9081C14.5957 59.1111 16.2313 59.7333 17.8668 59.7126C18.7363 59.7126 19.6266 59.5467 20.434 59.1941C20.7238 60.3763 21.3242 61.4963 22.2559 62.3881L23.1461 63.2385C24.4297 64.4415 26.0652 65.0637 27.7008 65.043C28.9844 65.043 30.268 64.6696 31.3652 63.9437C31.6965 64.9807 32.2348 65.9763 33.0836 66.7644L33.9738 67.6148C35.2367 68.8178 36.893 69.44 38.5285 69.4193C40.2676 69.4193 42.0066 68.7348 43.3109 67.3867L47.2031 63.3215L52.4824 68.2163C53.7453 69.3985 55.3809 69.9793 56.975 69.9793C58.7348 69.9793 60.5152 69.2741 61.8195 67.8844L62.6684 66.9718C63.393 66.1837 63.8691 65.2504 64.159 64.2963L66.2086 66.1837C67.4715 67.3452 69.107 67.9467 70.7012 67.9467C72.4609 67.9467 74.2414 67.2415 75.5457 65.8519L76.3945 64.9393C77.3676 63.9022 77.9059 62.6163 78.0715 61.3096C78.6098 61.4548 79.1687 61.5378 79.707 61.5378C81.4668 61.5378 83.2473 60.8326 84.5516 59.443L85.4004 58.5304C86.5805 57.2652 87.1602 55.6474 87.1602 54.0504C87.1602 53.5526 87.098 53.0548 86.9738 52.5778C88.4437 52.3911 89.8516 51.7274 90.9281 50.5659L91.7769 49.6533C92.957 48.3881 93.5367 46.7704 93.5367 45.1733C93.5367 43.4104 92.8328 41.6474 91.425 40.3407L89.8516 38.8889L104.095 23.1052C105.4 21.6948 106 19.8696 106 18.0652ZM9.87539 44.1156C9.2543 43.5348 8.94375 42.7467 8.94375 41.9378C8.94375 41.1911 9.21289 40.4444 9.77188 39.8844L18.7984 30.4474C19.3781 29.8252 20.1648 29.5348 20.9723 29.5141C21.7176 29.5141 22.4629 29.7837 23.0426 30.3437L23.9328 31.1941C23.9328 31.1941 24.8645 32.563 24.8645 33.3718C24.8645 33.9733 24.6781 34.5541 24.3262 35.0726C24.3055 35.0933 14.5957 45.2356 14.5957 45.2356C14.0781 45.6089 13.4777 45.7956 12.8566 45.7956C12.1113 45.7956 11.366 45.5259 10.7863 44.9659L9.87539 44.1156ZM17.8668 56.1244C17.1215 56.1244 16.3762 55.8548 15.7965 55.2948L14.9062 54.4444C14.2852 53.8637 13.9746 53.0756 13.9746 52.2667C13.9746 51.52 14.2437 50.7733 14.8027 50.2133C14.8027 50.2133 26.8313 37.6652 26.9348 37.5615C27.5145 37.0015 28.2598 36.7318 29.0051 36.7111C29.7504 36.7111 30.4957 36.9807 31.0754 37.5407L31.9656 38.3911C32.5867 38.9719 32.8973 39.76 32.8973 40.5689C32.8973 41.3156 32.6281 42.0622 32.0691 42.643L20.0406 55.2326C19.4609 55.8133 18.6742 56.1244 17.8668 56.1244ZM27.7215 61.4548C26.9762 61.4548 26.2309 61.1852 25.6512 60.6252L24.7609 59.7748C24.1398 59.1941 23.8293 58.4059 23.8293 57.597C23.8293 56.9333 24.057 56.2696 24.4918 55.7304L32.8766 46.9778C33.4355 46.4593 34.1395 46.1896 34.8848 46.1896C35.6301 46.1896 36.3754 46.4593 36.9551 47.0193L37.8453 47.8696C38.4664 48.4504 38.777 49.2385 38.777 50.0267C38.777 50.7733 38.5078 51.52 37.9488 52.1007L29.8953 60.5215C29.3156 61.1437 28.5289 61.4548 27.7215 61.4548ZM40.723 64.9185C40.1434 65.5407 39.3566 65.8311 38.5492 65.8311C37.8039 65.8311 37.0586 65.5615 36.4789 65.0015L35.5887 64.1511C34.9676 63.5704 34.657 62.7822 34.657 61.9733C34.657 61.2267 34.9262 60.48 35.4852 59.92L40.5574 54.6104C41.1371 53.9881 41.9238 53.6978 42.7312 53.6978C43.4766 53.6978 44.2219 53.9674 44.8016 54.5274L45.6918 55.3778C46.3129 55.9585 46.6027 56.7467 46.6234 57.5348C46.6234 58.2815 46.3543 59.0281 45.7953 59.6089L40.723 64.9185ZM89.1684 47.2267L88.3195 48.1393C87.7398 48.7615 86.9324 49.0933 86.125 49.0933C85.3797 49.0933 84.6551 48.8237 84.0754 48.3052L69.8938 35.1556L67.4301 37.7896L82.6262 51.8933C83.268 52.4741 83.5785 53.283 83.5785 54.0918C83.5785 54.8385 83.3094 55.5644 82.7711 56.1244L81.9223 57.037C81.3426 57.6593 80.5352 57.9911 79.7277 57.9911C78.9824 57.9911 78.2578 57.7215 77.6988 57.203L63.4965 44.0533L61.0535 46.6874L73.641 58.3644C74.2414 58.9452 74.552 59.7333 74.552 60.5215C74.552 61.2681 74.2828 61.9733 73.7652 62.5541L72.9164 63.4667C72.3367 64.0889 71.5293 64.4207 70.7219 64.4207C69.9766 64.4207 69.252 64.1511 68.6723 63.6326L56.1055 51.9556L53.6625 54.5896L53.7039 54.6311L59.9977 60.4593C60.5566 61.04 60.8465 61.7659 60.8465 62.5333C60.8465 63.2593 60.5773 63.9852 60.0598 64.5659L59.2109 65.4785C58.6312 66.1007 57.8238 66.4326 57.0164 66.4326C56.2711 66.4326 55.5465 66.163 54.9875 65.6444L49.5012 60.563C49.9773 59.6296 50.2465 58.6133 50.2465 57.597C50.2465 55.8756 49.5633 54.1126 48.1969 52.8267L47.3066 51.9763C46.0438 50.7733 44.3875 50.1511 42.752 50.1718C42.6277 50.1718 42.5035 50.1926 42.3793 50.2133C42.3793 50.1926 42.3793 50.1511 42.3793 50.1304C42.3793 48.4089 40.3297 45.36 40.3297 45.36L39.4395 44.5096C38.4871 43.597 37.3277 43.037 36.1062 42.8089C36.3547 42.1037 36.4996 41.357 36.4996 40.6311C36.4996 38.9096 35.8164 37.1467 34.45 35.8607L33.5598 35.0104C32.2762 33.8074 30.6406 33.1852 29.0051 33.1852C28.8188 33.1852 28.6324 33.2267 28.4461 33.2474C28.4047 31.5881 27.7215 29.9289 26.4172 28.6844L25.527 27.8341C24.2434 26.6311 22.6078 26.0089 20.9723 26.0089C19.2332 26.0089 17.4941 26.6933 16.1898 28.0415L14.0574 30.2607L4.6168 22.1926C3.93359 21.6119 3.60234 20.803 3.60234 19.9733C3.60234 19.2889 3.83008 18.6044 4.34766 18.0444L14.3059 6.84444C14.6992 6.40889 15.2789 5.99407 15.9621 5.72444C16.6453 5.45481 17.432 5.28889 18.1566 5.28889C18.7984 5.28889 19.3781 5.41333 19.8543 5.6L25.3199 7.9437C26.852 8.58667 28.6531 8.8563 30.4543 8.87704C32.2555 8.87704 34.0359 8.60741 35.5887 7.9437L41.0336 5.6C41.8824 5.22667 43.1453 4.99852 44.4082 4.99852C45.7953 4.99852 47.2031 5.28889 48.0105 5.7037C48.5281 5.95259 49.025 6.20148 49.4598 6.42963L43.9113 10.3704C42.1309 11.6356 41.1578 13.6267 41.1578 15.6593C41.1578 17.0074 41.5719 18.3556 42.4414 19.517L43.1867 20.5126C44.5738 22.3793 46.7684 23.3333 48.9422 23.3333C50.1637 23.3333 51.4266 23.0222 52.5445 22.3585L55.8777 20.3467C56.5609 19.9319 57.5754 19.6622 58.652 19.6622C59.8941 19.6622 61.157 20.0148 61.9023 20.5748L71.1152 27.1911C73.1648 28.6637 76.498 31.4015 78.3613 33.1022L89.0234 42.9748C89.6652 43.5556 89.9758 44.3644 89.9758 45.1733C89.9551 45.9407 89.6859 46.6667 89.1684 47.2267ZM101.445 20.72L87.243 36.4622L80.7836 30.4889C78.7547 28.6222 75.4215 25.8844 73.1855 24.2874L63.9727 17.6711C62.4199 16.5718 60.4945 16.0741 58.6105 16.0741C56.9957 16.0741 55.3809 16.4267 53.973 17.2563L50.6398 19.2681C50.1223 19.5793 49.5219 19.7244 48.9008 19.7244C47.7828 19.7244 46.6648 19.2059 46.0437 18.3556L45.3191 17.36C44.9258 16.8415 44.7395 16.24 44.7395 15.6385C44.7395 14.7259 45.1535 13.8548 45.9609 13.2741L55.8156 6.34667C56.6645 5.72444 58.1758 5.28889 59.625 5.30963C60.6188 5.30963 61.5711 5.4963 62.2336 5.82815L70.2457 9.72741C71.6121 10.3911 73.1648 10.6607 74.7176 10.6607C76.7051 10.6607 78.734 10.2252 80.3902 9.18815L88.5887 4.08593C89.1062 3.75407 89.748 3.58815 90.3898 3.58815C91.4871 3.58815 92.6051 4.08593 93.2262 4.91556L101.632 15.68C102.108 16.3022 102.398 17.1733 102.398 18.0652C102.398 19.0815 102.046 20.077 101.445 20.72Z" fill="#EDBD41"/>
</svg>
