<svg width="88" height="70" viewBox="0 0 88 70" fill="none" xmlns="http://www.w3.org/2000/svg">
<g clip-path="url(#clip0)">
<path d="M74.6321 11.2022C77.0497 14.3211 79.0613 17.7353 80.9253 21.2418C83.5274 26.1693 85.8343 31.2075 87.4214 36.5595C87.6429 37.2792 87.4953 37.759 86.997 38.2758C84.5424 40.8595 81.4605 42.2805 78.0094 42.7234C75.6287 43.0372 73.1741 42.908 70.7565 42.9449C70.4613 42.9449 70.1106 42.7419 69.8891 42.5389C62.8209 36.135 55.7526 29.7495 48.7212 23.3272C48.1306 22.792 47.6508 22.1461 47.171 21.5186C46.4881 20.5958 46.0637 20.4851 44.8641 20.8358C42.4834 21.5186 40.1211 22.3491 37.6851 22.7366C35.5997 23.0688 33.3666 23.1057 31.2812 22.8104C28.4576 22.386 26.2799 20.6512 24.7665 18.2336C23.5854 16.3512 24.2498 14.9855 26.3537 14.3027C31.2443 12.6971 36.1349 11.0915 40.9885 9.33826C43.5169 8.41551 45.916 8.28632 48.4259 9.2829C52.9474 11.0546 57.4689 12.7709 62.0088 14.4688C62.4518 14.6349 63.0423 14.6533 63.5037 14.5241C67.1763 13.4168 70.8488 12.3095 74.6321 11.2022Z" fill="#EDBD41"/>
<path d="M15.2806 36.6701C17.7351 35.4336 19.5622 35.5443 21.1124 36.9838C22.7364 38.4787 22.921 40.2135 21.666 43.2032C24.139 42.7418 26.1137 43.4247 27.1841 45.75C28.0699 47.6878 27.5532 49.4595 25.9661 51.1204C26.4828 51.1204 26.8334 51.1204 27.1656 51.1204C29.1403 51.102 30.5245 52.0432 31.318 53.7964C32.0747 55.4758 31.8717 57.1552 30.5798 58.5024C28.882 60.2741 27.0918 61.972 25.2832 63.6329C24.2128 64.6295 22.1828 64.6111 21.0201 63.5591C14.284 57.5059 8.28612 50.8436 4.13374 42.6865C2.69424 39.8628 2.84188 38.6448 4.98267 36.3195C5.81315 35.4152 6.69899 34.5662 7.56638 33.6804C8.83977 32.3885 10.3531 31.9272 12.1063 32.4808C13.8226 33.016 14.7638 34.271 15.0591 36.0242C15.096 36.2087 15.1329 36.3748 15.1699 36.5594C15.1883 36.5963 15.2252 36.6147 15.2806 36.6701Z" fill="#EDBD41"/>
<path d="M70.8676 46.0085C71.7904 46.0085 72.6762 46.0085 73.5252 46.0085C74.7801 50.1055 72.0672 54.9223 67.7672 56.2326C67.1028 56.4356 66.8075 56.694 66.6045 57.3953C65.8294 60.3112 62.5813 62.9872 59.5547 63.264C58.798 63.3378 58.4289 63.5408 58.1152 64.3159C57.1555 66.6228 55.1439 67.6563 52.874 68.2653C50.6594 68.8374 48.5001 68.6529 46.3778 67.7855C46.1194 67.6747 45.6027 67.6932 45.4366 67.8593C42.7422 70.5537 38.9958 70.4984 35.9692 68.8928C34.8618 68.3022 33.8284 67.5456 32.8872 66.7335C31.7799 65.7739 30.8017 64.6481 29.7129 63.5593C30.3219 62.9502 30.9125 62.3597 31.706 61.5661C32.3335 62.249 32.8503 62.9872 33.5146 63.5408C34.7511 64.5927 35.9692 65.7185 37.3717 66.4936C40.2507 68.0623 42.5207 67.3979 44.643 64.5743C44.44 64.3528 44.2186 64.0945 43.9971 63.8545C41.0812 60.8095 38.1468 57.7828 35.2679 54.7193C34.9172 54.3502 34.6035 53.7596 34.6404 53.2983C34.6773 52.8922 35.1756 52.3017 35.5631 52.2094C35.9876 52.0987 36.6704 52.3386 37.0026 52.6523C38.5713 54.1841 40.0477 55.7897 41.561 57.3584C43.9417 59.8498 46.3593 62.3043 48.7031 64.8327C49.8843 66.1061 51.2315 66.0507 52.671 65.534C54.1105 65.0172 55.4946 64.4082 55.8268 62.655C55.956 62.009 55.8268 61.5108 55.31 61.0125C50.1795 55.9189 45.1044 50.7884 39.9924 45.6579C39.8263 45.4918 39.6417 45.3257 39.4756 45.1411C38.922 44.4952 38.922 43.8308 39.4572 43.2587C40.0293 42.6681 40.7859 42.6312 41.4134 43.2402C43.1666 44.975 44.9014 46.7098 46.6362 48.463C50.3456 52.191 54.0736 55.9004 57.7646 59.6468C58.5028 60.4035 59.2041 60.5326 60.1453 60.2558C61.7878 59.7575 63.0058 58.7425 63.7994 57.2292C64.0946 56.6571 64.15 56.1588 63.6517 55.642C62.4337 54.3871 61.2526 53.0952 60.0345 51.8218C55.1993 46.8205 50.3641 41.8377 45.5473 36.8179C45.1782 36.4303 44.8276 35.729 44.9014 35.2492C45.0859 34.0865 46.4332 33.8651 47.319 34.7878C49.4967 37.0024 51.6375 39.2355 53.8152 41.4686C57.4693 45.2518 61.1234 49.0167 64.7959 52.8C65.811 53.8519 66.42 53.9442 67.7487 53.2983C70.1848 52.1171 71.4767 49.5703 71.0337 46.8944C70.9599 46.6175 70.923 46.3222 70.8676 46.0085Z" fill="#333333"/>
<path d="M3.30339 34.0496C0.387494 30.0817 -0.350708 25.8186 0.147578 21.3156C0.645865 16.6096 1.84544 12.0881 4.33687 7.99105C6.44075 4.55841 9.1721 1.79016 12.8816 0.110746C13.1953 -0.0368947 13.6751 -0.0553498 13.9704 0.0922906C20.079 3.0451 26.1692 6.03482 32.2594 9.02454C32.3701 9.0799 32.4624 9.15372 32.7023 9.28291C31.5027 9.68892 30.4139 10.0765 29.325 10.3902C29.0851 10.464 28.7529 10.2795 28.4761 10.1503C23.7331 7.82496 19.0086 5.49962 14.2841 3.13737C13.749 2.879 13.3614 2.879 12.8447 3.17428C9.85493 4.92751 7.65878 7.41895 6.10856 10.4456C3.72786 15.0962 2.52828 20.0422 2.82356 25.2834C2.93429 27.2766 3.46949 29.1775 4.53988 30.8569C5.09353 31.7427 5.03817 32.2964 4.2446 32.9238C3.89395 33.2006 3.65404 33.6251 3.30339 34.0496Z" fill="#333333"/>
</g>
<defs>
<clipPath id="clip0">
<rect width="87.5138" height="70" fill="white"/>
</clipPath>
</defs>
</svg>
