<svg width="57" height="77" viewBox="0 0 57 77" fill="none" xmlns="http://www.w3.org/2000/svg">
<path d="M55.208 14.7991C34.8269 8.67919 30.5715 1.22399 30.5715 1.22399C30.1235 0.445087 29.3397 0 28.5558 0C27.7719 0 26.876 0.445087 26.5401 1.22399L55.208 14.7991ZM55.208 14.7991C56.1039 15.0217 56.6638 15.8006 56.7758 16.6908L55.208 14.7991ZM28.5558 1C28.9617 1 29.4249 1.23607 29.7046 1.72252L29.7049 1.72295L29.7071 1.72686L29.7129 1.73671L29.7294 1.76436C29.7427 1.7863 29.7607 1.81521 29.7836 1.85082C29.8295 1.92204 29.8953 2.01999 29.984 2.14253C30.1614 2.38764 30.4299 2.73076 30.8126 3.15464C31.5783 4.00266 32.7991 5.17176 34.6583 6.52508C38.3765 9.23154 44.6419 12.6705 54.9204 15.7569L54.9435 15.7638L54.9669 15.7696C55.3801 15.8723 55.7104 16.2444 55.7831 16.8113C55.7854 16.8432 55.7882 16.8809 55.7914 16.9244C55.9142 18.5762 56.6524 28.5076 54.036 40.2577C51.2139 52.9311 44.5238 67.522 29.0867 75.8985L29.048 75.9195L29.0114 75.9438C28.9844 75.9617 28.9591 75.9738 28.8946 75.9837C28.8022 75.9978 28.6868 76 28.4438 76C28.2867 76 28.0026 75.942 27.7199 75.8543C12.3974 67.4713 5.75323 52.9104 2.94982 40.2587C0.346542 28.5102 1.085 18.5801 1.20805 16.9253C1.21132 16.8815 1.21415 16.8434 1.21647 16.8113C1.28921 16.2444 1.61944 15.8723 2.03261 15.7696L2.05602 15.7638L2.07912 15.7569C12.358 12.6704 18.6226 9.23154 22.3537 6.52616C24.2197 5.1732 25.4486 4.00609 26.2269 3.16263C26.5862 2.77317 26.8471 2.45534 27.028 2.22399H27.1978L27.4583 1.62004C27.5992 1.29323 28.0688 1 28.5558 1ZM4.29459 17.6274L3.63569 17.8319L3.59305 18.5206C3.36547 22.1952 3.16661 32.1639 6.14627 43.048C9.12709 53.9363 15.3183 65.8366 27.9404 73.1906L28.4434 73.4837L28.9467 73.1909C41.6789 65.7826 47.8995 53.8842 50.8812 43.0066C53.8614 32.1346 53.6339 22.1926 53.4065 18.5206L53.3638 17.8303L52.7029 17.6267C38.3905 13.217 31.938 8.06603 29.1619 5.20146L28.4296 4.44582L27.7122 5.21566C25.0586 8.06328 18.5052 13.2148 4.29459 17.6274Z" stroke="#EDBD41" stroke-width="2"/>
<path d="M28.4679 61C28.2733 61 28.0138 60.935 27.8191 60.8699C9.58932 50.8555 12.1194 26.0145 12.1194 25.7543C12.1843 25.2341 12.5087 24.7789 13.0277 24.6488C24.8349 21.0723 27.3001 16.7153 27.365 16.7153C27.5596 16.2601 28.0786 16 28.5328 16C28.9869 16 29.441 16.2601 29.7005 16.7153C29.7005 16.7153 32.1658 21.0723 43.973 24.6488C44.492 24.7789 44.8164 25.2341 44.8812 25.7543C44.8812 26.0145 47.4113 50.8555 29.1166 60.8699C28.922 61 28.7274 61 28.4679 61ZM14.6496 26.8598C14.3901 31.0867 14.1954 49.8801 28.4679 58.2688C42.8701 49.815 42.6106 31.0867 42.3511 26.8598C33.9823 24.2587 30.1546 21.2023 28.4679 19.4465C26.846 21.2023 22.9535 24.2587 14.6496 26.8598Z" fill="#EDBD41"/>
</svg>
