<svg width="69" height="70" viewBox="0 0 69 70" fill="none" xmlns="http://www.w3.org/2000/svg">
<g clip-path="url(#clip0)">
<path d="M61.4775 31.0285C59.9997 30.4671 58.5501 29.9058 57.016 29.3164C57.1145 28.6007 57.2553 27.8288 57.3116 27.0429C57.4242 25.4992 57.4805 23.9696 57.5508 22.4258C57.5649 22.0329 57.4523 21.8084 57.0019 21.6961C49.7537 19.8858 45.8974 14.2442 45.447 7.31158C45.447 7.21334 45.4189 7.12914 45.3907 6.97477C40.69 6.06258 36.0314 4.92585 31.1336 5.02409C31.1336 24.9659 31.1336 44.8657 31.1336 64.99C33.0477 63.9234 34.8632 62.899 36.6929 61.8745C37.8047 62.913 38.9729 63.9796 40.1551 65.0882C40.1551 65.0742 40.1551 65.1303 40.127 65.1584C37.7485 66.8144 35.3136 68.4142 32.6255 69.5509C32.3862 69.6492 32.1891 69.8597 31.9499 69.9018C31.5277 69.9719 31.0491 70.0842 30.6691 69.9579C28.0654 69.0598 25.7432 67.6283 23.4772 66.0987C13.8927 59.6151 7.24969 50.9002 3.32299 40.01C1.66224 35.407 0.874082 30.6777 0.282966 25.8781C0.184447 25.0922 0.156298 24.2923 0.0577792 23.5064C-0.125185 22.089 0.114076 20.7137 0.423708 19.3384C0.606672 18.5245 1.15557 17.9912 1.94372 17.7246C2.87262 17.4158 3.81559 17.1352 4.75856 16.8545C9.30452 15.4932 12.3586 11.4375 12.3868 6.72216C12.3868 6.11871 12.3727 5.50123 12.3868 4.89778C12.4149 3.71895 12.9497 3.14357 14.1038 2.87693C15.7927 2.48399 17.4394 1.92264 19.1424 1.64197C22.6328 1.05256 26.1232 0.547343 29.6276 0.112299C32.2032 -0.210476 34.7788 0.210535 37.3262 0.631545C40.8307 1.22096 44.3352 1.88054 47.8396 2.49802C49.1908 2.7366 50.0211 3.74702 50.1056 5.12232C50.2041 6.68006 50.1619 8.29393 50.5841 9.76747C51.6537 13.5145 54.2152 15.8862 57.9871 16.9527C59.0005 17.2334 60.0138 17.5281 60.999 17.8649C61.7731 18.1315 62.139 18.8052 62.1531 19.563C62.2798 23.3521 62.2657 27.1412 61.562 30.8882C61.5479 30.9583 61.4916 31.0145 61.4775 31.0285Z" fill="#333333"/>
<path d="M62.6602 36.9788C59.5217 40.7538 56.3972 44.5149 53.2024 48.3601C51.4994 46.4655 49.8386 44.6271 48.1075 42.6905C46.9112 43.7991 45.7149 44.8376 44.6171 45.9603C44.0823 46.5076 44.2793 47.2093 44.6875 47.7707C45.166 48.4022 45.7149 48.9916 46.2075 49.5951C47.5586 51.237 48.8675 52.921 50.2609 54.5349C50.852 55.2085 51.5557 55.8541 52.3438 56.247C53.2587 56.7101 54.2157 56.3172 54.9335 55.6436C55.7498 54.8858 56.4957 54.0297 57.2135 53.1736C60.155 49.5951 63.0684 45.9884 65.9958 42.3958C66.1225 42.2414 66.2773 42.1011 66.418 41.9327C69.4862 47.5321 68.6277 56.64 61.4921 61.8044C54.4409 66.9126 44.5467 65.4531 39.3252 58.5766C34.0192 51.5878 35.2578 41.7362 42.126 36.3192C48.8394 31.0566 57.875 32.3336 62.6602 36.9788Z" fill="#EDBD41"/>
</g>
<defs>
<clipPath id="clip0">
<rect width="68.0909" height="70" fill="white"/>
</clipPath>
</defs>
</svg>
