<svg width="73" height="70" viewBox="0 0 73 70" fill="none" xmlns="http://www.w3.org/2000/svg">
<g clip-path="url(#clip0)">
<path d="M49.6096 60.5421C49.4837 64.5159 48.0452 67.7524 44.3771 69.7303C44.0535 69.9102 43.6399 70.036 43.2803 70.0001C32.4557 68.9212 22.4943 65.7206 14.3489 58.1326C9.18832 53.3137 5.70001 47.398 3.27258 40.8349C1.76217 36.7892 0.82716 32.5816 0.0359963 28.3381C-0.0539087 27.8706 0.0359963 27.3132 0.179844 26.8457C1.36659 22.9258 6.77887 19.5634 10.8426 20.1927C12.2811 20.4085 13.252 21.0198 13.7016 22.5842C14.6725 26.1264 15.7694 29.6507 16.9561 33.121C17.3877 34.3797 17.046 35.2068 16.1649 35.962C15.122 36.8611 14.0971 37.7961 13.0003 38.6232C12.3889 39.0907 12.3889 39.4683 12.7126 40.1156C15.9672 46.9664 21.0738 52.091 27.511 55.9569C28.3021 56.4424 29.1292 56.8559 29.9204 57.3414C30.334 57.5932 30.6396 57.5932 31.0172 57.2156C32.0242 56.2266 33.0851 55.3096 34.11 54.3386C35.081 53.4216 36.1598 53.0979 37.4724 53.5834C40.7989 54.7702 44.1434 55.885 47.4878 57.0358C49.1241 57.5932 49.5556 58.1686 49.6276 59.9127C49.6276 60.1285 49.6096 60.3263 49.6096 60.5421Z" fill="#EDBD41"/>
<path d="M39.6482 9.85359C38.8031 8.36117 37.976 7.01259 37.2567 5.5921C36.9331 4.96276 36.5555 4.83689 35.9082 4.94478C27.0076 6.29335 20.1388 10.7526 15.284 18.3406C15.212 18.4665 15.1221 18.5924 15.1042 18.6103C13.5938 18.0349 12.1553 17.4955 10.7168 16.9381C16.219 6.54509 29.417 -2.12175 45.0965 0.467512C60.3983 2.98485 71.3667 15.4996 72.8231 29.9204C74.4774 46.4089 64.1383 59.607 52.3428 64.1562C52.4147 62.5379 52.4507 60.8836 52.5586 59.2294C52.5765 59.0136 52.9362 58.7439 53.2059 58.618C58.816 55.5253 62.9875 51.084 65.7027 45.2761C66.9434 42.597 67.6986 39.774 68.1121 36.8431C68.184 36.3216 67.9863 36.0879 67.5727 35.8721C66.1342 35.0809 64.7137 34.2718 63.1494 33.3907C64.6778 32.5276 66.0623 31.7005 67.4828 30.9633C68.0222 30.6756 68.1661 30.3879 68.0762 29.7765C66.2241 17.082 57.2516 7.60597 44.7728 5.17853C42.5611 4.74699 42.5611 4.74699 41.4283 6.74288C40.8529 7.74981 40.2775 8.75675 39.6482 9.85359Z" fill="#333333"/>
<path d="M24.778 27.7087C24.4903 24.8857 26.5401 22.2245 29.5789 21.6851C30.7836 21.4693 32.1142 21.4693 33.301 21.721C37.6164 22.6381 39.4685 27.7087 36.7174 31.161C35.0451 33.2648 33.1032 35.1528 31.2871 37.1307C31.0713 37.3645 30.8736 37.5982 30.5499 37.9579C33.0852 37.9579 35.4587 37.9579 37.8861 37.9579C37.8861 39.3963 37.8861 40.7629 37.8861 42.2014C33.5347 42.2014 29.1833 42.2014 24.6881 42.2014C24.6881 40.8348 24.6701 39.4503 24.7061 38.0657C24.7061 37.85 24.9938 37.6342 25.1736 37.4364C27.5111 34.9011 29.8486 32.3837 32.1862 29.8484C32.8335 29.1472 33.337 28.374 33.1931 27.3671C33.0493 26.3781 32.4199 25.8027 31.4489 25.7667C30.406 25.7308 29.7048 26.2522 29.489 27.2232C29.4531 27.3671 29.4531 27.5109 29.4171 27.7087C27.8527 27.7087 26.3064 27.7087 24.778 27.7087Z" fill="#EDBD41"/>
<path d="M52.0731 21.6491C49.7535 26.1803 47.5419 30.5317 45.2583 34.991C46.4091 34.991 47.452 34.991 48.5488 34.991C48.5488 34.11 48.5488 33.2649 48.5488 32.3658C50.0592 32.3658 51.5157 32.3658 53.044 32.3658C53.044 33.2289 53.044 34.056 53.044 34.9731C53.5835 35.009 54.051 35.063 54.5724 35.0989C54.5724 36.5734 54.5724 38.0118 54.5724 39.5222C54.0869 39.5582 53.6554 39.5762 53.098 39.6301C53.098 40.4932 53.098 41.3383 53.098 42.2554C51.5516 42.2554 50.1311 42.2554 48.6027 42.2554C48.6027 41.4282 48.6027 40.5831 48.6027 39.6301C45.7258 39.6301 42.9567 39.6301 40.0078 39.6301C40.2416 37.6342 39.6122 35.7283 40.6012 33.8582C42.6151 30.0822 44.539 26.2523 46.445 22.4223C46.7507 21.8289 47.0923 21.6132 47.7576 21.6312C49.1242 21.6671 50.5087 21.6491 52.0731 21.6491Z" fill="#EDBD41"/>
</g>
<defs>
<clipPath id="clip0">
<rect width="72.9848" height="70" fill="white"/>
</clipPath>
</defs>
</svg>
