<svg width="87" height="115" viewBox="0 0 87 115" fill="none" xmlns="http://www.w3.org/2000/svg">
<path d="M69.8068 55.0257C62.049 54.4537 40.7361 49.4412 40.7361 49.4412C39.446 51.7456 36.0781 54.6724 33.4475 56.5395C33.347 56.9432 33.2632 57.3637 33.0787 59.611C32.9447 60.5193 32.9616 59.6009 32.9616 60.5429C32.9616 61.2157 33.0119 61.8717 32.9615 64.3545C33.0955 65.4814 33.4308 64.7312 33.7659 65.7741C36.1116 73.4444 43.4673 79.0625 52.1633 79.0625C60.8594 79.0625 68.215 73.4444 70.5608 65.7741C70.8791 64.7312 70.9962 65.4646 71.1303 64.3545C71.1973 63.6984 71.2476 63.0424 71.2476 62.3696C71.2476 61.4276 71.2645 58.6758 71.1305 57.7843C70.9797 56.8423 70.7451 55.934 70.4602 55.0593C70.2257 55.0425 70.0246 55.0425 69.8068 55.0257Z" stroke="#EDBD41" stroke-width="3" stroke-miterlimit="10"/>
<path d="M60.5737 107.685H57.3902H46.65H43.4664L38.5236 81.5789C28.4033 82.3358 20.4277 90.7966 20.4277 101.141V110.662H83.6292V101.141C83.6292 90.7966 75.6536 82.3358 65.5333 81.5789L60.5737 107.685Z" stroke="#EDBD41" stroke-width="3" stroke-miterlimit="10"/>
<path d="M46.8457 103.5H57.3622L54.7495 89.207H54.6673L57.2307 85.2915H46.9772L49.5406 89.207H49.442L46.8457 103.5Z" stroke="#EDBD41" stroke-width="3" stroke-miterlimit="10"/>
<path d="M41.2384 30.2419C41.5232 29.9728 41.808 29.7373 42.0594 29.5522C43.182 28.7112 46.7006 27.4497 47.4546 27.3992C47.974 27.3992 48.5605 27.7524 49.2642 28.3412C49.3145 27.1132 49.2642 25.8853 49.1302 24.6574L45.2597 23.7323C45.0586 22.7062 44.7737 21.6969 44.4051 20.7045L47.2368 17.8955C46.8849 17.1385 46.4996 16.3984 46.0807 15.6751C45.6618 14.9518 45.1926 14.2622 44.69 13.5893L40.8697 14.7332C40.1828 13.9258 39.4288 13.1856 38.6245 12.5296L39.6801 8.67767C38.3397 7.66843 36.8819 6.86103 35.3572 6.1882L32.6093 9.09819C31.6208 8.76178 30.5987 8.49264 29.5766 8.30762L28.5713 4.43884C26.9292 4.27063 25.2537 4.28745 23.5949 4.50612L22.6566 8.39172C21.6345 8.59357 20.6292 8.87952 19.6406 9.24958L16.8592 6.40687C16.122 6.74328 15.368 7.13016 14.6475 7.55068C13.927 7.9712 13.2401 8.44218 12.5699 8.9468L13.7092 12.7819C12.905 13.4716 12.1677 14.2285 11.5143 15.0191L7.67727 13.9594C6.6887 15.3387 5.86769 16.8021 5.21423 18.3328L8.11291 21.0914C7.7778 22.0838 7.50972 23.1099 7.32541 24.136L3.47166 25.1452C3.30411 26.8105 3.32086 28.4757 3.52193 30.1578L7.39243 31.0829C7.59349 32.109 7.87834 33.1183 8.2302 34.1107L5.39854 36.9197C5.73364 37.6767 6.11902 38.4168 6.55466 39.1401C6.9903 39.8634 7.4427 40.5699 7.94536 41.2259L11.7656 40.0821C12.4526 40.8894 13.2066 41.6296 14.0108 42.2856L12.9552 46.1375C14.3124 47.1131 15.7701 47.9373 17.2949 48.5934L20.0428 45.6834C21.0313 46.0366 22.0367 46.2889 23.0755 46.4571L24.0808 50.3259C24.8181 50.3932 25.5553 50.4268 26.3093 50.4268V50.3091C26.3093 40.8053 32.6093 32.7987 41.2384 30.2419ZM30.7662 34.6489C26.5941 37.1216 21.1989 35.6918 18.8029 31.4362C16.5576 27.4328 17.8981 22.1679 21.7853 19.7626C25.9239 17.189 31.3527 18.5515 33.8157 22.723C36.262 26.8609 34.8881 32.1931 30.7662 34.6489Z" stroke="#EDBD41" stroke-width="3" stroke-miterlimit="10"/>
<path d="M33.0778 59.5943C32.927 60.5026 32.8265 62.3529 32.8265 62.3529C32.8265 63.0257 32.9438 64.3378 32.9438 64.3378M24.5996 61.0577V62.7734C24.5996 65.7002 27.0627 68.072 30.0954 68.072H30.4137C32.0558 73.892 36.1608 78.7195 41.5728 81.4949C44.6893 83.0929 48.2415 84.0012 52.0282 84.0012C55.7982 84.0012 59.3503 83.0929 62.4668 81.4949C67.8788 78.7195 71.9671 73.892 73.6259 68.072H73.9443C76.977 68.072 79.4401 65.7002 79.4401 62.7734V61.0577C79.4401 58.5178 77.5802 56.4152 75.1172 55.8937C75.2009 55.1368 75.268 54.363 75.268 53.5725L75.2512 53.3538C75.2512 52.7987 75.2345 52.21 75.1674 51.5876C74.8323 47.9711 73.5757 44.6238 71.632 41.7811C70.6267 40.3177 69.4371 38.9889 68.1134 37.8282C64.5613 34.7164 59.9703 32.782 54.9101 32.6642L54.6588 32.4624C54.441 32.2269 54.2064 32.1764 54.0389 32.1764C53.6535 32.1764 53.4022 32.4288 53.1843 32.6306H53.1173C52.7152 32.2269 52.3466 31.8737 51.9947 31.5877C51.3077 30.999 50.7213 30.6458 50.1851 30.6458C49.4311 30.6962 45.9125 31.9578 44.7899 32.7988C44.5385 32.9838 44.2537 33.2193 43.9689 33.4885C35.3398 36.0452 29.023 44.0519 29.023 53.5556V53.6902L29.0398 53.993C29.023 54.6322 29.0565 55.2545 29.1068 55.8769C26.56 56.3311 24.5996 58.4673 24.5996 61.0577Z" stroke="#EDBD41" stroke-width="3" stroke-miterlimit="10"/>
</svg>
