<svg width="12" height="12" viewBox="0 0 12 12" fill="none" xmlns="http://www.w3.org/2000/svg">
<circle cx="5.57227" cy="3" r="2.5" stroke="white"/>
<path d="M10.6429 9.85714C10.6429 10.2834 10.5221 10.5547 10.3402 10.7487C10.1466 10.9552 9.83816 11.1224 9.38194 11.2444C8.45162 11.493 7.13528 11.5 5.57143 11.5C4.00758 11.5 2.69123 11.493 1.76092 11.2444C1.30469 11.1224 0.996211 10.9552 0.802612 10.7487C0.620785 10.5547 0.5 10.2834 0.5 9.85714C0.5 9.00248 0.99986 8.17538 1.91644 7.54083C2.83106 6.90763 4.12175 6.5 5.57143 6.5C7.0211 6.5 8.3118 6.90763 9.22642 7.54083C10.143 8.17538 10.6429 9.00248 10.6429 9.85714Z" stroke="white"/>
</svg>
