<svg width="16" height="19" viewBox="0 0 16 19" fill="none" xmlns="http://www.w3.org/2000/svg">
<g clip-path="url(#clip0)">
<path d="M1.2 6.1001C0.5 6.1001 0 6.6001 0 7.2001V12.1001C0 12.7001 0.5 13.2001 1.1 13.2001C1.7 13.2001 2.2 12.7001 2.2 12.1001V7.2001C2.3 6.6001 1.8 6.1001 1.2 6.1001Z" fill="white"/>
<path d="M2.80078 13.9998C2.80078 14.5998 3.30078 14.9998 3.80078 14.9998H4.90078V17.5998C4.90078 18.1998 5.40078 18.6998 6.00078 18.6998C6.60078 18.6998 7.10078 18.1998 7.10078 17.5998V14.9998H8.60078V17.5998C8.60078 18.1998 9.10078 18.6998 9.70078 18.6998C10.3008 18.6998 10.8008 18.1998 10.8008 17.5998V14.9998H11.9008C12.5008 14.9998 12.9008 14.4998 12.9008 13.9998V6.2998H2.80078V13.9998Z" fill="white"/>
<path d="M10.6008 1.59992L11.5008 0.299917C11.6008 0.199917 11.5008 0.0999175 11.4008 -8.25487e-05C11.3008 -0.100083 11.2008 -8.2545e-05 11.1008 0.0999175L10.2008 1.49992C9.50078 1.19992 8.80078 0.999918 8.00078 0.999918C7.20078 0.999918 6.40078 1.19992 5.80078 1.49992L4.90078 0.0999175C4.80078 -8.2545e-05 4.70078 -8.25487e-05 4.60078 -8.25487e-05C4.50078 0.0999175 4.50078 0.199917 4.50078 0.299917L5.40078 1.59992C3.80078 2.39992 2.80078 3.89992 2.80078 5.49992C2.80078 5.59992 2.80078 5.69992 2.80078 5.79992H13.2008C13.2008 5.69992 13.2008 5.59992 13.2008 5.49992C13.2008 3.89992 12.1008 2.39992 10.6008 1.59992ZM5.60078 3.99992C5.30078 3.99992 5.10078 3.79992 5.10078 3.49992C5.10078 3.29992 5.30078 2.99992 5.60078 2.99992C5.90078 2.99992 6.10078 3.19992 6.10078 3.49992C6.10078 3.79992 5.90078 3.99992 5.60078 3.99992ZM10.4008 3.99992C10.1008 3.99992 9.90078 3.79992 9.90078 3.49992C9.90078 3.19992 10.1008 2.99992 10.4008 2.99992C10.7008 2.99992 10.9008 3.19992 10.9008 3.49992C10.9008 3.79992 10.7008 3.99992 10.4008 3.99992Z" fill="white"/>
<path d="M14.9012 6.1001C14.2012 6.1001 13.7012 6.6001 13.7012 7.2001V12.1001C13.7012 12.7001 14.2012 13.2001 14.8012 13.2001C15.4012 13.2001 15.9012 12.7001 15.9012 12.1001V7.2001C16.0012 6.6001 15.5012 6.1001 14.9012 6.1001Z" fill="white"/>
</g>
<defs>
<clipPath id="clip0">
<rect width="16" height="19" fill="white"/>
</clipPath>
</defs>
</svg>
