<svg width="14" height="18" viewBox="0 0 14 18" fill="none" xmlns="http://www.w3.org/2000/svg">
<g clip-path="url(#clip0)">
<path d="M9.00086 3.40486C9.41947 2.95424 9.74505 2.45354 9.9311 1.90277C10.1171 1.35201 10.2334 0.876349 10.2334 0.425724C10.2334 0.400689 10.2334 0.350619 10.2334 0.325584C10.2334 0.275515 10.2334 0.25048 10.2334 0.225445C10.2334 0.200411 10.2102 0.175376 10.2102 0.100272C10.2102 0.050202 10.1869 0.000132427 10.1869 -0.0249023C8.97761 0.30055 8.1404 0.82628 7.65203 1.60236C7.1404 2.37844 6.88458 3.30472 6.86133 4.38122C7.30319 4.33115 7.65203 4.28108 7.90784 4.20597C8.27993 4.05577 8.62877 3.80542 9.00086 3.40486Z" fill="white"/>
<path d="M12.3953 11.7667C11.9302 11.0407 11.6977 10.2396 11.6977 9.36339C11.6977 8.53724 11.907 7.81123 12.3488 7.1353C12.5814 6.75977 12.9535 6.33418 13.4884 5.85852C13.1395 5.4079 12.7907 5.03238 12.4419 4.78203C11.814 4.30637 11.093 4.08105 10.3023 4.08105C9.83721 4.08105 9.25581 4.20623 8.55814 4.45658C7.90698 4.70692 7.4186 4.8321 7.11628 4.8321C6.88372 4.8321 6.4186 4.73196 5.72093 4.50665C5.02326 4.28133 4.4186 4.18119 3.95349 4.18119C2.7907 4.18119 1.86047 4.70692 1.09302 5.73335C0.372093 6.75977 0 8.11165 0 9.76395C0 11.5164 0.488372 13.3189 1.48837 15.1965C2.48837 17.0741 3.48837 18.0004 4.51163 18.0004C4.86047 18.0004 5.30233 17.8752 5.83721 17.6249C6.37209 17.3995 6.86047 17.2744 7.25581 17.2744C7.69767 17.2744 8.18605 17.3995 8.76744 17.6249C9.37209 17.8502 9.83721 17.9753 10.1628 17.9753C11.0233 17.9753 11.8837 17.2744 12.7442 15.8474C13.3023 14.9461 13.7209 14.0449 13.9767 13.1436C13.3953 12.9434 12.8605 12.4927 12.3953 11.7667Z" fill="white"/>
</g>
<defs>
<clipPath id="clip0">
<rect width="14" height="18" fill="white"/>
</clipPath>
</defs>
</svg>
