<svg width="16" height="13" viewBox="0 0 16 13" fill="none" xmlns="http://www.w3.org/2000/svg">
<g clip-path="url(#clip0)">
<path d="M7.99917 13C6.8215 13 5.86719 12.0908 5.86719 10.9688C5.86719 9.84673 6.8215 8.9375 7.99917 8.9375C9.17683 8.9375 10.1311 9.86607 10.1311 10.9881C10.1311 12.0908 9.17683 13 7.99917 13ZM7.99917 9.73065C7.2682 9.73065 6.67937 10.2917 6.67937 10.9881C6.67937 11.6845 7.2682 12.2455 7.99917 12.2455C8.73013 12.2455 9.31896 11.6845 9.31896 10.9881C9.31896 10.2917 8.73013 9.73065 7.99917 9.73065Z" fill="#4DC125"/>
<path d="M11.391 7.91211C11.2895 7.91211 11.188 7.87342 11.1068 7.81538C10.254 7.06092 9.15753 6.63532 8.00017 6.63532C6.84281 6.63532 5.74636 7.06092 4.89357 7.81538C4.73113 7.97015 4.46717 7.9508 4.32504 7.79604C4.1626 7.64128 4.18291 7.38979 4.34535 7.25437C5.34027 6.36449 6.63976 5.88086 8.00017 5.88086C9.36057 5.88086 10.6601 6.36449 11.655 7.25437C11.8174 7.40913 11.8174 7.64128 11.6753 7.79604C11.5941 7.87342 11.4926 7.91211 11.391 7.91211Z" fill="#4DC125"/>
<path d="M13.3801 5.88093C13.2786 5.88093 13.177 5.84224 13.0958 5.7842C11.6948 4.54611 9.88769 3.84968 7.97907 3.84968C6.07044 3.84968 4.26333 4.52676 2.86232 5.7842C2.69988 5.93897 2.43592 5.91962 2.29379 5.76486C2.13135 5.6101 2.15166 5.35861 2.31409 5.22319C3.85724 3.84968 5.86739 3.09521 7.97907 3.09521C10.0907 3.09521 12.1009 3.84968 13.644 5.22319C13.8065 5.37795 13.8065 5.6101 13.6643 5.76486C13.6034 5.84224 13.4816 5.88093 13.3801 5.88093Z" fill="#4DC125"/>
<path d="M15.5928 3.61756C15.4913 3.61756 15.3898 3.57887 15.3086 3.52083C13.3187 1.74107 10.7197 0.77381 7.99891 0.77381C5.2781 0.77381 2.67911 1.74107 0.668959 3.52083C0.506522 3.6756 0.242563 3.65625 0.100431 3.50149C-0.0620055 3.34673 -0.0417009 3.09524 0.120736 2.95982C2.27302 1.04464 5.05475 0 7.99891 0C10.9228 0 13.7248 1.04464 15.8771 2.95982C16.0395 3.11458 16.0395 3.34673 15.8974 3.50149C15.7959 3.57887 15.6943 3.61756 15.5928 3.61756Z" fill="#4DC125"/>
</g>
<defs>
<clipPath id="clip0">
<rect width="16" height="13" fill="white"/>
</clipPath>
</defs>
</svg>
