<svg width="107" height="31" viewBox="0 0 107 31" fill="none" xmlns="http://www.w3.org/2000/svg">
<path d="M57.559 14.8005C57.559 15.2218 57.6068 15.2218 58.0761 15.2218H59.1501C59.5956 15.2417 60.0411 15.2099 60.4787 15.1264C60.6497 15.0668 60.777 14.9873 60.8764 14.5819L61.0196 13.9579C61.135 13.8665 61.302 13.8665 61.4174 13.9579C61.4174 14.3315 61.3537 14.9555 61.3537 15.5477C61.3537 16.1399 61.4174 16.7003 61.4174 17.0619C61.2981 17.1494 61.1389 17.1494 61.0196 17.0619L60.8605 16.4538C60.8168 16.1756 60.6258 15.9491 60.3593 15.8577C59.9655 15.7901 59.5638 15.7623 59.166 15.7822H58.0801C57.6107 15.7822 57.563 15.7822 57.563 16.2035V18.3735C57.563 20.0109 57.5948 20.2454 58.5176 20.3249L59.0467 20.3726C59.1421 20.4361 59.1103 20.7144 59.0188 20.77C58.096 20.7382 57.563 20.7223 56.9385 20.7223C56.2504 20.7223 55.7173 20.7223 54.9854 20.77C54.8741 20.6667 54.8621 20.4918 54.9536 20.3726L55.3514 20.3249C56.2583 20.2176 56.2901 20.0109 56.2901 18.3735V12.7378C56.2901 11.1004 56.2583 10.8818 55.3514 10.7506L55.1008 10.7188C55.0093 10.6592 55.0411 10.3771 55.1326 10.3214C55.7889 10.3532 56.3259 10.3691 56.9465 10.3691H59.8223C60.5264 10.389 61.2304 10.3731 61.9305 10.3214C61.9305 11.0408 61.9305 11.7919 61.9782 12.3841C61.8828 12.4914 61.7237 12.5113 61.6043 12.4318C61.4771 11.7283 61.2901 11.1481 60.5105 10.9454C60.0093 10.8579 59.5001 10.8301 58.995 10.854H58.0403C57.571 10.854 57.571 10.8858 57.571 11.4779L57.559 14.8005Z" fill="white"/>
<path d="M70.3307 17.5627C70.3307 19.5181 68.9863 20.921 67.0332 20.921C65.3268 20.9846 63.8908 19.6572 63.8272 17.9522C63.8232 17.8687 63.8232 17.7852 63.8272 17.7058C63.7755 15.8935 65.2075 14.3832 67.0213 14.3315C67.065 14.3315 67.1128 14.3315 67.1565 14.3315C68.8789 14.3037 70.3029 15.6749 70.3307 17.3958C70.3347 17.4514 70.3307 17.507 70.3307 17.5627ZM66.9696 14.8005C65.9394 14.8005 65.1717 15.7861 65.1717 17.5031C65.1717 18.9219 65.8121 20.452 67.1884 20.452C68.5646 20.452 68.9863 19.0173 68.9863 17.8131C68.9863 16.4856 68.4533 14.8005 66.9696 14.8005Z" fill="white"/>
<path d="M73.5813 16.2233C73.5813 15.6113 73.5813 15.5357 73.1597 15.2536L73.0165 15.1582C72.9568 15.0986 72.9568 14.9237 73.0165 14.88C73.5654 14.6614 74.0984 14.407 74.6076 14.1129C74.6871 14.1129 74.7349 14.1606 74.7349 14.2242V15.1264C74.7349 15.2059 74.7349 15.2536 74.7786 15.2695C75.3275 14.8164 75.9202 14.3315 76.501 14.3315C76.855 14.2997 77.1692 14.558 77.201 14.9118C77.201 14.9277 77.205 14.9436 77.205 14.9595C77.2209 15.341 76.9226 15.6629 76.5407 15.6788C76.5368 15.6788 76.5368 15.6788 76.5328 15.6788C76.4095 15.6788 76.2901 15.6391 76.1907 15.5715C75.9918 15.4205 75.7531 15.333 75.5025 15.3211C75.2758 15.3251 75.065 15.4404 74.9417 15.6311C74.7707 16.0047 74.703 16.4141 74.7388 16.8234V18.9457C74.7388 20.0705 74.7667 20.2573 75.3633 20.305L75.9242 20.3527C76.0276 20.46 76.0197 20.6348 75.9123 20.7342C75.9083 20.7382 75.9003 20.7461 75.8924 20.7501C75.1605 20.7183 74.6991 20.7024 74.1581 20.7024C73.6171 20.7024 73.1279 20.7024 72.7221 20.7501C72.6028 20.6587 72.5829 20.4878 72.6744 20.3725C72.6784 20.3646 72.6863 20.3606 72.6903 20.3527L72.9847 20.305C73.5654 20.2096 73.5813 20.0705 73.5813 18.9457V16.2233Z" fill="white"/>
<path d="M79.5799 11.8952C79.5799 10.9732 79.5799 10.8818 79.0986 10.5996L78.9395 10.5042C78.8639 10.4168 78.8639 10.2817 78.9395 10.1942C79.5163 10.0114 80.0811 9.79281 80.63 9.53845C80.6976 9.53845 80.7573 9.57422 80.7891 9.62986C80.7573 10.1783 80.7255 10.8818 80.7255 11.5693V14.5183C80.7255 14.7846 80.7891 14.8482 80.8806 14.8482C81.4256 14.5223 82.0461 14.3435 82.6785 14.3315C84.2935 14.2958 85.634 15.5795 85.6698 17.1931C85.6698 17.2606 85.6698 17.3242 85.6658 17.3918C85.6658 19.4704 84.1622 20.921 82.0859 20.921C81.6364 20.921 81.1869 20.8535 80.7573 20.7183C80.5465 20.6309 80.3277 20.5633 80.101 20.5156C79.9618 20.5434 79.8424 20.6269 79.7708 20.7501C79.7708 20.7501 79.743 20.7501 79.7112 20.7501C79.6435 20.7501 79.5839 20.7143 79.5521 20.6547C79.5521 20.4361 79.5839 20.142 79.5839 19.3273L79.5799 11.8952ZM80.7374 18.5801C80.7135 19.065 80.8528 19.5419 81.1352 19.9393C81.4335 20.2811 81.875 20.4719 82.3285 20.452C83.7963 20.452 84.377 19.2041 84.377 17.8608C84.377 16.2511 83.5457 15.0032 81.9904 15.0032C81.6205 14.9873 81.2545 15.0747 80.9283 15.2536C80.7732 15.3609 80.7414 15.5358 80.7414 16.1438L80.7374 18.5801Z" fill="white"/>
<path d="M89.408 16.7042C89.0102 16.7042 88.9863 16.736 88.9863 17.1255C88.9863 18.7152 89.9091 20.0466 91.5838 20.0466C92.1605 20.0546 92.7055 19.7684 93.0197 19.2836C93.1271 19.2398 93.2464 19.2955 93.2862 19.3988C93.2942 19.4227 93.2981 19.4465 93.3021 19.4704C92.8208 20.3765 91.8741 20.9369 90.8479 20.921C89.9728 20.9488 89.1335 20.5673 88.5806 19.8916C88.143 19.3074 87.9123 18.592 87.9243 17.8607C87.9243 15.9411 89.1892 14.3315 91.0667 14.3315C92.4111 14.3315 93.2862 15.2536 93.2862 16.1915C93.2942 16.3266 93.2703 16.4618 93.2226 16.5889C93.1748 16.6804 92.9561 16.6963 92.2997 16.6963L89.408 16.7042ZM90.3785 16.2352C91.536 16.2352 91.8781 16.1756 92.0054 16.0802C92.0491 16.0484 92.0969 15.9888 92.0969 15.7861C92.0969 15.3489 91.8025 14.8005 90.9036 14.8005C90.0046 14.8005 89.1812 15.6431 89.1693 16.1597C89.1693 16.1915 89.1693 16.2352 89.2767 16.2352H90.3785Z" fill="white"/>
<path d="M99.0217 14.6137C99.1768 15.0191 99.2603 15.4443 99.2683 15.8775C99.1768 15.9928 99.0097 16.0166 98.8944 15.9252C98.6279 15.2377 98.1585 14.7846 97.5181 14.7846C97.0089 14.7528 96.5714 15.1383 96.5396 15.647C96.5356 15.6828 96.5356 15.7186 96.5396 15.7543C96.5396 16.3942 97.1959 16.736 97.7329 17.05C98.5642 17.5189 99.324 18.0475 99.324 19.1564C99.324 20.3487 98.2301 20.9369 97.0726 20.9369C96.4799 20.9766 95.8872 20.8097 95.402 20.4679C95.2468 19.9513 95.1832 19.4147 95.215 18.8782C95.3144 18.7828 95.4736 18.7828 95.573 18.8782C95.8395 19.7366 96.3407 20.4679 97.2317 20.4679C97.7607 20.5156 98.2301 20.1221 98.2739 19.5936C98.2778 19.5538 98.2778 19.5101 98.2778 19.4704C98.2778 18.751 97.6533 18.3615 97.0845 18.0316C96.1816 17.5189 95.5372 16.9705 95.5372 16.112C95.5372 14.9714 96.4759 14.3315 97.6653 14.3315C98.1346 14.3077 98.6 14.407 99.0217 14.6137Z" fill="white"/>
<path d="M22.5969 19.4952C22.5054 19.4634 22.414 19.4436 22.3185 19.4277C22.1872 19.4277 22.1276 19.3522 22.1355 19.225C22.1554 18.9666 22.1713 18.7083 22.1992 18.454C22.2111 18.3943 22.2429 18.3387 22.2906 18.299C22.4537 18.1598 22.5293 17.9413 22.4776 17.7346C22.4537 17.5875 22.4259 17.4405 22.398 17.2855C22.1395 17.5716 21.7099 17.6273 21.3837 17.4206C21.0337 17.2577 20.8149 16.9 20.8308 16.5145C20.807 16.1568 20.9422 15.8031 21.1968 15.5487C21.4195 15.3381 21.7537 15.2983 22.0241 15.4414C22.223 15.5407 22.3463 15.7514 22.3344 15.974C22.3304 16.2005 22.1992 16.4072 21.9963 16.5105C22.0679 16.3038 22.0122 16.0773 21.8491 15.9302C21.7258 15.7991 21.7457 15.6798 21.8809 15.5328C21.7735 15.4295 21.6144 15.4096 21.4832 15.4772C21.1212 15.6759 20.9104 16.0693 20.9462 16.4787C20.9541 16.8642 21.2206 17.1981 21.5945 17.2934C21.8491 17.4047 22.1435 17.2934 22.2548 17.0391C22.2708 17.0033 22.2827 16.9675 22.2906 16.9278C22.3941 16.5701 22.6208 16.2601 22.935 16.0574C23.0504 15.9819 23.114 15.8428 23.0981 15.7037C23.0902 15.4732 23.1856 15.2506 23.3606 15.1036C23.4322 15.2864 23.6311 15.3857 23.8221 15.342C23.7942 15.2069 23.7147 15.0678 23.8897 14.9764C24.0607 14.8929 24.2636 14.9247 24.3988 15.0559C24.4426 15.1075 24.4863 15.1632 24.5221 15.2188C24.546 15.0956 24.5659 14.9963 24.5897 14.8929L24.6693 14.9168L24.9835 14.7578C25.0631 14.7141 25.1466 14.6743 25.2182 14.6266C25.2938 14.575 25.3296 14.4836 25.3137 14.3922C25.3137 14.1895 25.3495 13.9947 25.6518 13.9947C25.6041 14.1378 25.5603 14.2769 25.5245 14.3723L25.6558 14.2133C25.6677 14.2292 25.6757 14.2451 25.6836 14.261C25.6836 14.3604 25.7194 14.4637 25.7433 14.5591C25.8149 14.8015 25.7433 14.9009 25.5285 14.9923C25.4529 15.0281 25.3813 15.0718 25.3177 15.1274C25.1904 15.2347 25.0591 15.3341 24.9199 15.4255C24.8125 15.4732 24.6971 15.4931 24.5818 15.4772C24.375 15.4414 24.184 15.3738 23.9732 15.3182C24.188 15.4692 24.4426 15.5606 24.7051 15.5845C24.721 15.7434 24.6653 15.9024 24.55 16.0177C24.3948 16.1965 24.2158 16.3475 24.013 16.4707C23.6629 16.6297 23.4283 16.9755 23.4163 17.361C23.3686 17.7545 23.1458 18.1042 22.8117 18.3109C22.6367 18.4579 22.5492 18.6805 22.577 18.907C22.577 18.9468 22.6606 18.9825 22.7123 18.9984C22.9231 19.0501 22.9867 19.1256 22.9867 19.372L22.7799 19.1733L22.8674 19.4515L22.8237 19.4793L22.5213 19.217C22.5532 19.3084 22.585 19.4038 22.6248 19.5111" fill="white"/>
<path d="M22.4336 14.0503C22.3301 13.5575 22.6484 13.0766 23.1416 12.9733C23.1575 12.9693 23.1774 12.9653 23.1933 12.9653C23.1933 12.9097 23.1655 12.8541 23.1496 12.8024L23.6189 12.9336C23.8138 12.9852 23.8695 13.0448 23.8854 13.2475C24.0525 13.2952 24.2156 13.3469 24.3826 13.4025C24.4741 13.4343 24.5577 13.6648 24.494 13.7403C24.4463 13.7721 24.3906 13.788 24.3349 13.7841C24.1281 13.7841 24.0326 13.9271 24.1161 14.1139C24.2235 14.0742 24.3389 13.9271 24.4463 14.0702C24.5537 14.2133 24.4463 14.2689 24.3946 14.3127L23.8417 14.3643C23.9133 14.4001 23.9888 14.4319 24.0644 14.4518C24.3309 14.4836 24.5258 14.726 24.494 14.9923C24.494 14.9962 24.494 15.0002 24.494 15.0042C24.498 15.028 24.498 15.0479 24.494 15.0718C24.3826 14.9088 24.1798 14.8333 23.9888 14.877C23.7343 14.9327 23.6667 15.0519 23.7701 15.2744C23.5593 15.3062 23.4399 15.1989 23.428 14.9406C23.2052 15.0916 23.062 15.3301 23.0302 15.5964C22.9427 15.3897 22.9149 15.1592 22.9507 14.9366L22.6404 15.0797L22.6126 15.0559C22.7279 14.7737 22.7279 14.4597 22.6126 14.1775C22.5887 14.0464 22.5728 13.9152 22.5728 13.7801C22.5211 13.8794 22.4813 13.9589 22.4415 14.0305" fill="white"/>
<path d="M25.2128 17.8816C25.177 17.9253 25.1332 17.9611 25.0855 17.9889C25.0179 18.0207 24.9423 18.0366 24.8667 18.0366C24.7554 18.0366 24.648 18.0366 24.5406 18.0366C24.4332 18.0366 24.2581 18.0684 24.1189 18.0764C23.9797 18.0843 23.9757 18.0168 23.9638 17.9214C23.9519 17.826 23.936 17.6153 23.924 17.4723L23.4785 17.365C23.4785 17.2577 23.5103 17.1702 23.5302 17.0868C23.6098 16.7291 23.7371 16.6098 24.1826 16.6138C24.4252 16.6138 24.5127 16.7291 24.4809 16.9715C24.4491 17.2139 24.3974 17.4047 24.3536 17.6273C24.5525 17.7664 24.819 17.7544 25.0059 17.5994C25.1094 17.5359 25.2207 17.4921 25.3401 17.4723C25.4037 17.4723 25.4793 17.512 25.5509 17.5359V17.5915H25.2048C25.2645 17.6034 25.3242 17.6233 25.3799 17.6551C25.4157 17.6909 25.4435 17.7346 25.4634 17.7783L25.2406 17.8816" fill="white"/>
<path d="M24.6059 16.1409C24.6735 15.9859 24.7332 15.8507 24.7889 15.7116L25.1866 15.8746C25.2384 15.7832 25.298 15.6957 25.3656 15.6162C25.4054 15.5765 25.485 15.5725 25.5645 15.5487C25.5605 15.6003 25.5605 15.652 25.5645 15.7037L25.3855 15.803V15.8269L25.5526 15.7911C25.5526 15.9064 25.5208 16.0097 25.5168 16.117C25.5128 16.2243 25.4333 16.3634 25.2821 16.3396C25.1628 16.3197 25.0434 16.2919 24.9241 16.2601C24.8088 16.2283 24.7014 16.1846 24.582 16.1409" fill="white"/>
<path d="M24.4909 13.947L24.125 14.0146C24.125 13.9152 24.1688 13.8795 24.2642 13.8914C24.3597 13.9033 24.4074 13.9152 24.483 13.9311L24.4909 13.947Z" fill="white"/>
<path d="M25.2132 17.8816L25.3564 17.8578L25.3802 18.0088H25.3484L25.1973 17.8816" fill="white"/>
<path d="M30.015 19.4952C30.1025 19.4634 30.198 19.4436 30.2895 19.4277C30.4247 19.4277 30.4804 19.3522 30.4724 19.225C30.4724 18.9666 30.4366 18.7083 30.4088 18.454C30.3969 18.3943 30.365 18.3387 30.3173 18.299C30.1542 18.1598 30.0826 17.9413 30.1343 17.7346C30.1542 17.5875 30.1821 17.4405 30.2099 17.2855C30.4685 17.5716 30.898 17.6273 31.2242 17.4206C31.5743 17.2577 31.793 16.9 31.7771 16.5145C31.801 16.1568 31.6697 15.8031 31.4151 15.5487C31.1884 15.3381 30.8543 15.2943 30.5838 15.4414C30.3849 15.5407 30.2616 15.7514 30.2735 15.974C30.2775 16.2005 30.4088 16.4072 30.6116 16.5105C30.544 16.3038 30.5997 16.0773 30.7588 15.9302C30.8821 15.7991 30.8622 15.6798 30.731 15.5328C30.8384 15.4295 30.9975 15.4096 31.1288 15.4772C31.4828 15.6759 31.6856 16.0614 31.6578 16.4668C31.6538 16.8523 31.3873 17.1901 31.0094 17.2815C30.7548 17.3928 30.4605 17.2815 30.3491 17.0272C30.3332 16.9914 30.3213 16.9556 30.3133 16.9159C30.2139 16.5661 29.9951 16.2601 29.6968 16.0574C29.5775 15.9819 29.5138 15.8428 29.5297 15.7037C29.5377 15.4732 29.4422 15.2506 29.2672 15.1036C29.1956 15.2864 28.9967 15.3857 28.8058 15.342C28.8336 15.2069 28.9132 15.0678 28.7382 14.9764C28.5671 14.8929 28.3643 14.9247 28.229 15.0559C28.1932 15.0956 28.1614 15.1433 28.1057 15.2188L28.0421 14.8929L27.9585 14.9168L27.6443 14.7578C27.5647 14.7141 27.4852 14.6743 27.4136 14.6266C27.338 14.575 27.3022 14.4836 27.3141 14.3922C27.3141 14.1895 27.2783 13.9947 26.976 13.9947L27.1033 14.3723L26.9721 14.2133L26.9442 14.261C26.9442 14.3604 26.9124 14.4637 26.8845 14.5591C26.8169 14.8015 26.8845 14.9009 27.0993 14.9923C27.1749 15.0281 27.2465 15.0718 27.3102 15.1274C27.4375 15.2347 27.5687 15.3341 27.7079 15.4255C27.8114 15.4732 27.9267 15.4931 28.0421 15.4772C28.2489 15.4414 28.4398 15.3738 28.6506 15.3182C28.4359 15.4692 28.1813 15.5606 27.9188 15.5845C27.9028 15.7434 27.9625 15.9024 28.0739 16.0177C28.229 16.1965 28.412 16.3515 28.6148 16.4707C28.9649 16.6337 29.1956 16.9755 29.2075 17.361C29.2553 17.7545 29.478 18.1002 29.8121 18.3109C29.9872 18.454 30.0786 18.6805 30.0508 18.907C30.0508 18.9468 29.9633 18.9825 29.9116 18.9984C29.7047 19.0501 29.6371 19.1256 29.6371 19.372L29.844 19.1733L29.7564 19.4515L29.8002 19.4793L30.1065 19.217C30.0747 19.3084 30.0389 19.4038 30.0031 19.5111" fill="white"/>
<path d="M30.1746 14.0503C30.278 13.5575 29.9598 13.0766 29.4665 12.9733C29.4506 12.9693 29.4307 12.9653 29.4148 12.9653L29.4626 12.8024L28.9892 12.9336C28.7943 12.9852 28.7426 13.0448 28.7227 13.2475L28.2255 13.4025C28.134 13.4343 28.0505 13.6648 28.1141 13.7403C28.1619 13.7721 28.2175 13.788 28.2732 13.7841C28.4801 13.7841 28.5795 13.9271 28.492 14.1139C28.3846 14.0742 28.2693 13.9271 28.1619 14.0702C28.0545 14.2133 28.1619 14.2689 28.2175 14.3127L28.7665 14.3643C28.6949 14.4001 28.6233 14.4279 28.5477 14.4518C28.2772 14.4796 28.0783 14.718 28.1062 14.9883C28.1062 14.9923 28.1062 14.9962 28.1062 15.0042C28.1022 15.028 28.1022 15.0479 28.1062 15.0718C28.2175 14.9088 28.4204 14.8333 28.6113 14.877C28.8659 14.9327 28.9335 15.0519 28.8301 15.2744C29.0449 15.3062 29.1603 15.1989 29.1722 14.9406C29.3949 15.0916 29.5381 15.3301 29.57 15.5964C29.6614 15.3897 29.6893 15.1592 29.6535 14.9366L29.9598 15.0797L29.9876 15.0559C29.8762 14.7737 29.8762 14.4597 29.9876 14.1775C30.0115 14.0464 30.0274 13.9152 30.0274 13.7801L30.1587 14.0305" fill="white"/>
<path d="M27.3971 17.8816C27.4329 17.9253 27.4726 17.9611 27.5204 17.9889C27.588 18.0168 27.6636 18.0327 27.7391 18.0366C27.8505 18.0366 27.9579 18.0366 28.0693 18.0366C28.1807 18.0366 28.3477 18.0684 28.4671 18.0764C28.5466 18.0803 28.6182 18.0207 28.6222 17.9373C28.6222 17.9333 28.6222 17.9253 28.6222 17.9214C28.6222 17.7703 28.65 17.6153 28.6659 17.4723L29.1114 17.365C29.1114 17.2576 29.0796 17.1702 29.0597 17.0868C28.9762 16.7291 28.8489 16.6098 28.4074 16.6138C28.1608 16.6138 28.0733 16.7291 28.1091 16.9715C28.1449 17.2139 28.1886 17.4047 28.2324 17.6273C28.0335 17.7664 27.767 17.7544 27.58 17.5994C27.4766 17.5359 27.3652 17.4921 27.2459 17.4723C27.1823 17.4723 27.1067 17.512 27.0391 17.5359V17.5915H27.3811C27.3215 17.6034 27.2618 17.6233 27.2061 17.6551C27.1703 17.6909 27.1425 17.7346 27.1226 17.7783L27.3453 17.8816" fill="white"/>
<path d="M28.0035 16.1409L27.8205 15.7116L27.4227 15.8746C27.371 15.7832 27.3114 15.6957 27.2437 15.6162C27.204 15.5765 27.1244 15.5725 27.0488 15.5487C27.0488 15.6162 27.0488 15.66 27.0488 15.7037L27.2238 15.803C27.2238 15.803 27.2238 15.803 27.2238 15.8269L27.0568 15.7911C27.0727 15.8984 27.0846 16.0097 27.0926 16.117C27.0926 16.276 27.1761 16.3634 27.3273 16.3396C27.4466 16.3197 27.5659 16.2919 27.6853 16.2601C27.8006 16.2283 27.908 16.1846 28.0273 16.1409" fill="white"/>
<path d="M28.1055 13.947L28.4754 14.0146C28.4754 13.9152 28.4316 13.8795 28.3362 13.8914C28.2606 13.8993 28.189 13.9152 28.1174 13.9311L28.1055 13.947Z" fill="white"/>
<path d="M27.3971 17.8816L27.2539 17.8578C27.2539 17.9095 27.2539 17.9611 27.2539 18.0088H27.2857L27.4369 17.8816" fill="white"/>
<path d="M28.9852 21.1883C28.9852 21.1883 28.9852 21.1486 28.9852 21.1247V20.9737C28.9852 20.9459 28.9852 20.922 28.9852 20.8942C28.9415 20.302 28.6153 19.7695 28.1062 19.4634L28.0664 19.4396H28.0385C27.951 19.3879 27.8715 19.3204 27.8078 19.2369C27.6925 19.0859 27.5612 18.9547 27.4101 18.8395L27.3584 18.7957L27.3106 18.7004C27.1953 18.6169 27.068 18.5493 26.9367 18.5016C26.8373 18.4619 26.7339 18.4261 26.6304 18.3983V14.8929C26.6304 14.3047 26.6304 13.7006 26.6623 13.1243C26.6623 12.7865 26.6623 12.4527 26.6822 12.1148L27.1396 12.0791C27.1595 11.9956 27.1833 11.9042 27.2112 11.8049H27.7084L27.6646 11.8883L28.1778 12.1983C28.1778 11.8009 28.3886 11.4869 27.9152 11.4034V10.9504C28.2414 10.8351 28.2414 10.8351 28.1778 10.2668H27.78L27.7044 10.5569H27.2191C27.1913 10.4734 27.1595 10.3741 27.1277 10.2827L26.7299 10.2509V9.76203C26.7299 9.47588 26.6225 9.36459 26.3321 9.36459H26.2168C25.9264 9.36459 25.819 9.48382 25.819 9.76203V10.2509L25.4212 10.2827C25.3934 10.3741 25.3616 10.4734 25.3337 10.5569H24.8007C24.7729 10.4615 24.749 10.3701 24.7251 10.2668H24.3274C24.2597 10.8351 24.2597 10.8351 24.5899 10.9504V11.4034C24.1126 11.4869 24.3274 11.8009 24.3274 12.1983L24.8405 11.8883L24.7967 11.8049H25.3218C25.3456 11.9042 25.3695 11.9956 25.3934 12.0791L25.8508 12.1148C25.8508 12.4527 25.8508 12.7865 25.8508 13.1243C25.8508 13.7125 25.8508 14.3166 25.8787 14.8929V18.3983C25.7752 18.4261 25.6758 18.4619 25.5764 18.5016C25.4451 18.5493 25.3178 18.6169 25.2025 18.7004C25.1746 18.7163 25.1507 18.7361 25.1269 18.76L25.0752 18.7997C24.924 18.915 24.7928 19.0461 24.6774 19.1972C24.6138 19.2806 24.5342 19.3482 24.4467 19.3998H24.4188L24.3791 19.4237C23.8699 19.7297 23.5438 20.2583 23.5 20.8505C23.5 20.8783 23.5 20.9022 23.5 20.93C23.5 20.93 23.5 20.9578 23.5 20.9697C23.5 20.9816 23.5 21.0055 23.5 21.0254V21.1247C23.5 21.1486 23.5 21.1684 23.5 21.1883C23.5 21.2042 23.5 21.2201 23.5 21.236C23.5716 21.7924 23.8898 22.2892 24.3711 22.5793C24.4825 22.6588 24.5859 22.7502 24.6814 22.8456C24.9121 23.1636 25.2184 23.4219 25.5764 23.5888L25.7116 23.7041C25.7474 23.7836 25.7752 23.875 25.811 23.9664C25.8349 24.0856 25.8866 24.1969 25.9662 24.2883C25.9662 24.2883 25.9662 24.2883 25.99 24.2883C26.0537 24.332 26.1293 24.3519 26.2048 24.34C26.2804 24.3519 26.36 24.332 26.4236 24.2883H26.4514C26.531 24.1969 26.5827 24.0856 26.6066 23.9664C26.6424 23.875 26.6702 23.7836 26.702 23.7041L26.8413 23.5888C27.1953 23.4219 27.5016 23.1636 27.7323 22.8456C27.8317 22.7502 27.9351 22.6628 28.0425 22.5793C28.5238 22.2892 28.846 21.7924 28.9176 21.236C28.9176 21.2201 28.9176 21.2042 28.9176 21.1883H28.9852ZM28.5199 21.5579C28.4602 21.705 28.3767 21.8401 28.2693 21.9554C28.2096 22.015 28.1459 22.0706 28.0743 22.1143C27.8993 21.399 27.8993 20.6518 28.0743 19.9364C28.321 20.1113 28.496 20.3696 28.5716 20.6637C28.6551 20.9419 28.6591 21.24 28.5835 21.5222V21.554L28.5199 21.5579ZM26.2804 24.336C26.2048 24.2327 26.1293 24.1532 26.0775 24.0856C26.0378 24.0379 26.0179 23.9823 26.0179 23.9227C26.0179 23.8392 26.173 23.7279 26.2804 23.7041C26.3878 23.6802 26.535 23.8392 26.5469 23.9227C26.5469 23.9823 26.523 24.0419 26.4833 24.0856C26.4316 24.1532 26.36 24.2327 26.2804 24.336ZM26.4077 23.3464H26.3003H26.1969H26.177C26.0139 23.3265 25.8508 23.2788 25.7036 23.2073C25.5445 23.1238 25.3974 23.0205 25.2621 22.9013C25.9343 22.6509 26.6702 22.6509 27.3425 22.9013C27.2072 23.0245 27.06 23.1238 26.897 23.2073C26.7498 23.2828 26.5907 23.3265 26.4276 23.3464H26.4077ZM26.3003 20.3696C26.4515 20.3537 26.6066 20.3895 26.7378 20.465C26.8373 20.6081 26.881 20.7829 26.8612 20.9538C26.8651 21.0134 26.8651 21.077 26.8612 21.1366V21.1684C26.8612 21.1804 26.8612 21.1923 26.8612 21.2042C26.8651 21.2241 26.8651 21.24 26.8612 21.2599V21.2797C26.8612 21.2797 26.8612 21.3075 26.8612 21.3234C26.8612 21.3393 26.8612 21.3473 26.8612 21.3592C26.8015 21.5778 26.6503 21.6454 26.3361 21.6493H26.2764C25.9622 21.6493 25.811 21.5778 25.7514 21.3592C25.7514 21.3473 25.7514 21.3354 25.7514 21.3234C25.7514 21.3075 25.7514 21.2956 25.7514 21.2797V21.2599C25.7514 21.2599 25.7514 21.2241 25.7514 21.2042C25.7514 21.1923 25.7514 21.1804 25.7514 21.1684V21.1366C25.7474 21.077 25.7474 21.0134 25.7514 20.9538C25.7315 20.7829 25.7752 20.6081 25.8707 20.465C26.002 20.3895 26.1571 20.3537 26.3083 20.3696H26.3003ZM27.3106 19.0938L27.2788 19.1773L26.9208 19.225L26.5986 19.2647V18.7043L27.3106 19.1018V19.0938ZM27.609 19.6582C27.8596 19.8927 27.8118 20.2901 27.6607 20.6756L26.6583 19.7973L26.535 19.686C26.6662 19.6383 26.7975 19.5946 26.9328 19.5628C27.1635 19.4674 27.43 19.5032 27.6288 19.6582H27.609ZM26.0378 19.686L25.9105 19.7973L24.9121 20.6756C24.7609 20.2782 24.7132 19.8807 24.9638 19.6582C25.1627 19.5032 25.4292 19.4674 25.6599 19.5628C25.7951 19.5946 25.9264 19.6383 26.0577 19.686H26.0378ZM25.994 19.2886L25.6718 19.2488L25.3138 19.2011L25.282 19.1177L25.994 18.7202V19.2886ZM24.9399 21.4546C25.0195 21.5102 25.103 21.5579 25.1826 21.6096L25.7196 22.0984L25.9343 22.3687C25.9343 22.3687 25.9343 22.3687 25.9343 22.3925C25.827 22.4323 25.7196 22.4641 25.6122 22.4919C25.3814 22.5277 25.1468 22.484 24.9439 22.3687C24.8246 22.1898 24.7729 21.9752 24.7967 21.7606C24.8126 21.6454 24.8484 21.5341 24.8962 21.4307L24.9399 21.4546ZM27.6129 22.3687C27.4101 22.484 27.1754 22.5277 26.9447 22.4919C26.8333 22.4681 26.7259 22.4323 26.6225 22.3925C26.6225 22.3925 26.6225 22.3925 26.6225 22.3687C26.702 22.2773 26.7697 22.1859 26.8413 22.0984L27.426 21.5857C27.5055 21.5341 27.5891 21.4864 27.6686 21.4307C27.7164 21.5341 27.7522 21.6454 27.7681 21.7606C27.7919 21.9752 27.7402 22.1898 27.6209 22.3687H27.6129ZM23.9853 21.5738V21.542C23.8898 21.2638 23.8739 20.9657 23.9415 20.6796C24.0052 20.3815 24.1722 20.1192 24.4109 19.9324C24.5819 20.6478 24.5819 21.395 24.4109 22.1104C24.3393 22.0666 24.2717 22.011 24.212 21.9514C24.1046 21.8361 24.0211 21.701 23.9654 21.554" fill="white"/>
<path d="M26.4797 21.0214C26.4797 21.1287 26.3921 21.2161 26.2847 21.2161C26.1774 21.2161 26.0898 21.1287 26.0898 21.0214C26.0898 20.9141 26.1774 20.8266 26.2847 20.8266C26.3921 20.8266 26.4797 20.9141 26.4797 21.0214Z" fill="white"/>
<path d="M19.561 24.4711C19.6286 24.177 19.3383 24.1333 19.199 24.0061C14.9151 20.1073 14.6008 13.478 18.503 9.19369C18.7337 8.9433 18.9723 8.70087 19.2269 8.47433C19.5531 8.21202 19.7281 7.80663 19.7002 7.38933C19.6644 6.00625 19.7002 4.60728 19.7002 3.23215C19.7002 2.96189 19.7002 2.73933 19.382 2.59228C19.0757 2.46907 18.9246 2.11933 19.0479 1.8133C19.0678 1.76561 19.0917 1.72189 19.1195 1.68215C19.2667 1.39202 19.6167 1.26484 19.915 1.39202C20.2293 1.47151 20.4202 1.79343 20.3406 2.1074C20.3327 2.13522 20.3247 2.15907 20.3128 2.18689C20.1736 2.52471 20.3128 2.67176 20.5236 2.86253C21.0009 3.33151 21.4862 3.79651 21.9437 4.28535C22.1664 4.52381 22.3136 4.50394 22.5403 4.28535C23.5109 3.35535 24.4934 2.44125 25.4719 1.52715C25.6628 1.35228 25.81 1.21317 25.6389 0.911122C25.4918 0.640865 25.5872 0.299071 25.8498 0.140096C26.0805 -0.0466987 26.4146 -0.0466987 26.6453 0.140096C26.9237 0.279199 27.0391 0.613045 26.9118 0.895224C26.7169 1.23702 26.9118 1.37215 27.1147 1.55497C28.0614 2.44125 29.016 3.31958 29.9428 4.22971C30.2411 4.52779 30.4162 4.50792 30.6827 4.20189C31.0526 3.80445 31.4782 3.40702 31.876 3.00958C32.1345 2.74728 32.4488 2.56048 32.2379 2.06369C32.1067 1.76561 32.3573 1.46356 32.7073 1.37215C33.0215 1.25292 33.3756 1.40792 33.5028 1.71792C33.6779 1.9842 33.6023 2.34189 33.3358 2.51676C33.3238 2.52471 33.3079 2.53266 33.292 2.54061C32.8943 2.71946 32.8943 3.00163 32.8943 3.33548C32.8943 4.74638 32.8943 6.1533 32.8943 7.56023C32.8704 7.84638 32.9857 8.12458 33.2005 8.31138C37.934 12.6832 38.0573 19.3839 33.5028 23.8948C33.3994 23.9942 33.0733 24.0419 33.2801 24.3241C32.8823 24.181 32.7869 24.5268 32.5999 24.7215C31.4663 25.4409 30.2411 26.0052 28.9563 26.4066C27.242 26.8041 25.4639 26.816 23.7456 26.4464C22.3772 26.0569 21.0845 25.4289 19.9309 24.5943C19.8235 24.5268 19.7718 24.3241 19.5809 24.4552L19.561 24.4711ZM26.2634 7.38138C21.3589 7.38933 17.3932 11.3677 17.4011 16.268C17.4091 21.1684 21.3908 25.1309 26.2953 25.1229C31.1998 25.115 35.1655 21.1366 35.1576 16.2362C35.1576 16.2323 35.1576 16.2283 35.1576 16.2243C35.1576 11.3398 31.1958 7.38138 26.3072 7.38138C26.2913 7.38138 26.2793 7.38138 26.2634 7.38138Z" fill="white"/>
<path d="M0.794922 26.1125C2.4934 25.9893 4.18392 25.8621 5.88239 25.7509C6.28016 25.723 6.45916 25.6793 6.28016 25.1746C5.94604 24.1373 6.47507 23.6484 7.55303 23.9028C8.12184 24.0618 8.64689 24.3519 9.08444 24.7493C9.27139 24.5546 9.16399 24.3241 9.17593 24.1214C9.26343 22.9847 9.63734 21.9832 10.767 21.5341C11.7932 21.1048 12.9746 21.3473 13.7503 22.1421C14.6771 23.0483 15.5243 24.0379 16.2721 25.0991C16.3199 25.2104 16.3517 25.3256 16.3716 25.4448C15.8107 25.0037 15.2857 24.5188 14.8044 23.9942C14.3907 23.5252 13.9332 23.096 13.436 22.7145C12.4416 21.9752 11.3318 21.9434 10.5363 22.631C9.70496 23.398 9.48221 24.6221 9.99135 25.6316C10.226 26.1284 10.6556 26.4543 10.954 26.8915C10.8943 26.8915 10.8068 26.9471 10.775 26.9233C10.047 26.3629 9.18388 26.3868 8.3247 26.2636C7.70418 26.1801 7.21492 25.6913 7.13139 25.0713L7.20299 25.0037C7.8076 25.6436 8.6628 25.9814 9.5379 25.9257C9.27935 24.7334 8.26901 24.4711 7.30243 24.2287C6.79726 24.1015 6.55462 24.4234 6.65407 24.9441C6.7376 25.27 6.89273 25.572 7.1115 25.8304C8.3247 27.3486 10.3613 27.9328 12.195 27.2889C12.2427 27.2889 12.2706 27.2015 12.3103 27.1578C12.4496 27.2412 12.6325 27.1936 12.7121 27.0545C12.7201 27.0425 12.724 27.0306 12.732 27.0187C12.8274 27.0187 12.9627 27.0505 12.8792 26.8716C13.1496 27.0386 13.3167 26.7961 13.4997 26.6928C14.693 26.0052 14.693 25.9933 15.7869 26.8677C16.4352 27.4241 17.2705 27.7261 18.1257 27.7142C19.0406 27.7142 19.5378 27.3168 19.7168 26.4027C19.7526 26.2079 19.7725 26.0569 20.0112 26.0688L19.868 27.3088C18.8735 28.4336 17.1631 28.5647 16.0056 27.6069C15.3414 27.0266 14.3788 26.9392 13.619 27.3883C12.3422 28.0123 10.8983 28.215 9.49812 27.9725C8.9134 27.9209 8.3605 27.6943 7.90704 27.3247C7.36607 26.7882 6.74953 26.7604 6.07332 26.7484C4.32712 26.7166 2.58488 26.653 0.838677 26.6014C1.0137 26.3987 1.25633 26.4861 1.46317 26.4742C2.77184 26.4106 4.0805 26.3629 5.38916 26.3073C4.92377 26.2397 4.45838 26.2079 3.98901 26.2119C2.94288 26.1721 1.89277 26.343 0.854587 26.1125" fill="white"/>
<path d="M12.3062 27.1578C10.4804 26.7604 9.67694 24.9043 10.7151 23.4577C11.1129 22.7582 11.9959 22.5078 12.704 22.8893C13.3483 23.2033 13.9331 23.6246 14.4343 24.1373C15.0349 24.7056 15.6276 25.2978 16.2282 25.8542C16.7533 26.3431 17.4454 26.6133 18.1614 26.6173C18.7143 26.6173 18.9569 26.3073 18.8694 25.8224C18.8495 25.6197 18.7182 25.4449 18.5273 25.3654C18.396 25.3137 18.2489 25.3574 18.1733 25.4767C18.0023 25.7032 18.3523 25.7827 18.3324 25.9854C17.9346 25.9854 17.7835 25.7588 17.8193 25.417C17.871 24.9441 18.2528 24.9282 18.6148 24.9004C19.3149 25.6674 19.4621 26.1722 19.1279 26.6888C18.7938 27.2055 17.9346 27.4122 17.1112 27.1618C16.5583 26.975 16.0572 26.669 15.6395 26.2596C14.7923 25.4011 13.8575 24.6301 12.8551 23.9624C12.4573 23.716 11.992 23.3941 11.4868 23.6763C10.9816 23.9584 10.9418 24.5546 10.9299 25.0911C10.8981 25.4488 10.9936 25.8105 11.2004 26.1046C11.4908 26.5299 12.0437 26.6888 12.513 26.4782C12.7756 26.4186 12.9386 26.1602 12.883 25.9019C12.867 25.8383 12.8432 25.7787 12.8034 25.7231C12.7239 25.4806 12.4613 25.3495 12.2187 25.429C12.1352 25.4568 12.0596 25.5084 12.0079 25.576C11.9442 25.6317 11.9044 25.7787 11.7573 25.6555C11.7374 25.3534 11.9681 25.0951 12.2704 25.0752C12.338 25.0713 12.4056 25.0792 12.4693 25.0991C12.8989 25.1229 13.241 25.4647 13.2648 25.894C13.3245 26.3192 13.0182 26.5855 12.8432 26.9034C12.7477 26.9034 12.6284 26.9034 12.696 27.0505C12.5528 26.967 12.3698 27.0187 12.2903 27.1618C12.2863 27.1697 12.2783 27.1817 12.2744 27.1896L12.3062 27.1578Z" fill="white"/>
<path d="M19.8999 24.6063C19.6294 24.809 19.8999 24.9481 19.9675 25.0991C20.1306 25.3932 20.2062 25.727 20.1863 26.0649C20.1425 26.351 20.0192 25.9536 19.9317 26.0649C19.8124 25.3972 19.2555 24.8924 18.5753 24.8487C18.0343 24.5784 17.6724 24.7414 17.6127 25.2819C17.5968 25.4369 17.5968 25.5959 17.6127 25.7509C17.6405 25.882 17.6525 26.0132 17.6525 26.1483C17.1632 25.4011 16.5029 24.801 15.9739 24.0936C15.5443 23.5213 15.1107 22.9529 14.6374 22.4164C13.9294 21.5937 12.9349 21.0691 11.853 20.9459C10.4449 20.8028 9.41069 21.5222 9.01292 22.949C8.97315 23.0881 8.93735 23.2311 8.88564 23.4179C8.47991 22.3369 9.02884 21.1366 10.1108 20.7313C10.1426 20.7193 10.1744 20.7074 10.2062 20.6995C11.3518 20.2464 12.6406 20.3656 13.6827 21.0214C14.6573 21.6136 15.4767 22.4323 16.0694 23.406C16.4035 23.9068 16.7177 24.4195 17.0678 24.9759C17.7161 23.8869 18.6588 24.2645 19.5459 24.4711C19.6055 24.6659 19.6493 24.8884 19.8959 24.6102" fill="white"/>
<path d="M14.6735 18.2433C14.9161 17.7823 15.1627 17.4484 15.1508 17.051C15.1508 16.5462 14.9281 16.1448 14.395 16.113C13.862 16.0812 13.687 16.5105 13.6711 16.9715C13.6791 17.7783 13.874 18.5692 14.2439 19.2846C14.7689 20.2941 15.3815 21.2559 16.0776 22.158C16.3759 22.5396 16.5828 22.9847 16.6782 23.4577C15.5128 22.0587 14.3394 20.93 13.5279 19.5071C13.0108 18.7162 12.7761 17.7703 12.8636 16.8284C12.975 15.9859 13.5518 15.4573 14.2678 15.493C15.0593 15.5765 15.652 16.2521 15.6321 17.047C15.656 17.6273 15.2463 18.14 14.6735 18.2433Z" fill="white"/>
<path d="M21.1688 28.4932C20.1068 28.517 19.888 28.3263 19.8164 27.3009C20.6119 26.6451 21.4512 26.7008 22.3582 26.967C23.464 27.2731 24.53 27.7023 25.5403 28.2468C25.1982 28.4693 24.9954 28.2468 24.7885 28.1792C23.7822 27.75 22.7201 27.4519 21.6382 27.289C21.3279 27.2333 21.0097 27.2572 20.7074 27.3486C20.4489 27.44 20.1545 27.5632 20.3096 27.9129C20.4131 28.1633 20.6995 28.2786 20.95 28.1752C20.9858 28.1593 21.0177 28.1434 21.0495 28.1196C21.2006 28.0242 21.3478 27.9209 21.4831 27.8056C21.7018 28.0083 21.2643 28.1633 21.4473 28.3581C21.2722 28.2388 21.2166 28.3581 21.1688 28.4932Z" fill="white"/>
<path d="M21.4268 28.3739C21.9797 28.3739 22.6201 28.1752 22.8349 29.1092C22.6121 28.9462 22.4729 28.835 22.3178 28.7396C22.1109 28.5886 21.8325 28.5965 21.6336 28.7595C21.4944 28.8389 21.4268 29.0019 21.4665 29.1569C21.5421 29.3755 21.741 29.5305 21.9717 29.5543C22.7235 29.6855 23.4991 29.61 24.2112 29.3397L25.7585 28.8191C24.9868 29.7292 22.7155 30.3889 21.7808 30.0591C21.1205 29.8286 21.0091 29.5384 21.1722 28.4932C21.3512 28.6164 21.4188 28.521 21.4546 28.3541L21.4268 28.3739Z" fill="white"/>
<path d="M23.7294 26.7325C24.1073 26.7246 24.4891 26.7484 24.863 26.7961C25.5671 26.9392 26.0961 27.5194 26.1757 28.2309H26.0245C25.5631 27.5155 24.7914 27.0544 23.9402 26.9948C23.6379 26.9511 23.6419 26.9312 23.7294 26.7365" fill="white"/>
<path d="M7.13545 25.0673C7.13545 25.0156 7.09169 24.9242 7.10362 24.9162C7.18716 24.8686 7.18716 24.952 7.20705 24.9997L7.13545 25.0673Z" fill="white"/>
<path d="M10.9549 26.8955L11.0464 26.9591C11.0464 26.9591 11.0026 26.9829 10.9867 26.9591C10.9708 26.9352 10.9151 26.9074 10.9668 26.8637L10.9549 26.8955Z" fill="white"/>
<path d="M12.291 27.1618C12.3586 27.0107 12.5337 26.9432 12.6848 27.0068C12.6928 27.0107 12.7047 27.0147 12.7127 27.0227C12.649 27.1737 12.478 27.2413 12.3268 27.1816C12.3149 27.1737 12.3029 27.1697 12.291 27.1618Z" fill="white"/>
<path d="M12.6976 27.0306C12.6299 26.8676 12.7493 26.8915 12.8447 26.8835C12.9283 27.0624 12.793 27.0266 12.6976 27.0306Z" fill="white"/>
<path d="M21.4426 28.366C21.4068 28.5329 21.3392 28.6283 21.1602 28.5051C21.2119 28.366 21.2676 28.2468 21.4426 28.366Z" fill="white"/>
<path d="M51.8135 26.1125C50.119 25.9893 48.4245 25.8621 46.73 25.7509C46.3322 25.723 46.1492 25.6793 46.3322 25.1746C46.6703 24.1373 46.1373 23.6484 45.0594 23.9028C44.4905 24.0618 43.9655 24.3519 43.5279 24.7493C43.341 24.5546 43.4524 24.3241 43.4364 24.1214C43.3489 22.9847 42.975 21.9832 41.8454 21.5341C40.8231 21.1048 39.6377 21.3473 38.8661 22.1421C37.9353 23.0483 37.092 24.0379 36.3402 25.0991C36.2925 25.2104 36.2567 25.3256 36.2368 25.4448C36.8056 25.0037 37.3386 24.5188 37.8279 23.9942C38.2416 23.5252 38.699 23.096 39.1922 22.7145C40.1867 21.9752 41.2964 21.9434 42.092 22.631C42.9233 23.398 43.1461 24.6221 42.6369 25.6316C42.4023 26.1284 41.9727 26.4543 41.6783 26.8915C41.738 26.8915 41.8255 26.9471 41.8573 26.9233C42.5852 26.3629 43.4484 26.3868 44.3076 26.2636C44.9281 26.1801 45.4173 25.6913 45.5009 25.0713C45.477 25.0514 45.4531 25.0275 45.4333 25.0037C44.8286 25.6436 43.9734 25.9774 43.0944 25.9257C43.3569 24.7334 44.3633 24.4711 45.3298 24.2287C45.835 24.1015 46.0816 24.4234 45.9782 24.9441C45.8947 25.27 45.7395 25.572 45.5208 25.8304C44.3076 27.3486 42.271 27.9328 40.4373 27.2889C40.3895 27.2889 40.3617 27.2015 40.3259 27.1578C40.1867 27.2412 40.0037 27.1936 39.9241 27.0545C39.9162 27.0425 39.9122 27.0306 39.9043 27.0187C39.8128 27.0187 39.6735 27.0505 39.7611 26.8716C39.4866 27.0386 39.3195 26.7961 39.1366 26.6928C37.9433 26.0052 37.9433 25.9933 36.8494 26.8677C36.201 27.4241 35.3657 27.7261 34.5105 27.7142C33.5956 27.7142 33.0984 27.3168 32.9194 26.4027C32.8796 26.2079 32.8598 26.0569 32.6211 26.0688L32.7643 27.3088C33.7587 28.4336 35.4691 28.5647 36.6266 27.6069C37.2909 27.0266 38.2535 26.9392 39.0133 27.3883C40.2901 28.0083 41.73 28.215 43.1302 27.9725C43.7149 27.9209 44.2678 27.6943 44.7212 27.3247C45.2622 26.7882 45.8788 26.7604 46.5589 26.7484C48.3012 26.7166 50.0474 26.653 51.7896 26.6014C51.6146 26.3987 51.3918 26.4861 51.1651 26.4742C49.8565 26.4106 48.5478 26.3629 47.2431 26.3073C47.7085 26.2397 48.1739 26.2079 48.6433 26.2119C49.6854 26.1721 50.7355 26.343 51.7737 26.1125" fill="white"/>
<path d="M40.3058 27.1578C42.1276 26.7604 42.9351 24.9043 41.8969 23.4577C41.4991 22.7582 40.6161 22.5038 39.9081 22.8893C39.2597 23.1993 38.675 23.6246 38.1738 24.1373C37.5732 24.7056 36.9805 25.2978 36.3798 25.8542C35.8508 26.347 35.1507 26.6213 34.4268 26.6173C33.8739 26.6173 33.6313 26.3073 33.7148 25.8224C33.7347 25.6197 33.8659 25.4449 34.0569 25.3654C34.1881 25.3097 34.3353 25.3574 34.4109 25.4766C34.5819 25.7032 34.2319 25.7827 34.2558 25.9854C34.6535 25.9854 34.8007 25.7588 34.7649 25.417C34.7132 24.9441 34.3353 24.9282 33.9694 24.9004C33.2693 25.6674 33.1221 26.1722 33.4562 26.6888C33.7904 27.2055 34.6495 27.4122 35.4729 27.1618C36.0258 26.975 36.527 26.669 36.9447 26.2596C37.7919 25.4011 38.7267 24.6301 39.7291 23.9624C40.1268 23.716 40.5922 23.3941 41.1014 23.6763C41.6105 23.9584 41.6423 24.5546 41.6582 25.0911C41.6901 25.4488 41.5906 25.8105 41.3838 26.1046C41.0974 26.5299 40.5445 26.6888 40.0751 26.4782C39.8126 26.4225 39.6455 26.1642 39.7012 25.9019C39.7132 25.8383 39.741 25.7747 39.7808 25.7231C39.8603 25.4806 40.1229 25.3495 40.3655 25.429C40.449 25.4568 40.5246 25.5084 40.5763 25.576C40.64 25.6316 40.6797 25.7787 40.8269 25.6555C40.8269 25.3534 40.5803 25.107 40.278 25.107C40.2263 25.107 40.1785 25.115 40.1308 25.1269C39.7012 25.1507 39.3591 25.4925 39.3353 25.9218C39.2796 26.347 39.5819 26.6133 39.7609 26.9313C39.8524 26.9313 39.9717 26.9313 39.9041 27.0783C40.0473 26.9949 40.2303 27.0465 40.3098 27.1896C40.3138 27.1975 40.3217 27.2095 40.3257 27.2174L40.3058 27.1578Z" fill="white"/>
<path d="M32.7075 24.6062C32.978 24.8089 32.7075 24.948 32.6399 25.0991C32.4768 25.3932 32.4012 25.727 32.4211 26.0648C32.4648 26.351 32.5921 25.9536 32.6757 26.0648C32.795 25.3971 33.3519 24.8924 34.032 24.8487C34.573 24.5784 34.935 24.7414 34.9947 25.2819C35.0106 25.4369 35.0106 25.5959 34.9947 25.7509C34.9668 25.882 34.9549 26.0132 34.9589 26.1483C35.4441 25.4011 36.1044 24.801 36.6335 24.0936C37.0631 23.5212 37.5006 22.9529 37.97 22.4164C38.678 21.5937 39.6724 21.0691 40.7544 20.9459C42.238 20.7591 43.2683 21.4745 43.674 22.9052C43.7138 23.0443 43.7496 23.1874 43.8013 23.3742C44.203 22.2932 43.6541 21.0929 42.5761 20.6915C42.5443 20.6796 42.5125 20.6677 42.4767 20.6557C41.3311 20.2027 40.0384 20.3219 38.9962 20.9777C38.0217 21.5698 37.2023 22.3886 36.6096 23.3623C36.2755 23.863 35.9612 24.3757 35.6112 24.9321C34.9628 23.8432 34.0201 24.2207 33.1371 24.4274C33.0774 24.6221 33.0336 24.8447 32.787 24.5665" fill="white"/>
<path d="M37.9344 18.2433C37.6918 17.7823 37.4452 17.4484 37.4571 17.051C37.4571 16.5462 37.6839 16.1448 38.2169 16.113C38.7499 16.0812 38.9249 16.5105 38.9408 16.9715C38.9328 17.7783 38.734 18.5692 38.364 19.2846C37.843 20.298 37.2264 21.2598 36.5303 22.158C36.232 22.5396 36.0252 22.9847 35.9297 23.4577C37.0952 22.0587 38.2686 20.93 39.08 19.5071C39.5971 18.7162 39.8358 17.7703 39.7483 16.8284C39.6329 15.9859 39.0601 15.4573 38.3402 15.493C37.5526 15.5805 36.9599 16.2521 36.9758 17.047C36.952 17.6273 37.3617 18.136 37.9344 18.2433Z" fill="white"/>
<path d="M31.4398 28.4932C32.5058 28.517 32.7206 28.3263 32.7922 27.3009C31.9967 26.6451 31.1574 26.7008 30.2544 26.967C29.1486 27.2731 28.0826 27.7023 27.0723 28.2468C27.4183 28.4693 27.6212 28.2468 27.828 28.1792C28.8344 27.75 29.8925 27.4479 30.9784 27.289C31.2886 27.2333 31.6068 27.2572 31.9091 27.3486C32.1637 27.44 32.4581 27.5632 32.3069 27.9129C32.2035 28.1593 31.9211 28.2786 31.6745 28.1752C31.6387 28.1593 31.6029 28.1395 31.571 28.1196C31.4159 28.0242 31.2727 27.9209 31.1335 27.8056C30.9147 28.0083 31.3523 28.1633 31.1693 28.3581C31.3443 28.2388 31.404 28.3581 31.4517 28.4932H31.4398Z" fill="white"/>
<path d="M31.1813 28.3739C30.6324 28.3739 29.988 28.1752 29.7732 29.1092C29.996 28.9462 30.1392 28.835 30.2903 28.7396C30.4972 28.5925 30.7796 28.6005 30.9785 28.7595C31.1137 28.8429 31.1773 29.0019 31.1415 29.1569C31.066 29.3755 30.8671 29.5305 30.6364 29.5543C29.8846 29.6855 29.1089 29.61 28.3969 29.3397L26.8496 28.8191C27.6451 29.7292 29.8925 30.3889 30.8273 30.0591C31.4836 29.8286 31.595 29.5384 31.4319 28.4932C31.2529 28.6164 31.1853 28.521 31.1495 28.3541L31.1813 28.3739Z" fill="white"/>
<path d="M28.9014 26.7325C28.5235 26.7246 28.1416 26.7484 27.7677 26.7961C27.0637 26.9392 26.5346 27.5194 26.4551 28.2309H26.6062C27.0676 27.5155 27.8393 27.0544 28.6905 26.9948C28.9928 26.9511 28.9928 26.9312 28.9014 26.7365" fill="white"/>
<path d="M45.4719 25.0673C45.4719 25.0156 45.5157 24.9242 45.5037 24.9162C45.4242 24.8686 45.4202 24.952 45.4043 24.9997C45.4242 25.0236 45.4481 25.0474 45.4719 25.0673Z" fill="white"/>
<path d="M41.658 26.8955L41.5625 26.9591C41.5625 26.9591 41.6063 26.9829 41.6261 26.9591C41.646 26.9352 41.6938 26.9074 41.6261 26.8637L41.658 26.8955Z" fill="white"/>
<path d="M40.3181 27.1618C40.2505 27.0107 40.0755 26.9432 39.9243 27.0068C39.9164 27.0107 39.9044 27.0147 39.8965 27.0227C39.9641 27.1737 40.1391 27.2413 40.2903 27.1777C40.2982 27.1737 40.3102 27.1657 40.3181 27.1618Z" fill="white"/>
<path d="M39.9112 27.0306C39.9788 26.8676 39.8595 26.8915 39.768 26.8835C39.6805 27.0624 39.8197 27.0266 39.9112 27.0306Z" fill="white"/>
<path d="M31.1641 28.366C31.1999 28.5329 31.2675 28.6283 31.4465 28.5051C31.3987 28.366 31.3391 28.2468 31.1641 28.366Z" fill="white"/>
<path d="M26.5584 29.0734C26.5584 29.2205 26.4391 29.3397 26.2919 29.3397C26.1447 29.3397 26.0254 29.2205 26.0254 29.0734C26.0254 28.9264 26.1447 28.8072 26.2919 28.8072C26.4391 28.8072 26.5584 28.9264 26.5584 29.0734Z" fill="white"/>
</svg>
