<svg width="363" height="58" viewBox="0 0 363 58" fill="none" xmlns="http://www.w3.org/2000/svg">
<g clip-path="url(#clip0)">
<path d="M29.5348 26.2907C29.4109 26.2478 29.2869 26.221 29.1576 26.1996C28.9798 26.1996 28.899 26.0978 28.9098 25.9262C28.9367 25.5779 28.9582 25.2295 28.996 24.8864C29.0121 24.806 29.0552 24.731 29.1199 24.6774C29.3408 24.4898 29.4432 24.195 29.3732 23.9163C29.3408 23.7179 29.3031 23.5196 29.2654 23.3106C28.9151 23.6965 28.3332 23.7716 27.8913 23.4928C27.4171 23.2731 27.1208 22.7907 27.1423 22.2708C27.11 21.7884 27.2932 21.3113 27.6381 20.9683C27.9398 20.6842 28.3925 20.6306 28.7589 20.8236C29.0283 20.9576 29.1953 21.2417 29.1792 21.5418C29.1738 21.8473 28.996 22.126 28.7212 22.2654C28.8181 21.9867 28.7427 21.6812 28.5218 21.4829C28.3547 21.306 28.3817 21.1452 28.5649 20.9469C28.4194 20.8075 28.2039 20.7807 28.026 20.8718C27.5357 21.1398 27.2501 21.6705 27.2986 22.2225C27.3094 22.7424 27.6704 23.1927 28.1769 23.3213C28.5218 23.4714 28.9205 23.3213 29.0714 22.9783C29.093 22.93 29.1091 22.8818 29.1199 22.8282C29.26 22.3458 29.5671 21.9277 29.9928 21.6544C30.1491 21.5525 30.2353 21.3649 30.2138 21.1773C30.203 20.8665 30.3323 20.5663 30.5694 20.368C30.6664 20.6145 30.9358 20.7485 31.1945 20.6896C31.1567 20.5073 31.049 20.3197 31.2861 20.1965C31.5178 20.0839 31.7926 20.1268 31.9758 20.3037C32.0351 20.3733 32.0943 20.4484 32.1428 20.5234C32.1752 20.3573 32.2021 20.2233 32.2344 20.0839L32.3422 20.1161L32.7679 19.9017C32.8757 19.8427 32.9888 19.7891 33.0858 19.7248C33.1882 19.6551 33.2367 19.5318 33.2151 19.4086C33.2151 19.1352 33.2636 18.8726 33.6732 18.8726C33.6085 19.0655 33.5492 19.2531 33.5007 19.3818L33.6785 19.1674C33.6947 19.1888 33.7055 19.2102 33.7163 19.2317C33.7163 19.3657 33.7648 19.505 33.7971 19.6337C33.8941 19.9606 33.7971 20.0946 33.5061 20.2179C33.4037 20.2661 33.3067 20.3251 33.2205 20.4001C33.0481 20.5449 32.8703 20.6789 32.6817 20.8021C32.5362 20.8665 32.3799 20.8933 32.2237 20.8718C31.9435 20.8236 31.6848 20.7325 31.3992 20.6574C31.6902 20.8611 32.0351 20.9844 32.3907 21.0165C32.4123 21.2309 32.3368 21.4453 32.1806 21.6008C31.9704 21.842 31.7279 22.0456 31.4531 22.2118C30.9789 22.4262 30.661 22.8925 30.6448 23.4124C30.5802 23.9431 30.2784 24.4147 29.8258 24.6935C29.5887 24.8918 29.4702 25.1919 29.5079 25.4975C29.5079 25.5511 29.621 25.5993 29.6911 25.6207C29.9767 25.6904 30.0629 25.7923 30.0629 26.1246L29.7827 25.8566L29.9012 26.2318L29.842 26.2693L29.4324 25.9155C29.4755 26.0388 29.5186 26.1674 29.5725 26.3122" fill="white"/>
<path d="M29.3135 18.9477C29.1734 18.283 29.6045 17.6345 30.2727 17.4951C30.2942 17.4898 30.3212 17.4844 30.3427 17.4844C30.3427 17.4094 30.305 17.3343 30.2835 17.2646L30.9193 17.4415C31.1833 17.5112 31.2588 17.5916 31.2803 17.865C31.5066 17.9293 31.7276 17.999 31.9539 18.074C32.0778 18.1169 32.191 18.4278 32.1048 18.5296C32.0401 18.5725 31.9647 18.5939 31.8892 18.5886C31.609 18.5886 31.4797 18.7815 31.5929 19.0334C31.7383 18.9798 31.8946 18.7815 32.0401 18.9745C32.1856 19.1674 32.0401 19.2425 31.97 19.3014L31.2211 19.3711C31.318 19.4193 31.4204 19.4622 31.5228 19.489C31.8838 19.5319 32.1479 19.8589 32.1048 20.218C32.1048 20.2233 32.1048 20.2287 32.1048 20.2341C32.1101 20.2662 32.1101 20.293 32.1048 20.3252C31.9539 20.1054 31.6791 20.0036 31.4204 20.0625C31.0756 20.1376 30.984 20.2984 31.1241 20.5985C30.8385 20.6414 30.6768 20.4967 30.6607 20.1483C30.3589 20.352 30.1649 20.6736 30.1218 21.0327C30.0033 20.754 29.9655 20.4431 30.014 20.1429L29.5937 20.3359L29.556 20.3037C29.7123 19.9232 29.7123 19.4997 29.556 19.1192C29.5237 18.9423 29.5021 18.7654 29.5021 18.5832C29.4321 18.7172 29.3782 18.8244 29.3243 18.9209" fill="white"/>
<path d="M33.0798 24.1143C33.0314 24.1732 32.9721 24.2215 32.9074 24.259C32.8158 24.3019 32.7134 24.3233 32.611 24.3233C32.4602 24.3233 32.3147 24.3233 32.1692 24.3233C32.0237 24.3233 31.7866 24.3662 31.598 24.3769C31.4094 24.3876 31.404 24.2965 31.3879 24.1679C31.3717 24.0392 31.3501 23.7551 31.334 23.5622L30.7305 23.4175C30.7305 23.2727 30.7736 23.1548 30.8005 23.0423C30.9083 22.5599 31.0807 22.3991 31.6842 22.4044C32.0129 22.4044 32.1315 22.5599 32.0884 22.8868C32.0453 23.2138 31.9752 23.4711 31.9159 23.7712C32.1854 23.9588 32.5464 23.9427 32.7996 23.7337C32.9397 23.6479 33.0906 23.589 33.2523 23.5622C33.3385 23.5622 33.4409 23.6158 33.5379 23.6479V23.723H33.0691C33.1499 23.7391 33.2307 23.7659 33.3062 23.8087C33.3547 23.857 33.3924 23.9159 33.4193 23.9749L33.1176 24.1143" fill="white"/>
<path d="M32.255 21.7669C32.3466 21.5579 32.4274 21.3756 32.5029 21.188L33.0417 21.4078C33.1118 21.2845 33.1926 21.1666 33.2842 21.0594C33.3381 21.0058 33.4458 21.0004 33.5536 20.9683C33.5482 21.0379 33.5482 21.1076 33.5536 21.1773L33.3111 21.3113V21.3435L33.5375 21.2952C33.5375 21.4507 33.4943 21.59 33.489 21.7347C33.4836 21.8795 33.3758 22.067 33.171 22.0349C33.0094 22.0081 32.8477 21.9706 32.6861 21.9277C32.5298 21.8848 32.3843 21.8259 32.2227 21.7669" fill="white"/>
<path d="M32.0993 18.808L31.6035 18.8991C31.6035 18.7651 31.6628 18.7169 31.7921 18.733C31.9214 18.749 31.9861 18.7651 32.0885 18.7866L32.0993 18.808Z" fill="white"/>
<path d="M33.0801 24.1142L33.2741 24.082L33.3065 24.2857H33.2634L33.0586 24.1142" fill="white"/>
<path d="M39.5834 26.2907C39.702 26.2478 39.8313 26.221 39.9552 26.1996C40.1384 26.1996 40.2139 26.0978 40.2031 25.9262C40.2031 25.5779 40.1546 25.2295 40.1169 24.8864C40.1007 24.806 40.0576 24.731 39.993 24.6774C39.772 24.4898 39.675 24.195 39.7451 23.9163C39.772 23.7179 39.8097 23.5196 39.8475 23.3106C40.1977 23.6965 40.7797 23.7716 41.2215 23.4928C41.6957 23.2731 41.9921 22.7907 41.9705 22.2708C42.0029 21.7884 41.825 21.3113 41.4802 20.9683C41.173 20.6842 40.7204 20.6253 40.354 20.8236C40.0846 20.9576 39.9175 21.2417 39.9337 21.5418C39.9391 21.8473 40.1169 22.126 40.3917 22.2654C40.3001 21.9867 40.3755 21.6812 40.5911 21.4829C40.7581 21.306 40.7312 21.1452 40.5534 20.9469C40.6988 20.8075 40.9144 20.7807 41.0922 20.8718C41.5718 21.1398 41.8466 21.6597 41.8089 22.2064C41.8035 22.7264 41.4424 23.182 40.9305 23.3052C40.5857 23.4553 40.1869 23.3052 40.0361 22.9622C40.0145 22.914 39.9983 22.8657 39.9876 22.8121C39.8528 22.3404 39.5565 21.9277 39.1524 21.6544C38.9907 21.5525 38.9045 21.3649 38.926 21.1773C38.9368 20.8665 38.8075 20.5663 38.5704 20.368C38.4734 20.6145 38.204 20.7485 37.9453 20.6896C37.983 20.5073 38.0908 20.3197 37.8537 20.1965C37.622 20.0839 37.3472 20.1268 37.164 20.3037C37.1155 20.3573 37.0724 20.4216 36.997 20.5234L36.9107 20.0839L36.7976 20.1161L36.3719 19.9017C36.2641 19.8427 36.1564 19.7891 36.0594 19.7248C35.957 19.6551 35.9085 19.5318 35.9247 19.4086C35.9247 19.1352 35.8762 18.8726 35.4666 18.8726L35.6391 19.3818L35.4612 19.1674L35.4235 19.2317C35.4235 19.3657 35.3804 19.505 35.3427 19.6337C35.2511 19.9606 35.3427 20.0946 35.6337 20.2179C35.7361 20.2661 35.8331 20.3251 35.9193 20.4001C36.0917 20.5449 36.2695 20.6789 36.4581 20.8021C36.5982 20.8665 36.7545 20.8933 36.9107 20.8718C37.1909 20.8236 37.4496 20.7325 37.7352 20.6574C37.4442 20.8611 37.0993 20.9844 36.7437 21.0165C36.7221 21.2309 36.803 21.4453 36.9539 21.6008C37.164 21.842 37.4119 22.051 37.6867 22.2118C38.1609 22.4316 38.4734 22.8925 38.4896 23.4124C38.5542 23.9431 38.856 24.4094 39.3086 24.6935C39.5457 24.8864 39.6696 25.1919 39.6319 25.4975C39.6319 25.5511 39.5134 25.5993 39.4433 25.6207C39.1631 25.6904 39.0715 25.7923 39.0715 26.1246L39.3517 25.8566L39.2332 26.2318L39.2924 26.2693L39.7074 25.9155C39.6643 26.0388 39.6158 26.1674 39.5673 26.3122" fill="white"/>
<path d="M39.8 18.9477C39.9401 18.283 39.509 17.6345 38.8408 17.4951C38.8193 17.4898 38.7923 17.4844 38.7708 17.4844L38.8354 17.2646L38.1942 17.4415C37.9302 17.5112 37.8601 17.5916 37.8332 17.865L37.1596 18.074C37.0357 18.1169 36.9225 18.4278 37.0088 18.5296C37.0734 18.5725 37.1489 18.5939 37.2243 18.5886C37.5045 18.5886 37.6392 18.7815 37.5207 19.0334C37.3752 18.9798 37.2189 18.7815 37.0734 18.9745C36.9279 19.1674 37.0734 19.2425 37.1489 19.3014L37.8925 19.3711C37.7955 19.4193 37.6985 19.4569 37.5961 19.489C37.2297 19.5265 36.9603 19.8481 36.998 20.2126C36.998 20.218 36.998 20.2233 36.998 20.2341C36.9926 20.2662 36.9926 20.293 36.998 20.3252C37.1489 20.1054 37.4237 20.0036 37.6823 20.0625C38.0272 20.1376 38.1188 20.2984 37.9787 20.5985C38.2697 20.6414 38.4259 20.4967 38.4421 20.1483C38.7438 20.352 38.9378 20.6736 38.9809 21.0327C39.1049 20.754 39.1426 20.4431 39.0941 20.1429L39.509 20.3359L39.5467 20.3037C39.3958 19.9232 39.3958 19.4997 39.5467 19.1192C39.5791 18.9423 39.6006 18.7654 39.6006 18.5832L39.7784 18.9209" fill="white"/>
<path d="M36.0377 24.1143C36.0862 24.1732 36.1401 24.2215 36.2047 24.259C36.2963 24.2965 36.3987 24.3179 36.5011 24.3233C36.652 24.3233 36.7975 24.3233 36.9483 24.3233C37.0992 24.3233 37.3255 24.3662 37.4872 24.3769C37.595 24.3823 37.692 24.3019 37.6973 24.1893C37.6973 24.1839 37.6973 24.1732 37.6973 24.1679C37.6973 23.9642 37.7351 23.7551 37.7566 23.5622L38.3601 23.4175C38.3601 23.2727 38.317 23.1548 38.2901 23.0423C38.1769 22.5599 38.0045 22.3991 37.4064 22.4044C37.0723 22.4044 36.9537 22.5599 37.0022 22.8868C37.0507 23.2138 37.11 23.4711 37.1693 23.7712C36.8999 23.9588 36.5388 23.9427 36.2856 23.7337C36.1455 23.6479 35.9946 23.589 35.8329 23.5622C35.7467 23.5622 35.6443 23.6158 35.5527 23.6479V23.723H36.0161C35.9353 23.7391 35.8545 23.7659 35.779 23.8087C35.7306 23.857 35.6928 23.9159 35.6659 23.9749L35.9676 24.1143" fill="white"/>
<path d="M36.8577 21.7669L36.6098 21.188L36.071 21.4078C36.0009 21.2845 35.9201 21.1666 35.8285 21.0594C35.7746 21.0058 35.6668 21.0004 35.5645 20.9683C35.5645 21.0594 35.5645 21.1183 35.5645 21.1773L35.8015 21.3113C35.8015 21.3113 35.8015 21.3113 35.8015 21.3435L35.5752 21.2952C35.5968 21.4399 35.6129 21.59 35.6237 21.7347C35.6237 21.9491 35.7369 22.067 35.9416 22.0349C36.1033 22.0081 36.265 21.9706 36.4266 21.9277C36.5829 21.8848 36.7284 21.8259 36.89 21.7669" fill="white"/>
<path d="M36.998 18.808L37.4992 18.8991C37.4992 18.7651 37.4399 18.7169 37.3106 18.733C37.2082 18.7437 37.1112 18.7651 37.0142 18.7866L36.998 18.808Z" fill="white"/>
<path d="M36.0377 24.1142L35.8438 24.082C35.8438 24.1517 35.8438 24.2214 35.8438 24.2857H35.8869L36.0916 24.1142" fill="white"/>
<path d="M38.1885 28.5738C38.1885 28.5738 38.1885 28.5202 38.1885 28.488V28.2843C38.1885 28.2468 38.1885 28.2147 38.1885 28.1771C38.1292 27.3785 37.6874 26.6603 36.9977 26.2476L36.9438 26.2154H36.9061C36.7875 26.1457 36.6797 26.0546 36.5935 25.942C36.4373 25.7384 36.2594 25.5615 36.0547 25.4061L35.9846 25.3471L35.92 25.2185C35.7637 25.1059 35.5913 25.0148 35.4135 24.9505C35.2787 24.8969 35.1386 24.8486 34.9985 24.8111V20.0836C34.9985 19.2903 34.9985 18.4756 35.0416 17.6984C35.0416 17.2428 35.0417 16.7926 35.0686 16.337L35.6883 16.2888C35.7152 16.1762 35.7475 16.0529 35.7853 15.9189H36.4588L36.3995 16.0315L37.0947 16.4496C37.0947 15.9136 37.3802 15.4901 36.739 15.3776V14.7665C37.1809 14.6111 37.1809 14.6111 37.0947 13.8446H36.5558L36.4534 14.2359H35.796C35.7583 14.1234 35.7152 13.9894 35.6721 13.8661L35.1333 13.8232V13.1639C35.1333 12.778 34.9878 12.6279 34.5944 12.6279H34.4381C34.0448 12.6279 33.8993 12.7887 33.8993 13.1639V13.8232L33.3604 13.8661C33.3227 13.9894 33.2796 14.1234 33.2419 14.2359H32.5198C32.4821 14.1073 32.4498 13.984 32.4175 13.8446H31.8786C31.787 14.6111 31.787 14.6111 32.2343 14.7665V15.3776C31.5876 15.4901 31.8786 15.9136 31.8786 16.4496L32.5737 16.0315L32.5145 15.9189H33.2257C33.2581 16.0529 33.2904 16.1762 33.3227 16.2888L33.9424 16.337C33.9424 16.7926 33.9424 17.2428 33.9424 17.6984C33.9424 18.4917 33.9424 19.3064 33.9801 20.0836V24.8111C33.84 24.8486 33.7053 24.8969 33.5706 24.9505C33.3928 25.0148 33.2203 25.1059 33.0641 25.2185C33.0264 25.2399 32.994 25.2667 32.9617 25.2989L32.8916 25.3525C32.6869 25.5079 32.5091 25.6848 32.3528 25.8884C32.2666 26.001 32.1588 26.0921 32.0403 26.1618H32.0025L31.9487 26.194C31.2589 26.6067 30.8171 27.3196 30.7578 28.1182C30.7578 28.1557 30.7578 28.1879 30.7578 28.2254C30.7578 28.2254 30.7578 28.2629 30.7578 28.279C30.7578 28.2951 30.7578 28.3272 30.7578 28.354V28.488C30.7578 28.5202 30.7578 28.547 30.7578 28.5738C30.7578 28.5952 30.7578 28.6167 30.7578 28.6381C30.8548 29.3885 31.2859 30.0585 31.9379 30.4498C32.0888 30.557 32.2289 30.6802 32.3582 30.8089C32.6707 31.2377 33.0856 31.5861 33.5706 31.8112L33.7538 31.9666C33.8023 32.0738 33.84 32.1971 33.8885 32.3204C33.9208 32.4812 33.9909 32.6313 34.0987 32.7545C34.0987 32.7545 34.0987 32.7545 34.131 32.7545C34.2172 32.8135 34.3196 32.8403 34.422 32.8242C34.5244 32.8403 34.6321 32.8135 34.7183 32.7545H34.7561C34.8638 32.6313 34.9339 32.4812 34.9662 32.3204C35.0147 32.1971 35.0524 32.0738 35.0955 31.9666L35.2841 31.8112C35.7637 31.5861 36.1786 31.2377 36.4911 30.8089C36.6259 30.6802 36.766 30.5623 36.9114 30.4498C37.5635 30.0585 37.9999 29.3885 38.0969 28.6381C38.0969 28.6167 38.0969 28.5952 38.0969 28.5738H38.1885ZM37.5581 29.0723C37.4772 29.2706 37.3641 29.4528 37.2186 29.6083C37.1378 29.6887 37.0516 29.7637 36.9546 29.8227C36.7175 28.8579 36.7175 27.8502 36.9546 26.8854C37.2886 27.1212 37.5257 27.4696 37.6281 27.8663C37.7413 28.2415 37.7467 28.6435 37.6443 29.024V29.0669L37.5581 29.0723ZM34.5244 32.8189C34.422 32.6795 34.3196 32.5723 34.2495 32.4812C34.1957 32.4169 34.1687 32.3418 34.1687 32.2614C34.1687 32.1489 34.3789 31.9988 34.5244 31.9666C34.6698 31.9345 34.8692 32.1489 34.8854 32.2614C34.8854 32.3418 34.8531 32.4222 34.7992 32.4812C34.7291 32.5723 34.6321 32.6795 34.5244 32.8189ZM34.6968 31.4842H34.5513H34.4112H34.3843C34.1633 31.4574 33.9424 31.3931 33.743 31.2966C33.5275 31.1841 33.3281 31.0447 33.1449 30.8839C34.0556 30.5462 35.0524 30.5462 35.9631 30.8839C35.7799 31.0501 35.5805 31.1841 35.3596 31.2966C35.1602 31.3985 34.9447 31.4574 34.7237 31.4842H34.6968ZM34.5513 27.4696C34.7561 27.4482 34.9662 27.4964 35.144 27.5983C35.2787 27.7912 35.338 28.0271 35.3111 28.2575C35.3165 28.3379 35.3165 28.4237 35.3111 28.5041V28.547C35.3111 28.5631 35.3111 28.5791 35.3111 28.5952C35.3165 28.622 35.3165 28.6435 35.3111 28.6703V28.6971C35.3111 28.6971 35.3111 28.7346 35.3111 28.756C35.3111 28.7775 35.3111 28.7882 35.3111 28.8043C35.2302 29.0991 35.0255 29.1902 34.5998 29.1955H34.519C34.0933 29.1955 33.8885 29.0991 33.8077 28.8043C33.8077 28.7882 33.8077 28.7721 33.8077 28.756C33.8077 28.7346 33.8077 28.7185 33.8077 28.6971V28.6703C33.8077 28.6703 33.8077 28.622 33.8077 28.5952C33.8077 28.5791 33.8077 28.5631 33.8077 28.547V28.5041C33.8023 28.4237 33.8023 28.3379 33.8077 28.2575C33.7807 28.0271 33.84 27.7912 33.9693 27.5983C34.1472 27.4964 34.3573 27.4482 34.5621 27.4696H34.5513ZM35.92 25.7491L35.8769 25.8616L35.3919 25.926L34.9554 25.9796V25.2238L35.92 25.7598V25.7491ZM36.3241 26.5102C36.6636 26.8264 36.5989 27.3624 36.3942 27.8823L35.0363 26.6978L34.8692 26.5477C35.047 26.4834 35.2249 26.4244 35.4081 26.3816C35.7206 26.2529 36.0816 26.3012 36.351 26.5102H36.3241ZM34.1957 26.5477L34.0232 26.6978L32.6707 27.8823C32.466 27.3464 32.4013 26.8104 32.7408 26.5102C33.0102 26.3012 33.3712 26.2529 33.6838 26.3816C33.867 26.4244 34.0448 26.4834 34.2226 26.5477H34.1957ZM34.1364 26.0117L33.6999 25.9581L33.215 25.8938L33.1718 25.7812L34.1364 25.2453V26.0117ZM32.7084 28.9329C32.8162 29.0079 32.9294 29.0723 33.0371 29.1419L33.7646 29.8012L34.0556 30.1657C34.0556 30.1657 34.0556 30.1657 34.0556 30.1978C33.9101 30.2514 33.7646 30.2943 33.6191 30.3318C33.3066 30.3801 32.9886 30.3211 32.7138 30.1657C32.5522 29.9245 32.4821 29.6351 32.5145 29.3456C32.536 29.1902 32.5845 29.0401 32.6492 28.9007L32.7084 28.9329ZM36.3295 30.1657C36.0547 30.3211 35.7368 30.3801 35.4242 30.3318C35.2734 30.2997 35.1279 30.2514 34.9878 30.1978C34.9878 30.1978 34.9878 30.1978 34.9878 30.1657C35.0955 30.0424 35.1871 29.9191 35.2841 29.8012L36.0762 29.1098C36.184 29.0401 36.2972 28.9758 36.4049 28.9007C36.4696 29.0401 36.5181 29.1902 36.5396 29.3456C36.572 29.6351 36.5019 29.9245 36.3403 30.1657H36.3295ZM31.4152 29.0937V29.0508C31.2859 28.6756 31.2643 28.2736 31.3559 27.8877C31.4421 27.4857 31.6685 27.132 31.9918 26.88C32.2235 27.8448 32.2235 28.8525 31.9918 29.8173C31.8948 29.7583 31.8032 29.6833 31.7223 29.6029C31.5769 29.4475 31.4637 29.2652 31.3883 29.0669" fill="white"/>
<path d="M34.7937 28.3491C34.7937 28.4938 34.6752 28.6117 34.5297 28.6117C34.3842 28.6117 34.2656 28.4938 34.2656 28.3491C34.2656 28.2043 34.3842 28.0864 34.5297 28.0864C34.6752 28.0864 34.7937 28.2043 34.7937 28.3491Z" fill="white"/>
<path d="M25.4233 33.0011C25.5149 32.6044 25.1216 32.5455 24.933 32.374C19.1296 27.1159 18.7039 18.1755 23.99 12.3974C24.3025 12.0598 24.6258 11.7328 24.9707 11.4273C25.4126 11.0735 25.6496 10.5268 25.6119 9.96402C25.5634 8.09876 25.6119 6.21206 25.6119 4.35751C25.6119 3.99304 25.6119 3.69288 25.1809 3.49456C24.7659 3.3284 24.5612 2.85673 24.7282 2.44401C24.7552 2.37969 24.7875 2.32073 24.8252 2.26713C25.0246 1.87586 25.4988 1.70434 25.9029 1.87586C26.3286 1.98306 26.5872 2.41721 26.4795 2.84065C26.4687 2.87817 26.4579 2.91033 26.4418 2.94785C26.2532 3.40344 26.4418 3.60176 26.7273 3.85904C27.374 4.49151 28.0314 5.11863 28.651 5.7779C28.9528 6.0995 29.1522 6.0727 29.4593 5.7779C30.7741 4.52367 32.105 3.29088 33.4306 2.0581C33.6893 1.82226 33.8886 1.63466 33.6569 1.2273C33.4576 0.862827 33.5869 0.401871 33.9425 0.187473C34.255 -0.0644442 34.7077 -0.0644442 35.0202 0.187473C35.3974 0.375072 35.5537 0.825307 35.3812 1.20586C35.1172 1.66682 35.3812 1.84906 35.656 2.09561C36.9385 3.29088 38.2317 4.47543 39.4873 5.70286C39.8914 6.10486 40.1285 6.07806 40.4895 5.66534C40.9906 5.12935 41.5672 4.59335 42.1061 4.05736C42.4563 3.7036 42.882 3.45168 42.5964 2.78169C42.4186 2.37969 42.7581 1.97234 43.2322 1.84906C43.6579 1.68826 44.1375 1.8973 44.3099 2.31537C44.547 2.67449 44.4447 3.15688 44.0836 3.39272C44.0675 3.40344 44.0459 3.41416 44.0243 3.42488C43.4855 3.66608 43.4855 4.04664 43.4855 4.49687C43.4855 6.39965 43.4855 8.29708 43.4855 10.1945C43.4532 10.5804 43.6094 10.9556 43.9004 11.2075C50.3127 17.1035 50.4797 26.1403 44.3099 32.2239C44.1698 32.3579 43.728 32.4222 44.0082 32.8028C43.4693 32.6098 43.34 33.0761 43.0868 33.3388C41.551 34.3089 39.8914 35.07 38.1509 35.6114C35.8285 36.1474 33.4198 36.1634 31.092 35.665C29.2384 35.1397 27.4871 34.2928 25.9245 33.1672C25.779 33.0761 25.7089 32.8028 25.4503 32.9796L25.4233 33.0011ZM34.5029 9.9533C27.8589 9.96402 22.4866 15.3293 22.4974 21.9381C22.5082 28.547 27.902 33.8908 34.546 33.8801C41.19 33.8694 46.5623 28.5041 46.5515 21.8953C46.5515 21.8899 46.5515 21.8845 46.5515 21.8792C46.5515 15.2918 41.1846 9.9533 34.5622 9.9533C34.5406 9.9533 34.5245 9.9533 34.5029 9.9533Z" fill="white"/>
<path d="M0 35.2149C2.30088 35.0488 4.59098 34.8772 6.89186 34.7272C7.43071 34.6896 7.67319 34.6307 7.43071 33.95C6.97808 32.551 7.69474 31.8917 9.15502 32.2348C9.92557 32.4492 10.6368 32.8405 11.2296 33.3765C11.4828 33.1138 11.3374 32.8029 11.3535 32.5296C11.4721 30.9966 11.9786 29.6459 13.5089 29.0403C14.8991 28.4614 16.4995 28.7883 17.5503 29.8603C18.8058 31.0824 19.9535 32.417 20.9666 33.8481C21.0312 33.9982 21.0743 34.1536 21.1013 34.3144C20.3415 33.7195 19.6302 33.0656 18.9782 32.3581C18.4178 31.7256 17.7981 31.1467 17.1246 30.6322C15.7775 29.6352 14.2741 29.5923 13.1964 30.5196C12.0702 31.5541 11.7684 33.2049 12.4582 34.5664C12.7761 35.2364 13.358 35.6759 13.7622 36.2655C13.6813 36.2655 13.5628 36.3405 13.5197 36.3083C12.5336 35.5526 11.3643 35.5848 10.2004 35.4186C9.35978 35.306 8.697 34.6468 8.58384 33.8106L8.68083 33.7195C9.49988 34.5824 10.6584 35.038 11.8439 34.963C11.4936 33.355 10.1249 33.0013 8.81555 32.6743C8.13121 32.5028 7.80251 32.9369 7.93722 33.6391C8.05038 34.0786 8.26053 34.486 8.5569 34.8344C10.2004 36.8819 12.9593 37.6698 15.4434 36.8015C15.508 36.8015 15.5458 36.6835 15.5996 36.6246C15.7882 36.7371 16.0361 36.6728 16.1439 36.4852C16.1546 36.4691 16.16 36.4531 16.1708 36.437C16.3001 36.437 16.4833 36.4799 16.3702 36.2387C16.7366 36.4638 16.9629 36.1368 17.2108 35.9975C18.8273 35.0702 18.8273 35.0541 20.3092 36.2333C21.1875 36.9837 22.3191 37.3911 23.4776 37.375C24.7169 37.375 25.3905 36.839 25.633 35.6062C25.6815 35.3436 25.7084 35.1399 26.0317 35.156L25.8377 36.8283C24.4906 38.3451 22.1736 38.522 20.6055 37.2303C19.7057 36.4477 18.4016 36.3298 17.3724 36.9355C15.6427 37.777 13.6867 38.0503 11.79 37.7234C10.9979 37.6537 10.2489 37.3482 9.63459 36.8497C8.90176 36.1261 8.06655 36.0886 7.15051 36.0725C4.78497 36.0296 2.42481 35.9439 0.0592732 35.8742C0.296366 35.6008 0.625063 35.7188 0.905264 35.7027C2.67807 35.6169 4.45088 35.5526 6.22369 35.4776C5.59324 35.3864 4.96279 35.3436 4.32695 35.3489C2.90978 35.2953 1.48722 35.5258 0.0808271 35.2149" fill="white"/>
<path d="M15.5939 36.6248C13.1206 36.0888 12.0322 33.5857 13.4385 31.6347C13.9774 30.6913 15.1736 30.3537 16.1328 30.8682C17.0057 31.2916 17.7978 31.8598 18.4768 32.5512C19.2904 33.3177 20.0933 34.1163 20.907 34.8667C21.6183 35.526 22.5558 35.8905 23.5258 35.8958C24.2748 35.8958 24.6035 35.4778 24.4849 34.8238C24.458 34.5505 24.2802 34.3147 24.0215 34.2075C23.8437 34.1378 23.6443 34.1967 23.5419 34.3575C23.3102 34.663 23.7844 34.7702 23.7575 35.0436C23.2186 35.0436 23.0139 34.7381 23.0624 34.2771C23.1324 33.6393 23.6497 33.6179 24.1401 33.5803C25.0884 34.6148 25.2878 35.2955 24.8352 35.9923C24.3825 36.6891 23.2186 36.9678 22.1032 36.6301C21.3542 36.3782 20.6753 35.9655 20.1095 35.4134C18.9617 34.2557 17.6954 33.2159 16.3375 32.3154C15.7987 31.9831 15.1682 31.5489 14.4839 31.9295C13.7996 32.31 13.7457 33.114 13.7295 33.8376C13.6864 34.32 13.8157 34.8078 14.0959 35.2044C14.4893 35.7779 15.2383 35.9923 15.8741 35.7082C16.2298 35.6278 16.4507 35.2794 16.3753 34.931C16.3537 34.8453 16.3214 34.7649 16.2675 34.6898C16.1597 34.3629 15.8041 34.186 15.4754 34.2932C15.3622 34.3307 15.2599 34.4004 15.1898 34.4915C15.1036 34.5666 15.0497 34.7649 14.8503 34.5987C14.8234 34.1914 15.1359 33.843 15.5454 33.8162C15.637 33.8108 15.7286 33.8215 15.8149 33.8483C16.3968 33.8805 16.8602 34.3415 16.8926 34.9203C16.9734 35.4938 16.5585 35.853 16.3214 36.2818C16.1921 36.2818 16.0304 36.2818 16.122 36.4801C15.928 36.3675 15.6802 36.4372 15.5724 36.6301C15.567 36.6409 15.5562 36.657 15.5508 36.6677L15.5939 36.6248Z" fill="white"/>
<path d="M25.8811 33.1835C25.5147 33.4569 25.8811 33.6445 25.9727 33.8481C26.1936 34.2448 26.296 34.695 26.2691 35.1506C26.2098 35.5365 26.0427 35.0005 25.9242 35.1506C25.7625 34.2501 25.0082 33.5694 24.0867 33.5105C23.3539 33.146 22.8635 33.3657 22.7827 34.0947C22.7612 34.3037 22.7612 34.5181 22.7827 34.7272C22.8204 34.904 22.8366 35.0809 22.8366 35.2632C22.1738 34.2555 21.2793 33.4461 20.5627 32.4921C19.9807 31.7202 19.3934 30.9538 18.7521 30.2302C17.793 29.1207 16.4459 28.4132 14.9802 28.247C13.0727 28.054 11.6717 29.0242 11.1328 30.9484C11.0789 31.136 11.0304 31.329 10.9604 31.5809C10.4108 30.123 11.1544 28.5043 12.62 27.9576C12.6632 27.9415 12.7063 27.9254 12.7494 27.9147C14.3013 27.3036 16.0471 27.4644 17.4589 28.3488C18.7791 29.1475 19.8891 30.2516 20.692 31.5648C21.1446 32.2402 21.5703 32.9316 22.0445 33.682C22.9228 32.2134 24.1999 32.7225 25.4015 33.0013C25.4823 33.2639 25.5416 33.5641 25.8757 33.1889" fill="white"/>
<path d="M18.8003 24.602C19.129 23.9803 19.463 23.53 19.4469 22.994C19.4469 22.3133 19.1451 21.772 18.4231 21.7291C17.701 21.6862 17.4639 22.2651 17.4424 22.8868C17.4531 23.9749 17.7172 25.0415 18.2183 26.0063C18.9296 27.3677 19.7594 28.6649 20.7024 29.8816C21.1065 30.3961 21.3867 30.9964 21.516 31.6343C19.9372 29.7476 18.3476 28.2253 17.2484 26.3065C16.5479 25.2398 16.23 23.9642 16.3485 22.6939C16.4994 21.5576 17.2807 20.8447 18.2506 20.8929C19.3229 21.0055 20.1258 21.9167 20.0989 22.9887C20.1312 23.7712 19.5762 24.4627 18.8003 24.602Z" fill="white"/>
<path d="M27.5997 38.4256C26.1609 38.4577 25.8646 38.2005 25.7676 36.8176C26.8453 35.9332 27.9822 36.0082 29.2108 36.3674C30.7088 36.7801 32.1529 37.3589 33.5216 38.0933C33.0582 38.3934 32.7834 38.0933 32.5032 38.0021C31.1399 37.4233 29.7012 37.0213 28.2355 36.8015C27.8152 36.7265 27.3841 36.7586 26.9746 36.8819C26.6243 37.0052 26.2256 37.1713 26.4357 37.643C26.5759 37.9807 26.9638 38.1361 27.3033 37.9968C27.3518 37.9753 27.3949 37.9539 27.438 37.9217C27.6428 37.7931 27.8421 37.6537 28.0253 37.4983C28.3217 37.7717 27.729 37.9807 27.9769 38.2433C27.7398 38.0825 27.6643 38.2433 27.5997 38.4256Z" fill="white"/>
<path d="M7.3602 49.7135C7.3602 50.2817 7.42486 50.2817 8.0607 50.2817H9.51559C10.1191 50.3085 10.7226 50.2656 11.3153 50.153C11.547 50.0726 11.7195 49.9654 11.8542 49.4187L12.0482 48.5772C12.2044 48.4539 12.4308 48.4539 12.587 48.5772C12.587 49.081 12.5008 49.9225 12.5008 50.7212C12.5008 51.5198 12.587 52.2756 12.587 52.7633C12.4254 52.8812 12.2098 52.8812 12.0482 52.7633L11.8326 51.9433C11.7734 51.5681 11.5147 51.2625 11.1537 51.1393C10.6202 51.0481 10.076 51.0106 9.53714 51.0374H8.06609C7.43025 51.0374 7.36559 51.0374 7.36559 51.6056V54.5321C7.36559 56.7404 7.40869 57.0566 8.65882 57.1638L9.37549 57.2282C9.50481 57.3139 9.4617 57.6891 9.33777 57.7642C8.08764 57.7213 7.36559 57.6998 6.5196 57.6998C5.58739 57.6998 4.86533 57.6998 3.87385 57.7642C3.72298 57.6248 3.70681 57.389 3.83075 57.2282L4.36959 57.1638C5.59817 57.0191 5.64127 56.7404 5.64127 54.5321V46.9317C5.64127 44.7234 5.59817 44.4286 4.36959 44.2517L4.03012 44.2088C3.90618 44.1284 3.94929 43.7479 4.07323 43.6729C4.96233 43.7157 5.68977 43.7372 6.53037 43.7372H10.4262C11.38 43.764 12.3338 43.7425 13.2821 43.6729C13.2821 44.643 13.2821 45.656 13.3468 46.4547C13.2175 46.5994 13.0019 46.6262 12.8403 46.519C12.6678 45.5703 12.4146 44.7877 11.3584 44.5144C10.6795 44.3964 9.98977 44.3589 9.30544 44.3911H8.0122C7.37636 44.3911 7.37636 44.434 7.37636 45.2326L7.3602 49.7135Z" fill="white"/>
<path d="M24.6638 53.4388C24.6638 56.0759 22.8425 57.9679 20.1968 57.9679C17.8851 58.0537 15.9399 56.2635 15.8537 53.964C15.8483 53.8515 15.8483 53.7389 15.8537 53.6317C15.7836 51.1876 17.7235 49.1508 20.1806 49.0811C20.2399 49.0811 20.3045 49.0811 20.3638 49.0811C22.697 49.0436 24.6261 50.8928 24.6638 53.2136C24.6692 53.2887 24.6638 53.3637 24.6638 53.4388ZM20.1105 49.7136C18.7149 49.7136 17.675 51.0429 17.675 53.3584C17.675 55.2719 18.5425 57.3355 20.4069 57.3355C22.2713 57.3355 22.8425 55.4005 22.8425 53.7764C22.8425 51.9862 22.1204 49.7136 20.1105 49.7136Z" fill="white"/>
<path d="M29.0658 51.6323C29.0658 50.8068 29.0658 50.705 28.4947 50.3244L28.3007 50.1958C28.2199 50.1154 28.2199 49.8796 28.3007 49.8206C29.0443 49.5258 29.7664 49.1828 30.4561 48.7861C30.5638 48.7861 30.6285 48.8505 30.6285 48.9362V50.1529C30.6285 50.2601 30.6285 50.3244 30.6878 50.3459C31.4314 49.7348 32.2343 49.0809 33.021 49.0809C33.5006 49.0381 33.9262 49.3864 33.9694 49.8635C33.9694 49.8849 33.9747 49.9064 33.9747 49.9278C33.9963 50.4424 33.5922 50.8765 33.0749 50.898C33.0695 50.898 33.0695 50.898 33.0641 50.898C32.8971 50.898 32.7354 50.8444 32.6007 50.7532C32.3313 50.5496 32.008 50.4316 31.6685 50.4156C31.3613 50.4209 31.0757 50.5764 30.9087 50.8336C30.677 51.3375 30.5854 51.8895 30.6339 52.4416V55.3038C30.6339 56.8207 30.6716 57.0726 31.4799 57.1369L32.2397 57.2013C32.3798 57.346 32.369 57.5818 32.2235 57.7158C32.2181 57.7212 32.2073 57.7319 32.1966 57.7372C31.2051 57.6944 30.58 57.6729 29.8472 57.6729C29.1143 57.6729 28.4516 57.6729 27.9019 57.7372C27.7403 57.614 27.7133 57.3835 27.8373 57.2281C27.8427 57.2173 27.8534 57.212 27.8588 57.2013L28.2576 57.1369C29.0443 57.0083 29.0658 56.8207 29.0658 55.3038V51.6323Z" fill="white"/>
<path d="M37.1904 45.7956C37.1904 44.5521 37.1904 44.4288 36.5384 44.0483L36.3229 43.9197C36.2205 43.8017 36.2205 43.6195 36.3229 43.5016C37.1042 43.255 37.8694 42.9602 38.613 42.6172C38.7046 42.6172 38.7854 42.6654 38.8285 42.7405C38.7854 43.4801 38.7423 44.4288 38.7423 45.3561V49.3332C38.7423 49.6923 38.8285 49.7781 38.9525 49.7781C39.6907 49.3386 40.5313 49.0974 41.388 49.0813C43.5758 49.033 45.3917 50.7643 45.4402 52.9404C45.4402 53.0316 45.4402 53.1173 45.4348 53.2084C45.4348 56.0117 43.3979 57.9681 40.5852 57.9681C39.9763 57.9681 39.3674 57.877 38.7854 57.6947C38.4998 57.5768 38.2035 57.4857 37.8963 57.4214C37.7077 57.4589 37.5461 57.5714 37.4491 57.7376C37.4491 57.7376 37.4113 57.7376 37.3682 57.7376C37.2766 57.7376 37.1958 57.6894 37.1527 57.609C37.1527 57.3142 37.1958 56.9175 37.1958 55.8187L37.1904 45.7956ZM38.7585 54.8111C38.7261 55.465 38.9147 56.1082 39.2973 56.6442C39.7015 57.1051 40.2996 57.3624 40.9139 57.3356C42.9022 57.3356 43.6889 55.6526 43.6889 53.8409C43.6889 51.6701 42.5627 49.9871 40.4558 49.9871C39.9547 49.9657 39.459 50.0836 39.0171 50.3248C38.807 50.4695 38.7639 50.7053 38.7639 51.5254L38.7585 54.8111Z" fill="white"/>
<path d="M50.5066 52.2809C49.9677 52.2809 49.9354 52.3238 49.9354 52.8491C49.9354 54.9931 51.1855 56.7887 53.4541 56.7887C54.2354 56.7994 54.9736 56.4135 55.3993 55.7595C55.5448 55.7006 55.7065 55.7756 55.7604 55.915C55.7711 55.9471 55.7765 55.9793 55.7819 56.0115C55.1299 57.2335 53.8474 57.9893 52.4572 57.9678C51.2718 58.0054 50.1348 57.4908 49.3858 56.5796C48.7931 55.7917 48.4805 54.8269 48.4967 53.8407C48.4967 51.2518 50.2102 49.0811 52.7536 49.0811C54.5749 49.0811 55.7604 50.3246 55.7604 51.5895C55.7711 51.7717 55.7388 51.954 55.6741 52.1255C55.6095 52.2488 55.3131 52.2702 54.424 52.2702L50.5066 52.2809ZM51.8214 51.6485C53.3894 51.6485 53.8528 51.5681 54.0253 51.4394C54.0845 51.3966 54.1492 51.3162 54.1492 51.0428C54.1492 50.4532 53.7505 49.7135 52.5327 49.7135C51.3149 49.7135 50.1994 50.8498 50.1833 51.5466C50.1833 51.5895 50.1833 51.6485 50.3288 51.6485H51.8214Z" fill="white"/>
<path d="M63.5289 49.4619C63.7391 50.0086 63.8522 50.5821 63.863 51.1664C63.7391 51.3218 63.5127 51.354 63.3565 51.2307C62.9954 50.3034 62.3596 49.6924 61.4921 49.6924C60.8023 49.6495 60.2096 50.1694 60.1665 50.8555C60.1611 50.9037 60.1611 50.952 60.1665 51.0002C60.1665 51.8632 61.0556 52.3241 61.783 52.7476C62.9092 53.38 63.9384 54.0929 63.9384 55.5883C63.9384 57.1963 62.4566 57.9896 60.8886 57.9896C60.0857 58.0432 59.2828 57.8181 58.6254 57.3571C58.4152 56.6603 58.329 55.9367 58.3721 55.2131C58.5068 55.0845 58.7224 55.0845 58.8571 55.2131C59.2181 56.3709 59.8971 57.3571 61.1041 57.3571C61.8208 57.4214 62.4566 56.8908 62.5159 56.1779C62.5213 56.1243 62.5213 56.0654 62.5213 56.0118C62.5213 55.0416 61.6753 54.5163 60.9047 54.0715C59.6815 53.38 58.8086 52.6404 58.8086 51.4826C58.8086 49.9443 60.0803 49.0813 61.6914 49.0813C62.3273 49.0492 62.9577 49.1832 63.5289 49.4619Z" fill="white"/>
<path d="M27.9489 38.2646C28.6979 38.2646 29.5655 37.9966 29.8565 39.2562C29.5547 39.0364 29.3661 38.8863 29.1559 38.7577C28.8757 38.554 28.4986 38.5648 28.2291 38.7845C28.0405 38.8917 27.9489 39.1115 28.0028 39.3205C28.1052 39.6153 28.3746 39.8243 28.6872 39.8565C29.7056 40.0334 30.7563 39.9315 31.7209 39.5671L33.817 38.8649C32.7716 40.0923 29.6948 40.9821 28.4285 40.5372C27.534 40.2263 27.3831 39.8351 27.6041 38.4254C27.8465 38.5916 27.9382 38.4629 27.9866 38.2378L27.9489 38.2646Z" fill="white"/>
<path d="M31.07 36.0509C31.5819 36.0401 32.0992 36.0723 32.6057 36.1366C33.5594 36.3296 34.2761 37.1121 34.3839 38.0716H34.1791C33.5541 37.1068 32.5087 36.485 31.3556 36.4046C30.946 36.3457 30.9514 36.3189 31.07 36.0562" fill="white"/>
<path d="M8.58861 33.8049C8.58861 33.7352 8.52967 33.612 8.54575 33.6012C8.65826 33.5369 8.65826 33.6495 8.68505 33.7138L8.58861 33.8049Z" fill="white"/>
<path d="M13.7629 36.2709L13.8861 36.3567C13.8861 36.3567 13.8272 36.3888 13.8058 36.3567C13.7843 36.3245 13.7093 36.287 13.779 36.228L13.7629 36.2709Z" fill="white"/>
<path d="M15.5723 36.6299C15.6639 36.4262 15.901 36.3351 16.1057 36.4208C16.1165 36.4262 16.1327 36.4316 16.1434 36.4423C16.0572 36.646 15.8255 36.7371 15.6208 36.6567C15.6046 36.646 15.5884 36.6406 15.5723 36.6299Z" fill="white"/>
<path d="M16.1226 36.4527C16.031 36.233 16.1926 36.2651 16.3219 36.2544C16.4351 36.4956 16.2519 36.4474 16.1226 36.4527Z" fill="white"/>
<path d="M27.9724 38.2539C27.9239 38.4791 27.8323 38.6077 27.5898 38.4415C27.6599 38.2539 27.7353 38.0931 27.9724 38.2539Z" fill="white"/>
<path d="M69.1127 35.2149C66.8172 35.0488 64.5217 34.8772 62.2262 34.7272C61.6873 34.6896 61.4395 34.6307 61.6873 33.95C62.1454 32.551 61.4233 31.8917 59.963 32.2348C59.1925 32.4492 58.4812 32.8405 57.8885 33.3765C57.6352 33.1138 57.7861 32.8029 57.7645 32.5296C57.646 30.9966 57.1395 29.6459 55.6091 29.0403C54.2243 28.4614 52.6185 28.7883 51.5732 29.8603C50.3123 31.0824 49.1699 32.417 48.1515 33.8481C48.0868 33.9982 48.0383 34.1536 48.0114 34.3144C48.782 33.7195 49.504 33.0656 50.1668 32.3581C50.7272 31.7256 51.3469 31.1467 52.015 30.6322C53.3622 29.6352 54.8655 29.5923 55.9432 30.5196C57.0694 31.5541 57.3712 33.2049 56.6815 34.5664C56.3635 35.2364 55.7816 35.6759 55.3828 36.2655C55.4637 36.2655 55.5822 36.3405 55.6253 36.3083C56.6114 35.5526 57.7807 35.5848 58.9446 35.4186C59.7852 35.306 60.448 34.6468 60.5612 33.8106C60.5288 33.7838 60.4965 33.7517 60.4696 33.7195C59.6505 34.5824 58.492 35.0327 57.3011 34.963C57.6568 33.355 59.0201 33.0013 60.3295 32.6743C61.0138 32.5028 61.3479 32.9369 61.2078 33.6391C61.0946 34.0786 60.8845 34.486 60.5881 34.8344C58.9446 36.8819 56.1857 37.6698 53.7016 36.8015C53.637 36.8015 53.5992 36.6835 53.5508 36.6246C53.3622 36.7371 53.1143 36.6728 53.0065 36.4852C52.9957 36.4691 52.9904 36.4531 52.9796 36.437C52.8556 36.437 52.667 36.4799 52.7856 36.2387C52.4138 36.4638 52.1875 36.1368 51.9396 35.9975C50.3231 35.0702 50.3231 35.0541 48.8412 36.2333C47.9629 36.9837 46.8313 37.3911 45.6728 37.375C44.4335 37.375 43.7599 36.839 43.5174 35.6062C43.4635 35.3436 43.4366 35.1399 43.1133 35.156L43.3073 36.8283C44.6544 38.3451 46.9714 38.522 48.5395 37.2303C49.4393 36.4477 50.7434 36.3298 51.7726 36.9355C53.5023 37.7716 55.4529 38.0503 57.3496 37.7234C58.1417 37.6537 58.8907 37.3482 59.505 36.8497C60.2378 36.1261 61.0731 36.0886 61.9945 36.0725C64.3546 36.0296 66.7202 35.9439 69.0803 35.8742C68.8432 35.6008 68.5415 35.7188 68.2343 35.7027C66.4615 35.6169 64.6887 35.5526 62.9213 35.4776C63.5518 35.3864 64.1822 35.3436 64.8181 35.3489C66.2298 35.2953 67.6524 35.5258 69.0588 35.2149" fill="white"/>
<path d="M53.5244 36.6247C55.9923 36.0887 57.0862 33.5856 55.6798 31.6346C55.1409 30.6913 53.9447 30.3482 52.9855 30.8681C52.1072 31.2862 51.3151 31.8597 50.6362 32.5512C49.8225 33.3176 49.0196 34.1163 48.206 34.8667C47.4893 35.5313 46.5409 35.9011 45.5602 35.8958C44.8112 35.8958 44.4825 35.4777 44.5957 34.8238C44.6226 34.5504 44.8004 34.3146 45.0591 34.2074C45.2369 34.1324 45.4363 34.1967 45.5387 34.3575C45.7704 34.663 45.2962 34.7702 45.3285 35.0435C45.8674 35.0435 46.0667 34.738 46.0182 34.2771C45.9482 33.6392 45.4363 33.6178 44.9405 33.5803C43.9922 34.6147 43.7928 35.2955 44.2454 35.9923C44.6981 36.689 45.862 36.9678 46.9774 36.6301C47.7264 36.3782 48.4053 35.9655 48.9711 35.4134C50.1189 34.2556 51.3852 33.2158 52.7431 32.3153C53.2819 31.983 53.9124 31.5489 54.6021 31.9294C55.2918 32.31 55.3349 33.114 55.3565 33.8376C55.3996 34.3199 55.2649 34.8077 54.9847 35.2043C54.5967 35.7779 53.8477 35.9923 53.2119 35.7082C52.8562 35.6331 52.6299 35.2847 52.7053 34.931C52.7215 34.8452 52.7592 34.7595 52.8131 34.6898C52.9209 34.3628 53.2765 34.1859 53.6052 34.2931C53.7184 34.3307 53.8208 34.4003 53.8908 34.4915C53.977 34.5665 54.0309 34.7648 54.2303 34.5987C54.2303 34.1913 53.8962 33.859 53.4867 33.859C53.4166 33.859 53.352 33.8697 53.2873 33.8858C52.7053 33.918 52.2419 34.3789 52.2096 34.9578C52.1342 35.5313 52.5437 35.8904 52.7862 36.3192C52.9101 36.3192 53.0718 36.3192 52.9802 36.5175C53.1741 36.405 53.422 36.4746 53.5298 36.6676C53.5352 36.6783 53.5459 36.6944 53.5513 36.7051L53.5244 36.6247Z" fill="white"/>
<path d="M43.232 33.1834C43.5985 33.4567 43.232 33.6443 43.1404 33.848C42.9195 34.2447 42.8171 34.6949 42.8441 35.1505C42.9033 35.5364 43.0758 35.0004 43.1889 35.1505C43.3506 34.25 44.105 33.5693 45.0264 33.5103C45.7592 33.1459 46.2496 33.3656 46.3304 34.0946C46.352 34.3036 46.352 34.518 46.3304 34.727C46.2927 34.9039 46.2765 35.0808 46.2819 35.263C46.9393 34.2554 47.8338 33.446 48.5505 32.4919C49.1324 31.7201 49.7251 30.9536 50.361 30.2301C51.3201 29.1205 52.6673 28.413 54.1329 28.2469C56.1428 27.995 57.5384 28.9597 58.0881 30.8893C58.142 31.0769 58.1904 31.2699 58.2605 31.5218C58.8047 30.0639 58.0611 28.4452 56.6008 27.9038C56.5577 27.8878 56.5146 27.8717 56.4661 27.8556C54.9143 27.2446 53.163 27.4054 51.7512 28.2898C50.431 29.0884 49.321 30.1925 48.5181 31.5057C48.0655 32.1811 47.6398 32.8725 47.1656 33.6229C46.2873 32.1543 45.0102 32.6635 43.814 32.9422C43.7332 33.2048 43.6739 33.505 43.3398 33.1298" fill="white"/>
<path d="M50.3115 24.602C49.9828 23.9803 49.6487 23.53 49.6649 22.994C49.6649 22.3133 49.972 21.772 50.6941 21.7291C51.4161 21.6862 51.6532 22.2651 51.6748 22.8868C51.664 23.9749 51.3946 25.0415 50.8935 26.0063C50.1876 27.3731 49.3523 28.6702 48.4094 29.8816C48.0052 30.3961 47.725 30.9964 47.5957 31.6343C49.1745 29.7476 50.7641 28.2253 51.8634 26.3065C52.5639 25.2398 52.8872 23.9642 52.7687 22.6939C52.6124 21.5576 51.8364 20.8447 50.8611 20.8929C49.7942 21.0108 48.9913 21.9167 49.0129 22.9887C48.9805 23.7712 49.5356 24.4573 50.3115 24.602Z" fill="white"/>
<path d="M41.5123 38.4256C42.9564 38.4577 43.2473 38.2005 43.3443 36.8176C42.2666 35.9332 41.1297 36.0082 39.9065 36.3674C38.4085 36.7801 36.9644 37.3589 35.5957 38.0933C36.0645 38.3934 36.3393 38.0933 36.6195 38.0021C37.9828 37.4233 39.4161 37.0159 40.8872 36.8015C41.3075 36.7265 41.7386 36.7586 42.1481 36.8819C42.493 37.0052 42.8917 37.1713 42.6869 37.643C42.5468 37.9753 42.1643 38.1361 41.8302 37.9968C41.7817 37.9753 41.7332 37.9485 41.6901 37.9217C41.4799 37.7931 41.2859 37.6537 41.0973 37.4983C40.801 37.7717 41.3937 37.9807 41.1458 38.2433C41.3829 38.0825 41.4638 38.2433 41.5284 38.4256H41.5123Z" fill="white"/>
<path d="M41.163 38.2646C40.4194 38.2646 39.5464 37.9966 39.2555 39.2562C39.5572 39.0364 39.7512 38.8863 39.956 38.7577C40.2362 38.5594 40.6187 38.5701 40.8882 38.7845C41.0714 38.8971 41.1576 39.1115 41.1091 39.3205C41.0067 39.6153 40.7373 39.8243 40.4248 39.8565C39.4063 40.0334 38.3556 39.9315 37.391 39.5671L35.2949 38.8649C36.3726 40.0923 39.4171 40.9821 40.6834 40.5372C41.5725 40.2263 41.7234 39.8351 41.5024 38.4254C41.26 38.5916 41.1684 38.4629 41.1199 38.2378L41.163 38.2646Z" fill="white"/>
<path d="M38.0756 36.0509C37.5637 36.0401 37.0464 36.0723 36.5399 36.1366C35.5862 36.3296 34.8695 37.1121 34.7617 38.0716H34.9665C35.5915 37.1068 36.6369 36.485 37.79 36.4046C38.1996 36.3457 38.1996 36.3189 38.0756 36.0562" fill="white"/>
<path d="M60.5227 33.8049C60.5227 33.7352 60.5817 33.612 60.5656 33.6012C60.4584 33.5369 60.4531 33.6495 60.4316 33.7138C60.4584 33.746 60.4906 33.7781 60.5227 33.8049Z" fill="white"/>
<path d="M55.3552 36.2709L55.2266 36.3567C55.2266 36.3567 55.2855 36.3888 55.3123 36.3567C55.3391 36.3245 55.4034 36.287 55.3123 36.228L55.3552 36.2709Z" fill="white"/>
<path d="M53.5399 36.6299C53.4483 36.4262 53.2112 36.3351 53.0065 36.4208C52.9957 36.4262 52.9795 36.4316 52.9688 36.4423C53.0604 36.646 53.2974 36.7371 53.5022 36.6513C53.513 36.646 53.5291 36.6352 53.5399 36.6299Z" fill="white"/>
<path d="M52.9894 36.4527C53.081 36.233 52.9194 36.2651 52.7954 36.2544C52.6769 36.4956 52.8655 36.4474 52.9894 36.4527Z" fill="white"/>
<path d="M41.1406 38.2539C41.1891 38.4791 41.2807 38.6077 41.5232 38.4415C41.4585 38.2539 41.3777 38.0931 41.1406 38.2539Z" fill="white"/>
<path d="M34.9017 39.2082C34.9017 39.4066 34.7401 39.5674 34.5407 39.5674C34.3413 39.5674 34.1797 39.4066 34.1797 39.2082C34.1797 39.0099 34.3413 38.8491 34.5407 38.8491C34.7401 38.8491 34.9017 39.0099 34.9017 39.2082Z" fill="white"/>
<path d="M130.179 56.1293H128.945V56.0114C129.112 56.0114 129.15 55.9417 129.15 55.8077V52.2005C129.15 52.0558 129.112 52.0075 128.945 51.9861V51.8682H130.891C131.931 51.8682 132.356 52.4524 132.356 53.117C132.356 53.7817 131.931 54.3659 130.891 54.3659H129.964V55.8238C129.964 55.9578 130.007 56.006 130.179 56.0275V56.1293ZM129.964 52.5489V53.6798H130.756C131.327 53.6798 131.559 53.5244 131.559 53.1117C131.559 52.699 131.327 52.5435 130.756 52.5435L129.964 52.5489Z" fill="white"/>
<path d="M134.916 56.1293H133.908V56.0114C133.978 56.0114 134.054 55.9578 134.054 55.8077V52.8919C134.054 52.7418 133.978 52.6775 133.908 52.6775V52.5703H135.762C136.619 52.5703 136.996 53.0152 136.996 53.6691C136.974 54.1676 136.597 54.5803 136.101 54.65L136.775 55.7702C136.872 55.9364 136.899 55.99 136.996 56.0114V56.1293H136.02V56.0114C136.074 56.0114 136.107 56.0114 136.107 55.9524C136.107 55.8881 136.085 55.8238 136.047 55.7702L135.412 54.7518H134.77V55.8238C134.77 55.9739 134.84 56.0275 134.916 56.0275V56.1293ZM134.77 53.1063V54.1783H135.492C136.101 54.1783 136.311 54.0229 136.311 53.6423C136.311 53.2617 136.101 53.1063 135.492 53.1063H134.77Z" fill="white"/>
<path d="M139.918 56.1293H138.84V56.0114C138.937 56.0114 139.007 55.9578 139.007 55.8077V52.8919C139.007 52.7418 138.948 52.6775 138.84 52.6775V52.5703H139.918V52.6775C139.815 52.6775 139.745 52.7418 139.745 52.8919V55.8238C139.745 55.9739 139.815 56.0275 139.918 56.0275V56.1293Z" fill="white"/>
<path d="M144.622 52.8439L144.126 53.6694L144.045 53.6265C144.051 53.5943 144.051 53.5675 144.045 53.5354C144.045 53.2513 143.609 53.0851 143.302 53.0851C142.763 53.0851 142.251 53.5246 142.251 54.4144C142.181 55.004 142.607 55.5346 143.199 55.6043C143.242 55.6097 143.285 55.6097 143.329 55.6097C143.609 55.6097 144.045 55.4435 144.045 55.1969C144.056 55.1648 144.056 55.1273 144.045 55.0951L144.115 55.0522L144.654 55.7169L144.622 55.7705H144.53C144.374 55.7705 144.158 56.1832 143.318 56.1832C142.305 56.1296 141.529 55.2666 141.583 54.259C141.631 53.3263 142.38 52.5813 143.318 52.5331C143.571 52.5277 143.819 52.5866 144.04 52.7046C144.158 52.7796 144.288 52.8332 144.422 52.8707C144.476 52.8761 144.536 52.86 144.579 52.8225L144.622 52.8439Z" fill="white"/>
<path d="M146.383 52.8921C146.383 52.742 146.313 52.6777 146.237 52.6777V52.5705H148.608C148.748 52.5705 148.797 52.5223 148.824 52.4258H148.932V53.3423H148.824C148.824 53.203 148.748 53.1333 148.608 53.1333H147.1V54.0123H147.999C148.134 54.0123 148.183 53.9694 148.21 53.8301H148.323V54.752H148.21C148.21 54.6126 148.134 54.5751 147.999 54.5751H147.089V55.5614H148.598C148.738 55.5614 148.786 55.497 148.813 55.363H148.921V56.2689H148.813C148.813 56.1724 148.738 56.1295 148.598 56.1295H146.227V56.0116C146.302 56.0116 146.372 55.958 146.372 55.8079L146.383 52.8921Z" fill="white"/>
<path d="M154.632 56.1293H153.555V56.0114C153.657 56.0114 153.727 55.9578 153.727 55.8077V52.8919C153.727 52.7418 153.668 52.6775 153.555 52.6775V52.5703H154.632V52.6775C154.525 52.6775 154.46 52.7418 154.46 52.8919V55.8238C154.46 55.9739 154.525 56.0275 154.632 56.0275V56.1293Z" fill="white"/>
<path d="M159.219 52.7739L158.777 53.5725L158.696 53.535C158.696 53.2616 158.287 53.058 157.716 53.058C157.274 53.058 157.026 53.2348 157.026 53.5243C157.026 54.2693 159.181 53.7012 159.181 55.1751C159.181 55.7701 158.599 56.1721 157.888 56.1721C157.408 56.1507 156.94 56.0327 156.514 55.8183C156.438 55.8183 156.433 55.8773 156.39 55.9041L156.293 55.8666L156.735 54.9983L156.848 55.0572C156.832 55.0947 156.816 55.1323 156.81 55.1698C156.81 55.4163 157.381 55.6415 157.888 55.6415C158.394 55.6415 158.615 55.4485 158.615 55.1055C158.615 54.4355 156.46 54.9554 156.46 53.5564C156.46 52.9454 156.923 52.522 157.78 52.522C158.201 52.5595 158.61 52.656 158.998 52.8114C159.046 52.8007 159.095 52.7793 159.138 52.7471L159.219 52.7739Z" fill="white"/>
<path d="M163.395 52.5703H164.402V52.6775C164.311 52.6775 164.257 52.715 164.257 52.8115C164.262 52.9294 164.284 53.0473 164.327 53.1599L164.828 55.0788L165.324 53.0098C165.345 52.9294 165.356 52.849 165.361 52.7686C165.361 52.715 165.329 52.6989 165.232 52.6775V52.5703H166.213V52.6936C166.143 52.6936 166.089 52.7257 166.089 52.774C166.105 52.8758 166.121 52.9723 166.148 53.0688L166.638 55.0788L167.21 53.117C167.242 53.0205 167.258 52.9187 167.264 52.8169C167.264 52.7204 167.21 52.6936 167.134 52.6775V52.5703H168.077V52.6775C167.942 52.6775 167.921 52.7418 167.856 52.9348L167.016 55.6148C166.983 55.7059 166.956 55.797 166.94 55.8935C166.94 55.9471 166.994 55.9846 167.07 55.9953V56.1132H166.094V55.9953C166.175 55.9953 166.224 55.9632 166.224 55.9203C166.207 55.8184 166.186 55.722 166.159 55.6255L165.663 53.6369L165.189 55.6148C165.162 55.7005 165.151 55.7863 165.146 55.872C165.146 55.9364 165.178 55.9846 165.275 55.9953V56.1132H164.305V55.9953C164.365 55.9953 164.402 55.9632 164.402 55.8935C164.375 55.7488 164.338 55.6094 164.289 55.47L163.567 52.8329C163.535 52.7472 163.465 52.6829 163.373 52.6614L163.395 52.5703Z" fill="white"/>
<path d="M170.465 56.1293H169.479V56.0114C169.516 56.0114 169.586 55.9578 169.586 55.8077V52.8919C169.586 52.7418 169.516 52.6775 169.479 52.6775V52.5703H170.438V52.6775C170.378 52.6775 170.303 52.7418 170.303 52.8919V54.0229H171.801V52.8919C171.801 52.7418 171.731 52.6775 171.672 52.6775V52.5703H172.652V52.6775C172.593 52.6775 172.518 52.7418 172.518 52.8919V55.8238C172.518 55.9739 172.593 56.0275 172.663 56.0275V56.1454H171.709V56.0275C171.747 56.0275 171.817 55.9739 171.817 55.8238V54.591H170.319V55.8238C170.319 55.9739 170.395 56.0275 170.481 56.0275L170.465 56.1293Z" fill="white"/>
<path d="M174.904 56.1293H174.074V56.0114C174.128 56.0114 174.15 55.9417 174.171 55.8774L175.173 52.9777C175.173 52.908 175.227 52.8115 175.227 52.7954C175.222 52.7472 175.2 52.7043 175.163 52.6775V52.5703H176.17V52.6775C176.138 52.6989 176.116 52.7365 176.116 52.774C176.116 52.774 176.154 52.9026 176.176 52.9777L177.151 55.7327C177.2 55.8774 177.226 56.0007 177.345 56.0114V56.1293H176.343V56.0114C176.397 55.9953 176.44 55.9471 176.44 55.8881C176.451 55.8452 176.451 55.8024 176.44 55.7595L176.273 55.1753H175.06L174.888 55.7112C174.872 55.7595 174.866 55.8077 174.861 55.856C174.861 55.931 174.861 55.9792 174.931 55.99L174.904 56.1293ZM175.631 53.2939L175.168 54.725H176.1L175.642 53.2939H175.631Z" fill="white"/>
<path d="M178.488 53.2834V52.4258H178.607C178.634 52.5169 178.72 52.5812 178.817 52.5705H180.972C181.069 52.5812 181.156 52.5169 181.183 52.4258H181.296V53.2995H181.183C181.166 53.1976 181.075 53.1226 180.972 53.1333H180.256V55.8133C180.256 55.9633 180.331 56.0169 180.369 56.0169V56.1349H179.41V56.0169C179.469 56.0169 179.534 55.9633 179.534 55.8133V53.1333H178.822C178.725 53.1226 178.634 53.1869 178.612 53.2834H178.488Z" fill="white"/>
<path d="M187.396 56.1293H186.453V56.0114C186.507 56.0114 186.582 55.9578 186.582 55.8077V54.4624L185.661 52.9348C185.542 52.7258 185.515 52.6936 185.332 52.6775V52.5703H186.41V52.6775C186.35 52.6775 186.297 52.715 186.297 52.7686C186.313 52.8437 186.334 52.9133 186.372 52.983L186.949 53.9425L187.487 52.9937C187.531 52.9187 187.563 52.833 187.584 52.7472C187.584 52.7043 187.541 52.6936 187.466 52.6775V52.5703H188.474V52.6775C188.312 52.6775 188.28 52.7525 188.166 52.9455L187.299 54.4409V55.8238C187.299 55.9739 187.374 56.0275 187.401 56.0275L187.396 56.1293Z" fill="white"/>
<path d="M191.527 52.522C192.54 52.4523 193.418 53.2134 193.483 54.2211C193.553 55.2288 192.788 56.1024 191.775 56.1668C190.762 56.2364 189.883 55.4753 189.819 54.4677C189.813 54.4248 189.813 54.3873 189.813 54.3444C189.743 53.4064 190.455 52.597 191.392 52.5274C191.435 52.522 191.484 52.522 191.527 52.522ZM191.527 55.6093C192.103 55.6093 192.561 55.143 192.561 54.3444C192.561 53.5458 192.103 53.0848 191.527 53.0848C190.95 53.0848 190.498 53.5565 190.498 54.3444C190.498 55.1323 190.961 55.6093 191.527 55.6093Z" fill="white"/>
<path d="M194.787 52.5703H195.784V52.6775C195.714 52.6775 195.649 52.7418 195.649 52.8919V54.9287C195.649 55.3521 195.908 55.6094 196.398 55.6094C196.889 55.6094 197.147 55.3521 197.147 54.9287V52.8919C197.147 52.7418 197.083 52.6775 197.018 52.6775V52.5703H197.999V52.6775C197.929 52.6775 197.864 52.7418 197.864 52.8919V54.8536C197.864 55.7702 197.325 56.1722 196.398 56.1722C195.471 56.1722 194.933 55.7702 194.933 54.8536V52.8919C194.933 52.7418 194.868 52.6775 194.787 52.6775V52.5703Z" fill="white"/>
<path d="M203.501 56.1293H202.499V56.0114C202.569 56.0114 202.634 55.9578 202.634 55.8077V52.8919C202.634 52.7418 202.569 52.6775 202.488 52.6775V52.5703H204.04C204.972 52.5703 205.371 52.9562 205.371 53.6101C205.371 54.2641 204.972 54.6821 204.04 54.6821H203.367V55.8238C203.367 55.9739 203.431 56.0275 203.517 56.0275L203.501 56.1293ZM203.35 53.1063V54.1783H203.889C204.477 54.1783 204.676 54.0282 204.676 53.6423C204.676 53.2564 204.477 53.1063 203.889 53.1063H203.35Z" fill="white"/>
<path d="M207.461 56.1293H206.631V56.0114C206.685 55.9846 206.722 55.9364 206.728 55.8774L207.73 52.9777C207.757 52.9187 207.773 52.8597 207.789 52.7954C207.784 52.7472 207.757 52.7043 207.719 52.6775V52.5703H208.727V52.6775C208.695 52.6989 208.678 52.7365 208.673 52.774C208.673 52.774 208.711 52.9026 208.732 52.9777L209.708 55.7327C209.756 55.8774 209.789 56.0007 209.902 56.0114V56.1293H208.889V56.0114C208.948 55.9953 208.986 55.9471 208.986 55.8881C208.991 55.8452 208.991 55.8024 208.986 55.7595L208.813 55.1753H207.601L207.428 55.7112C207.423 55.7595 207.423 55.8077 207.428 55.856C207.428 55.931 207.428 55.9792 207.493 55.99L207.461 56.1293ZM208.194 53.2939L207.725 54.725H208.662L208.204 53.2939H208.194Z" fill="white"/>
<path d="M213.169 56.1293H212.226V56.0114C212.28 56.0114 212.356 55.9578 212.356 55.8077V54.4624L211.434 52.9348C211.316 52.7258 211.289 52.6936 211.105 52.6775V52.5703H212.183V52.6775C212.124 52.6775 212.07 52.715 212.07 52.7686C212.086 52.8437 212.108 52.9133 212.145 52.983L212.722 53.9425L213.261 52.9937C213.304 52.9187 213.336 52.833 213.358 52.7472C213.358 52.7043 213.315 52.6936 213.239 52.6775V52.5703H214.247V52.6775C214.085 52.6775 214.053 52.7525 213.94 52.9455L213.072 54.4409V55.8238C213.072 55.9739 213.148 56.0275 213.175 56.0275L213.169 56.1293Z" fill="white"/>
<path d="M216.287 55.0791C216.583 55.0791 216.826 55.3203 216.826 55.6151C216.826 55.9099 216.583 56.1511 216.287 56.1511C215.991 56.1511 215.748 55.9099 215.748 55.6151C215.748 55.3203 215.991 55.0791 216.287 55.0791Z" fill="white"/>
<path d="M223.66 56.1293H222.307V56.0114C222.426 56.0114 222.507 55.9524 222.507 55.8881C222.485 55.8077 222.463 55.7273 222.431 55.6469L221.283 52.3077C221.229 52.1469 221.181 52.0075 221.084 51.9861V51.8681H222.226V51.9861C222.097 51.9861 222.065 52.0504 222.065 52.1254C222.075 52.2005 222.092 52.2701 222.119 52.3398L223.013 55.0198L223.875 52.3023C223.902 52.2326 223.918 52.1576 223.929 52.0825C223.929 52.0343 223.886 52.0075 223.746 51.9807V51.8628H224.824V51.9807C224.683 52.029 224.651 52.1629 224.597 52.313L223.52 55.6898C223.498 55.7541 223.487 55.8184 223.482 55.8881C223.482 55.9578 223.547 56.006 223.66 56.006V56.1293Z" fill="white"/>
<path d="M226.796 56.1293H225.961V56.0114C226.015 55.9846 226.053 55.9364 226.058 55.8774L227.066 52.9777C227.066 52.908 227.119 52.8115 227.119 52.7954C227.114 52.7472 227.087 52.7043 227.049 52.6775V52.5703H228.062V52.6775C228.03 52.6989 228.009 52.7365 228.003 52.774C228.019 52.8437 228.041 52.9133 228.068 52.9777L229.038 55.7327C229.086 55.8774 229.119 56.0007 229.237 56.0114V56.1293H228.229V56.0114C228.289 55.9953 228.326 55.9471 228.332 55.8881C228.326 55.8452 228.321 55.8024 228.305 55.7595L228.132 55.1753H226.92L226.753 55.7112C226.748 55.7595 226.748 55.8077 226.753 55.856C226.753 55.931 226.753 55.9792 226.823 55.99L226.796 56.1293ZM227.524 53.2939L227.055 54.725H227.992L227.534 53.2939H227.524Z" fill="white"/>
<path d="M230.566 56.1293V56.0114C230.707 56.0114 230.782 55.9578 230.782 55.8077V52.8919C230.798 52.7901 230.728 52.6936 230.626 52.6775C230.604 52.6721 230.588 52.6721 230.566 52.6775V52.5703H231.682V52.6775C231.574 52.6775 231.499 52.7418 231.499 52.8919V55.5719H232.921C233.056 55.5719 233.11 55.5076 233.131 55.3736H233.25V56.2794H233.137C233.137 56.1829 233.061 56.14 232.927 56.14L230.566 56.1293Z" fill="white"/>
<path d="M234.582 52.5703H235.579V52.6775C235.514 52.6775 235.444 52.7418 235.444 52.8919V54.9287C235.444 55.3521 235.708 55.6094 236.199 55.6094C236.689 55.6094 236.942 55.3521 236.942 54.9287V52.8919C236.942 52.7418 236.883 52.6775 236.818 52.6775V52.5703H237.794V52.6775C237.729 52.6775 237.659 52.7418 237.659 52.8919V54.8536C237.659 55.7702 237.12 56.1722 236.199 56.1722C235.277 56.1722 234.733 55.7702 234.733 54.8536V52.8919C234.733 52.7418 234.668 52.6775 234.582 52.6775V52.5703Z" fill="white"/>
<path d="M239.657 52.8921C239.657 52.742 239.587 52.6777 239.506 52.6777V52.5705H241.882C242.022 52.5705 242.071 52.5223 242.098 52.4258H242.205V53.3423H242.098C242.071 53.203 242.022 53.1333 241.882 53.1333H240.368V54.0123H241.284C241.419 54.0123 241.467 53.9694 241.489 53.8301H241.607V54.752H241.489C241.489 54.6126 241.419 54.5751 241.284 54.5751H240.368V55.5614H241.882C242.022 55.5614 242.071 55.497 242.098 55.363H242.205V56.2689H242.098C242.071 56.1724 242.022 56.1295 241.882 56.1295H239.506V56.0116C239.587 56.0116 239.657 55.958 239.657 55.8079V52.8921Z" fill="white"/>
<path d="M247.918 56.1293H246.84V56.0114C246.937 56.0114 247.012 55.9578 247.012 55.8077V52.8919C247.012 52.7418 246.953 52.6775 246.84 52.6775V52.5703H247.918V52.6775C247.81 52.6775 247.745 52.7418 247.745 52.8919V55.8238C247.745 55.9739 247.81 56.0275 247.918 56.0275V56.1293Z" fill="white"/>
<path d="M252.498 52.7739L252.078 53.5725L251.997 53.535C251.997 53.2616 251.587 53.058 251.011 53.058C250.574 53.058 250.327 53.2348 250.327 53.5243C250.327 54.2693 252.482 53.7012 252.482 55.1751C252.482 55.7701 251.9 56.1721 251.189 56.1721C250.709 56.1507 250.24 56.0327 249.815 55.8183C249.739 55.8183 249.734 55.8773 249.691 55.9041L249.594 55.8666L250.03 54.9983L250.149 55.0572C250.133 55.0947 250.116 55.1323 250.111 55.1698C250.111 55.4163 250.682 55.6415 251.189 55.6415C251.695 55.6415 251.916 55.4485 251.916 55.1055C251.916 54.4355 249.761 54.9554 249.761 53.5564C249.761 52.9454 250.224 52.522 251.081 52.522C251.501 52.5595 251.911 52.656 252.299 52.8114C252.347 52.8007 252.396 52.7793 252.439 52.7471L252.498 52.7739Z" fill="white"/>
<path d="M256.669 52.5703H257.676V52.6775C257.585 52.6775 257.531 52.715 257.531 52.8115C257.536 52.9294 257.558 53.0473 257.595 53.1599L258.096 55.0788L258.592 53.0098C258.608 52.9294 258.619 52.849 258.625 52.7686C258.625 52.715 258.625 52.6989 258.501 52.6775V52.5703H259.476V52.6936C259.411 52.6936 259.352 52.7257 259.352 52.774C259.368 52.8758 259.39 52.9723 259.417 53.0688L259.907 55.0788L260.478 53.117C260.511 53.0205 260.527 52.9187 260.532 52.8169C260.532 52.7204 260.478 52.6936 260.403 52.6775V52.5703H261.346V52.6775C261.211 52.6775 261.184 52.7418 261.125 52.9348L260.279 55.6148C260.246 55.7059 260.22 55.797 260.209 55.8935C260.209 55.9471 260.263 55.9846 260.333 55.9953V56.1132H259.363V55.9953C259.444 55.9953 259.492 55.9632 259.492 55.9203C259.481 55.8184 259.454 55.722 259.422 55.6255L258.926 53.6369L258.457 55.6148C258.431 55.7005 258.42 55.7863 258.414 55.872C258.414 55.9364 258.441 55.9846 258.544 55.9953V56.1132H257.568V55.9953C257.628 55.9953 257.665 55.9632 257.665 55.8935C257.638 55.7488 257.606 55.6094 257.558 55.47L256.846 52.849C256.814 52.7633 256.744 52.6989 256.652 52.6775L256.669 52.5703Z" fill="white"/>
<path d="M263.738 56.1293H262.773V56.0114C262.811 56.0114 262.887 55.9578 262.887 55.8077V52.8919C262.887 52.7418 262.811 52.6775 262.773 52.6775V52.5703H263.738V52.6775C263.673 52.6775 263.603 52.7418 263.603 52.8919V54.0229H265.101V52.8919C265.101 52.7418 265.026 52.6775 264.972 52.6775V52.5703H265.953V52.6775C265.888 52.6775 265.818 52.7418 265.818 52.8919V55.8238C265.818 55.9739 265.888 56.0275 265.963 56.0275V56.1454H264.988V56.0275C265.026 56.0275 265.101 55.9739 265.101 55.8238V54.591H263.582V55.8238C263.582 55.9739 263.652 56.0275 263.738 56.0275V56.1293Z" fill="white"/>
<path d="M268.163 56.1293H267.328V56.0114C267.382 55.9846 267.42 55.9364 267.425 55.8774L268.433 52.9777C268.433 52.908 268.487 52.8115 268.487 52.7954C268.481 52.7472 268.454 52.7043 268.417 52.6775V52.5703H269.43V52.6775C269.397 52.6989 269.376 52.7365 269.37 52.774C269.386 52.8437 269.408 52.9133 269.435 52.9777L270.405 55.7327C270.453 55.8774 270.486 56.0007 270.604 56.0114V56.1293H269.618V56.0114C269.677 55.9953 269.715 55.9471 269.721 55.8881C269.726 55.8452 269.726 55.8024 269.721 55.7595L269.548 55.1753H268.341L268.169 55.7112C268.153 55.7595 268.142 55.8077 268.142 55.856C268.142 55.931 268.142 55.9792 268.212 55.99L268.163 56.1293ZM268.891 53.2939L268.422 54.725H269.36L268.902 53.2939H268.891Z" fill="white"/>
<path d="M271.762 53.2834V52.4258H271.88C271.902 52.5169 271.988 52.5812 272.085 52.5705H274.24C274.337 52.5812 274.424 52.5169 274.445 52.4258H274.564V53.2995H274.445C274.434 53.1976 274.348 53.1226 274.246 53.1333H274.24H273.551V55.8133C273.551 55.9633 273.626 56.0169 273.658 56.0169V56.1349H272.699V56.0169C272.764 56.0169 272.829 55.9633 272.829 55.8133V53.1333H272.112C272.015 53.1226 271.929 53.1869 271.907 53.2834H271.762Z" fill="white"/>
<path d="M280.664 56.1293H279.721V56.0114C279.78 56.0114 279.85 55.9578 279.85 55.8077V54.4624L278.934 52.9348C278.81 52.7258 278.789 52.6936 278.605 52.6775V52.5703H279.683V52.6775C279.619 52.6775 279.565 52.715 279.565 52.7686C279.575 52.8437 279.608 52.9187 279.645 52.983L280.222 53.9425L280.761 52.9937C280.809 52.9187 280.842 52.833 280.858 52.7472C280.858 52.7043 280.815 52.6936 280.745 52.6775V52.5703H281.752V52.6775C281.585 52.6775 281.558 52.7525 281.44 52.9455L280.578 54.4409V55.8238C280.578 55.9739 280.653 56.0275 280.675 56.0275L280.664 56.1293Z" fill="white"/>
<path d="M284.802 52.522C285.815 52.4523 286.694 53.2134 286.758 54.2211C286.828 55.2288 286.063 56.1024 285.05 56.1668C284.037 56.2364 283.159 55.4753 283.094 54.4677C283.089 54.4248 283.089 54.3873 283.089 54.3444C283.019 53.4064 283.73 52.597 284.668 52.5274C284.711 52.522 284.759 52.522 284.802 52.522ZM284.802 55.6093C285.379 55.6093 285.837 55.143 285.837 54.3444C285.837 53.5458 285.379 53.0848 284.802 53.0848C284.226 53.0848 283.773 53.5565 283.773 54.3444C283.773 55.1323 284.231 55.6093 284.802 55.6093Z" fill="white"/>
<path d="M288.057 52.5703H289.053V52.6775C288.989 52.6775 288.919 52.7418 288.919 52.8919V54.9287C288.919 55.3521 289.183 55.6094 289.673 55.6094C290.163 55.6094 290.417 55.3521 290.417 54.9287V52.8919C290.417 52.7418 290.357 52.6775 290.287 52.6775V52.5703H291.268V52.6775C291.203 52.6775 291.133 52.7418 291.133 52.8919V54.8536C291.133 55.7702 290.595 56.1722 289.673 56.1722C288.752 56.1722 288.202 55.7702 288.202 54.8536V52.8919C288.202 52.7418 288.143 52.6775 288.057 52.6775V52.5703Z" fill="white"/>
<path d="M298.813 52.7957L298.274 53.6533L298.177 53.6104C298.177 53.5729 298.177 53.5407 298.177 53.5032C298.177 53.3156 297.848 53.0851 297.353 53.0851C296.701 53.1387 296.221 53.7015 296.269 54.3501C296.269 54.3608 296.269 54.3769 296.275 54.3876C296.237 55.0254 296.722 55.5668 297.363 55.6096C297.379 55.6096 297.396 55.6096 297.412 55.6096C297.654 55.6096 297.897 55.5346 298.096 55.3952V54.8217H297.503C297.428 54.811 297.358 54.8593 297.336 54.9289H297.261V54.1517H297.379C297.39 54.2321 297.466 54.2911 297.546 54.2857H298.877V54.3929C298.802 54.3929 298.77 54.4358 298.77 54.5269V55.3952C298.77 55.4596 298.802 55.4864 298.872 55.4971V55.5614C298.473 55.9741 297.918 56.1939 297.342 56.1724C296.377 56.1564 295.607 55.3631 295.623 54.3983C295.623 54.3876 295.623 54.3715 295.623 54.3608C295.547 53.4281 296.242 52.6027 297.185 52.5277C297.239 52.5223 297.299 52.5223 297.353 52.5223C297.643 52.5169 297.929 52.5759 298.193 52.6938C298.306 52.7528 298.425 52.801 298.549 52.8439C298.619 52.8278 298.678 52.7849 298.716 52.726L298.813 52.7957Z" fill="white"/>
<path d="M300.811 52.8921C300.811 52.742 300.741 52.6777 300.66 52.6777V52.5705H303.037C303.177 52.5705 303.225 52.5223 303.252 52.4258H303.36V53.3423H303.252C303.252 53.203 303.177 53.1333 303.037 53.1333H301.522V54.0123H302.438C302.573 54.0123 302.622 53.9694 302.643 53.8301H302.762V54.752H302.649C302.649 54.6126 302.579 54.5751 302.444 54.5751H301.528V55.5614H303.042C303.182 55.5614 303.23 55.497 303.257 55.363H303.365V56.2689H303.257C303.257 56.1724 303.182 56.1295 303.042 56.1295H300.666V56.0116C300.746 56.0116 300.816 55.958 300.816 55.8079L300.811 52.8921Z" fill="white"/>
<path d="M304.756 53.2834V52.4258H304.874C304.896 52.5169 304.982 52.5812 305.079 52.5705H307.235C307.332 52.5812 307.418 52.5169 307.439 52.4258H307.558V53.2995H307.439C307.429 53.1976 307.342 53.1226 307.24 53.1333H307.235H306.518V55.8133C306.518 55.9633 306.593 56.0169 306.626 56.0169V56.1349H305.667V56.0169C305.731 56.0169 305.796 55.9633 305.796 55.8133V53.1333H305.079C304.982 53.1226 304.896 53.1869 304.874 53.2834H304.756Z" fill="white"/>
<path d="M309.547 55.0791C309.843 55.0791 310.086 55.3203 310.086 55.6151C310.086 55.9099 309.843 56.1511 309.547 56.1511C309.25 56.1511 309.008 55.9099 309.008 55.6151C309.008 55.3203 309.25 55.0791 309.547 55.0791Z" fill="white"/>
<path d="M81.5217 35.547H102.284V40.4353H76.6074V6.95166H100.317V11.8721H81.5217V22.056C83.5532 20.8875 85.6762 20.7535 87.8855 20.7535H95.2408V25.7329H87.8855C85.7301 25.7329 83.5747 25.958 81.5217 27.0354V35.547Z" fill="white"/>
<path d="M134.323 40.4353L123.988 26.344L113.297 40.4353H107.047L120.852 22.2597L109.741 6.95166H115.668L123.972 18.1272L132.416 6.95166H138.505L127.087 22.2597L140.558 40.4353H134.323Z" fill="white"/>
<path d="M172.146 14.9379C169.549 12.3276 165.998 10.8697 162.307 10.9019C154.817 10.9019 149.04 16.2618 149.04 23.7658C149.04 30.9963 155.313 36.292 162.355 36.292C166.553 36.3241 170.519 34.3731 173.046 31.0392L176.074 35.1235C172.561 39.0041 167.555 41.207 162.307 41.1856C152.441 41.3035 144.347 33.4405 144.229 23.621C144.229 23.4817 144.229 23.337 144.229 23.1976C144.229 13.3246 152.71 5.96001 162.372 5.96001C167.221 5.94929 171.871 7.85743 175.304 11.261L172.146 14.9379Z" fill="white"/>
<path d="M188.166 40.4353H183.316V6.95166H188.166V20.6839C189.513 20.0567 190.99 19.7512 192.477 19.7887C194.465 19.7887 200.376 20.775 203.442 20.775C205.005 20.791 206.552 20.5016 208.001 19.9227V6.95166H212.921V40.4353H208.001V24.8593C206.552 25.4435 205.005 25.7329 203.442 25.7115C200.376 25.7115 194.465 24.7253 192.477 24.7253C190.99 24.6877 189.513 24.9932 188.166 25.6257V40.4353Z" fill="white"/>
<path d="M231.521 6.36768H236.909L253.107 40.4355H247.6L245.391 35.5472H235.152C229.015 35.5472 225.723 37.4768 224.952 38.865L224.095 40.4355H218.771L233.347 10.4948L231.521 6.36768ZM243.181 30.6322L235.831 16.4658L228.385 32.4921C229.602 31.4576 232.356 30.6054 236.958 30.6054L243.181 30.6322Z" fill="white"/>
<path d="M256.496 6.95166H262.854L284.473 32.5347V6.95166H289.436V40.4353H284.586L265.269 17.3875V40.4353H260.419V11.6631L256.496 6.95166Z" fill="white"/>
<path d="M325.05 14.9384C322.452 12.3281 318.901 10.8756 315.21 10.9024C307.72 10.9024 301.944 16.2623 301.944 23.7663C301.944 30.9968 308.216 36.2925 315.253 36.2925C318.497 36.3139 321.633 35.1722 324.101 33.0765V26.9715H319.79L317.667 22.1476H328.983V35.1669C325.475 39.0475 320.469 41.2504 315.221 41.229C305.349 41.3523 297.245 33.4946 297.121 23.6805C297.121 23.5304 297.121 23.3803 297.121 23.2249C297.121 13.3519 305.608 5.98732 315.264 5.98732C320.108 5.98196 324.764 7.88474 328.196 11.2883L325.05 14.9384Z" fill="white"/>
<path d="M342.244 35.547H363V40.4353H337.324V6.95166H361.034V11.8721H342.244V22.056C344.27 20.8875 346.393 20.7535 348.602 20.7535H355.963V25.7329H348.602C346.447 25.7329 344.292 25.958 342.244 27.0354V35.547Z" fill="white"/>
</g>
<defs>
<clipPath id="clip0">
<rect width="363" height="58" fill="white"/>
</clipPath>
</defs>
</svg>
