<svg width="167" height="136" viewBox="0 0 167 136" fill="none" xmlns="http://www.w3.org/2000/svg">
<g clip-path="url(#clip0)">
<path d="M104.637 133.13H62.3633L64.7818 114.934H102.564L104.637 133.13Z" stroke="#EDBD41" stroke-width="2" stroke-miterlimit="10"/>
<path d="M0.134766 99.6943V110.931C0.134766 113.213 2.00054 115.08 4.28152 115.08H162.718C164.997 115.08 166.862 113.213 166.862 110.931V99.6943H0.134766Z" stroke="#EDBD41" stroke-width="2" stroke-miterlimit="10"/>
<path d="M166.865 4.2832C166.865 2.00129 164.999 0.134766 162.721 0.134766H4.28152C2.00054 0.134766 0.134766 2.00129 0.134766 4.2832V99.6944H166.865V4.2832Z" stroke="#EDBD41" stroke-width="2" stroke-miterlimit="10"/>
<path d="M160.993 5.66699H6.00977V94.165H160.993V5.66699Z" stroke="#EDBD41" stroke-width="2" stroke-miterlimit="10"/>
<path d="M62.3639 133.13H104.638L112.074 134.889L54.9277 134.929L62.3639 133.13Z" stroke="#EDBD41" stroke-width="2" stroke-miterlimit="10"/>
<path d="M111.683 135.865H55.3162L54.9414 134.929L112.074 134.889L111.683 135.865Z" stroke="#EDBD41" stroke-width="2" stroke-miterlimit="10"/>
<path d="M86.4668 107.875C86.4668 109.512 85.1403 110.842 83.501 110.842C81.8617 110.842 80.5352 109.515 80.5352 107.875C80.5352 106.235 81.8617 104.908 83.501 104.908C85.1376 104.908 86.4668 106.235 86.4668 107.875Z" stroke="#EDBD41" stroke-width="2" stroke-miterlimit="10"/>
</g>
<defs>
<clipPath id="clip0">
<rect width="167" height="136" fill="white"/>
</clipPath>
</defs>
</svg>
