<svg width="68" height="141" viewBox="0 0 68 141" fill="none" xmlns="http://www.w3.org/2000/svg">
<path d="M65.5683 126.794C65.5683 132.164 61.1464 136.57 55.7381 136.57H12.2638C6.85544 136.57 2.43359 132.164 2.43359 126.794V14.2055C2.43359 8.82737 6.85544 4.43018 12.2638 4.43018H55.7381C61.1464 4.43018 65.5683 8.82737 65.5683 14.2055V126.794V126.794Z" stroke="#EDBD41" stroke-width="2" stroke-miterlimit="10"/>
<path d="M61 123.827C61 128.866 57.1479 133 52.4364 133H14.5636C9.85211 133 6 128.866 6 123.827V18.1732C6 13.1263 9.85211 9 14.5636 9H52.4364C57.1479 9 61 13.1263 61 18.1732V123.827V123.827Z" stroke="#EDBD41" stroke-width="2" stroke-miterlimit="10"/>
<path d="M36.9316 125.967C36.9316 127.604 35.6051 128.934 33.9658 128.934C32.3265 128.934 31 127.607 31 125.967C31 124.327 32.3265 123 33.9658 123C35.6024 123 36.9316 124.327 36.9316 125.967Z" stroke="#EDBD41" stroke-width="2" stroke-miterlimit="10"/>
</svg>
