<svg width="35" height="36" viewBox="0 0 35 36" fill="none" xmlns="http://www.w3.org/2000/svg">
<g clip-path="url(#clip0)">
<path d="M32.6395 30.9844H17.5V32.4896H32.6395V30.9844Z" stroke="#333333" stroke-miterlimit="10"/>
<path d="M17.4998 30.9844H2.25586V32.4896H17.4998V30.9844Z" stroke="#333333" stroke-miterlimit="10"/>
<path d="M17.4982 11.7603V0.317546L17.4773 0.307129L0.416016 10.7498L1.43437 11.7603H3.15773H17.4773H17.4982Z" stroke="#333333" stroke-miterlimit="10"/>
<path d="M17.498 11.7603V0.317546L17.5242 0.307129L34.5803 10.7498L33.5671 11.7603H31.8385H17.5242H17.498Z" stroke="#333333" stroke-miterlimit="10"/>
<path d="M17.498 15.88H19.7698H21.2738H25.812H27.3526H31.896H31.9325V11.7603H17.498V15.88Z" stroke="#333333" stroke-miterlimit="10"/>
<path d="M17.4778 11.7603H3.1582V15.88H7.70162H9.20043H13.7439H15.227H17.4987V11.7603H17.4778Z" stroke="#333333" stroke-miterlimit="10"/>
<path d="M29.6247 15.8799H5.42969V30.984H29.6247V15.8799Z" stroke="#333333" stroke-miterlimit="10"/>
<path d="M5.43049 15.8799H3.91602V30.984H5.43049V15.8799Z" stroke="#333333" stroke-miterlimit="10"/>
<path d="M29.6317 15.8799H28.1172V30.984H29.6317V15.8799Z" stroke="#333333" stroke-miterlimit="10"/>
<path d="M11.4721 15.8799H9.96289V30.984H11.4721V15.8799Z" stroke="#333333" stroke-miterlimit="10"/>
<path d="M17.5047 15.8799H15.9902V30.984H17.5047V15.8799Z" stroke="#333333" stroke-miterlimit="10"/>
<path d="M23.5477 15.8799H22.0332V30.984H23.5477V15.8799Z" stroke="#333333" stroke-miterlimit="10"/>
<path d="M29.6262 18.1457V28.7238C29.5896 28.7238 29.5583 28.7186 29.5217 28.7186C28.2684 28.7186 27.25 29.7342 27.25 30.9842H29.6209H31.1302H31.7882C31.7882 30.3644 31.5375 29.8019 31.1302 29.3957V17.5728C31.595 17.1561 31.8874 16.5571 31.8874 15.8853H27.3492C27.3544 17.13 28.3728 18.1457 29.6262 18.1457Z" stroke="#333333" stroke-miterlimit="10"/>
<path d="M23.548 18.1457V28.7238C23.5115 28.7238 23.4801 28.7186 23.4436 28.7186C22.1902 28.7186 21.1719 29.7342 21.1719 30.9842H23.5428H25.0573H25.7101C25.7101 30.3644 25.4594 29.8019 25.0573 29.3957V17.5728C25.5221 17.1561 25.8145 16.5571 25.8145 15.8853H21.2711C21.2763 17.13 22.2895 18.1457 23.548 18.1457Z" stroke="#333333" stroke-miterlimit="10"/>
<path d="M17.4992 18.1457V28.7238C17.4626 28.7238 17.4313 28.7186 17.3948 28.7186C16.1414 28.7186 15.123 29.7342 15.123 30.9842H17.494H19.0032H19.6612C19.6612 30.3644 19.4106 29.8019 19.0032 29.3957V17.5728C19.468 17.1561 19.7605 16.5571 19.7605 15.8853H15.2223C15.2275 17.13 16.2458 18.1457 17.4992 18.1457Z" stroke="#333333" stroke-miterlimit="10"/>
<path d="M11.4738 18.1457V28.7238C11.4425 28.7238 11.4059 28.7186 11.3694 28.7186C10.116 28.7186 9.09766 29.7342 9.09766 30.9842H11.4686H12.9778H13.6359C13.6359 30.3644 13.3852 29.8019 12.9778 29.3957V17.5728C13.4426 17.1561 13.7351 16.5571 13.7351 15.8853H9.19166C9.2021 17.13 10.2205 18.1457 11.4738 18.1457Z" stroke="#333333" stroke-miterlimit="10"/>
<path d="M5.43084 18.1462V28.7243C5.39429 28.7243 5.36295 28.7191 5.3264 28.7191C4.07304 28.7191 3.05469 29.7347 3.05469 30.9847H5.42562H6.93487H7.59289C7.59289 30.3649 7.34221 29.8024 6.93487 29.3962V17.5732C7.39966 17.1566 7.69211 16.5576 7.69211 15.8857H3.14869C3.15913 17.1305 4.17749 18.1462 5.43084 18.1462Z" stroke="#333333" stroke-miterlimit="10"/>
<path d="M33.6409 32.4844H17.5039V34.0885H33.6409V32.4844Z" stroke="#333333" stroke-miterlimit="10"/>
<path d="M17.5045 32.4844H1.25781V34.0885H17.5045V32.4844Z" stroke="#333333" stroke-miterlimit="10"/>
<path d="M34.5339 34.0469H17.5039V35.7396H34.5339V34.0469Z" stroke="#333333" stroke-miterlimit="10"/>
<path d="M17.5043 34.0469H0.359375V35.7396H17.5043V34.0469Z" stroke="#333333" stroke-miterlimit="10"/>
</g>
<defs>
<clipPath id="clip0">
<rect width="35" height="36" fill="white"/>
</clipPath>
</defs>
</svg>
