<svg width="32" height="29" viewBox="0 0 32 29" fill="none" xmlns="http://www.w3.org/2000/svg">
<circle cx="13.428" cy="7.23077" r="6.23077" stroke="#333333" stroke-width="2"/>
<path d="M25.8571 23.7581C25.8571 24.8292 25.5516 25.536 25.0723 26.0473C24.5694 26.5837 23.7851 27.0007 22.6658 27.2999C20.3916 27.9076 17.1875 27.923 13.4286 27.923C9.66968 27.923 6.46557 27.9076 4.19131 27.2999C3.07204 27.0007 2.28771 26.5837 1.78485 26.0473C1.30553 25.536 1 24.8292 1 23.7581C1 21.6118 2.25556 19.562 4.50235 18.0066C6.74522 16.4538 9.89804 15.4614 13.4286 15.4614C16.9591 15.4614 20.1119 16.4538 22.3548 18.0066C24.6016 19.562 25.8571 21.6118 25.8571 23.7581Z" stroke="#333333" stroke-width="2"/>
<circle cx="26.5" cy="23.5" r="4.5" fill="white" stroke="#333333" stroke-width="2"/>
<path d="M25.3261 23.5171L26.5193 25.2536L28.0464 22.0056" stroke="#EDBD41" stroke-linecap="round" stroke-linejoin="round"/>
</svg>
