<svg width="319" height="202" viewBox="0 0 319 202" fill="none" xmlns="http://www.w3.org/2000/svg">
<path opacity="0.5" d="M8.056 197.208C8.056 197.069 8.056 196.917 8.056 196.752C8.06133 196.581 8.07467 196.413 8.096 196.248C8.12267 196.077 8.15733 195.912 8.2 195.752C8.248 195.592 8.31467 195.453 8.4 195.336C8.49067 195.213 8.60267 195.115 8.736 195.04C8.86933 194.965 9.032 194.928 9.224 194.928C9.416 194.928 9.57867 194.965 9.712 195.04C9.84533 195.115 9.95467 195.213 10.04 195.336C10.1307 195.453 10.1973 195.592 10.24 195.752C10.288 195.912 10.3227 196.077 10.344 196.248C10.3707 196.413 10.384 196.581 10.384 196.752C10.3893 196.917 10.392 197.069 10.392 197.208C10.392 197.421 10.384 197.661 10.368 197.928C10.3573 198.189 10.3147 198.437 10.24 198.672C10.1707 198.901 10.056 199.096 9.896 199.256C9.736 199.416 9.512 199.496 9.224 199.496C8.936 199.496 8.712 199.416 8.552 199.256C8.392 199.096 8.27467 198.901 8.2 198.672C8.13067 198.437 8.088 198.189 8.072 197.928C8.06133 197.661 8.056 197.421 8.056 197.208ZM7.336 197.216C7.336 197.424 7.34133 197.64 7.352 197.864C7.36267 198.088 7.38933 198.307 7.432 198.52C7.47467 198.733 7.536 198.936 7.616 199.128C7.696 199.315 7.80533 199.48 7.944 199.624C8.08267 199.768 8.256 199.883 8.464 199.968C8.67733 200.048 8.93067 200.088 9.224 200.088C9.52267 200.088 9.776 200.048 9.984 199.968C10.192 199.883 10.3653 199.768 10.504 199.624C10.6427 199.48 10.752 199.315 10.832 199.128C10.912 198.936 10.9733 198.733 11.016 198.52C11.0587 198.307 11.0853 198.088 11.096 197.864C11.1067 197.64 11.112 197.424 11.112 197.216C11.112 197.008 11.1067 196.792 11.096 196.568C11.0853 196.344 11.0587 196.125 11.016 195.912C10.9733 195.699 10.912 195.496 10.832 195.304C10.752 195.112 10.6427 194.944 10.504 194.8C10.3653 194.656 10.1893 194.541 9.976 194.456C9.768 194.371 9.51733 194.328 9.224 194.328C8.93067 194.328 8.67733 194.371 8.464 194.456C8.256 194.541 8.08267 194.656 7.944 194.8C7.80533 194.944 7.696 195.112 7.616 195.304C7.536 195.496 7.47467 195.699 7.432 195.912C7.38933 196.125 7.36267 196.344 7.352 196.568C7.34133 196.792 7.336 197.008 7.336 197.216Z" fill="#333333"/>
<path opacity="0.5" d="M162.848 200V194.328H162.328C162.291 194.541 162.221 194.717 162.12 194.856C162.019 194.995 161.893 195.104 161.744 195.184C161.6 195.264 161.437 195.32 161.256 195.352C161.075 195.379 160.888 195.392 160.696 195.392V195.936H162.168V200H162.848Z" fill="#333333"/>
<path opacity="0.5" d="M313.352 196.336H314.032C314.027 196.165 314.043 195.997 314.08 195.832C314.123 195.661 314.189 195.509 314.28 195.376C314.371 195.243 314.485 195.136 314.624 195.056C314.768 194.971 314.939 194.928 315.136 194.928C315.285 194.928 315.427 194.952 315.56 195C315.693 195.048 315.808 195.117 315.904 195.208C316.005 195.299 316.085 195.408 316.144 195.536C316.203 195.659 316.232 195.797 316.232 195.952C316.232 196.149 316.2 196.323 316.136 196.472C316.077 196.621 315.987 196.76 315.864 196.888C315.747 197.016 315.597 197.144 315.416 197.272C315.235 197.395 315.024 197.531 314.784 197.68C314.587 197.797 314.397 197.923 314.216 198.056C314.035 198.189 313.872 198.344 313.728 198.52C313.584 198.696 313.464 198.904 313.368 199.144C313.277 199.379 313.219 199.664 313.192 200H316.896V199.4H313.984C314.016 199.224 314.083 199.069 314.184 198.936C314.291 198.797 314.416 198.669 314.56 198.552C314.709 198.435 314.872 198.325 315.048 198.224C315.224 198.117 315.4 198.011 315.576 197.904C315.752 197.792 315.923 197.675 316.088 197.552C316.253 197.429 316.4 197.293 316.528 197.144C316.656 196.989 316.757 196.816 316.832 196.624C316.912 196.432 316.952 196.211 316.952 195.96C316.952 195.693 316.904 195.459 316.808 195.256C316.717 195.053 316.592 194.885 316.432 194.752C316.272 194.613 316.083 194.509 315.864 194.44C315.651 194.365 315.421 194.328 315.176 194.328C314.877 194.328 314.611 194.379 314.376 194.48C314.141 194.581 313.944 194.723 313.784 194.904C313.629 195.08 313.515 195.291 313.44 195.536C313.365 195.781 313.336 196.048 313.352 196.336Z" fill="#333333"/>
<path opacity="0.5" d="M0.352 164.336H1.032C1.02667 164.165 1.04267 163.997 1.08 163.832C1.12267 163.661 1.18933 163.509 1.28 163.376C1.37067 163.243 1.48533 163.136 1.624 163.056C1.768 162.971 1.93867 162.928 2.136 162.928C2.28533 162.928 2.42667 162.952 2.56 163C2.69333 163.048 2.808 163.117 2.904 163.208C3.00533 163.299 3.08533 163.408 3.144 163.536C3.20267 163.659 3.232 163.797 3.232 163.952C3.232 164.149 3.2 164.323 3.136 164.472C3.07733 164.621 2.98667 164.76 2.864 164.888C2.74667 165.016 2.59733 165.144 2.416 165.272C2.23467 165.395 2.024 165.531 1.784 165.68C1.58667 165.797 1.39733 165.923 1.216 166.056C1.03467 166.189 0.872 166.344 0.728 166.52C0.584 166.696 0.464 166.904 0.368 167.144C0.277333 167.379 0.218667 167.664 0.192 168H3.896V167.4H0.984C1.016 167.224 1.08267 167.069 1.184 166.936C1.29067 166.797 1.416 166.669 1.56 166.552C1.70933 166.435 1.872 166.325 2.048 166.224C2.224 166.117 2.4 166.011 2.576 165.904C2.752 165.792 2.92267 165.675 3.088 165.552C3.25333 165.429 3.4 165.293 3.528 165.144C3.656 164.989 3.75733 164.816 3.832 164.624C3.912 164.432 3.952 164.211 3.952 163.96C3.952 163.693 3.904 163.459 3.808 163.256C3.71733 163.053 3.592 162.885 3.432 162.752C3.272 162.613 3.08267 162.509 2.864 162.44C2.65067 162.365 2.42133 162.328 2.176 162.328C1.87733 162.328 1.61067 162.379 1.376 162.48C1.14133 162.581 0.944 162.723 0.784 162.904C0.629333 163.08 0.514667 163.291 0.44 163.536C0.365333 163.781 0.336 164.048 0.352 164.336ZM5.50131 165.208C5.50131 165.069 5.50131 164.917 5.50131 164.752C5.50665 164.581 5.51998 164.413 5.54131 164.248C5.56798 164.077 5.60265 163.912 5.64531 163.752C5.69331 163.592 5.75998 163.453 5.84531 163.336C5.93598 163.213 6.04798 163.115 6.18131 163.04C6.31465 162.965 6.47731 162.928 6.66931 162.928C6.86131 162.928 7.02398 162.965 7.15731 163.04C7.29065 163.115 7.39998 163.213 7.48531 163.336C7.57598 163.453 7.64265 163.592 7.68531 163.752C7.73331 163.912 7.76798 164.077 7.78931 164.248C7.81598 164.413 7.82931 164.581 7.82931 164.752C7.83465 164.917 7.83731 165.069 7.83731 165.208C7.83731 165.421 7.82931 165.661 7.81331 165.928C7.80265 166.189 7.75998 166.437 7.68531 166.672C7.61598 166.901 7.50131 167.096 7.34131 167.256C7.18131 167.416 6.95731 167.496 6.66931 167.496C6.38131 167.496 6.15731 167.416 5.99731 167.256C5.83731 167.096 5.71998 166.901 5.64531 166.672C5.57598 166.437 5.53331 166.189 5.51731 165.928C5.50665 165.661 5.50131 165.421 5.50131 165.208ZM4.78131 165.216C4.78131 165.424 4.78665 165.64 4.79731 165.864C4.80798 166.088 4.83465 166.307 4.87731 166.52C4.91998 166.733 4.98131 166.936 5.06131 167.128C5.14131 167.315 5.25065 167.48 5.38931 167.624C5.52798 167.768 5.70131 167.883 5.90931 167.968C6.12265 168.048 6.37598 168.088 6.66931 168.088C6.96798 168.088 7.22131 168.048 7.42931 167.968C7.63731 167.883 7.81065 167.768 7.94931 167.624C8.08798 167.48 8.19731 167.315 8.27731 167.128C8.35731 166.936 8.41865 166.733 8.46131 166.52C8.50398 166.307 8.53065 166.088 8.54131 165.864C8.55198 165.64 8.55731 165.424 8.55731 165.216C8.55731 165.008 8.55198 164.792 8.54131 164.568C8.53065 164.344 8.50398 164.125 8.46131 163.912C8.41865 163.699 8.35731 163.496 8.27731 163.304C8.19731 163.112 8.08798 162.944 7.94931 162.8C7.81065 162.656 7.63465 162.541 7.42131 162.456C7.21331 162.371 6.96265 162.328 6.66931 162.328C6.37598 162.328 6.12265 162.371 5.90931 162.456C5.70131 162.541 5.52798 162.656 5.38931 162.8C5.25065 162.944 5.14131 163.112 5.06131 163.304C4.98131 163.496 4.91998 163.699 4.87731 163.912C4.83465 164.125 4.80798 164.344 4.79731 164.568C4.78665 164.792 4.78131 165.008 4.78131 165.216ZM9.94662 165.208C9.94662 165.069 9.94662 164.917 9.94662 164.752C9.95196 164.581 9.96529 164.413 9.98663 164.248C10.0133 164.077 10.048 163.912 10.0906 163.752C10.1386 163.592 10.2053 163.453 10.2906 163.336C10.3813 163.213 10.4933 163.115 10.6266 163.04C10.76 162.965 10.9226 162.928 11.1146 162.928C11.3066 162.928 11.4693 162.965 11.6026 163.04C11.736 163.115 11.8453 163.213 11.9306 163.336C12.0213 163.453 12.088 163.592 12.1306 163.752C12.1786 163.912 12.2133 164.077 12.2346 164.248C12.2613 164.413 12.2746 164.581 12.2746 164.752C12.28 164.917 12.2826 165.069 12.2826 165.208C12.2826 165.421 12.2746 165.661 12.2586 165.928C12.248 166.189 12.2053 166.437 12.1306 166.672C12.0613 166.901 11.9466 167.096 11.7866 167.256C11.6266 167.416 11.4026 167.496 11.1146 167.496C10.8266 167.496 10.6026 167.416 10.4426 167.256C10.2826 167.096 10.1653 166.901 10.0906 166.672C10.0213 166.437 9.97863 166.189 9.96263 165.928C9.95196 165.661 9.94662 165.421 9.94662 165.208ZM9.22663 165.216C9.22663 165.424 9.23196 165.64 9.24263 165.864C9.25329 166.088 9.27996 166.307 9.32263 166.52C9.36529 166.733 9.42663 166.936 9.50663 167.128C9.58663 167.315 9.69596 167.48 9.83463 167.624C9.97329 167.768 10.1466 167.883 10.3546 167.968C10.568 168.048 10.8213 168.088 11.1146 168.088C11.4133 168.088 11.6666 168.048 11.8746 167.968C12.0826 167.883 12.256 167.768 12.3946 167.624C12.5333 167.48 12.6426 167.315 12.7226 167.128C12.8026 166.936 12.864 166.733 12.9066 166.52C12.9493 166.307 12.976 166.088 12.9866 165.864C12.9973 165.64 13.0026 165.424 13.0026 165.216C13.0026 165.008 12.9973 164.792 12.9866 164.568C12.976 164.344 12.9493 164.125 12.9066 163.912C12.864 163.699 12.8026 163.496 12.7226 163.304C12.6426 163.112 12.5333 162.944 12.3946 162.8C12.256 162.656 12.08 162.541 11.8666 162.456C11.6586 162.371 11.408 162.328 11.1146 162.328C10.8213 162.328 10.568 162.371 10.3546 162.456C10.1466 162.541 9.97329 162.656 9.83463 162.8C9.69596 162.944 9.58663 163.112 9.50663 163.304C9.42663 163.496 9.36529 163.699 9.32263 163.912C9.27996 164.125 9.25329 164.344 9.24263 164.568C9.23196 164.792 9.22663 165.008 9.22663 165.216ZM14.6719 163.936C14.6719 163.813 14.6799 163.685 14.6959 163.552C14.7119 163.413 14.7439 163.288 14.7919 163.176C14.8453 163.059 14.9173 162.963 15.0079 162.888C15.0986 162.808 15.2186 162.768 15.3679 162.768C15.5226 162.768 15.6426 162.808 15.7279 162.888C15.8186 162.963 15.8879 163.059 15.9359 163.176C15.9839 163.288 16.0133 163.413 16.0239 163.552C16.0399 163.685 16.0479 163.811 16.0479 163.928C16.0479 164.051 16.0399 164.181 16.0239 164.32C16.0079 164.459 15.9733 164.587 15.9199 164.704C15.8719 164.816 15.8026 164.909 15.7119 164.984C15.6213 165.059 15.4986 165.096 15.3439 165.096C15.1946 165.096 15.0746 165.059 14.9839 164.984C14.8986 164.904 14.8319 164.808 14.7839 164.696C14.7359 164.579 14.7039 164.453 14.6879 164.32C14.6773 164.181 14.6719 164.053 14.6719 163.936ZM14.0719 163.952C14.0719 164.171 14.0933 164.376 14.1359 164.568C14.1839 164.76 14.2586 164.928 14.3599 165.072C14.4613 165.216 14.5946 165.331 14.7599 165.416C14.9253 165.496 15.1279 165.536 15.3679 165.536C15.6026 165.536 15.7999 165.491 15.9599 165.4C16.1199 165.309 16.2506 165.192 16.3519 165.048C16.4586 164.899 16.5333 164.728 16.5759 164.536C16.6239 164.339 16.6479 164.136 16.6479 163.928C16.6479 163.709 16.6266 163.504 16.5839 163.312C16.5466 163.115 16.4773 162.944 16.3759 162.8C16.2799 162.656 16.1493 162.541 15.9839 162.456C15.8239 162.371 15.6186 162.328 15.3679 162.328C15.1226 162.328 14.9173 162.373 14.7519 162.464C14.5866 162.549 14.4533 162.667 14.3519 162.816C14.2506 162.965 14.1786 163.139 14.1359 163.336C14.0933 163.528 14.0719 163.733 14.0719 163.952ZM18.6239 166.496C18.6239 166.373 18.6319 166.245 18.6479 166.112C18.6639 165.973 18.6959 165.848 18.7439 165.736C18.7973 165.619 18.8693 165.523 18.9599 165.448C19.0506 165.368 19.1706 165.328 19.3199 165.328C19.4746 165.328 19.5946 165.368 19.6799 165.448C19.7706 165.523 19.8399 165.619 19.8879 165.736C19.9359 165.848 19.9653 165.973 19.9759 166.112C19.9919 166.245 19.9999 166.371 19.9999 166.488C19.9999 166.611 19.9919 166.741 19.9759 166.88C19.9599 167.019 19.9253 167.147 19.8719 167.264C19.8239 167.376 19.7546 167.469 19.6639 167.544C19.5733 167.619 19.4506 167.656 19.2959 167.656C19.1466 167.656 19.0266 167.619 18.9359 167.544C18.8506 167.464 18.7839 167.368 18.7359 167.256C18.6879 167.139 18.6559 167.013 18.6399 166.88C18.6293 166.741 18.6239 166.613 18.6239 166.496ZM18.0239 166.512C18.0239 166.731 18.0453 166.936 18.0879 167.128C18.1359 167.32 18.2106 167.488 18.3119 167.632C18.4133 167.771 18.5466 167.883 18.7119 167.968C18.8773 168.048 19.0799 168.088 19.3199 168.088C19.5546 168.088 19.7519 168.045 19.9119 167.96C20.0719 167.869 20.2026 167.752 20.3039 167.608C20.4106 167.459 20.4853 167.288 20.5279 167.096C20.5759 166.899 20.5999 166.696 20.5999 166.488C20.5999 166.269 20.5786 166.064 20.5359 165.872C20.4986 165.675 20.4293 165.504 20.3279 165.36C20.2319 165.216 20.1013 165.101 19.9359 165.016C19.7759 164.931 19.5706 164.888 19.3199 164.888C19.0746 164.888 18.8693 164.933 18.7039 165.024C18.5386 165.109 18.4053 165.227 18.3039 165.376C18.2026 165.525 18.1306 165.699 18.0879 165.896C18.0453 166.088 18.0239 166.293 18.0239 166.512ZM19.1439 162.224L14.8399 168.168H15.5279L19.8239 162.224H19.1439Z" fill="#333333"/>
<path opacity="0.5" d="M1.744 132.76V133.336C1.872 133.32 2.008 133.312 2.152 133.312C2.32267 133.312 2.48 133.336 2.624 133.384C2.77333 133.427 2.90133 133.496 3.008 133.592C3.11467 133.683 3.2 133.797 3.264 133.936C3.328 134.069 3.36 134.224 3.36 134.4C3.36 134.571 3.32533 134.725 3.256 134.864C3.192 134.997 3.104 135.112 2.992 135.208C2.88 135.299 2.74933 135.371 2.6 135.424C2.45067 135.472 2.29333 135.496 2.128 135.496C1.73867 135.496 1.44267 135.381 1.24 135.152C1.03733 134.917 0.930667 134.616 0.92 134.248H0.24C0.234667 134.541 0.274667 134.803 0.36 135.032C0.450667 135.261 0.578667 135.456 0.744 135.616C0.909333 135.771 1.10933 135.888 1.344 135.968C1.57867 136.048 1.84 136.088 2.128 136.088C2.39467 136.088 2.64533 136.053 2.88 135.984C3.12 135.909 3.328 135.8 3.504 135.656C3.68 135.512 3.81867 135.333 3.92 135.12C4.02667 134.901 4.08 134.651 4.08 134.368C4.08 134.027 3.99467 133.731 3.824 133.48C3.65867 133.229 3.40267 133.067 3.056 132.992V132.976C3.28 132.875 3.46667 132.725 3.616 132.528C3.76533 132.331 3.84 132.104 3.84 131.848C3.84 131.587 3.79467 131.36 3.704 131.168C3.61867 130.976 3.49867 130.819 3.344 130.696C3.18933 130.573 3.00533 130.483 2.792 130.424C2.584 130.36 2.35733 130.328 2.112 130.328C1.82933 130.328 1.57867 130.373 1.36 130.464C1.14667 130.555 0.968 130.68 0.824 130.84C0.68 131 0.568 131.192 0.488 131.416C0.413333 131.64 0.370667 131.888 0.36 132.16H1.04C1.04 131.995 1.06133 131.837 1.104 131.688C1.14667 131.539 1.21067 131.408 1.296 131.296C1.38667 131.184 1.49867 131.096 1.632 131.032C1.77067 130.963 1.93067 130.928 2.112 130.928C2.4 130.928 2.64 131.005 2.832 131.16C3.024 131.309 3.12 131.536 3.12 131.84C3.12 131.989 3.09067 132.123 3.032 132.24C2.97333 132.357 2.89333 132.456 2.792 132.536C2.696 132.611 2.58133 132.669 2.448 132.712C2.32 132.749 2.184 132.768 2.04 132.768H1.896C1.86933 132.768 1.84267 132.768 1.816 132.768C1.79467 132.768 1.77067 132.765 1.744 132.76ZM5.50131 133.208C5.50131 133.069 5.50131 132.917 5.50131 132.752C5.50665 132.581 5.51998 132.413 5.54131 132.248C5.56798 132.077 5.60265 131.912 5.64531 131.752C5.69331 131.592 5.75998 131.453 5.84531 131.336C5.93598 131.213 6.04798 131.115 6.18131 131.04C6.31465 130.965 6.47731 130.928 6.66931 130.928C6.86131 130.928 7.02398 130.965 7.15731 131.04C7.29065 131.115 7.39998 131.213 7.48531 131.336C7.57598 131.453 7.64265 131.592 7.68531 131.752C7.73331 131.912 7.76798 132.077 7.78931 132.248C7.81598 132.413 7.82931 132.581 7.82931 132.752C7.83465 132.917 7.83731 133.069 7.83731 133.208C7.83731 133.421 7.82931 133.661 7.81331 133.928C7.80265 134.189 7.75998 134.437 7.68531 134.672C7.61598 134.901 7.50131 135.096 7.34131 135.256C7.18131 135.416 6.95731 135.496 6.66931 135.496C6.38131 135.496 6.15731 135.416 5.99731 135.256C5.83731 135.096 5.71998 134.901 5.64531 134.672C5.57598 134.437 5.53331 134.189 5.51731 133.928C5.50665 133.661 5.50131 133.421 5.50131 133.208ZM4.78131 133.216C4.78131 133.424 4.78665 133.64 4.79731 133.864C4.80798 134.088 4.83465 134.307 4.87731 134.52C4.91998 134.733 4.98131 134.936 5.06131 135.128C5.14131 135.315 5.25065 135.48 5.38931 135.624C5.52798 135.768 5.70131 135.883 5.90931 135.968C6.12265 136.048 6.37598 136.088 6.66931 136.088C6.96798 136.088 7.22131 136.048 7.42931 135.968C7.63731 135.883 7.81065 135.768 7.94931 135.624C8.08798 135.48 8.19731 135.315 8.27731 135.128C8.35731 134.936 8.41865 134.733 8.46131 134.52C8.50398 134.307 8.53065 134.088 8.54131 133.864C8.55198 133.64 8.55731 133.424 8.55731 133.216C8.55731 133.008 8.55198 132.792 8.54131 132.568C8.53065 132.344 8.50398 132.125 8.46131 131.912C8.41865 131.699 8.35731 131.496 8.27731 131.304C8.19731 131.112 8.08798 130.944 7.94931 130.8C7.81065 130.656 7.63465 130.541 7.42131 130.456C7.21331 130.371 6.96265 130.328 6.66931 130.328C6.37598 130.328 6.12265 130.371 5.90931 130.456C5.70131 130.541 5.52798 130.656 5.38931 130.8C5.25065 130.944 5.14131 131.112 5.06131 131.304C4.98131 131.496 4.91998 131.699 4.87731 131.912C4.83465 132.125 4.80798 132.344 4.79731 132.568C4.78665 132.792 4.78131 133.008 4.78131 133.216ZM9.94662 133.208C9.94662 133.069 9.94662 132.917 9.94662 132.752C9.95196 132.581 9.96529 132.413 9.98663 132.248C10.0133 132.077 10.048 131.912 10.0906 131.752C10.1386 131.592 10.2053 131.453 10.2906 131.336C10.3813 131.213 10.4933 131.115 10.6266 131.04C10.76 130.965 10.9226 130.928 11.1146 130.928C11.3066 130.928 11.4693 130.965 11.6026 131.04C11.736 131.115 11.8453 131.213 11.9306 131.336C12.0213 131.453 12.088 131.592 12.1306 131.752C12.1786 131.912 12.2133 132.077 12.2346 132.248C12.2613 132.413 12.2746 132.581 12.2746 132.752C12.28 132.917 12.2826 133.069 12.2826 133.208C12.2826 133.421 12.2746 133.661 12.2586 133.928C12.248 134.189 12.2053 134.437 12.1306 134.672C12.0613 134.901 11.9466 135.096 11.7866 135.256C11.6266 135.416 11.4026 135.496 11.1146 135.496C10.8266 135.496 10.6026 135.416 10.4426 135.256C10.2826 135.096 10.1653 134.901 10.0906 134.672C10.0213 134.437 9.97863 134.189 9.96263 133.928C9.95196 133.661 9.94662 133.421 9.94662 133.208ZM9.22663 133.216C9.22663 133.424 9.23196 133.64 9.24263 133.864C9.25329 134.088 9.27996 134.307 9.32263 134.52C9.36529 134.733 9.42663 134.936 9.50663 135.128C9.58663 135.315 9.69596 135.48 9.83463 135.624C9.97329 135.768 10.1466 135.883 10.3546 135.968C10.568 136.048 10.8213 136.088 11.1146 136.088C11.4133 136.088 11.6666 136.048 11.8746 135.968C12.0826 135.883 12.256 135.768 12.3946 135.624C12.5333 135.48 12.6426 135.315 12.7226 135.128C12.8026 134.936 12.864 134.733 12.9066 134.52C12.9493 134.307 12.976 134.088 12.9866 133.864C12.9973 133.64 13.0026 133.424 13.0026 133.216C13.0026 133.008 12.9973 132.792 12.9866 132.568C12.976 132.344 12.9493 132.125 12.9066 131.912C12.864 131.699 12.8026 131.496 12.7226 131.304C12.6426 131.112 12.5333 130.944 12.3946 130.8C12.256 130.656 12.08 130.541 11.8666 130.456C11.6586 130.371 11.408 130.328 11.1146 130.328C10.8213 130.328 10.568 130.371 10.3546 130.456C10.1466 130.541 9.97329 130.656 9.83463 130.8C9.69596 130.944 9.58663 131.112 9.50663 131.304C9.42663 131.496 9.36529 131.699 9.32263 131.912C9.27996 132.125 9.25329 132.344 9.24263 132.568C9.23196 132.792 9.22663 133.008 9.22663 133.216ZM14.6719 131.936C14.6719 131.813 14.6799 131.685 14.6959 131.552C14.7119 131.413 14.7439 131.288 14.7919 131.176C14.8453 131.059 14.9173 130.963 15.0079 130.888C15.0986 130.808 15.2186 130.768 15.3679 130.768C15.5226 130.768 15.6426 130.808 15.7279 130.888C15.8186 130.963 15.8879 131.059 15.9359 131.176C15.9839 131.288 16.0133 131.413 16.0239 131.552C16.0399 131.685 16.0479 131.811 16.0479 131.928C16.0479 132.051 16.0399 132.181 16.0239 132.32C16.0079 132.459 15.9733 132.587 15.9199 132.704C15.8719 132.816 15.8026 132.909 15.7119 132.984C15.6213 133.059 15.4986 133.096 15.3439 133.096C15.1946 133.096 15.0746 133.059 14.9839 132.984C14.8986 132.904 14.8319 132.808 14.7839 132.696C14.7359 132.579 14.7039 132.453 14.6879 132.32C14.6773 132.181 14.6719 132.053 14.6719 131.936ZM14.0719 131.952C14.0719 132.171 14.0933 132.376 14.1359 132.568C14.1839 132.76 14.2586 132.928 14.3599 133.072C14.4613 133.216 14.5946 133.331 14.7599 133.416C14.9253 133.496 15.1279 133.536 15.3679 133.536C15.6026 133.536 15.7999 133.491 15.9599 133.4C16.1199 133.309 16.2506 133.192 16.3519 133.048C16.4586 132.899 16.5333 132.728 16.5759 132.536C16.6239 132.339 16.6479 132.136 16.6479 131.928C16.6479 131.709 16.6266 131.504 16.5839 131.312C16.5466 131.115 16.4773 130.944 16.3759 130.8C16.2799 130.656 16.1493 130.541 15.9839 130.456C15.8239 130.371 15.6186 130.328 15.3679 130.328C15.1226 130.328 14.9173 130.373 14.7519 130.464C14.5866 130.549 14.4533 130.667 14.3519 130.816C14.2506 130.965 14.1786 131.139 14.1359 131.336C14.0933 131.528 14.0719 131.733 14.0719 131.952ZM18.6239 134.496C18.6239 134.373 18.6319 134.245 18.6479 134.112C18.6639 133.973 18.6959 133.848 18.7439 133.736C18.7973 133.619 18.8693 133.523 18.9599 133.448C19.0506 133.368 19.1706 133.328 19.3199 133.328C19.4746 133.328 19.5946 133.368 19.6799 133.448C19.7706 133.523 19.8399 133.619 19.8879 133.736C19.9359 133.848 19.9653 133.973 19.9759 134.112C19.9919 134.245 19.9999 134.371 19.9999 134.488C19.9999 134.611 19.9919 134.741 19.9759 134.88C19.9599 135.019 19.9253 135.147 19.8719 135.264C19.8239 135.376 19.7546 135.469 19.6639 135.544C19.5733 135.619 19.4506 135.656 19.2959 135.656C19.1466 135.656 19.0266 135.619 18.9359 135.544C18.8506 135.464 18.7839 135.368 18.7359 135.256C18.6879 135.139 18.6559 135.013 18.6399 134.88C18.6293 134.741 18.6239 134.613 18.6239 134.496ZM18.0239 134.512C18.0239 134.731 18.0453 134.936 18.0879 135.128C18.1359 135.32 18.2106 135.488 18.3119 135.632C18.4133 135.771 18.5466 135.883 18.7119 135.968C18.8773 136.048 19.0799 136.088 19.3199 136.088C19.5546 136.088 19.7519 136.045 19.9119 135.96C20.0719 135.869 20.2026 135.752 20.3039 135.608C20.4106 135.459 20.4853 135.288 20.5279 135.096C20.5759 134.899 20.5999 134.696 20.5999 134.488C20.5999 134.269 20.5786 134.064 20.5359 133.872C20.4986 133.675 20.4293 133.504 20.3279 133.36C20.2319 133.216 20.1013 133.101 19.9359 133.016C19.7759 132.931 19.5706 132.888 19.3199 132.888C19.0746 132.888 18.8693 132.933 18.7039 133.024C18.5386 133.109 18.4053 133.227 18.3039 133.376C18.2026 133.525 18.1306 133.699 18.0879 133.896C18.0453 134.088 18.0239 134.293 18.0239 134.512ZM19.1439 130.224L14.8399 136.168H15.5279L19.8239 130.224H19.1439Z" fill="#333333"/>
<path opacity="0.5" d="M2.712 102.072H0.808L2.696 99.296H2.712V102.072ZM3.352 102.072V98.328H2.808L0.224 102.016V102.672H2.712V104H3.352V102.672H4.12V102.072H3.352ZM5.50131 101.208C5.50131 101.069 5.50131 100.917 5.50131 100.752C5.50665 100.581 5.51998 100.413 5.54131 100.248C5.56798 100.077 5.60265 99.912 5.64531 99.752C5.69331 99.592 5.75998 99.4533 5.84531 99.336C5.93598 99.2133 6.04798 99.1147 6.18131 99.04C6.31465 98.9653 6.47731 98.928 6.66931 98.928C6.86131 98.928 7.02398 98.9653 7.15731 99.04C7.29065 99.1147 7.39998 99.2133 7.48531 99.336C7.57598 99.4533 7.64265 99.592 7.68531 99.752C7.73331 99.912 7.76798 100.077 7.78931 100.248C7.81598 100.413 7.82931 100.581 7.82931 100.752C7.83465 100.917 7.83731 101.069 7.83731 101.208C7.83731 101.421 7.82931 101.661 7.81331 101.928C7.80265 102.189 7.75998 102.437 7.68531 102.672C7.61598 102.901 7.50131 103.096 7.34131 103.256C7.18131 103.416 6.95731 103.496 6.66931 103.496C6.38131 103.496 6.15731 103.416 5.99731 103.256C5.83731 103.096 5.71998 102.901 5.64531 102.672C5.57598 102.437 5.53331 102.189 5.51731 101.928C5.50665 101.661 5.50131 101.421 5.50131 101.208ZM4.78131 101.216C4.78131 101.424 4.78665 101.64 4.79731 101.864C4.80798 102.088 4.83465 102.307 4.87731 102.52C4.91998 102.733 4.98131 102.936 5.06131 103.128C5.14131 103.315 5.25065 103.48 5.38931 103.624C5.52798 103.768 5.70131 103.883 5.90931 103.968C6.12265 104.048 6.37598 104.088 6.66931 104.088C6.96798 104.088 7.22131 104.048 7.42931 103.968C7.63731 103.883 7.81065 103.768 7.94931 103.624C8.08798 103.48 8.19731 103.315 8.27731 103.128C8.35731 102.936 8.41865 102.733 8.46131 102.52C8.50398 102.307 8.53065 102.088 8.54131 101.864C8.55198 101.64 8.55731 101.424 8.55731 101.216C8.55731 101.008 8.55198 100.792 8.54131 100.568C8.53065 100.344 8.50398 100.125 8.46131 99.912C8.41865 99.6987 8.35731 99.496 8.27731 99.304C8.19731 99.112 8.08798 98.944 7.94931 98.8C7.81065 98.656 7.63465 98.5413 7.42131 98.456C7.21331 98.3707 6.96265 98.328 6.66931 98.328C6.37598 98.328 6.12265 98.3707 5.90931 98.456C5.70131 98.5413 5.52798 98.656 5.38931 98.8C5.25065 98.944 5.14131 99.112 5.06131 99.304C4.98131 99.496 4.91998 99.6987 4.87731 99.912C4.83465 100.125 4.80798 100.344 4.79731 100.568C4.78665 100.792 4.78131 101.008 4.78131 101.216ZM9.94662 101.208C9.94662 101.069 9.94662 100.917 9.94662 100.752C9.95196 100.581 9.96529 100.413 9.98663 100.248C10.0133 100.077 10.048 99.912 10.0906 99.752C10.1386 99.592 10.2053 99.4533 10.2906 99.336C10.3813 99.2133 10.4933 99.1147 10.6266 99.04C10.76 98.9653 10.9226 98.928 11.1146 98.928C11.3066 98.928 11.4693 98.9653 11.6026 99.04C11.736 99.1147 11.8453 99.2133 11.9306 99.336C12.0213 99.4533 12.088 99.592 12.1306 99.752C12.1786 99.912 12.2133 100.077 12.2346 100.248C12.2613 100.413 12.2746 100.581 12.2746 100.752C12.28 100.917 12.2826 101.069 12.2826 101.208C12.2826 101.421 12.2746 101.661 12.2586 101.928C12.248 102.189 12.2053 102.437 12.1306 102.672C12.0613 102.901 11.9466 103.096 11.7866 103.256C11.6266 103.416 11.4026 103.496 11.1146 103.496C10.8266 103.496 10.6026 103.416 10.4426 103.256C10.2826 103.096 10.1653 102.901 10.0906 102.672C10.0213 102.437 9.97863 102.189 9.96263 101.928C9.95196 101.661 9.94662 101.421 9.94662 101.208ZM9.22663 101.216C9.22663 101.424 9.23196 101.64 9.24263 101.864C9.25329 102.088 9.27996 102.307 9.32263 102.52C9.36529 102.733 9.42663 102.936 9.50663 103.128C9.58663 103.315 9.69596 103.48 9.83463 103.624C9.97329 103.768 10.1466 103.883 10.3546 103.968C10.568 104.048 10.8213 104.088 11.1146 104.088C11.4133 104.088 11.6666 104.048 11.8746 103.968C12.0826 103.883 12.256 103.768 12.3946 103.624C12.5333 103.48 12.6426 103.315 12.7226 103.128C12.8026 102.936 12.864 102.733 12.9066 102.52C12.9493 102.307 12.976 102.088 12.9866 101.864C12.9973 101.64 13.0026 101.424 13.0026 101.216C13.0026 101.008 12.9973 100.792 12.9866 100.568C12.976 100.344 12.9493 100.125 12.9066 99.912C12.864 99.6987 12.8026 99.496 12.7226 99.304C12.6426 99.112 12.5333 98.944 12.3946 98.8C12.256 98.656 12.08 98.5413 11.8666 98.456C11.6586 98.3707 11.408 98.328 11.1146 98.328C10.8213 98.328 10.568 98.3707 10.3546 98.456C10.1466 98.5413 9.97329 98.656 9.83463 98.8C9.69596 98.944 9.58663 99.112 9.50663 99.304C9.42663 99.496 9.36529 99.6987 9.32263 99.912C9.27996 100.125 9.25329 100.344 9.24263 100.568C9.23196 100.792 9.22663 101.008 9.22663 101.216ZM14.6719 99.936C14.6719 99.8133 14.6799 99.6853 14.6959 99.552C14.7119 99.4133 14.7439 99.288 14.7919 99.176C14.8453 99.0587 14.9173 98.9627 15.0079 98.888C15.0986 98.808 15.2186 98.768 15.3679 98.768C15.5226 98.768 15.6426 98.808 15.7279 98.888C15.8186 98.9627 15.8879 99.0587 15.9359 99.176C15.9839 99.288 16.0133 99.4133 16.0239 99.552C16.0399 99.6853 16.0479 99.8107 16.0479 99.928C16.0479 100.051 16.0399 100.181 16.0239 100.32C16.0079 100.459 15.9733 100.587 15.9199 100.704C15.8719 100.816 15.8026 100.909 15.7119 100.984C15.6213 101.059 15.4986 101.096 15.3439 101.096C15.1946 101.096 15.0746 101.059 14.9839 100.984C14.8986 100.904 14.8319 100.808 14.7839 100.696C14.7359 100.579 14.7039 100.453 14.6879 100.32C14.6773 100.181 14.6719 100.053 14.6719 99.936ZM14.0719 99.952C14.0719 100.171 14.0933 100.376 14.1359 100.568C14.1839 100.76 14.2586 100.928 14.3599 101.072C14.4613 101.216 14.5946 101.331 14.7599 101.416C14.9253 101.496 15.1279 101.536 15.3679 101.536C15.6026 101.536 15.7999 101.491 15.9599 101.4C16.1199 101.309 16.2506 101.192 16.3519 101.048C16.4586 100.899 16.5333 100.728 16.5759 100.536C16.6239 100.339 16.6479 100.136 16.6479 99.928C16.6479 99.7093 16.6266 99.504 16.5839 99.312C16.5466 99.1147 16.4773 98.944 16.3759 98.8C16.2799 98.656 16.1493 98.5413 15.9839 98.456C15.8239 98.3707 15.6186 98.328 15.3679 98.328C15.1226 98.328 14.9173 98.3733 14.7519 98.464C14.5866 98.5493 14.4533 98.6667 14.3519 98.816C14.2506 98.9653 14.1786 99.1387 14.1359 99.336C14.0933 99.528 14.0719 99.7333 14.0719 99.952ZM18.6239 102.496C18.6239 102.373 18.6319 102.245 18.6479 102.112C18.6639 101.973 18.6959 101.848 18.7439 101.736C18.7973 101.619 18.8693 101.523 18.9599 101.448C19.0506 101.368 19.1706 101.328 19.3199 101.328C19.4746 101.328 19.5946 101.368 19.6799 101.448C19.7706 101.523 19.8399 101.619 19.8879 101.736C19.9359 101.848 19.9653 101.973 19.9759 102.112C19.9919 102.245 19.9999 102.371 19.9999 102.488C19.9999 102.611 19.9919 102.741 19.9759 102.88C19.9599 103.019 19.9253 103.147 19.8719 103.264C19.8239 103.376 19.7546 103.469 19.6639 103.544C19.5733 103.619 19.4506 103.656 19.2959 103.656C19.1466 103.656 19.0266 103.619 18.9359 103.544C18.8506 103.464 18.7839 103.368 18.7359 103.256C18.6879 103.139 18.6559 103.013 18.6399 102.88C18.6293 102.741 18.6239 102.613 18.6239 102.496ZM18.0239 102.512C18.0239 102.731 18.0453 102.936 18.0879 103.128C18.1359 103.32 18.2106 103.488 18.3119 103.632C18.4133 103.771 18.5466 103.883 18.7119 103.968C18.8773 104.048 19.0799 104.088 19.3199 104.088C19.5546 104.088 19.7519 104.045 19.9119 103.96C20.0719 103.869 20.2026 103.752 20.3039 103.608C20.4106 103.459 20.4853 103.288 20.5279 103.096C20.5759 102.899 20.5999 102.696 20.5999 102.488C20.5999 102.269 20.5786 102.064 20.5359 101.872C20.4986 101.675 20.4293 101.504 20.3279 101.36C20.2319 101.216 20.1013 101.101 19.9359 101.016C19.7759 100.931 19.5706 100.888 19.3199 100.888C19.0746 100.888 18.8693 100.933 18.7039 101.024C18.5386 101.109 18.4053 101.227 18.3039 101.376C18.2026 101.525 18.1306 101.699 18.0879 101.896C18.0453 102.088 18.0239 102.293 18.0239 102.512ZM19.1439 98.224L14.8399 104.168H15.5279L19.8239 98.224H19.1439Z" fill="#333333"/>
<path opacity="0.5" d="M3.76 67.024V66.424H0.96L0.432 69.368L1.016 69.4C1.14933 69.24 1.30133 69.112 1.472 69.016C1.648 68.9147 1.848 68.864 2.072 68.864C2.264 68.864 2.43733 68.896 2.592 68.96C2.752 69.024 2.888 69.1147 3 69.232C3.112 69.344 3.19733 69.48 3.256 69.64C3.32 69.7947 3.352 69.9653 3.352 70.152C3.352 70.376 3.32 70.5733 3.256 70.744C3.192 70.9093 3.104 71.048 2.992 71.16C2.88533 71.272 2.75733 71.3573 2.608 71.416C2.464 71.4693 2.312 71.496 2.152 71.496C1.98133 71.496 1.824 71.472 1.68 71.424C1.54133 71.3707 1.41867 71.2987 1.312 71.208C1.21067 71.112 1.128 71.0027 1.064 70.88C1.00533 70.752 0.970667 70.616 0.96 70.472H0.28C0.285333 70.728 0.336 70.9573 0.432 71.16C0.528 71.3627 0.658667 71.5333 0.824 71.672C0.989333 71.8053 1.17867 71.9093 1.392 71.984C1.61067 72.0533 1.84267 72.088 2.088 72.088C2.41867 72.088 2.70667 72.0373 2.952 71.936C3.20267 71.8293 3.41067 71.688 3.576 71.512C3.74133 71.336 3.864 71.136 3.944 70.912C4.02933 70.6827 4.072 70.448 4.072 70.208C4.072 69.8827 4.024 69.6 3.928 69.36C3.832 69.1147 3.70133 68.912 3.536 68.752C3.37067 68.5867 3.176 68.464 2.952 68.384C2.728 68.304 2.49067 68.264 2.24 68.264C2.048 68.264 1.85333 68.2987 1.656 68.368C1.464 68.432 1.30667 68.5333 1.184 68.672L1.168 68.656L1.472 67.024H3.76ZM5.50131 69.208C5.50131 69.0693 5.50131 68.9173 5.50131 68.752C5.50665 68.5813 5.51998 68.4133 5.54131 68.248C5.56798 68.0773 5.60265 67.912 5.64531 67.752C5.69331 67.592 5.75998 67.4533 5.84531 67.336C5.93598 67.2133 6.04798 67.1147 6.18131 67.04C6.31465 66.9653 6.47731 66.928 6.66931 66.928C6.86131 66.928 7.02398 66.9653 7.15731 67.04C7.29065 67.1147 7.39998 67.2133 7.48531 67.336C7.57598 67.4533 7.64265 67.592 7.68531 67.752C7.73331 67.912 7.76798 68.0773 7.78931 68.248C7.81598 68.4133 7.82931 68.5813 7.82931 68.752C7.83465 68.9173 7.83731 69.0693 7.83731 69.208C7.83731 69.4213 7.82931 69.6613 7.81331 69.928C7.80265 70.1893 7.75998 70.4373 7.68531 70.672C7.61598 70.9013 7.50131 71.096 7.34131 71.256C7.18131 71.416 6.95731 71.496 6.66931 71.496C6.38131 71.496 6.15731 71.416 5.99731 71.256C5.83731 71.096 5.71998 70.9013 5.64531 70.672C5.57598 70.4373 5.53331 70.1893 5.51731 69.928C5.50665 69.6613 5.50131 69.4213 5.50131 69.208ZM4.78131 69.216C4.78131 69.424 4.78665 69.64 4.79731 69.864C4.80798 70.088 4.83465 70.3067 4.87731 70.52C4.91998 70.7333 4.98131 70.936 5.06131 71.128C5.14131 71.3147 5.25065 71.48 5.38931 71.624C5.52798 71.768 5.70131 71.8827 5.90931 71.968C6.12265 72.048 6.37598 72.088 6.66931 72.088C6.96798 72.088 7.22131 72.048 7.42931 71.968C7.63731 71.8827 7.81065 71.768 7.94931 71.624C8.08798 71.48 8.19731 71.3147 8.27731 71.128C8.35731 70.936 8.41865 70.7333 8.46131 70.52C8.50398 70.3067 8.53065 70.088 8.54131 69.864C8.55198 69.64 8.55731 69.424 8.55731 69.216C8.55731 69.008 8.55198 68.792 8.54131 68.568C8.53065 68.344 8.50398 68.1253 8.46131 67.912C8.41865 67.6987 8.35731 67.496 8.27731 67.304C8.19731 67.112 8.08798 66.944 7.94931 66.8C7.81065 66.656 7.63465 66.5413 7.42131 66.456C7.21331 66.3707 6.96265 66.328 6.66931 66.328C6.37598 66.328 6.12265 66.3707 5.90931 66.456C5.70131 66.5413 5.52798 66.656 5.38931 66.8C5.25065 66.944 5.14131 67.112 5.06131 67.304C4.98131 67.496 4.91998 67.6987 4.87731 67.912C4.83465 68.1253 4.80798 68.344 4.79731 68.568C4.78665 68.792 4.78131 69.008 4.78131 69.216ZM9.94662 69.208C9.94662 69.0693 9.94662 68.9173 9.94662 68.752C9.95196 68.5813 9.96529 68.4133 9.98663 68.248C10.0133 68.0773 10.048 67.912 10.0906 67.752C10.1386 67.592 10.2053 67.4533 10.2906 67.336C10.3813 67.2133 10.4933 67.1147 10.6266 67.04C10.76 66.9653 10.9226 66.928 11.1146 66.928C11.3066 66.928 11.4693 66.9653 11.6026 67.04C11.736 67.1147 11.8453 67.2133 11.9306 67.336C12.0213 67.4533 12.088 67.592 12.1306 67.752C12.1786 67.912 12.2133 68.0773 12.2346 68.248C12.2613 68.4133 12.2746 68.5813 12.2746 68.752C12.28 68.9173 12.2826 69.0693 12.2826 69.208C12.2826 69.4213 12.2746 69.6613 12.2586 69.928C12.248 70.1893 12.2053 70.4373 12.1306 70.672C12.0613 70.9013 11.9466 71.096 11.7866 71.256C11.6266 71.416 11.4026 71.496 11.1146 71.496C10.8266 71.496 10.6026 71.416 10.4426 71.256C10.2826 71.096 10.1653 70.9013 10.0906 70.672C10.0213 70.4373 9.97863 70.1893 9.96263 69.928C9.95196 69.6613 9.94662 69.4213 9.94662 69.208ZM9.22663 69.216C9.22663 69.424 9.23196 69.64 9.24263 69.864C9.25329 70.088 9.27996 70.3067 9.32263 70.52C9.36529 70.7333 9.42663 70.936 9.50663 71.128C9.58663 71.3147 9.69596 71.48 9.83463 71.624C9.97329 71.768 10.1466 71.8827 10.3546 71.968C10.568 72.048 10.8213 72.088 11.1146 72.088C11.4133 72.088 11.6666 72.048 11.8746 71.968C12.0826 71.8827 12.256 71.768 12.3946 71.624C12.5333 71.48 12.6426 71.3147 12.7226 71.128C12.8026 70.936 12.864 70.7333 12.9066 70.52C12.9493 70.3067 12.976 70.088 12.9866 69.864C12.9973 69.64 13.0026 69.424 13.0026 69.216C13.0026 69.008 12.9973 68.792 12.9866 68.568C12.976 68.344 12.9493 68.1253 12.9066 67.912C12.864 67.6987 12.8026 67.496 12.7226 67.304C12.6426 67.112 12.5333 66.944 12.3946 66.8C12.256 66.656 12.08 66.5413 11.8666 66.456C11.6586 66.3707 11.408 66.328 11.1146 66.328C10.8213 66.328 10.568 66.3707 10.3546 66.456C10.1466 66.5413 9.97329 66.656 9.83463 66.8C9.69596 66.944 9.58663 67.112 9.50663 67.304C9.42663 67.496 9.36529 67.6987 9.32263 67.912C9.27996 68.1253 9.25329 68.344 9.24263 68.568C9.23196 68.792 9.22663 69.008 9.22663 69.216ZM14.6719 67.936C14.6719 67.8133 14.6799 67.6853 14.6959 67.552C14.7119 67.4133 14.7439 67.288 14.7919 67.176C14.8453 67.0587 14.9173 66.9627 15.0079 66.888C15.0986 66.808 15.2186 66.768 15.3679 66.768C15.5226 66.768 15.6426 66.808 15.7279 66.888C15.8186 66.9627 15.8879 67.0587 15.9359 67.176C15.9839 67.288 16.0133 67.4133 16.0239 67.552C16.0399 67.6853 16.0479 67.8107 16.0479 67.928C16.0479 68.0507 16.0399 68.1813 16.0239 68.32C16.0079 68.4587 15.9733 68.5867 15.9199 68.704C15.8719 68.816 15.8026 68.9093 15.7119 68.984C15.6213 69.0587 15.4986 69.096 15.3439 69.096C15.1946 69.096 15.0746 69.0587 14.9839 68.984C14.8986 68.904 14.8319 68.808 14.7839 68.696C14.7359 68.5787 14.7039 68.4533 14.6879 68.32C14.6773 68.1813 14.6719 68.0533 14.6719 67.936ZM14.0719 67.952C14.0719 68.1707 14.0933 68.376 14.1359 68.568C14.1839 68.76 14.2586 68.928 14.3599 69.072C14.4613 69.216 14.5946 69.3307 14.7599 69.416C14.9253 69.496 15.1279 69.536 15.3679 69.536C15.6026 69.536 15.7999 69.4907 15.9599 69.4C16.1199 69.3093 16.2506 69.192 16.3519 69.048C16.4586 68.8987 16.5333 68.728 16.5759 68.536C16.6239 68.3387 16.6479 68.136 16.6479 67.928C16.6479 67.7093 16.6266 67.504 16.5839 67.312C16.5466 67.1147 16.4773 66.944 16.3759 66.8C16.2799 66.656 16.1493 66.5413 15.9839 66.456C15.8239 66.3707 15.6186 66.328 15.3679 66.328C15.1226 66.328 14.9173 66.3733 14.7519 66.464C14.5866 66.5493 14.4533 66.6667 14.3519 66.816C14.2506 66.9653 14.1786 67.1387 14.1359 67.336C14.0933 67.528 14.0719 67.7333 14.0719 67.952ZM18.6239 70.496C18.6239 70.3733 18.6319 70.2453 18.6479 70.112C18.6639 69.9733 18.6959 69.848 18.7439 69.736C18.7973 69.6187 18.8693 69.5227 18.9599 69.448C19.0506 69.368 19.1706 69.328 19.3199 69.328C19.4746 69.328 19.5946 69.368 19.6799 69.448C19.7706 69.5227 19.8399 69.6187 19.8879 69.736C19.9359 69.848 19.9653 69.9733 19.9759 70.112C19.9919 70.2453 19.9999 70.3707 19.9999 70.488C19.9999 70.6107 19.9919 70.7413 19.9759 70.88C19.9599 71.0187 19.9253 71.1467 19.8719 71.264C19.8239 71.376 19.7546 71.4693 19.6639 71.544C19.5733 71.6187 19.4506 71.656 19.2959 71.656C19.1466 71.656 19.0266 71.6187 18.9359 71.544C18.8506 71.464 18.7839 71.368 18.7359 71.256C18.6879 71.1387 18.6559 71.0133 18.6399 70.88C18.6293 70.7413 18.6239 70.6133 18.6239 70.496ZM18.0239 70.512C18.0239 70.7307 18.0453 70.936 18.0879 71.128C18.1359 71.32 18.2106 71.488 18.3119 71.632C18.4133 71.7707 18.5466 71.8827 18.7119 71.968C18.8773 72.048 19.0799 72.088 19.3199 72.088C19.5546 72.088 19.7519 72.0453 19.9119 71.96C20.0719 71.8693 20.2026 71.752 20.3039 71.608C20.4106 71.4587 20.4853 71.288 20.5279 71.096C20.5759 70.8987 20.5999 70.696 20.5999 70.488C20.5999 70.2693 20.5786 70.064 20.5359 69.872C20.4986 69.6747 20.4293 69.504 20.3279 69.36C20.2319 69.216 20.1013 69.1013 19.9359 69.016C19.7759 68.9307 19.5706 68.888 19.3199 68.888C19.0746 68.888 18.8693 68.9333 18.7039 69.024C18.5386 69.1093 18.4053 69.2267 18.3039 69.376C18.2026 69.5253 18.1306 69.6987 18.0879 69.896C18.0453 70.088 18.0239 70.2933 18.0239 70.512ZM19.1439 66.224L14.8399 72.168H15.5279L19.8239 66.224H19.1439Z" fill="#333333"/>
<path opacity="0.5" d="M3.312 35.776H3.992C3.94933 35.3067 3.78933 34.9493 3.512 34.704C3.23467 34.4533 2.86133 34.328 2.392 34.328C1.98667 34.328 1.65067 34.4133 1.384 34.584C1.11733 34.7547 0.904 34.9813 0.744 35.264C0.584 35.5467 0.469333 35.872 0.4 36.24C0.336 36.6027 0.304 36.9787 0.304 37.368C0.304 37.6667 0.325333 37.976 0.368 38.296C0.416 38.616 0.509333 38.9093 0.648 39.176C0.786667 39.4427 0.984 39.6613 1.24 39.832C1.496 40.0027 1.83467 40.088 2.256 40.088C2.61333 40.088 2.912 40.0293 3.152 39.912C3.39733 39.7893 3.592 39.6373 3.736 39.456C3.88533 39.2693 3.992 39.064 4.056 38.84C4.12 38.616 4.152 38.4 4.152 38.192C4.152 37.9307 4.112 37.688 4.032 37.464C3.952 37.24 3.83733 37.0453 3.688 36.88C3.544 36.7147 3.36267 36.5867 3.144 36.496C2.93067 36.4 2.688 36.352 2.416 36.352C2.10667 36.352 1.832 36.4107 1.592 36.528C1.35733 36.6453 1.16 36.8347 1 37.096L0.984 37.08C0.989333 36.8613 1.01067 36.6267 1.048 36.376C1.08533 36.1253 1.152 35.8933 1.248 35.68C1.34933 35.4613 1.488 35.2827 1.664 35.144C1.84 35 2.072 34.928 2.36 34.928C2.632 34.928 2.85067 35.0053 3.016 35.16C3.18133 35.3147 3.28 35.52 3.312 35.776ZM2.288 36.952C2.48 36.952 2.648 36.9867 2.792 37.056C2.936 37.1253 3.056 37.2187 3.152 37.336C3.248 37.448 3.31733 37.584 3.36 37.744C3.408 37.8987 3.432 38.064 3.432 38.24C3.432 38.4053 3.40533 38.5653 3.352 38.72C3.304 38.8693 3.232 39.0027 3.136 39.12C3.04 39.2373 2.92 39.3307 2.776 39.4C2.63733 39.464 2.47467 39.496 2.288 39.496C2.10133 39.496 1.93333 39.464 1.784 39.4C1.64 39.3307 1.51733 39.24 1.416 39.128C1.32 39.016 1.24533 38.8827 1.192 38.728C1.13867 38.5733 1.112 38.408 1.112 38.232C1.112 38.056 1.136 37.8907 1.184 37.736C1.23733 37.576 1.31467 37.44 1.416 37.328C1.51733 37.2107 1.64 37.12 1.784 37.056C1.928 36.9867 2.096 36.952 2.288 36.952ZM5.50131 37.208C5.50131 37.0693 5.50131 36.9173 5.50131 36.752C5.50665 36.5813 5.51998 36.4133 5.54131 36.248C5.56798 36.0773 5.60265 35.912 5.64531 35.752C5.69331 35.592 5.75998 35.4533 5.84531 35.336C5.93598 35.2133 6.04798 35.1147 6.18131 35.04C6.31465 34.9653 6.47731 34.928 6.66931 34.928C6.86131 34.928 7.02398 34.9653 7.15731 35.04C7.29065 35.1147 7.39998 35.2133 7.48531 35.336C7.57598 35.4533 7.64265 35.592 7.68531 35.752C7.73331 35.912 7.76798 36.0773 7.78931 36.248C7.81598 36.4133 7.82931 36.5813 7.82931 36.752C7.83465 36.9173 7.83731 37.0693 7.83731 37.208C7.83731 37.4213 7.82931 37.6613 7.81331 37.928C7.80265 38.1893 7.75998 38.4373 7.68531 38.672C7.61598 38.9013 7.50131 39.096 7.34131 39.256C7.18131 39.416 6.95731 39.496 6.66931 39.496C6.38131 39.496 6.15731 39.416 5.99731 39.256C5.83731 39.096 5.71998 38.9013 5.64531 38.672C5.57598 38.4373 5.53331 38.1893 5.51731 37.928C5.50665 37.6613 5.50131 37.4213 5.50131 37.208ZM4.78131 37.216C4.78131 37.424 4.78665 37.64 4.79731 37.864C4.80798 38.088 4.83465 38.3067 4.87731 38.52C4.91998 38.7333 4.98131 38.936 5.06131 39.128C5.14131 39.3147 5.25065 39.48 5.38931 39.624C5.52798 39.768 5.70131 39.8827 5.90931 39.968C6.12265 40.048 6.37598 40.088 6.66931 40.088C6.96798 40.088 7.22131 40.048 7.42931 39.968C7.63731 39.8827 7.81065 39.768 7.94931 39.624C8.08798 39.48 8.19731 39.3147 8.27731 39.128C8.35731 38.936 8.41865 38.7333 8.46131 38.52C8.50398 38.3067 8.53065 38.088 8.54131 37.864C8.55198 37.64 8.55731 37.424 8.55731 37.216C8.55731 37.008 8.55198 36.792 8.54131 36.568C8.53065 36.344 8.50398 36.1253 8.46131 35.912C8.41865 35.6987 8.35731 35.496 8.27731 35.304C8.19731 35.112 8.08798 34.944 7.94931 34.8C7.81065 34.656 7.63465 34.5413 7.42131 34.456C7.21331 34.3707 6.96265 34.328 6.66931 34.328C6.37598 34.328 6.12265 34.3707 5.90931 34.456C5.70131 34.5413 5.52798 34.656 5.38931 34.8C5.25065 34.944 5.14131 35.112 5.06131 35.304C4.98131 35.496 4.91998 35.6987 4.87731 35.912C4.83465 36.1253 4.80798 36.344 4.79731 36.568C4.78665 36.792 4.78131 37.008 4.78131 37.216ZM9.94662 37.208C9.94662 37.0693 9.94662 36.9173 9.94662 36.752C9.95196 36.5813 9.96529 36.4133 9.98663 36.248C10.0133 36.0773 10.048 35.912 10.0906 35.752C10.1386 35.592 10.2053 35.4533 10.2906 35.336C10.3813 35.2133 10.4933 35.1147 10.6266 35.04C10.76 34.9653 10.9226 34.928 11.1146 34.928C11.3066 34.928 11.4693 34.9653 11.6026 35.04C11.736 35.1147 11.8453 35.2133 11.9306 35.336C12.0213 35.4533 12.088 35.592 12.1306 35.752C12.1786 35.912 12.2133 36.0773 12.2346 36.248C12.2613 36.4133 12.2746 36.5813 12.2746 36.752C12.28 36.9173 12.2826 37.0693 12.2826 37.208C12.2826 37.4213 12.2746 37.6613 12.2586 37.928C12.248 38.1893 12.2053 38.4373 12.1306 38.672C12.0613 38.9013 11.9466 39.096 11.7866 39.256C11.6266 39.416 11.4026 39.496 11.1146 39.496C10.8266 39.496 10.6026 39.416 10.4426 39.256C10.2826 39.096 10.1653 38.9013 10.0906 38.672C10.0213 38.4373 9.97863 38.1893 9.96263 37.928C9.95196 37.6613 9.94662 37.4213 9.94662 37.208ZM9.22663 37.216C9.22663 37.424 9.23196 37.64 9.24263 37.864C9.25329 38.088 9.27996 38.3067 9.32263 38.52C9.36529 38.7333 9.42663 38.936 9.50663 39.128C9.58663 39.3147 9.69596 39.48 9.83463 39.624C9.97329 39.768 10.1466 39.8827 10.3546 39.968C10.568 40.048 10.8213 40.088 11.1146 40.088C11.4133 40.088 11.6666 40.048 11.8746 39.968C12.0826 39.8827 12.256 39.768 12.3946 39.624C12.5333 39.48 12.6426 39.3147 12.7226 39.128C12.8026 38.936 12.864 38.7333 12.9066 38.52C12.9493 38.3067 12.976 38.088 12.9866 37.864C12.9973 37.64 13.0026 37.424 13.0026 37.216C13.0026 37.008 12.9973 36.792 12.9866 36.568C12.976 36.344 12.9493 36.1253 12.9066 35.912C12.864 35.6987 12.8026 35.496 12.7226 35.304C12.6426 35.112 12.5333 34.944 12.3946 34.8C12.256 34.656 12.08 34.5413 11.8666 34.456C11.6586 34.3707 11.408 34.328 11.1146 34.328C10.8213 34.328 10.568 34.3707 10.3546 34.456C10.1466 34.5413 9.97329 34.656 9.83463 34.8C9.69596 34.944 9.58663 35.112 9.50663 35.304C9.42663 35.496 9.36529 35.6987 9.32263 35.912C9.27996 36.1253 9.25329 36.344 9.24263 36.568C9.23196 36.792 9.22663 37.008 9.22663 37.216ZM14.6719 35.936C14.6719 35.8133 14.6799 35.6853 14.6959 35.552C14.7119 35.4133 14.7439 35.288 14.7919 35.176C14.8453 35.0587 14.9173 34.9627 15.0079 34.888C15.0986 34.808 15.2186 34.768 15.3679 34.768C15.5226 34.768 15.6426 34.808 15.7279 34.888C15.8186 34.9627 15.8879 35.0587 15.9359 35.176C15.9839 35.288 16.0133 35.4133 16.0239 35.552C16.0399 35.6853 16.0479 35.8107 16.0479 35.928C16.0479 36.0507 16.0399 36.1813 16.0239 36.32C16.0079 36.4587 15.9733 36.5867 15.9199 36.704C15.8719 36.816 15.8026 36.9093 15.7119 36.984C15.6213 37.0587 15.4986 37.096 15.3439 37.096C15.1946 37.096 15.0746 37.0587 14.9839 36.984C14.8986 36.904 14.8319 36.808 14.7839 36.696C14.7359 36.5787 14.7039 36.4533 14.6879 36.32C14.6773 36.1813 14.6719 36.0533 14.6719 35.936ZM14.0719 35.952C14.0719 36.1707 14.0933 36.376 14.1359 36.568C14.1839 36.76 14.2586 36.928 14.3599 37.072C14.4613 37.216 14.5946 37.3307 14.7599 37.416C14.9253 37.496 15.1279 37.536 15.3679 37.536C15.6026 37.536 15.7999 37.4907 15.9599 37.4C16.1199 37.3093 16.2506 37.192 16.3519 37.048C16.4586 36.8987 16.5333 36.728 16.5759 36.536C16.6239 36.3387 16.6479 36.136 16.6479 35.928C16.6479 35.7093 16.6266 35.504 16.5839 35.312C16.5466 35.1147 16.4773 34.944 16.3759 34.8C16.2799 34.656 16.1493 34.5413 15.9839 34.456C15.8239 34.3707 15.6186 34.328 15.3679 34.328C15.1226 34.328 14.9173 34.3733 14.7519 34.464C14.5866 34.5493 14.4533 34.6667 14.3519 34.816C14.2506 34.9653 14.1786 35.1387 14.1359 35.336C14.0933 35.528 14.0719 35.7333 14.0719 35.952ZM18.6239 38.496C18.6239 38.3733 18.6319 38.2453 18.6479 38.112C18.6639 37.9733 18.6959 37.848 18.7439 37.736C18.7973 37.6187 18.8693 37.5227 18.9599 37.448C19.0506 37.368 19.1706 37.328 19.3199 37.328C19.4746 37.328 19.5946 37.368 19.6799 37.448C19.7706 37.5227 19.8399 37.6187 19.8879 37.736C19.9359 37.848 19.9653 37.9733 19.9759 38.112C19.9919 38.2453 19.9999 38.3707 19.9999 38.488C19.9999 38.6107 19.9919 38.7413 19.9759 38.88C19.9599 39.0187 19.9253 39.1467 19.8719 39.264C19.8239 39.376 19.7546 39.4693 19.6639 39.544C19.5733 39.6187 19.4506 39.656 19.2959 39.656C19.1466 39.656 19.0266 39.6187 18.9359 39.544C18.8506 39.464 18.7839 39.368 18.7359 39.256C18.6879 39.1387 18.6559 39.0133 18.6399 38.88C18.6293 38.7413 18.6239 38.6133 18.6239 38.496ZM18.0239 38.512C18.0239 38.7307 18.0453 38.936 18.0879 39.128C18.1359 39.32 18.2106 39.488 18.3119 39.632C18.4133 39.7707 18.5466 39.8827 18.7119 39.968C18.8773 40.048 19.0799 40.088 19.3199 40.088C19.5546 40.088 19.7519 40.0453 19.9119 39.96C20.0719 39.8693 20.2026 39.752 20.3039 39.608C20.4106 39.4587 20.4853 39.288 20.5279 39.096C20.5759 38.8987 20.5999 38.696 20.5999 38.488C20.5999 38.2693 20.5786 38.064 20.5359 37.872C20.4986 37.6747 20.4293 37.504 20.3279 37.36C20.2319 37.216 20.1013 37.1013 19.9359 37.016C19.7759 36.9307 19.5706 36.888 19.3199 36.888C19.0746 36.888 18.8693 36.9333 18.7039 37.024C18.5386 37.1093 18.4053 37.2267 18.3039 37.376C18.2026 37.5253 18.1306 37.6987 18.0879 37.896C18.0453 38.088 18.0239 38.2933 18.0239 38.512ZM19.1439 34.224L14.8399 40.168H15.5279L19.8239 34.224H19.1439Z" fill="#333333"/>
<path opacity="0.5" d="M4.072 3.008V2.424H0.4V3.064H3.376C3.07733 3.37867 2.79733 3.72267 2.536 4.096C2.28 4.46933 2.05333 4.86667 1.856 5.288C1.65867 5.704 1.496 6.14133 1.368 6.6C1.24533 7.05333 1.168 7.52 1.136 8H1.896C1.92267 7.55733 1.99733 7.10133 2.12 6.632C2.24267 6.16267 2.4 5.70667 2.592 5.264C2.78933 4.82133 3.01333 4.40533 3.264 4.016C3.51467 3.62667 3.784 3.29067 4.072 3.008ZM5.50131 5.208C5.50131 5.06933 5.50131 4.91733 5.50131 4.752C5.50665 4.58133 5.51998 4.41333 5.54131 4.248C5.56798 4.07733 5.60265 3.912 5.64531 3.752C5.69331 3.592 5.75998 3.45333 5.84531 3.336C5.93598 3.21333 6.04798 3.11467 6.18131 3.04C6.31465 2.96533 6.47731 2.928 6.66931 2.928C6.86131 2.928 7.02398 2.96533 7.15731 3.04C7.29065 3.11467 7.39998 3.21333 7.48531 3.336C7.57598 3.45333 7.64265 3.592 7.68531 3.752C7.73331 3.912 7.76798 4.07733 7.78931 4.248C7.81598 4.41333 7.82931 4.58133 7.82931 4.752C7.83465 4.91733 7.83731 5.06933 7.83731 5.208C7.83731 5.42133 7.82931 5.66133 7.81331 5.928C7.80265 6.18933 7.75998 6.43733 7.68531 6.672C7.61598 6.90133 7.50131 7.096 7.34131 7.256C7.18131 7.416 6.95731 7.496 6.66931 7.496C6.38131 7.496 6.15731 7.416 5.99731 7.256C5.83731 7.096 5.71998 6.90133 5.64531 6.672C5.57598 6.43733 5.53331 6.18933 5.51731 5.928C5.50665 5.66133 5.50131 5.42133 5.50131 5.208ZM4.78131 5.216C4.78131 5.424 4.78665 5.64 4.79731 5.864C4.80798 6.088 4.83465 6.30667 4.87731 6.52C4.91998 6.73333 4.98131 6.936 5.06131 7.128C5.14131 7.31467 5.25065 7.48 5.38931 7.624C5.52798 7.768 5.70131 7.88267 5.90931 7.968C6.12265 8.048 6.37598 8.088 6.66931 8.088C6.96798 8.088 7.22131 8.048 7.42931 7.968C7.63731 7.88267 7.81065 7.768 7.94931 7.624C8.08798 7.48 8.19731 7.31467 8.27731 7.128C8.35731 6.936 8.41865 6.73333 8.46131 6.52C8.50398 6.30667 8.53065 6.088 8.54131 5.864C8.55198 5.64 8.55731 5.424 8.55731 5.216C8.55731 5.008 8.55198 4.792 8.54131 4.568C8.53065 4.344 8.50398 4.12533 8.46131 3.912C8.41865 3.69867 8.35731 3.496 8.27731 3.304C8.19731 3.112 8.08798 2.944 7.94931 2.8C7.81065 2.656 7.63465 2.54133 7.42131 2.456C7.21331 2.37067 6.96265 2.328 6.66931 2.328C6.37598 2.328 6.12265 2.37067 5.90931 2.456C5.70131 2.54133 5.52798 2.656 5.38931 2.8C5.25065 2.944 5.14131 3.112 5.06131 3.304C4.98131 3.496 4.91998 3.69867 4.87731 3.912C4.83465 4.12533 4.80798 4.344 4.79731 4.568C4.78665 4.792 4.78131 5.008 4.78131 5.216ZM9.94662 5.208C9.94662 5.06933 9.94662 4.91733 9.94662 4.752C9.95196 4.58133 9.96529 4.41333 9.98663 4.248C10.0133 4.07733 10.048 3.912 10.0906 3.752C10.1386 3.592 10.2053 3.45333 10.2906 3.336C10.3813 3.21333 10.4933 3.11467 10.6266 3.04C10.76 2.96533 10.9226 2.928 11.1146 2.928C11.3066 2.928 11.4693 2.96533 11.6026 3.04C11.736 3.11467 11.8453 3.21333 11.9306 3.336C12.0213 3.45333 12.088 3.592 12.1306 3.752C12.1786 3.912 12.2133 4.07733 12.2346 4.248C12.2613 4.41333 12.2746 4.58133 12.2746 4.752C12.28 4.91733 12.2826 5.06933 12.2826 5.208C12.2826 5.42133 12.2746 5.66133 12.2586 5.928C12.248 6.18933 12.2053 6.43733 12.1306 6.672C12.0613 6.90133 11.9466 7.096 11.7866 7.256C11.6266 7.416 11.4026 7.496 11.1146 7.496C10.8266 7.496 10.6026 7.416 10.4426 7.256C10.2826 7.096 10.1653 6.90133 10.0906 6.672C10.0213 6.43733 9.97863 6.18933 9.96263 5.928C9.95196 5.66133 9.94662 5.42133 9.94662 5.208ZM9.22663 5.216C9.22663 5.424 9.23196 5.64 9.24263 5.864C9.25329 6.088 9.27996 6.30667 9.32263 6.52C9.36529 6.73333 9.42663 6.936 9.50663 7.128C9.58663 7.31467 9.69596 7.48 9.83463 7.624C9.97329 7.768 10.1466 7.88267 10.3546 7.968C10.568 8.048 10.8213 8.088 11.1146 8.088C11.4133 8.088 11.6666 8.048 11.8746 7.968C12.0826 7.88267 12.256 7.768 12.3946 7.624C12.5333 7.48 12.6426 7.31467 12.7226 7.128C12.8026 6.936 12.864 6.73333 12.9066 6.52C12.9493 6.30667 12.976 6.088 12.9866 5.864C12.9973 5.64 13.0026 5.424 13.0026 5.216C13.0026 5.008 12.9973 4.792 12.9866 4.568C12.976 4.344 12.9493 4.12533 12.9066 3.912C12.864 3.69867 12.8026 3.496 12.7226 3.304C12.6426 3.112 12.5333 2.944 12.3946 2.8C12.256 2.656 12.08 2.54133 11.8666 2.456C11.6586 2.37067 11.408 2.328 11.1146 2.328C10.8213 2.328 10.568 2.37067 10.3546 2.456C10.1466 2.54133 9.97329 2.656 9.83463 2.8C9.69596 2.944 9.58663 3.112 9.50663 3.304C9.42663 3.496 9.36529 3.69867 9.32263 3.912C9.27996 4.12533 9.25329 4.344 9.24263 4.568C9.23196 4.792 9.22663 5.008 9.22663 5.216ZM14.6719 3.936C14.6719 3.81333 14.6799 3.68533 14.6959 3.552C14.7119 3.41333 14.7439 3.288 14.7919 3.176C14.8453 3.05867 14.9173 2.96267 15.0079 2.888C15.0986 2.808 15.2186 2.768 15.3679 2.768C15.5226 2.768 15.6426 2.808 15.7279 2.888C15.8186 2.96267 15.8879 3.05867 15.9359 3.176C15.9839 3.288 16.0133 3.41333 16.0239 3.552C16.0399 3.68533 16.0479 3.81067 16.0479 3.928C16.0479 4.05067 16.0399 4.18133 16.0239 4.32C16.0079 4.45867 15.9733 4.58667 15.9199 4.704C15.8719 4.816 15.8026 4.90933 15.7119 4.984C15.6213 5.05867 15.4986 5.096 15.3439 5.096C15.1946 5.096 15.0746 5.05867 14.9839 4.984C14.8986 4.904 14.8319 4.808 14.7839 4.696C14.7359 4.57867 14.7039 4.45333 14.6879 4.32C14.6773 4.18133 14.6719 4.05333 14.6719 3.936ZM14.0719 3.952C14.0719 4.17067 14.0933 4.376 14.1359 4.568C14.1839 4.76 14.2586 4.928 14.3599 5.072C14.4613 5.216 14.5946 5.33067 14.7599 5.416C14.9253 5.496 15.1279 5.536 15.3679 5.536C15.6026 5.536 15.7999 5.49067 15.9599 5.4C16.1199 5.30933 16.2506 5.192 16.3519 5.048C16.4586 4.89867 16.5333 4.728 16.5759 4.536C16.6239 4.33867 16.6479 4.136 16.6479 3.928C16.6479 3.70933 16.6266 3.504 16.5839 3.312C16.5466 3.11467 16.4773 2.944 16.3759 2.8C16.2799 2.656 16.1493 2.54133 15.9839 2.456C15.8239 2.37067 15.6186 2.328 15.3679 2.328C15.1226 2.328 14.9173 2.37333 14.7519 2.464C14.5866 2.54933 14.4533 2.66667 14.3519 2.816C14.2506 2.96533 14.1786 3.13867 14.1359 3.336C14.0933 3.528 14.0719 3.73333 14.0719 3.952ZM18.6239 6.496C18.6239 6.37333 18.6319 6.24533 18.6479 6.112C18.6639 5.97333 18.6959 5.848 18.7439 5.736C18.7973 5.61867 18.8693 5.52267 18.9599 5.448C19.0506 5.368 19.1706 5.328 19.3199 5.328C19.4746 5.328 19.5946 5.368 19.6799 5.448C19.7706 5.52267 19.8399 5.61867 19.8879 5.736C19.9359 5.848 19.9653 5.97333 19.9759 6.112C19.9919 6.24533 19.9999 6.37067 19.9999 6.488C19.9999 6.61067 19.9919 6.74133 19.9759 6.88C19.9599 7.01867 19.9253 7.14667 19.8719 7.264C19.8239 7.376 19.7546 7.46933 19.6639 7.544C19.5733 7.61867 19.4506 7.656 19.2959 7.656C19.1466 7.656 19.0266 7.61867 18.9359 7.544C18.8506 7.464 18.7839 7.368 18.7359 7.256C18.6879 7.13867 18.6559 7.01333 18.6399 6.88C18.6293 6.74133 18.6239 6.61333 18.6239 6.496ZM18.0239 6.512C18.0239 6.73067 18.0453 6.936 18.0879 7.128C18.1359 7.32 18.2106 7.488 18.3119 7.632C18.4133 7.77067 18.5466 7.88267 18.7119 7.968C18.8773 8.048 19.0799 8.088 19.3199 8.088C19.5546 8.088 19.7519 8.04533 19.9119 7.96C20.0719 7.86933 20.2026 7.752 20.3039 7.608C20.4106 7.45867 20.4853 7.288 20.5279 7.096C20.5759 6.89867 20.5999 6.696 20.5999 6.488C20.5999 6.26933 20.5786 6.064 20.5359 5.872C20.4986 5.67467 20.4293 5.504 20.3279 5.36C20.2319 5.216 20.1013 5.10133 19.9359 5.016C19.7759 4.93067 19.5706 4.888 19.3199 4.888C19.0746 4.888 18.8693 4.93333 18.7039 5.024C18.5386 5.10933 18.4053 5.22667 18.3039 5.376C18.2026 5.52533 18.1306 5.69867 18.0879 5.896C18.0453 6.088 18.0239 6.29333 18.0239 6.512ZM19.1439 2.224L14.8399 8.168H15.5279L19.8239 2.224H19.1439Z" fill="#333333"/>
<g filter="url(#filter0_d)">
<path d="M37.5874 164.506L39.9284 147.677C40.9075 150.814 44.7478 156.5 52.2764 154.15C61.6872 151.213 79.0948 142.56 79.7224 138.537C80.2244 135.318 89.0142 122.697 93.3464 116.788L103.195 129.267L138.676 124.996L146.405 104.602C155.796 102.703 174.974 99.2812 176.559 100.779C178.541 102.651 184.316 107.531 191.516 105.102C197.276 103.158 215.128 88.5585 223.334 81.5017L229.589 61.4459C232.842 57.5955 240.052 49.578 242.864 48.3114C246.38 46.7282 252.444 46.111 256.866 45.0955C260.403 44.283 269.606 37.5144 273.766 34.2317L292.189 30.0002" stroke="url(#paint0_linear)" stroke-width="4"/>
</g>
<defs>
<filter id="filter0_d" x="15.7305" y="27.0508" width="296.205" height="143.568" filterUnits="userSpaceOnUse" color-interpolation-filters="sRGB">
<feFlood flood-opacity="0" result="BackgroundImageFix"/>
<feColorMatrix in="SourceAlpha" type="matrix" values="0 0 0 0 0 0 0 0 0 0 0 0 0 0 0 0 0 0 127 0"/>
<feOffset dy="2"/>
<feGaussianBlur stdDeviation="1.5"/>
<feColorMatrix type="matrix" values="0 0 0 0 0 0 0 0 0 0 0 0 0 0 0 0 0 0 0.25 0"/>
<feBlend mode="normal" in2="BackgroundImageFix" result="effect1_dropShadow"/>
<feBlend mode="normal" in="SourceGraphic" in2="effect1_dropShadow" result="shape"/>
</filter>
<linearGradient id="paint0_linear" x1="29.8095" y1="177.931" x2="291.741" y2="24.6731" gradientUnits="userSpaceOnUse">
<stop stop-color="#A49038"/>
<stop offset="1" stop-color="#EDBD41"/>
</linearGradient>
</defs>
</svg>
